<svg width="855" height="859" viewBox="0 0 855 859" fill="none" xmlns="http://www.w3.org/2000/svg">
<path d="M296.3 353.3C303.316 358.757 311.728 362.128 320.571 363.027C329.415 363.925 338.332 362.314 346.302 358.379C354.273 354.443 360.973 348.343 365.637 340.776C370.301 333.208 372.739 324.481 372.672 315.592C372.605 306.703 370.035 298.013 365.258 290.517C360.481 283.021 353.689 277.022 345.66 273.208C337.631 269.393 328.691 267.917 319.862 268.948C311.033 269.98 302.673 273.477 295.74 279.04L285.38 271.04L269.96 275.86L271.72 260.44L258.72 250.34L243.32 255.14L245.08 239.72L233.9 231.04L224.5 233.96L225.58 224.56L219 219.44L204.24 220.88L202.24 243.56L279.56 303.66C277.157 312.663 277.464 322.175 280.442 331.005C283.419 339.835 288.936 347.59 296.3 353.3ZM352.64 337.16C350.995 339.277 348.759 340.858 346.215 341.705C343.671 342.551 340.933 342.624 338.347 341.915C335.762 341.206 333.444 339.747 331.688 337.721C329.932 335.695 328.816 333.194 328.48 330.534C328.145 327.874 328.606 325.174 329.804 322.776C331.003 320.378 332.886 318.389 335.214 317.06C337.543 315.732 340.213 315.123 342.888 315.312C345.562 315.5 348.121 316.478 350.24 318.12C353.076 320.331 354.921 323.576 355.371 327.144C355.821 330.713 354.839 334.314 352.64 337.16Z" fill="#E3F1F6"/>
<path d="M358.62 172.54C361.634 168.856 363.55 164.397 364.148 159.675C364.746 154.952 364.001 150.157 362 145.838C359.998 141.519 356.821 137.851 352.831 135.255C348.842 132.658 344.201 131.238 339.442 131.157C334.683 131.075 329.996 132.336 325.92 134.795C321.844 137.253 318.543 140.81 316.395 145.058C314.247 149.306 313.339 154.073 313.775 158.813C314.211 163.554 315.973 168.075 318.86 171.86L314.4 177.3L316.78 185.62L308.54 184.48L303 191.32L305.38 199.64L297.16 198.48L292.36 204.36L293.8 209.42L288.78 208.72L286 212.14L286.58 220.14L298.7 221.5L331.86 180.88C336.646 182.274 341.737 182.226 346.497 180.743C351.256 179.26 355.473 176.406 358.62 172.54ZM350.62 142.18C351.731 143.09 352.547 144.308 352.965 145.682C353.383 147.055 353.385 148.522 352.969 149.896C352.554 151.27 351.741 152.491 350.632 153.403C349.523 154.315 348.169 154.878 346.741 155.02C345.312 155.163 343.873 154.879 342.606 154.204C341.339 153.529 340.301 152.493 339.622 151.228C338.943 149.963 338.655 148.525 338.793 147.096C338.932 145.667 339.491 144.311 340.4 143.2C341.003 142.448 341.75 141.823 342.598 141.364C343.445 140.904 344.376 140.619 345.335 140.524C346.295 140.429 347.264 140.526 348.185 140.811C349.106 141.095 349.961 141.561 350.7 142.18H350.62Z" fill="#E3F1F6"/>
<path d="M251.64 0.73999V147.5H40.82L33.24 1.75999L251.64 0.73999Z" fill="#E0E0E0"/>
<path d="M33.24 1.75996L33.24 147.2H244.06V1.75996H33.24Z" fill="white"/>
<path d="M245 148.2H32.24V0.76001H245V148.2ZM34.2 146.2H243V2.76001H34.24L34.2 146.2Z" fill="#E0E0E0"/>
<path d="M221.2 19.8201H56.0601V129.12H221.2V19.8201Z" fill="white"/>
<path d="M221.22 19.8201H220.4H218.04L209 20.0001H175L56.12 20.2401L56.6 19.7601C56.6 53.1601 56.6 90.1601 56.6 129.06L56.08 128.54L221.24 128.66L220.82 129.06C220.82 95.8001 220.98 68.5401 221.04 49.5401C221.04 40.0401 221.04 32.6401 221.14 27.5401C221.14 25.0201 221.14 23.1001 221.14 21.7601C221.14 20.4201 221.14 19.7601 221.14 19.7601C221.14 19.7601 221.14 20.4001 221.14 21.7601C221.14 23.1201 221.14 24.9801 221.14 27.4601C221.14 32.5201 221.14 39.9201 221.14 49.4601C221.14 68.5201 221.28 95.8801 221.36 129.24V129.66H220.96H55.8H55.28V129.12C55.28 90.2201 55.28 53.2201 55.28 19.8201V19.3401H55.76L174.96 19.5801L208.96 19.7201H217.94H220.24L221.22 19.8201Z" fill="#E0E0E0"/>
<path d="M33.22 1.34009C34.5223 1.98014 35.7442 2.77234 36.86 3.70009C39.02 5.26009 41.94 7.46009 45.12 10.0001C48.3 12.5401 51.12 14.9401 53.12 16.7401C54.2501 17.638 55.2645 18.6725 56.14 19.8201C55.94 20.0401 50.88 15.8201 44.54 10.8201C40.573 7.8988 36.7923 4.73264 33.22 1.34009Z" fill="#E0E0E0"/>
<path d="M244.04 1.76001C240.585 5.16014 236.896 8.31449 233 11.2C229.292 14.3433 225.369 17.2236 221.26 19.82C224.728 16.4184 228.431 13.264 232.34 10.38C236.033 7.2353 239.942 4.35483 244.04 1.76001Z" fill="#E0E0E0"/>
<path d="M243.88 147.22L220.38 128.16L243.88 147.22Z" fill="white"/>
<path d="M220.38 128.16C224.58 130.927 228.589 133.974 232.38 137.28C236.404 140.356 240.219 143.697 243.8 147.28C239.596 144.518 235.586 141.471 231.8 138.16C227.759 135.104 223.943 131.762 220.38 128.16Z" fill="#E0E0E0"/>
<path d="M33.22 147.2C36.6542 143.831 40.3234 140.709 44.2 137.86C47.8695 134.746 51.7523 131.892 55.82 129.32C52.4047 132.708 48.7411 135.837 44.86 138.68C41.187 141.793 37.2972 144.64 33.22 147.2Z" fill="#E0E0E0"/>
<path d="M89.6001 53.88V90.48H193.52V53.88L89.6001 53.88Z" fill="#E0E0E0"/>
<path d="M775 834.4C775 834.68 603.24 834.92 391.4 834.92C179.56 834.92 7.73999 834.68 7.73999 834.4C7.73999 834.12 179.48 833.88 391.4 833.88C603.32 833.88 775 834.12 775 834.4Z" fill="#263238"/>
<path d="M614.58 762L664.08 833.98L681.78 834.4L649.34 760.38L614.58 762Z" fill="#263238"/>
<path d="M92.2399 765.66L66.1599 833.66H79.1999L124.74 765.96L92.2399 765.66Z" fill="#263238"/>
<path d="M81 518.6L83 606.6C83.1273 612.587 85.5613 618.295 89.7943 622.531C94.0273 626.768 99.7324 629.207 105.72 629.34L598.1 640.3C601.198 640.369 604.279 639.819 607.161 638.681C610.043 637.543 612.669 635.841 614.884 633.674C617.1 631.507 618.86 628.919 620.061 626.063C621.262 623.206 621.881 620.139 621.88 617.04V511.04C621.874 495.929 616.405 481.331 606.481 469.936C596.556 458.542 582.847 451.12 567.88 449.04C477.74 436.64 291.88 417.58 141.58 444.66C124.328 447.744 108.745 456.889 97.6384 470.445C86.5315 484.001 80.631 501.078 81 518.6Z" fill="#2693AF"/>
<path d="M78.8399 549.34C78.8399 549.34 38.28 530.56 29.98 549.34C21.68 568.12 31 591.16 40.12 604C49.24 616.84 49.1999 775.48 49.1999 775.48L664.36 768.9L671.64 616.36C671.64 616.36 701.14 580.02 699.3 564.36C697.46 548.7 672.56 525.9 643.98 549.28C615.4 572.66 607.98 621.52 607.98 621.52L117.52 625.22C117.52 625.22 119.2 556.6 78.8399 549.34Z" fill="#2693AF"/>
<path d="M601.76 652C601.76 652.28 492.78 652.52 358.38 652.52C223.98 652.52 115 652.34 115 652C115 651.66 223.94 651.48 358.38 651.48C492.82 651.48 601.76 651.76 601.76 652Z" fill="#263238"/>
<path d="M115 719.2C114.974 719.041 114.974 718.879 115 718.72C115 718.34 115 717.86 115 717.3C115 716.047 114.96 714.227 114.88 711.84C114.88 707.02 114.88 700.2 114.88 691.84C114.88 674.92 115 651.54 114.22 625.84C114.067 613.739 113.132 601.66 111.42 589.68C111.06 588.36 110.7 587.04 110.36 585.68C110.02 584.32 109.36 583.18 108.84 581.96C107.78 579.54 106.7 577.22 105.52 575.04C103.389 570.982 100.885 567.132 98.0398 563.54C95.664 560.597 92.9823 557.916 90.0398 555.54C87.8048 553.761 85.3998 552.207 82.8598 550.9C80.6469 549.88 78.384 548.972 76.0798 548.18H76.5398L77.9198 548.56C79.6849 549.066 81.399 549.736 83.0398 550.56C85.6522 551.799 88.1203 553.321 90.3998 555.1C93.4044 557.46 96.1408 560.143 98.5598 563.1C101.484 566.699 104.056 570.57 106.24 574.66C107.46 576.86 108.56 579.18 109.64 581.62C110.18 582.84 110.68 584.1 111.18 585.36L112.32 589.36C114.104 601.394 115.073 613.535 115.22 625.7C116 651.5 115.74 674.88 115.58 691.8C115.46 700.18 115.36 707 115.3 711.8C115.3 714.1 115.3 715.92 115.3 717.26V718.66C115 719.02 115 719.2 115 719.2Z" fill="#263238"/>
<path d="M74.06 584.74C74.5376 584.415 75.1021 584.24 75.68 584.24C77.2878 584.117 78.8875 584.563 80.2 585.5C81.1227 586.145 81.8771 587.003 82.4 588C82.9978 589.171 83.2012 590.504 82.98 591.8C82.7622 593.293 82.0971 594.684 81.0723 595.791C80.0476 596.898 78.7114 597.668 77.24 598C75.7575 598.213 74.2452 597.982 72.893 597.338C71.5409 596.694 70.4092 595.665 69.64 594.38C68.9663 593.258 68.6263 591.968 68.66 590.66C68.7319 589.284 69.1728 587.952 69.9364 586.805C70.7 585.658 71.7582 584.737 73 584.14C73.51 583.865 74.0804 583.72 74.66 583.72C74.66 583.82 74.08 583.96 73.18 584.5C71.9221 585.279 70.9153 586.404 70.28 587.74C69.8048 588.677 69.5774 589.721 69.6194 590.771C69.6614 591.821 69.9714 592.843 70.52 593.74C71.2051 594.837 72.1923 595.713 73.363 596.263C74.5337 596.813 75.8382 597.013 77.12 596.84C78.3737 596.547 79.5137 595.892 80.3989 594.957C81.2841 594.022 81.8756 592.848 82.1 591.58C82.2763 590.536 82.1561 589.463 81.753 588.484C81.35 587.504 80.6803 586.658 79.82 586.04C78.6802 585.133 77.2763 584.62 75.82 584.58C74.66 584.64 74.08 584.84 74.06 584.74Z" fill="#263238"/>
<path d="M76.8399 624.22C75.6738 623.354 74.7226 622.232 74.0599 620.94C72.2341 617.933 71.2487 614.49 71.2065 610.973C71.1643 607.455 72.0668 603.99 73.82 600.94C74.4577 599.632 75.3803 598.484 76.52 597.58C76.66 597.7 75.62 598.96 74.52 601.28C73.0192 604.284 72.2516 607.602 72.2799 610.96C72.335 614.321 73.1775 617.623 74.74 620.6C75.9 622.88 76.9999 624.12 76.8399 624.22Z" fill="#263238"/>
<path d="M70.3999 564.84C70.2911 565.856 70.0903 566.86 69.7999 567.84C68.9224 572.626 69.9719 577.564 72.7199 581.58C73.368 582.366 73.9627 583.194 74.4999 584.06C74.4999 584.06 73.3799 583.5 72.1199 582.06C70.4971 580.078 69.3681 577.739 68.8257 575.236C68.2832 572.732 68.343 570.136 68.9999 567.66C69.2237 566.618 69.705 565.648 70.3999 564.84Z" fill="#263238"/>
<path d="M58.4199 586.96C58.6599 586.76 60.5199 588.64 63.3599 590.1C66.1999 591.56 68.7799 592.1 68.7399 592.34C66.6922 592.603 64.6173 592.135 62.8799 591.02C60.9679 590.224 59.3914 588.789 58.4199 586.96Z" fill="#263238"/>
<path d="M666.72 719.2C666.72 719.48 527.98 719.72 356.84 719.72C185.7 719.72 47 719.48 47 719.2C47 718.92 185.72 718.68 357 718.68C528.28 718.68 666.72 718.9 666.72 719.2Z" fill="#263238"/>
<path d="M599.62 622.1C599.92 622.1 600.14 643.82 600.14 670.6C600.14 697.38 599.92 719.14 599.62 719.14C599.32 719.14 599.1 697.42 599.1 670.6C599.1 643.78 599.34 622.1 599.62 622.1Z" fill="#263238"/>
<path d="M394.2 454.28H393.24L390.44 454.38L379.7 454.68L340.14 455.6L209.66 458.22C196.92 458.52 184.46 458.48 172.5 459.28C160.983 459.775 149.589 461.855 138.64 465.46C128.763 468.775 119.924 474.615 113 482.4C109.859 485.917 107.172 489.814 105 494C103.019 497.849 101.38 501.864 100.1 506C98.0444 513.183 96.7045 520.553 96.1 528C95.48 534.6 95.42 540.3 95.38 544.98C95.34 549.66 95.38 553.26 95.52 555.72C95.52 556.92 95.52 557.84 95.52 558.52C95.52 559.2 95.52 559.48 95.52 559.48C95.52 559.48 95.52 559.16 95.52 558.52C95.52 557.88 95.52 556.92 95.36 555.72C95.24 553.28 95.08 549.72 95.04 544.98C95 540.24 95.04 534.58 95.58 527.94C96.1687 520.418 97.5087 512.974 99.58 505.72C100.846 501.512 102.479 497.423 104.46 493.5C106.613 489.229 109.301 485.251 112.46 481.66C119.478 473.757 128.441 467.827 138.46 464.46C149.446 460.792 160.889 458.672 172.46 458.16C184.46 457.36 196.94 457.38 209.68 457.08L340.18 454.76L379.72 454.18L390.48 454.06H393.28L394.2 454.28Z" fill="#263238"/>
<path d="M236.72 522.8C236.72 522.8 236.06 523.12 235.04 523.9C233.598 525.006 232.519 526.517 231.94 528.24C231.473 529.468 231.33 530.794 231.522 532.093C231.715 533.392 232.237 534.62 233.04 535.66C233.944 537.028 235.247 538.086 236.772 538.689C238.297 539.292 239.971 539.412 241.567 539.032C243.162 538.652 244.602 537.791 245.692 536.566C246.782 535.34 247.469 533.809 247.66 532.18C247.904 530.887 247.815 529.554 247.402 528.305C246.99 527.056 246.266 525.932 245.3 525.04C244.003 523.773 242.361 522.917 240.58 522.58C239.32 522.36 238.58 522.44 238.58 522.36C239.219 522.125 239.909 522.062 240.58 522.18C242.211 522.367 243.763 522.982 245.08 523.962C246.397 524.941 247.432 526.252 248.08 527.76C248.669 529.218 248.829 530.814 248.54 532.36C248.282 534.15 247.491 535.821 246.271 537.156C245.051 538.491 243.458 539.429 241.699 539.847C239.939 540.265 238.095 540.145 236.404 539.502C234.714 538.859 233.256 537.722 232.22 536.24C231.271 534.993 230.695 533.502 230.56 531.94C230.47 530.577 230.681 529.211 231.18 527.94C231.862 526.123 233.11 524.574 234.74 523.52C235.324 523.107 236.007 522.859 236.72 522.8Z" fill="#263238"/>
<path d="M228.3 574.62C227.538 572.693 227.028 570.677 226.78 568.62C225.804 563.736 225.913 558.697 227.1 553.86C228.382 548.959 231.459 544.719 235.72 541.98C237.008 541.183 238.421 540.608 239.9 540.28C240.43 540.113 240.988 540.059 241.54 540.12C239.636 540.731 237.81 541.563 236.1 542.6C232.159 545.386 229.326 549.472 228.1 554.14C226.972 558.843 226.768 563.72 227.5 568.5C227.98 572.3 228.46 574.58 228.3 574.62Z" fill="#263238"/>
<path d="M235.58 492C234.518 493.41 233.536 494.879 232.64 496.4C230.609 500.143 230.01 504.497 230.956 508.649C231.902 512.801 234.328 516.466 237.78 518.96C239.25 519.952 240.78 520.854 242.36 521.66C241.865 521.658 241.375 521.556 240.92 521.36C239.661 520.915 238.464 520.31 237.36 519.56C233.586 517.095 230.916 513.261 229.913 508.866C228.909 504.472 229.65 499.859 231.98 496C232.651 494.844 233.472 493.782 234.42 492.84C235.1 492.14 235.54 491.86 235.58 492Z" fill="#263238"/>
<path d="M233.74 532C230.084 532.613 226.466 533.427 222.9 534.44C219.447 535.791 216.069 537.327 212.78 539.04C218.56 534.012 226.097 531.48 233.74 532Z" fill="#263238"/>
<g opacity="0.3">
<path d="M169.12 653.88C188.537 668.76 212.714 676.049 237.12 674.38C232.053 697.886 227 721.4 221.96 744.92C220.62 751.18 219.36 758.16 222.64 763.68C227.24 771.42 237.94 772.18 246.94 772.06C256.94 771.92 267.38 771.68 276.26 767.04C288.84 760.48 295.6 746.56 300.48 733.24C305.36 719.92 309.58 705.64 319.62 695.62C331.145 708.751 346.745 717.632 363.92 720.84C368.92 721.76 374.6 722.04 378.6 718.84C382.6 715.64 383.74 710 382.72 705.04C381.389 700.151 379.172 695.548 376.18 691.46L346.9 646.06C342.9 639.92 338.62 633.44 331.92 630.52C326.66 628.22 320.7 628.52 314.98 628.78C267.177 631.564 219.731 638.734 173.24 650.2" fill="black"/>
</g>
<g opacity="0.3">
<path d="M325.56 428.8C313.72 460.08 269.56 467.26 253.98 496.8C238.64 526.08 257.66 564.8 241.86 593.92C236 604.68 225.86 612.7 220.22 623.54C216.38 630.82 214.4 639.54 208.22 644.92C200.98 651.22 189.76 651.1 181.06 647.02C172.36 642.94 165.68 635.62 159.48 628.28C147.88 614.52 136.98 599.64 131.48 582.46C122.16 552.92 130.72 519.5 149.48 494.82C168.24 470.14 196.02 453.48 225.36 443.5C254.7 433.52 285.74 429.76 316.6 426.86" fill="black"/>
</g>
<path d="M183.36 346.54C187.842 339.554 194.039 333.832 201.36 329.92C208.733 325.997 217.352 325.128 225.36 327.5C229.295 328.748 232.838 330.997 235.643 334.026C238.447 337.055 240.417 340.761 241.36 344.78C242.62 351.2 240.9 358.36 244.22 364C248.02 370.48 257.2 372.52 260.44 379.32C261.291 381.426 261.645 383.699 261.475 385.964C261.305 388.229 260.616 390.425 259.46 392.38C257.128 396.273 254.16 399.748 250.68 402.66C252.776 403.973 254.63 405.637 256.16 407.58C256.919 408.559 257.423 409.711 257.625 410.933C257.828 412.155 257.723 413.409 257.32 414.58C256.016 416.895 253.865 418.616 251.32 419.38C240.146 424.09 227.795 425.249 215.94 422.7C212.78 422.02 209.16 421.16 206.56 423.08" fill="#263238"/>
<path d="M263.42 370.28L257 389.86L300.72 414.68L256.72 416.1L260 451.76L344.7 430.96C344.7 430.96 349.78 396.42 263.42 370.28L257.42 368.84C256.338 368.586 255.334 368.073 254.495 367.344C253.655 366.616 253.005 365.695 252.6 364.66C251.914 362.976 250.633 361.602 249 360.8L241.78 357.04V362.76L245.78 367.42L245.14 378.48C244.972 380.849 245.653 383.2 247.06 385.113C248.467 387.025 250.509 388.375 252.82 388.92L256.82 389.86" fill="#B78876"/>
<path d="M167.64 441.08C165.9 441.08 149.76 445.08 140.52 456.76C131.28 468.44 117.92 512.64 117.92 512.64L151.92 518.52L166.6 555.38C166.6 555.38 253.5 544 248.88 539.38C244.414 535.271 239.741 531.392 234.88 527.76L254.88 461.14L278.88 448.18L270.78 414.9L222.44 421.44L167.64 441.08Z" fill="#FAFAFA"/>
<path d="M250.72 476.54C250.72 476.82 223.62 477.06 190.22 477.06C156.82 477.06 129.7 476.82 129.7 476.54C129.7 476.26 156.8 476.02 190.22 476.02C223.64 476.02 250.72 476.26 250.72 476.54Z" fill="#116A81"/>
<path d="M245.3 496.12C245.3 496.4 218.2 496.64 184.8 496.64C151.4 496.64 124.28 496.4 124.28 496.12C124.28 495.84 151.36 495.6 184.8 495.6C218.24 495.6 245.3 495.84 245.3 496.12Z" fill="#116A81"/>
<path d="M245.3 517.26C245.3 517.56 224.78 517.8 199.46 517.8C174.14 517.8 153.64 517.56 153.64 517.26C153.64 516.96 174.16 516.74 199.46 516.74C224.76 516.74 245.3 516.98 245.3 517.26Z" fill="#116A81"/>
<path d="M252.32 537.64C252.32 537.92 231.8 538.16 206.5 538.16C181.2 538.16 160.68 537.92 160.68 537.64C160.68 537.36 181.18 537.12 206.5 537.12C231.82 537.12 252.32 537.34 252.32 537.64Z" fill="#116A81"/>
<path d="M274.02 450.2C274.02 450.5 260.46 450.72 243.76 450.72C227.06 450.72 213.48 450.5 213.48 450.2C213.48 449.9 227.02 449.68 243.76 449.68C260.5 449.68 274.02 450 274.02 450.2Z" fill="#116A81"/>
<path d="M276.22 429.44C276.22 429.74 262.72 430.28 246.08 430.66C229.44 431.04 215.9 431.14 215.9 430.86C215.9 430.58 229.38 430.02 246.04 429.62C262.7 429.22 276.22 429.16 276.22 429.44Z" fill="#116A81"/>
<path d="M159 486.7C158.256 492.216 157.168 497.68 155.74 503.06C154.652 508.522 153.229 513.912 151.48 519.2C152.224 513.685 153.306 508.222 154.72 502.84C155.798 497.373 157.227 491.982 159 486.7Z" fill="#263238"/>
<path d="M253.6 736.42L228.28 816.28L258.8 819.36L287.48 749.96L253.6 736.42Z" fill="#B78876"/>
<path d="M275.94 788.28L261.4 824.28C261.4 824.28 293.16 851.18 291.12 858.1L220.2 832.48L240.54 775.36L275.94 788.28Z" fill="#455A64"/>
<path d="M240.58 813.32C239.822 813.281 239.077 813.522 238.487 813.998C237.896 814.474 237.502 815.151 237.38 815.9C237.31 816.655 237.533 817.407 238.002 818.002C238.471 818.598 239.15 818.99 239.9 819.1C240.702 819.14 241.49 818.882 242.114 818.376C242.738 817.871 243.153 817.153 243.28 816.36C243.28 814.84 241.78 813.1 240.28 813.32" fill="#E0E0E0"/>
<path d="M220.2 832.48L222.48 826.8L289.64 853.56C289.64 853.56 292.3 856.06 291.12 858.16L220.2 832.48Z" fill="#E0E0E0"/>
<path d="M262.68 824.4C262.54 824.74 260.68 824.28 258.68 824.76C256.68 825.24 255.14 826.4 254.88 826.14C254.62 825.88 255.84 824.14 258.4 823.52C260.96 822.9 262.86 824.1 262.68 824.4Z" fill="#263238"/>
<path d="M269 830.16C269 830.54 267.24 830.58 265.54 831.62C263.84 832.66 263 834 262.6 834C262.2 834 262.74 831.82 264.88 830.58C267.02 829.34 269.12 829.84 269 830.16Z" fill="#263238"/>
<path d="M270 840.6C269.66 840.6 269.8 838.6 271.38 837.08C272.96 835.56 274.86 835.34 274.9 835.68C274.94 836.02 273.56 836.68 272.3 837.98C271.04 839.28 270.36 840.7 270 840.6Z" fill="#263238"/>
<path d="M265 815.82C264.74 816.08 263.32 815.02 261.32 814.44C259.32 813.86 257.56 813.94 257.48 813.58C257.4 813.22 259.34 812.5 261.68 813.22C264.02 813.94 265.34 815.6 265 815.82Z" fill="#263238"/>
<path d="M267.88 808.48C266.605 808.37 265.383 807.921 264.34 807.18C263.137 806.492 262.028 805.652 261.04 804.68C260.436 804.121 259.881 803.512 259.38 802.86C259.064 802.496 258.807 802.084 258.62 801.64C258.48 801.313 258.453 800.948 258.544 800.604C258.634 800.26 258.837 799.956 259.12 799.74C259.38 799.561 259.678 799.446 259.991 799.404C260.304 799.362 260.622 799.395 260.92 799.5C261.372 799.666 261.802 799.888 262.2 800.16C262.913 800.618 263.582 801.14 264.2 801.72C265.202 802.696 266.046 803.823 266.7 805.06C267.415 806.136 267.778 807.408 267.74 808.7C267.54 808.7 267.14 807.38 265.92 805.52C265.212 804.44 264.364 803.458 263.4 802.6C262.839 802.082 262.23 801.62 261.58 801.22C260.9 800.76 260.26 800.52 259.96 800.78C259.66 801.04 259.82 800.94 259.96 801.2C260.116 801.522 260.311 801.824 260.54 802.1C261.002 802.712 261.496 803.299 262.02 803.86C262.931 804.797 263.921 805.653 264.98 806.42C265.994 807.038 266.963 807.726 267.88 808.48Z" fill="#263238"/>
<path d="M267.24 808.82C266.935 807.558 267.047 806.232 267.56 805.04C268.218 802.898 269.457 800.98 271.14 799.5C271.5 799.103 271.955 798.804 272.463 798.633C272.97 798.461 273.513 798.422 274.04 798.52C274.354 798.645 274.628 798.856 274.829 799.128C275.03 799.4 275.152 799.723 275.18 800.06C275.215 800.543 275.175 801.029 275.06 801.5C274.898 802.333 274.608 803.136 274.2 803.88C273.529 805.141 272.553 806.214 271.36 807C269.36 808.34 267.7 808.24 267.72 808.1C268.79 807.557 269.825 806.95 270.82 806.28C271.805 805.482 272.604 804.479 273.16 803.34C273.472 802.705 273.701 802.033 273.84 801.34C274 800.56 273.94 799.84 273.62 799.82C273.3 799.8 272.46 800.04 271.96 800.54C271.384 801.023 270.855 801.558 270.38 802.14C269.568 803.145 268.896 804.255 268.38 805.44C267.56 807.4 267.46 808.84 267.24 808.82Z" fill="#263238"/>
<path d="M349.7 661.24L387.5 726.94L418.42 707.1L380.46 640.4L349.7 661.24Z" fill="#B78876"/>
<path d="M407.74 688.32L427.28 722C427.28 722 468 713.44 472.22 719.3L408.38 759.5L375.8 708.32L407.74 688.32Z" fill="#455A64"/>
<path d="M405.78 731.62C405.273 732.182 404.992 732.913 404.992 733.67C404.992 734.427 405.273 735.158 405.78 735.72C406.326 736.22 407.039 736.498 407.78 736.498C408.52 736.498 409.234 736.22 409.78 735.72C410.305 735.109 410.585 734.326 410.566 733.521C410.548 732.716 410.232 731.946 409.68 731.36C409.044 730.884 408.249 730.671 407.46 730.764C406.671 730.857 405.948 731.249 405.44 731.86" fill="#E0E0E0"/>
<path d="M408.38 759.46L405.3 754.18L467.66 717.62C467.66 717.62 471.28 717.06 472.22 719.26L408.38 759.46Z" fill="#E0E0E0"/>
<path d="M428.1 720.98C428.28 721.3 426.82 722.42 425.92 724.38C425.02 726.34 425.02 728.18 424.66 728.24C424.3 728.3 423.62 726.24 424.66 723.84C425.7 721.44 427.98 720.64 428.1 720.98Z" fill="#263238"/>
<path d="M436.54 719.52C436.8 719.78 435.78 721.16 435.56 723.16C435.34 725.16 435.9 726.72 435.56 726.9C435.22 727.08 433.94 725.46 434.26 722.9C434.58 720.34 436.34 719.24 436.54 719.52Z" fill="#263238"/>
<path d="M445.4 725.14C445.14 725.4 443.74 724.12 443.4 721.9C443.06 719.68 444.16 718.1 444.46 718.26C444.76 718.42 444.46 719.92 444.68 721.74C444.9 723.56 445.68 724.92 445.4 725.14Z" fill="#263238"/>
<path d="M422.8 713.8C422.8 714.18 421.14 714.64 419.46 715.8C417.78 716.96 416.76 718.44 416.42 718.28C416.08 718.12 416.72 716.16 418.72 714.74C420.72 713.32 422.8 713.46 422.8 713.8Z" fill="#263238"/>
<path d="M418.74 707.1C418.74 707.22 417.72 708.2 415.54 709.1C414.251 709.608 412.91 709.97 411.54 710.18C410.724 710.283 409.903 710.343 409.08 710.36C408.595 710.378 408.11 710.324 407.64 710.2C407.299 710.107 406.997 709.904 406.784 709.621C406.57 709.339 406.456 708.994 406.46 708.64C406.477 708.322 406.569 708.013 406.729 707.739C406.889 707.464 407.112 707.231 407.38 707.06C407.787 706.812 408.224 706.617 408.68 706.48C410.795 705.754 413.06 705.582 415.26 705.98C417.62 706.42 418.86 707.28 418.78 707.4C418.7 707.52 417.38 707.06 415.16 706.88C413.863 706.784 412.56 706.851 411.28 707.08C410.539 707.212 409.809 707.406 409.1 707.66C408.3 707.92 407.72 708.28 407.74 708.68C407.76 709.08 407.74 708.88 408.04 709C408.387 709.08 408.744 709.114 409.1 709.1C411.172 709.128 413.236 708.838 415.22 708.24C416.364 707.774 417.54 707.393 418.74 707.1Z" fill="#263238"/>
<path d="M418.62 707.8C418.62 707.92 417.22 707.18 415.82 705.24C415.017 704.092 414.421 702.813 414.06 701.46C413.844 700.662 413.703 699.845 413.64 699.02C413.549 698.488 413.598 697.942 413.78 697.434C413.962 696.926 414.272 696.473 414.68 696.12C414.961 695.942 415.287 695.848 415.62 695.848C415.953 695.848 416.279 695.942 416.56 696.12C416.963 696.388 417.327 696.711 417.64 697.08C418.191 697.734 418.648 698.461 419 699.24C419.569 700.549 419.809 701.977 419.7 703.4C419.5 705.84 418.44 707.04 418.34 706.94C418.561 705.763 418.715 704.574 418.8 703.38C418.774 702.117 418.474 700.875 417.92 699.74C417.603 699.078 417.192 698.465 416.7 697.92C416.18 697.32 415.58 696.92 415.36 697.16C415.16 697.398 415.016 697.678 414.936 697.979C414.857 698.279 414.844 698.594 414.9 698.9C414.935 699.654 415.036 700.403 415.2 701.14C415.493 702.394 415.965 703.599 416.6 704.72C417.68 706.68 418.76 707.64 418.62 707.8Z" fill="#263238"/>
<path d="M237.18 652L311.42 601.52L358.24 692.66L400.8 669.6C400.8 669.6 351.78 550 334.18 546.2C324.32 544.04 211.24 565.62 211.24 565.62L198.6 559.28L166.6 555.38L164.6 560.56C159.014 574.705 156.445 589.86 157.058 605.056C157.671 620.251 161.453 635.151 168.16 648.8L169.72 651.98L237.18 652Z" fill="#263238"/>
<path d="M211.12 588.84C211.68 591.34 273.12 648.84 273.12 648.84L237.72 767.82L290.56 777.92L343.62 634.6L246.64 539.46L202.26 558L211.12 588.84Z" fill="#263238"/>
<path d="M311.42 601.5C311.58 601.74 295.08 613.22 274.6 627.16C254.12 641.1 237.36 652.2 237.18 652C237 651.8 253.5 640.26 274 626.32C294.5 612.38 311.24 601.26 311.42 601.5Z" fill="#455A64"/>
<path d="M349.52 675.66C348.836 674.805 348.233 673.887 347.72 672.92C346.62 671.12 345.1 668.46 343.24 665.18C339.54 658.6 334.62 649.4 329.42 639.18C324.22 628.96 319.62 619.54 316.4 612.72C314.78 609.3 313.5 606.52 312.64 604.6C312.134 603.629 311.726 602.611 311.42 601.56C312.024 602.472 312.558 603.428 313.02 604.42L317.02 612.42C320.5 619.32 325.16 628.54 330.3 638.76C335.44 648.98 340.3 658.26 343.84 664.92C345.54 668.14 346.96 670.8 348.04 672.82C348.606 673.727 349.101 674.676 349.52 675.66Z" fill="#455A64"/>
<path d="M284.14 627.56C282.562 631.947 280.663 636.211 278.46 640.32C276.557 644.57 274.344 648.674 271.84 652.6C275.313 643.96 279.425 635.59 284.14 627.56Z" fill="#455A64"/>
<path d="M117.92 512.64L105.92 556.96C104.371 562.692 105.087 568.801 107.92 574.02C110.337 578.507 114.162 582.075 118.806 584.174C123.45 586.274 128.655 586.789 133.62 585.64L228.72 562.22L218.72 542.46L143.8 548.96L151.8 518.52L117.92 512.64Z" fill="#B78876"/>
<path d="M160.1 579.9L161.34 573.46L212.88 564.2L227.86 484.74L323.58 473.34L307.5 558.16L160.1 579.9Z" fill="#455A64"/>
<path d="M270.84 527.54C269.74 527.492 268.68 527.108 267.804 526.441C266.928 525.773 266.277 524.854 265.938 523.806C265.599 522.758 265.589 521.631 265.909 520.577C266.229 519.523 266.863 518.592 267.727 517.909C268.591 517.226 269.644 516.823 270.743 516.755C271.842 516.687 272.936 516.957 273.878 517.529C274.819 518.1 275.564 518.946 276.011 519.952C276.458 520.959 276.587 522.078 276.38 523.16C276.22 524.472 275.548 525.669 274.511 526.489C273.473 527.309 272.154 527.687 270.84 527.54Z" fill="#EBEBEB"/>
<path d="M174.1 352L174.28 357.74L176.44 443.74C176.7 453.74 185.48 461.46 196.16 461.1C206.96 460.76 215.64 452.3 215.56 442.2C215.46 431.62 215.56 420.46 215.56 420.46C215.56 420.46 229.18 418.04 231.8 400.2C233.1 391.34 232.48 376.82 231.6 364.96C231.412 362.43 230.714 359.965 229.549 357.712C228.383 355.46 226.774 353.466 224.817 351.851C222.861 350.237 220.598 349.035 218.165 348.318C215.732 347.601 213.179 347.384 210.66 347.68L174.1 352Z" fill="#B78876"/>
<path d="M224.7 374.94C224.711 375.537 224.49 376.114 224.083 376.551C223.676 376.987 223.116 377.249 222.52 377.28C222.233 377.305 221.945 377.272 221.671 377.185C221.397 377.098 221.143 376.957 220.924 376.771C220.704 376.585 220.524 376.358 220.393 376.102C220.262 375.846 220.183 375.567 220.16 375.28C220.148 374.687 220.367 374.112 220.769 373.676C221.172 373.24 221.727 372.976 222.32 372.94C222.901 372.89 223.477 373.073 223.924 373.448C224.37 373.823 224.649 374.359 224.7 374.94Z" fill="#263238"/>
<path d="M228.54 372.62C228.26 372.92 226.54 371.66 224.06 371.68C221.58 371.7 219.82 372.98 219.54 372.68C219.26 372.38 219.7 372 220.48 371.42C221.533 370.674 222.79 370.269 224.08 370.26C225.358 370.247 226.609 370.632 227.66 371.36C228.42 372 228.68 372.48 228.54 372.62Z" fill="#263238"/>
<path d="M200.46 375.82C200.476 376.418 200.257 376.998 199.849 377.436C199.441 377.874 198.878 378.134 198.28 378.16C197.699 378.21 197.122 378.027 196.676 377.652C196.23 377.277 195.951 376.74 195.9 376.16C195.889 375.565 196.111 374.99 196.518 374.556C196.925 374.123 197.486 373.866 198.08 373.84C198.366 373.812 198.655 373.842 198.93 373.927C199.206 374.011 199.461 374.15 199.682 374.334C199.904 374.518 200.086 374.744 200.22 374.999C200.353 375.254 200.435 375.533 200.46 375.82Z" fill="#263238"/>
<path d="M204.4 373.36C204.12 373.66 202.4 372.4 199.92 372.42C197.44 372.44 195.68 373.72 195.4 373.42C195.12 373.12 195.54 372.74 196.32 372.16C197.38 371.413 198.643 371.008 199.94 371C201.212 370.988 202.456 371.372 203.5 372.1C204.26 372.68 204.54 373.22 204.4 373.36Z" fill="#263238"/>
<path d="M213.52 391.46C214.817 391.042 216.16 390.787 217.52 390.7C218.16 390.7 218.74 390.5 218.84 390.06C218.887 389.416 218.734 388.773 218.4 388.22L216.5 383.46C214.728 379.436 213.284 375.276 212.18 371.02C214.28 374.864 216.053 378.878 217.48 383.02L219.32 387.8C219.717 388.555 219.844 389.423 219.68 390.26C219.59 390.482 219.452 390.682 219.276 390.845C219.099 391.007 218.889 391.129 218.66 391.2C218.308 391.296 217.945 391.35 217.58 391.36C216.237 391.569 214.872 391.603 213.52 391.46Z" fill="#263238"/>
<path d="M215.56 420.52C207.158 420.789 198.847 418.711 191.56 414.52C191.56 414.52 197.56 426.68 215.28 424.8L215.56 420.52Z" fill="#AA6550"/>
<path d="M205.38 369.3C205.12 369.96 202.68 369.54 199.78 369.74C196.88 369.94 194.52 370.64 194.16 370.02C194 369.72 194.44 369.12 195.4 368.52C196.684 367.766 198.132 367.334 199.62 367.26C201.101 367.149 202.588 367.388 203.96 367.96C205 368.44 205.5 369 205.38 369.3Z" fill="#263238"/>
<path d="M227.52 364C227.08 364.56 225.38 364 223.36 364C221.34 364 219.6 364.42 219.2 363.84C218.8 363.26 219.2 363 220.02 362.46C221.026 361.81 222.204 361.476 223.401 361.501C224.599 361.526 225.762 361.908 226.74 362.6C227.46 363.24 227.7 363.82 227.52 364Z" fill="#263238"/>
<path d="M213.26 400.36C212.54 400.476 211.802 400.4 211.12 400.14L209.12 399.58C208.56 399.4 207.94 399.14 207.24 398.88C206.538 398.688 205.902 398.307 205.4 397.78C204.98 397.24 205.06 396.28 206.02 395.42C206.686 394.934 207.459 394.615 208.274 394.488C209.089 394.362 209.922 394.431 210.704 394.691C211.487 394.952 212.196 395.395 212.772 395.984C213.349 396.573 213.777 397.292 214.02 398.08C214.44 399.34 213.92 400.18 213.26 400.36Z" fill="#AA6550"/>
<path d="M213.6 400.14C213.36 400.32 212.16 397.86 209.28 397.12C207.519 396.867 205.723 397.067 204.06 397.7C204.06 397.7 204.38 397.06 205.36 396.56C206.655 395.914 208.139 395.758 209.54 396.12C210.945 396.476 212.175 397.328 213 398.52C213.62 399.42 213.72 400.1 213.6 400.14Z" fill="#263238"/>
<path d="M194.7 340.44C197.447 344.771 198.626 349.914 198.04 355.009C197.454 360.105 195.138 364.845 191.48 368.44C187.22 372.44 180.88 375.5 180.46 381.3C179.98 387.72 187.42 392.52 187.42 398.96C187.42 405.4 179.8 409.8 178.3 416.26C177.1 421.46 180.3 426.66 183.82 430.6C187.34 434.54 191.82 438.02 193.82 442.9C194.882 445.65 195.376 448.586 195.273 451.531C195.17 454.477 194.471 457.371 193.22 460.04C190.689 465.344 187.311 470.201 183.22 474.42C177.901 472.515 172.365 471.286 166.74 470.76C167.08 468.64 167.44 466.5 167.8 464.38C167.747 465.619 167.302 466.81 166.529 467.78C165.757 468.751 164.696 469.451 163.5 469.78C161.089 470.393 158.567 470.427 156.14 469.88C148.644 468.695 141.277 466.8 134.14 464.22C137.332 461.343 140.034 457.965 142.14 454.22C143.178 452.325 143.74 450.207 143.778 448.047C143.817 445.887 143.33 443.75 142.36 441.82C140.6 438.82 137.36 436.9 135.74 433.82C133.32 429.22 135.32 423.38 138.76 419.48C142.2 415.58 146.88 413.04 150.98 409.84C155.08 406.64 158.84 402.32 159.16 397.12C159.6 390.4 154.14 384.26 154.82 377.56C155.58 369.92 163.66 365.24 166.82 358.24C169.12 353.18 168.82 346.94 172.34 342.64C173.721 341.105 175.437 339.91 177.355 339.147C179.274 338.383 181.342 338.073 183.4 338.24C187.512 338.597 191.471 339.972 194.92 342.24" fill="#263238"/>
<path d="M217 422.44C213.8 424.2 213.98 429.1 215.94 432.2C217.9 435.3 221.04 437.52 222.98 440.64C224.62 443.489 225.192 446.828 224.595 450.06C223.997 453.292 222.269 456.206 219.72 458.28L227.4 461.18L229.08 460.24L233.8 457.56L231.58 463.02H236.5C239.114 463.074 241.69 462.395 243.938 461.06C246.185 459.725 248.014 457.787 249.217 455.466C250.42 453.145 250.949 450.534 250.745 447.928C250.54 445.322 249.61 442.825 248.06 440.72C246.06 437.92 242.9 435.7 242.2 432.32C241.38 428.22 244.48 424.52 245.98 420.64C247.174 417.362 247.298 413.791 246.335 410.438C245.372 407.086 243.371 404.124 240.62 401.98" fill="#263238"/>
<path d="M65.4999 260.58C65.9505 260.803 66.3297 261.148 66.5948 261.576C66.8598 262.004 67.0001 262.497 66.9999 263V276.32C66.9991 276.731 66.903 277.137 66.719 277.504C66.5351 277.872 66.2684 278.192 65.9399 278.44C65.6131 278.694 65.2302 278.867 64.8232 278.943C64.4162 279.02 63.9968 278.998 63.5999 278.88C62.5017 278.599 61.3582 278.543 60.2379 278.715C59.1175 278.887 58.0434 279.283 57.0799 279.88C56.1919 280.387 55.4177 281.071 54.8053 281.89C54.1929 282.709 53.7554 283.645 53.5199 284.64C53.3414 285.652 53.37 286.689 53.6037 287.689C53.8375 288.689 54.2716 289.632 54.8799 290.46C55.512 291.399 56.3232 292.203 57.2671 292.828C58.2109 293.453 59.2687 293.885 60.3799 294.1C62.6367 294.326 64.9032 293.778 66.8075 292.546C68.7119 291.314 70.1408 289.471 70.8599 287.32C70.9662 286.986 71.1373 286.677 71.3632 286.41C71.5891 286.142 71.8655 285.922 72.1766 285.761C72.4876 285.6 72.8273 285.503 73.1762 285.473C73.5251 285.444 73.8763 285.483 74.2099 285.59C74.5434 285.696 74.8528 285.867 75.1202 286.093C75.3877 286.319 75.608 286.595 75.7687 286.907C75.9293 287.218 76.0271 287.557 76.0565 287.906C76.0859 288.255 76.0462 288.606 75.9399 288.94C74.8265 292.302 72.5866 295.178 69.5986 297.08C66.6106 298.982 63.0576 299.794 59.5398 299.38C57.7097 299.066 55.9626 298.383 54.405 297.372C52.8474 296.361 51.5119 295.044 50.4799 293.5C49.4574 292.068 48.7354 290.443 48.3573 288.725C47.9792 287.006 47.9529 285.229 48.2799 283.5C48.6645 281.79 49.3953 280.176 50.4272 278.759C51.4591 277.342 52.7702 276.151 54.2799 275.26C56.495 273.928 59.0355 273.236 61.6199 273.26V263C61.6199 262.289 61.9022 261.607 62.4048 261.105C62.9074 260.602 63.5891 260.32 64.2999 260.32C64.7141 260.317 65.1238 260.406 65.4999 260.58Z" fill="#116A81"/>
<path d="M61.8199 254.98C61.8122 254.55 61.9319 254.127 62.1641 253.765C62.3962 253.402 62.7304 253.117 63.1244 252.944C63.5185 252.771 63.9549 252.719 64.3786 252.794C64.8023 252.869 65.1944 253.067 65.5055 253.364C65.8166 253.662 66.0328 254.044 66.1268 254.464C66.2209 254.884 66.1886 255.322 66.0341 255.724C65.8795 256.125 65.6096 256.472 65.2583 256.721C64.907 256.969 64.49 257.108 64.0599 257.12C63.772 257.128 63.4853 257.079 63.2164 256.975C62.9476 256.872 62.702 256.716 62.4937 256.517C62.2854 256.318 62.1186 256.08 62.0029 255.816C61.8873 255.552 61.8251 255.268 61.8199 254.98Z" fill="#116A81"/>
<path d="M127 326.3C127 326.3 126.34 326.3 125.24 326.86C123.733 327.509 122.463 328.605 121.6 330C120.988 330.955 120.598 332.035 120.46 333.16C120.306 334.451 120.536 335.759 121.12 336.92C121.718 338.299 122.726 339.461 124.006 340.249C125.287 341.037 126.778 341.413 128.279 341.326C129.78 341.239 131.218 340.693 132.399 339.761C133.579 338.83 134.445 337.559 134.88 336.12C135.328 334.896 135.404 333.567 135.1 332.3C134.82 331.198 134.309 330.169 133.6 329.28C132.57 327.992 131.176 327.044 129.6 326.56C128.46 326.24 127.78 326.28 127.78 326.22H128.26C128.46 326.203 128.66 326.203 128.86 326.22C129.123 326.235 129.384 326.275 129.64 326.34C131.333 326.74 132.85 327.681 133.96 329.02C134.75 329.931 135.318 331.013 135.62 332.18C135.948 333.503 135.886 334.892 135.44 336.18C134.951 337.641 134.065 338.936 132.88 339.92C131.618 341.006 130.04 341.658 128.38 341.78C126.72 341.846 125.081 341.384 123.7 340.46C122.403 339.628 121.364 338.45 120.7 337.06C120.106 335.816 119.877 334.429 120.04 333.06C120.209 331.864 120.647 330.723 121.32 329.72C122.277 328.258 123.68 327.143 125.32 326.54C125.575 326.449 125.835 326.376 126.1 326.32C126.288 326.263 126.483 326.229 126.68 326.22C126.79 326.232 126.897 326.259 127 326.3Z" fill="#263238"/>
<path d="M146.52 345.64C146.52 345.64 146.1 345.74 145.44 346.04C144.489 346.459 143.687 347.156 143.14 348.04C142.727 348.668 142.483 349.393 142.434 350.143C142.385 350.893 142.532 351.644 142.86 352.32C143.233 353.169 143.856 353.884 144.647 354.368C145.438 354.852 146.358 355.082 147.284 355.028C148.21 354.974 149.096 354.637 149.825 354.063C150.554 353.49 151.089 352.707 151.36 351.82C151.609 351.11 151.668 350.347 151.531 349.606C151.394 348.866 151.066 348.175 150.58 347.6C149.934 346.784 149.055 346.184 148.06 345.88C147.36 345.66 146.94 345.68 146.94 345.62C147.327 345.519 147.733 345.519 148.12 345.62C149.033 345.837 149.87 346.294 150.546 346.945C151.221 347.596 151.71 348.416 151.96 349.32C152.208 350.176 152.208 351.084 151.96 351.94C151.665 352.933 151.072 353.81 150.261 354.454C149.45 355.097 148.46 355.475 147.426 355.537C146.393 355.598 145.365 355.339 144.484 354.796C143.602 354.253 142.91 353.451 142.5 352.5C142.1 351.696 141.954 350.789 142.08 349.9C142.188 349.14 142.468 348.415 142.9 347.78C143.515 346.854 144.413 346.152 145.46 345.78C145.799 345.656 146.161 345.608 146.52 345.64Z" fill="#263238"/>
<path d="M123.84 286.66C123.84 286.66 123.84 286.32 123.84 285.66C123.84 285 123.84 284 123.84 282.72C123.84 282.06 123.84 281.34 123.84 280.54C123.84 279.74 123.72 278.88 123.66 277.94C123.6 277 123.52 275.94 123.42 274.9C123.395 274.341 123.321 273.786 123.2 273.24L122.9 271.48C121.913 265.6 120.046 259.903 117.36 254.58C113.865 247.537 109.051 241.23 103.18 236L100.68 233.82C99.7999 233.14 98.8599 232.5 97.9399 231.82L96.5199 230.82C96.0734 230.452 95.591 230.131 95.0799 229.86L91.9999 228C91.4799 227.7 90.9799 227.38 90.4399 227.1L88.7799 226.34L85.4399 224.82C84.2799 224.34 83.0799 223.98 81.8999 223.56L80.0999 222.94L79.1799 222.64L78.2399 222.42C75.7153 221.753 73.1498 221.252 70.5599 220.92C69.2399 220.78 67.8999 220.54 66.5599 220.46L62.5599 220.34C61.8799 220.34 61.1999 220.34 60.5599 220.34L58.5599 220.5C57.1599 220.62 55.7599 220.66 54.3799 220.84C51.551 221.242 48.7516 221.83 45.9999 222.6L43.8999 223.2C43.5599 223.2 43.1999 223.38 42.8599 223.5L41.8399 223.9L37.7199 225.5C36.3799 226.1 35.0599 226.82 33.7199 227.5C33.0599 227.86 32.3799 228.14 31.7199 228.54L29.7199 229.76C27.1281 231.384 24.6491 233.181 22.2999 235.14L18.9199 238.32L18.0599 239.12L17.2799 240L15.7399 241.78L14.1799 243.54L12.7799 245.54L11.3999 247.54L10.6999 248.52C10.4799 248.86 10.2799 249.2 10.0799 249.54L7.65992 253.72C6.99992 255.18 6.31992 256.64 5.65992 258.12C0.454475 270.351 -0.606151 283.95 2.63992 296.84L3.95992 301.52L5.69992 306L6.13992 307.12L6.67992 308.18L7.75992 310.32L8.81992 312.42L10.0999 314.42L11.3599 316.42L11.9799 317.4L12.6999 318.32L15.5599 322C17.5795 324.296 19.7511 326.455 22.0599 328.46L23.7599 329.96C24.3199 330.46 24.9599 330.86 25.5599 331.3C26.7799 332.16 27.9599 333.08 29.1999 333.88L32.9999 336L33.9399 336.56L34.9399 337.02L36.9399 337.92C39.5382 339.105 42.2104 340.12 44.9399 340.96C46.2999 341.36 47.6799 341.62 48.9399 341.96L50.9399 342.44C51.6199 342.58 52.2999 342.62 52.9399 342.72L56.9399 343.24C58.2799 343.38 59.6199 343.24 60.9399 343.4C63.5566 343.488 66.1762 343.395 68.7799 343.12H69.7399L70.6799 342.96L72.5599 342.64C73.7999 342.4 75.0399 342.24 76.2399 341.94L79.7999 340.96L81.5599 340.48L83.2399 339.82L86.5399 338.54C87.0859 338.345 87.6144 338.104 88.1199 337.82L89.6799 337.04C90.6999 336.52 91.6799 336.04 92.6999 335.5L95.4999 333.72C102.156 329.463 107.923 323.954 112.48 317.5C112.98 316.8 113.5 316.12 113.98 315.5L115.22 313.38L116.42 311.38C116.62 311.04 116.82 310.72 117 310.38C117.18 310.04 117.3 309.68 117.46 309.34L119.26 305.46C119.78 304.22 120.14 302.96 120.56 301.82L121.16 300.12C121.357 299.6 121.51 299.065 121.62 298.52L122.34 295.54C122.54 294.62 122.78 293.78 122.92 293C123.06 292.22 123.12 291.5 123.22 290.86C123.38 289.58 123.52 288.62 123.62 287.94C123.72 287.26 123.78 286.96 123.78 286.96C123.78 286.96 123.78 287.3 123.78 287.96L123.42 290.88C123.42 291.52 123.26 292.24 123.16 293.02C123.06 293.8 122.8 294.66 122.6 295.58C122.4 296.5 122.16 297.58 121.92 298.56C121.813 299.112 121.659 299.654 121.46 300.18C121.26 300.74 121.08 301.3 120.88 301.88C120.46 303.04 120.12 304.3 119.58 305.56C119.04 306.82 118.42 308.1 117.82 309.56L117.34 310.6C117.18 310.94 116.96 311.28 116.78 311.62C116.38 312.28 115.98 312.98 115.58 313.62C115.18 314.26 114.76 315.04 114.34 315.78C113.92 316.52 113.34 317.16 112.84 317.88C108.244 324.302 102.451 329.775 95.7799 334L92.9599 335.8C91.9799 336.34 90.9599 336.84 89.9199 337.36L88.3799 338.16C87.8657 338.44 87.3308 338.681 86.7799 338.88L83.4399 340.18L81.7599 340.84L79.9999 341.34L76.4199 342.34C75.1999 342.64 73.9399 342.8 72.6999 343.04L70.7999 343.38L69.8599 343.54H68.8799C66.2638 343.828 63.6308 343.935 60.9999 343.86C59.6599 343.86 58.2999 343.86 56.9999 343.7L52.9999 343.18C52.2999 343.18 51.6199 343.04 50.9999 342.88L48.9999 342.42C47.6399 342.08 46.2399 341.82 44.8799 341.42C42.1455 340.587 39.4724 339.564 36.8799 338.36L34.8799 337.46L33.8799 337L32.9199 336.44L29.0599 334.2C27.8199 333.4 26.6199 332.46 25.3999 331.6C24.7799 331.14 24.1399 330.74 23.5799 330.24L21.8599 328.74C19.4216 326.718 17.1292 324.525 14.9999 322.18L12.0999 318.48L11.3799 317.54L10.7399 316.54L9.47992 314.54L8.19992 312.54L7.11992 310.42L6.01992 308.26L5.47992 307.18L4.99992 306C4.39992 304.5 3.81992 302.98 3.23992 301.48C2.65992 299.98 2.35992 298.34 1.89992 296.76C-1.33961 283.756 -0.251293 270.05 4.99992 257.72L6.99992 253.26C7.81992 251.86 8.63992 250.46 9.43992 249.06C9.65992 248.72 9.83992 248.36 10.0599 248.02L10.7599 247.04L12.1799 245.04L13.5799 243.04L15.1599 241.24L16.7199 239.46L17.4999 238.58L18.3599 237.76L21.7799 234.54C24.1527 232.57 26.6586 230.765 29.2799 229.14L31.2799 227.92C31.9199 227.5 32.6199 227.22 33.2799 226.86C34.6199 226.2 35.9399 225.46 37.2799 224.86L41.4399 223.24L42.4799 222.84L43.5199 222.54L45.6399 221.96C48.41 221.182 51.2299 220.594 54.0799 220.2C55.4999 220.02 56.8999 219.96 58.2999 219.84L60.2999 219.7C60.9799 219.7 61.6799 219.7 62.2999 219.7L66.4199 219.82C67.7799 219.82 69.0999 220.14 70.4199 220.3C73.034 220.624 75.6209 221.139 78.1599 221.84L79.1199 222.06C79.4199 222.06 79.7199 222.26 80.0199 222.36L81.8399 222.98C83.0399 223.42 84.2599 223.76 85.3999 224.24L88.9999 226L90.6599 226.76L92.2399 227.66L95.3199 229.46C95.8292 229.752 96.3171 230.079 96.7799 230.44L98.1999 231.46C99.1199 232.14 100.08 232.78 100.96 233.46L103.48 235.66C109.401 240.956 114.243 247.347 117.74 254.48C120.427 259.832 122.275 265.566 123.22 271.48C123.32 272.08 123.42 272.68 123.52 273.24C123.624 273.795 123.69 274.356 123.72 274.92C123.72 276 123.88 277.02 123.94 277.96C124 278.9 124.08 279.78 124.1 280.58C124.12 281.38 124.1 282.1 124.1 282.76C124.1 284.04 124.1 285.02 124.1 285.7L123.84 286.66Z" fill="#263238"/>
<path d="M797.86 786C797.767 785.718 797.654 785.444 797.52 785.18C797.24 784.6 796.88 783.84 796.42 782.84C795.079 779.812 794.002 776.673 793.2 773.46C790.617 761.522 790.706 749.16 793.46 737.26C795.18 729.012 797.424 720.882 800.18 712.92C803.02 704.3 806.34 695.14 809.02 685.24C812.076 674.901 813.552 664.16 813.4 653.38C812.98 642.12 809.66 630.88 805.98 619.68C802.3 608.48 798.54 597.52 797.4 586.5C796.123 575.91 798.223 565.186 803.4 555.86C808.26 546.92 814.36 539.26 818.94 531.34C823.203 523.993 826.351 516.053 828.28 507.78C831.025 495.781 831.223 483.34 828.86 471.26C828.019 466.846 826.746 462.525 825.06 458.36C825.108 458.652 825.181 458.94 825.28 459.22C825.48 459.84 825.72 460.66 826.06 461.7C827.012 464.87 827.8 468.088 828.42 471.34C830.6 483.356 830.28 495.693 827.48 507.58C825.53 515.764 822.369 523.61 818.1 530.86C813.54 538.68 807.42 546.3 802.46 555.34C797.115 564.841 794.923 575.793 796.2 586.62C797.34 597.82 801.14 608.86 804.8 620.04C808.46 631.22 811.76 642.36 812.18 653.42C812.345 664.08 810.909 674.705 807.92 684.94C805.26 694.8 801.92 703.96 799.18 712.62C796.445 720.626 794.241 728.804 792.58 737.1C789.5 752.34 790.38 765.22 792.68 773.58C793.541 776.797 794.693 779.93 796.12 782.94L797.34 785.24C797.485 785.512 797.659 785.766 797.86 786Z" fill="#263238"/>
<path d="M812.82 539.08C812.82 539.08 822.1 509.4 805.44 492.02C805.311 491.878 805.145 491.776 804.96 491.725C804.776 491.673 804.581 491.675 804.397 491.729C804.214 491.783 804.049 491.888 803.922 492.031C803.795 492.175 803.711 492.351 803.68 492.54C802.8 497.44 801.68 512.36 812.82 539.08Z" fill="#116A81"/>
<path d="M807.26 502C807.276 503.843 807.484 505.68 807.88 507.48C808.48 511.26 809.2 515.68 810 520.58C810.8 525.48 811.48 529.9 812 533.66C812.147 535.495 812.475 537.31 812.98 539.08C813.142 537.239 813.081 535.386 812.8 533.56C812.5 530.18 811.9 525.56 811.06 520.38C810.22 515.2 809.34 510.66 808.6 507.34C808.348 505.517 807.898 503.726 807.26 502Z" fill="#263238"/>
<path d="M801.92 609.06C801.92 609.06 796.24 578.5 773.4 570.92C773.22 570.861 773.028 570.853 772.844 570.896C772.659 570.939 772.49 571.031 772.355 571.162C772.219 571.294 772.122 571.46 772.073 571.643C772.025 571.826 772.027 572.018 772.08 572.2C773.58 576.94 779.58 590.66 801.92 609.06Z" fill="#116A81"/>
<path d="M779.62 578.82C780.499 580.433 781.538 581.954 782.72 583.36L790.72 593.94C793.7 597.94 796.38 601.5 798.72 604.54C799.729 606.08 800.866 607.532 802.12 608.88C801.401 607.181 800.488 605.57 799.4 604.08C797.54 601.22 794.82 597.38 791.68 593.24C788.54 589.1 785.68 585.46 783.42 582.86C782.305 581.378 781.031 580.023 779.62 578.82Z" fill="#263238"/>
<path d="M808.08 685.76C808.08 685.76 811.54 654.86 791.88 640.98C791.725 640.87 791.543 640.805 791.354 640.792C791.164 640.778 790.975 640.817 790.806 640.904C790.637 640.99 790.495 641.121 790.395 641.283C790.295 641.444 790.242 641.63 790.24 641.82C790.3 646.8 792.06 661.66 808.08 685.76Z" fill="#116A81"/>
<path d="M795.54 650.34C795.902 652.148 796.458 653.912 797.2 655.6C798.52 659.18 800.06 663.4 801.76 668.04C803.46 672.68 805 676.9 806.3 680.5C806.803 682.266 807.473 683.98 808.3 685.62C808.116 683.783 807.706 681.976 807.08 680.24C806.14 676.98 804.66 672.5 802.86 667.64C801.06 662.78 799.3 658.42 797.96 655.3C797.336 653.564 796.524 651.9 795.54 650.34Z" fill="#263238"/>
<path d="M790.88 762.92C790.88 762.92 793.22 731.9 773.08 718.74C772.923 718.631 772.738 718.568 772.546 718.559C772.355 718.55 772.165 718.595 771.998 718.689C771.831 718.783 771.694 718.922 771.602 719.09C771.511 719.258 771.468 719.449 771.48 719.64C771.72 724.6 774 739.4 790.88 762.92Z" fill="#116A81"/>
<path d="M777 728C777.455 729.788 778.078 731.529 778.86 733.2C780.3 736.74 782 740.88 783.88 745.46C785.76 750.04 787.42 754.22 788.86 757.74C789.41 759.497 790.14 761.193 791.04 762.8C790.775 760.971 790.299 759.179 789.62 757.46C788.56 754.24 786.92 749.82 784.94 745.02C782.96 740.22 781.06 735.94 779.6 732.86C778.927 731.143 778.055 729.512 777 728Z" fill="#263238"/>
<path d="M826.16 513C826.16 513 853.72 498.6 854.26 474.54C854.263 474.35 854.214 474.163 854.118 473.999C854.022 473.834 853.883 473.7 853.716 473.609C853.55 473.518 853.361 473.475 853.171 473.484C852.981 473.493 852.798 473.554 852.64 473.66C848.54 476.5 837.2 486.24 826.16 513Z" fill="#116A81"/>
<path d="M848.54 482.82C847.237 484.121 846.084 485.564 845.1 487.12L837.32 497.86C834.42 501.86 831.78 505.5 829.52 508.58C828.353 509.999 827.303 511.511 826.38 513.1C827.804 511.925 829.08 510.582 830.18 509.1C832.36 506.48 835.24 502.76 838.18 498.54C841.12 494.32 843.86 490.54 845.7 487.58C846.811 486.097 847.762 484.502 848.54 482.82Z" fill="#263238"/>
<path d="M796.56 576.74C796.56 576.74 825 564 827 540C827.023 539.808 826.99 539.614 826.907 539.44C826.824 539.266 826.693 539.12 826.53 539.017C826.366 538.915 826.177 538.86 825.984 538.861C825.792 538.861 825.603 538.916 825.44 539.02C821.12 541.66 809.2 550.7 796.56 576.74Z" fill="#116A81"/>
<path d="M820.72 548C819.361 549.205 818.128 550.545 817.04 552L808.62 562.24L800.2 572.48C798.931 573.813 797.787 575.259 796.78 576.8C798.257 575.702 799.6 574.433 800.78 573.02C803.12 570.54 806.22 567.02 809.5 563.02C812.78 559.02 815.66 555.28 817.66 552.54C818.856 551.153 819.883 549.629 820.72 548Z" fill="#263238"/>
<path d="M812.88 647.82C812.88 647.82 832.38 623.6 823.24 601.34C823.169 601.162 823.051 601.008 822.899 600.893C822.746 600.778 822.565 600.708 822.375 600.689C822.185 600.67 821.993 600.705 821.821 600.788C821.649 600.871 821.504 600.999 821.4 601.16C818.78 605.4 812.3 618.9 812.88 647.82Z" fill="#116A81"/>
<path d="M821.3 611.2C820.647 612.92 820.172 614.703 819.88 616.52C819.06 620.26 818.12 624.64 817.06 629.48L814.22 642.42C813.699 644.184 813.338 645.991 813.14 647.82C813.978 646.18 814.603 644.439 815 642.64C815.96 639.36 817.12 634.8 818.2 629.74C819.28 624.68 820.2 620.04 820.68 616.68C821.089 614.882 821.297 613.044 821.3 611.2Z" fill="#263238"/>
<path d="M793.58 731.48C793.58 731.48 821.74 718.32 823.34 694.3C823.354 694.112 823.316 693.923 823.229 693.755C823.143 693.588 823.011 693.447 822.849 693.35C822.688 693.252 822.502 693.202 822.313 693.203C822.125 693.205 821.94 693.259 821.78 693.36C817.56 696 805.8 705.24 793.58 731.48Z" fill="#116A81"/>
<path d="M817.26 702.32C815.92 703.578 814.708 704.964 813.64 706.46L805.42 716.86C802.32 720.74 799.54 724.24 797.14 727.22C795.903 728.576 794.792 730.042 793.82 731.6C795.304 730.486 796.647 729.197 797.82 727.76C800.12 725.24 803.16 721.66 806.36 717.58C809.56 713.5 812.36 709.74 814.36 706.96C815.494 705.524 816.466 703.968 817.26 702.32Z" fill="#263238"/>
<path d="M737.48 609.24C737.48 609.24 737.48 609.48 737.48 609.92C737.48 610.36 737.48 611.12 737.48 611.92C737.58 613.8 737.68 616.32 737.82 619.46C738.18 626.1 738.7 635.34 739.3 646.4C741.3 657.64 747.04 670.12 754.74 682.22C760.38 691.14 766.3 699.26 771.42 706.8C776.057 713.387 780.228 720.29 783.9 727.46C786.323 732.319 788.285 737.394 789.76 742.62C790.26 744.48 790.62 745.92 790.84 746.92C790.923 747.434 791.064 747.937 791.26 748.42C791.227 747.896 791.16 747.375 791.06 746.86C790.92 745.86 790.62 744.38 790.2 742.5C788.874 737.191 787.011 732.031 784.64 727.1C781.056 719.834 776.931 712.848 772.3 706.2C767.24 698.6 761.34 690.48 755.72 681.6C748.08 669.6 742.38 657.28 740.28 646.2C739.5 635.14 738.84 625.92 738.38 619.3C738.12 616.16 737.92 613.64 737.78 611.76C737.78 610.98 737.62 610.32 737.58 609.76C737.562 609.584 737.529 609.41 737.48 609.24Z" fill="#263238"/>
<path d="M754.24 680C754.24 680 742.24 651.28 757.32 632.46C757.436 632.307 757.592 632.19 757.771 632.122C757.95 632.055 758.145 632.038 758.333 632.076C758.521 632.114 758.694 632.203 758.833 632.335C758.973 632.466 759.072 632.634 759.12 632.82C760.46 637.58 763 652.34 754.24 680Z" fill="#116A81"/>
<path d="M756.42 642.44C755.906 644.213 755.59 646.037 755.48 647.88C755.06 651.24 754.58 655.88 754.2 661.1C753.82 666.32 753.66 670.96 753.66 674.38C753.539 676.22 753.653 678.069 754 679.88C754.321 678.071 754.481 676.237 754.48 674.4C754.74 670.58 755.04 666.12 755.36 661.18C755.68 656.24 756.02 651.76 756.3 647.94C756.521 646.115 756.561 644.273 756.42 642.44Z" fill="#263238"/>
<g opacity="0.3">
<path d="M754.24 680C754.24 680 742.24 651.28 757.32 632.46C757.436 632.307 757.592 632.19 757.771 632.122C757.95 632.055 758.145 632.038 758.333 632.076C758.521 632.114 758.694 632.203 758.833 632.335C758.973 632.466 759.072 632.634 759.12 632.82C760.46 637.58 763 652.34 754.24 680Z" fill="black"/>
</g>
<path d="M791.2 749.16C791.2 749.16 781.64 719.56 798.12 702.02C798.251 701.886 798.416 701.789 798.597 701.741C798.778 701.693 798.969 701.694 799.149 701.745C799.329 701.797 799.493 701.896 799.621 702.032C799.75 702.168 799.839 702.337 799.88 702.52C800.82 707.42 802.08 722.34 791.2 749.16Z" fill="#116A81"/>
<path d="M796.4 712C795.743 713.723 795.28 715.514 795.02 717.34C794.32 720.66 793.48 725.34 792.68 730.4C791.88 735.46 791.34 740.2 791.06 743.6C790.833 745.433 790.833 747.287 791.06 749.12C791.52 747.343 791.828 745.529 791.98 743.7C792.54 739.92 793.2 735.48 793.98 730.58C794.76 725.68 795.4 721.26 795.98 717.48C796.307 715.672 796.448 713.836 796.4 712Z" fill="#263238"/>
<g opacity="0.3">
<path d="M791.2 749.16C791.2 749.16 781.64 719.56 798.12 702.02C798.251 701.886 798.416 701.789 798.597 701.741C798.778 701.693 798.969 701.694 799.149 701.745C799.329 701.797 799.493 701.896 799.621 702.032C799.75 702.168 799.839 702.337 799.88 702.52C800.82 707.42 802.08 722.34 791.2 749.16Z" fill="black"/>
</g>
<path d="M739 644.86C739 644.86 713.52 627.02 716.1 603.1C716.115 602.91 716.182 602.728 716.295 602.574C716.408 602.42 716.561 602.301 716.738 602.23C716.915 602.16 717.109 602.14 717.296 602.173C717.484 602.207 717.658 602.292 717.8 602.42C721.56 605.76 731.56 616.9 739 644.86Z" fill="#116A81"/>
<g opacity="0.3">
<path d="M739 644.86C739 644.86 713.52 627.02 716.1 603.1C716.115 602.91 716.182 602.728 716.295 602.574C716.408 602.42 716.561 602.301 716.738 602.23C716.915 602.16 717.109 602.14 717.296 602.173C717.484 602.207 717.658 602.292 717.8 602.42C721.56 605.76 731.56 616.9 739 644.86Z" fill="black"/>
</g>
<path d="M720.76 612C721.276 613.767 721.987 615.47 722.88 617.08C724.32 620.16 726.44 624.36 728.88 628.92C731.32 633.48 733.72 637.56 735.54 640.42C736.441 642.035 737.528 643.539 738.78 644.9C738.096 643.191 737.253 641.55 736.26 640C734.42 636.66 732.26 632.72 729.9 628.38L723.58 616.72C722.801 615.056 721.857 613.474 720.76 612Z" fill="#263238"/>
<path d="M781 719.82C781 719.82 750.28 715.02 742.06 692.42C741.99 692.243 741.97 692.051 742.004 691.864C742.037 691.677 742.122 691.503 742.248 691.362C742.375 691.22 742.539 691.117 742.721 691.064C742.903 691.011 743.097 691.009 743.28 691.06C748 692.42 761.88 698 781 719.82Z" fill="#116A81"/>
<g opacity="0.3">
<path d="M781 719.82C781 719.82 750.28 715.02 742.06 692.42C741.99 692.243 741.97 692.051 742.004 691.864C742.037 691.677 742.122 691.503 742.248 691.362C742.375 691.22 742.539 691.117 742.721 691.064C742.903 691.011 743.097 691.009 743.28 691.06C748 692.42 761.88 698 781 719.82Z" fill="black"/>
</g>
<path d="M750.04 698.4C751.276 699.768 752.665 700.99 754.18 702.04C756.84 704.16 760.58 707 764.8 710.04C769.02 713.08 772.96 715.66 775.86 717.42C777.376 718.479 779.015 719.352 780.74 720.02C779.369 718.787 777.882 717.688 776.3 716.74L765.48 709.1L754.68 701.4C753.235 700.25 751.681 699.245 750.04 698.4Z" fill="#263238"/>
<path d="M817.28 776.36L808.46 834.16L773.28 834.1L761.42 776.36H817.28Z" fill="#455A64"/>
<path d="M785.16 794.92C786.117 793.478 786.676 791.808 786.78 790.08C786.884 789.114 786.717 788.137 786.296 787.261C785.876 786.385 785.219 785.643 784.4 785.12C783.467 784.65 782.423 784.446 781.382 784.531C780.342 784.615 779.344 784.985 778.5 785.6C776.752 786.88 775.552 788.773 775.14 790.9C774.672 793.046 774.524 795.25 774.7 797.44C774.81 799.722 775.29 801.971 776.12 804.1C776.961 806.336 778.333 808.334 780.12 809.92C782.004 811.59 784.388 812.589 786.9 812.76C789.394 812.813 791.846 812.116 793.94 810.76C795.946 809.477 797.723 807.868 799.2 806C800.708 804.205 801.636 801.994 801.86 799.66C801.948 798.513 801.768 797.361 801.334 796.295C800.9 795.23 800.224 794.279 799.36 793.52C798.467 792.863 797.403 792.477 796.296 792.41C795.189 792.342 794.086 792.596 793.12 793.14C792.2 793.601 791.398 794.266 790.774 795.084C790.15 795.902 789.721 796.851 789.52 797.86C789.258 799.655 789.543 801.488 790.339 803.118C791.135 804.749 792.404 806.102 793.98 807C796.574 808.414 799.589 808.854 802.48 808.24C804.6 807.791 806.629 806.986 808.48 805.86C809.659 805.17 810.794 804.409 811.88 803.58C812.278 803.313 812.641 802.997 812.96 802.64C812.546 802.879 812.146 803.139 811.76 803.42C810.98 803.92 809.76 804.7 808.3 805.54C806.431 806.582 804.404 807.312 802.3 807.7C799.566 808.214 796.738 807.761 794.3 806.42C792.876 805.574 791.736 804.323 791.023 802.828C790.311 801.332 790.059 799.659 790.3 798.02C790.489 797.137 790.875 796.307 791.429 795.594C791.983 794.881 792.691 794.302 793.5 793.9C794.321 793.438 795.257 793.223 796.197 793.28C797.137 793.337 798.041 793.663 798.8 794.22C799.547 794.891 800.129 795.726 800.5 796.659C800.871 797.593 801.022 798.599 800.94 799.6C800.714 801.748 799.843 803.777 798.44 805.42C797.03 807.188 795.341 808.715 793.44 809.94C791.511 811.207 789.248 811.868 786.94 811.84C784.646 811.669 782.47 810.756 780.74 809.24C779.048 807.76 777.738 805.894 776.92 803.8C776.12 801.761 775.654 799.607 775.54 797.42C775.361 795.326 775.489 793.217 775.92 791.16C776.268 789.234 777.333 787.512 778.9 786.34C779.613 785.809 780.456 785.482 781.341 785.394C782.225 785.306 783.116 785.46 783.92 785.84C784.612 786.298 785.165 786.938 785.518 787.689C785.871 788.441 786.01 789.275 785.92 790.1C785.839 791.696 785.335 793.242 784.46 794.58C782.862 796.886 780.561 798.612 777.9 799.5C775.9 800.204 773.769 800.456 771.66 800.24C769.852 800.024 768.094 799.503 766.46 798.7C766.46 798.7 766.46 798.7 766.74 798.92C767.044 799.109 767.358 799.283 767.68 799.44C768.937 800.057 770.289 800.456 771.68 800.62C773.859 800.913 776.076 800.701 778.16 800C780.966 799.12 783.409 797.351 785.12 794.96" fill="#263238"/>
</svg>
