<svg width="415" height="629" viewBox="0 0 415 629" fill="none" xmlns="http://www.w3.org/2000/svg">
<path d="M414.42 1.23999H1.52002V628.02H414.42V1.23999Z" fill="white"/>
<path d="M413.7 33.1599H0.680176V302.9H413.7V33.1599Z" fill="#F5F5F5"/>
<path d="M101.58 341V347H110.4V349.16H101.58V356.28H99.0601V338.68H111.5V341H101.58Z" fill="#263238"/>
<path d="M113.02 349.68C112.996 348.302 113.383 346.949 114.131 345.792C114.879 344.635 115.954 343.727 117.22 343.183C118.486 342.64 119.885 342.485 121.239 342.739C122.593 342.993 123.841 343.644 124.823 344.61C125.806 345.576 126.479 346.812 126.757 348.161C127.034 349.511 126.904 350.912 126.383 352.187C125.861 353.462 124.972 354.553 123.828 355.321C122.684 356.089 121.338 356.5 119.96 356.5C119.048 356.542 118.137 356.395 117.284 356.068C116.431 355.742 115.655 355.243 115.003 354.603C114.352 353.963 113.84 353.195 113.499 352.348C113.157 351.501 112.995 350.593 113.02 349.68ZM124.44 349.68C124.401 348.799 124.104 347.948 123.585 347.235C123.066 346.521 122.35 345.975 121.524 345.666C120.697 345.356 119.799 345.297 118.939 345.494C118.079 345.691 117.296 346.137 116.687 346.775C116.079 347.414 115.671 348.217 115.515 349.085C115.36 349.954 115.462 350.849 115.811 351.659C116.16 352.469 116.739 353.159 117.477 353.643C118.214 354.127 119.078 354.383 119.96 354.38C120.572 354.395 121.18 354.283 121.745 354.049C122.31 353.816 122.82 353.466 123.242 353.023C123.664 352.581 123.989 352.054 124.195 351.478C124.402 350.903 124.485 350.29 124.44 349.68Z" fill="#263238"/>
<path d="M137.4 342.88V345.22H136.84C136.253 345.186 135.666 345.281 135.121 345.5C134.575 345.718 134.085 346.054 133.684 346.484C133.283 346.913 132.981 347.426 132.801 347.985C132.62 348.545 132.566 349.137 132.64 349.72V356.36H130.22V343H132.54V345.22C133.054 344.418 133.78 343.774 134.638 343.361C135.497 342.948 136.453 342.781 137.4 342.88Z" fill="#263238"/>
<path d="M152.98 343V354.5C152.98 359.22 150.6 361.34 146.08 361.34C143.791 361.441 141.539 360.733 139.72 359.34L140.86 357.48C142.325 358.629 144.138 359.243 146 359.22C149.14 359.22 150.58 357.76 150.58 354.74V353.68C149.976 354.345 149.233 354.87 148.403 355.215C147.573 355.561 146.678 355.72 145.78 355.68C144.903 355.729 144.025 355.598 143.2 355.296C142.375 354.994 141.62 354.527 140.982 353.923C140.343 353.32 139.835 352.592 139.487 351.785C139.14 350.978 138.961 350.109 138.961 349.23C138.961 348.351 139.14 347.482 139.487 346.675C139.835 345.868 140.343 345.141 140.982 344.537C141.62 343.933 142.375 343.466 143.2 343.164C144.025 342.862 144.903 342.731 145.78 342.78C146.715 342.738 147.647 342.915 148.501 343.297C149.355 343.679 150.108 344.255 150.7 344.98V342.98L152.98 343ZM150.62 349.3C150.543 348.135 150.026 347.043 149.174 346.245C148.321 345.447 147.198 345.003 146.03 345.003C144.863 345.003 143.739 345.447 142.886 346.245C142.034 347.043 141.517 348.135 141.44 349.3C141.517 350.465 142.034 351.557 142.886 352.355C143.739 353.153 144.863 353.597 146.03 353.597C147.198 353.597 148.321 353.153 149.174 352.355C150.026 351.557 150.543 350.465 150.62 349.3Z" fill="#263238"/>
<path d="M156.36 349.68C156.336 348.302 156.723 346.949 157.471 345.792C158.219 344.635 159.294 343.727 160.56 343.183C161.826 342.64 163.225 342.485 164.579 342.739C165.933 342.993 167.181 343.644 168.163 344.61C169.146 345.576 169.819 346.812 170.097 348.161C170.374 349.511 170.244 350.912 169.722 352.187C169.201 353.462 168.312 354.553 167.168 355.321C166.024 356.089 164.678 356.5 163.3 356.5C162.388 356.541 161.477 356.395 160.624 356.068C159.771 355.742 158.995 355.243 158.343 354.603C157.692 353.963 157.18 353.195 156.839 352.348C156.497 351.501 156.334 350.593 156.36 349.68ZM167.78 349.68C167.741 348.799 167.444 347.948 166.925 347.235C166.406 346.521 165.689 345.975 164.863 345.666C164.037 345.356 163.138 345.297 162.279 345.494C161.419 345.691 160.636 346.137 160.027 346.775C159.419 347.414 159.011 348.217 158.855 349.085C158.699 349.954 158.802 350.849 159.151 351.659C159.5 352.469 160.079 353.159 160.817 353.643C161.554 354.127 162.418 354.383 163.3 354.38C163.912 354.395 164.52 354.283 165.085 354.049C165.65 353.816 166.16 353.466 166.582 353.023C167.004 352.581 167.329 352.054 167.535 351.478C167.742 350.903 167.825 350.29 167.78 349.68Z" fill="#263238"/>
<path d="M181.06 355.56C180.222 356.195 179.192 356.527 178.14 356.5C177.573 356.566 176.999 356.504 176.46 356.318C175.92 356.132 175.43 355.827 175.024 355.425C174.619 355.024 174.309 354.536 174.118 353.999C173.927 353.461 173.859 352.887 173.92 352.32V345H171.64V343H174V340.08H176.4V343H180.22V345H176.4V352.22C176.366 352.502 176.392 352.788 176.478 353.059C176.563 353.33 176.705 353.58 176.894 353.792C177.083 354.004 177.315 354.173 177.575 354.288C177.835 354.403 178.116 354.462 178.4 354.46C179.081 354.463 179.743 354.238 180.28 353.82L181.06 355.56Z" fill="#263238"/>
<path d="M204.54 349.68C204.588 350.581 204.447 351.483 204.127 352.327C203.806 353.171 203.313 353.938 202.678 354.58C202.044 355.222 201.282 355.725 200.442 356.055C199.602 356.386 198.702 356.537 197.8 356.5C196.91 356.527 196.025 356.344 195.219 355.965C194.413 355.587 193.707 355.023 193.16 354.32V361.22H190.74V343H193.06V345.1C193.611 344.372 194.33 343.788 195.155 343.398C195.98 343.008 196.888 342.823 197.8 342.86C198.702 342.822 199.602 342.974 200.442 343.304C201.282 343.635 202.044 344.137 202.678 344.779C203.313 345.421 203.806 346.189 204.127 347.033C204.447 347.877 204.588 348.778 204.54 349.68ZM202.1 349.68C202.061 348.799 201.764 347.95 201.246 347.237C200.729 346.523 200.013 345.978 199.188 345.668C198.363 345.358 197.465 345.296 196.606 345.492C195.747 345.688 194.964 346.131 194.354 346.768C193.745 347.404 193.335 348.206 193.177 349.073C193.019 349.94 193.119 350.834 193.465 351.645C193.811 352.456 194.387 353.147 195.122 353.633C195.857 354.119 196.719 354.379 197.6 354.38C198.212 354.395 198.821 354.283 199.387 354.049C199.954 353.816 200.465 353.467 200.888 353.024C201.312 352.582 201.639 352.056 201.847 351.48C202.056 350.904 202.142 350.291 202.1 349.68Z" fill="#263238"/>
<path d="M218.32 348.3V356.3H216V354.54C215.499 355.216 214.834 355.755 214.068 356.105C213.302 356.454 212.46 356.604 211.62 356.54C208.6 356.54 206.7 354.92 206.7 352.54C206.7 350.16 208.08 348.64 212.04 348.64H216V348.18C216 346.18 214.8 344.96 212.42 344.96C210.893 344.938 209.404 345.439 208.2 346.38L207.2 344.58C208.787 343.403 210.725 342.797 212.7 342.86C216.26 342.88 218.32 344.64 218.32 348.3ZM215.92 352.3V350.44H212.2C209.8 350.44 209.12 351.38 209.12 352.44C209.12 353.5 210.22 354.6 212.06 354.6C212.88 354.679 213.704 354.494 214.413 354.074C215.121 353.653 215.677 353.018 216 352.26L215.92 352.3Z" fill="#263238"/>
<path d="M221.12 355L222.12 353C223.515 353.901 225.14 354.38 226.8 354.38C229.04 354.38 229.96 353.7 229.96 352.58C229.96 349.58 221.54 352.18 221.54 346.86C221.54 344.48 223.68 342.86 227.1 342.86C228.799 342.832 230.476 343.253 231.96 344.08L230.92 345.98C229.771 345.259 228.436 344.89 227.08 344.92C224.96 344.92 223.94 345.7 223.94 346.76C223.94 349.9 232.38 347.34 232.38 352.52C232.38 354.94 230.18 356.52 226.62 356.52C224.675 356.581 222.758 356.051 221.12 355Z" fill="#263238"/>
<path d="M233.72 355L234.72 353C236.115 353.901 237.74 354.38 239.4 354.38C241.64 354.38 242.56 353.7 242.56 352.58C242.56 349.58 234.14 352.18 234.14 346.86C234.14 344.48 236.28 342.86 239.7 342.86C241.399 342.832 243.076 343.253 244.56 344.08L243.52 345.98C242.371 345.259 241.036 344.89 239.68 344.92C237.56 344.92 236.54 345.7 236.54 346.76C236.54 349.9 244.98 347.34 244.98 352.52C244.98 354.94 242.78 356.52 239.22 356.52C237.275 356.581 235.357 356.051 233.72 355Z" fill="#263238"/>
<path d="M268 343L263.02 356.32H260.7L256.86 346.32L252.96 356.32H250.64L245.62 343H248L251.88 353.6L255.88 343H257.88L261.88 353.66L265.88 343H268Z" fill="#263238"/>
<path d="M268.76 349.68C268.74 348.308 269.129 346.961 269.876 345.811C270.623 344.66 271.696 343.757 272.957 343.218C274.219 342.678 275.612 342.526 276.96 342.78C278.309 343.034 279.551 343.683 280.53 344.644C281.508 345.606 282.179 346.837 282.456 348.18C282.734 349.524 282.606 350.92 282.088 352.191C281.57 353.461 280.687 354.549 279.549 355.317C278.412 356.084 277.072 356.496 275.7 356.5C274.788 356.542 273.877 356.395 273.024 356.068C272.171 355.742 271.395 355.243 270.743 354.603C270.092 353.963 269.58 353.195 269.238 352.348C268.897 351.501 268.734 350.593 268.76 349.68ZM280.16 349.68C280.117 348.804 279.817 347.959 279.299 347.252C278.78 346.544 278.065 346.004 277.243 345.699C276.42 345.394 275.526 345.338 274.672 345.536C273.817 345.735 273.04 346.18 272.436 346.816C271.832 347.453 271.428 348.252 271.274 349.116C271.121 349.98 271.224 350.87 271.572 351.675C271.92 352.481 272.496 353.166 273.23 353.647C273.964 354.128 274.823 354.383 275.7 354.38C276.311 354.396 276.918 354.283 277.482 354.049C278.047 353.815 278.556 353.466 278.976 353.023C279.397 352.579 279.719 352.053 279.923 351.477C280.127 350.901 280.208 350.289 280.16 349.68Z" fill="#263238"/>
<path d="M293.12 342.88V345.22H292.56C291.973 345.186 291.386 345.281 290.841 345.5C290.295 345.718 289.805 346.054 289.404 346.484C289.003 346.914 288.701 347.426 288.521 347.986C288.34 348.545 288.286 349.137 288.36 349.72V356.36H286V343H288.3V345.22C288.811 344.424 289.531 343.785 290.381 343.372C291.231 342.959 292.179 342.789 293.12 342.88Z" fill="#263238"/>
<path d="M308.54 337.68V356.34H306.22V354.22C305.674 354.961 304.954 355.556 304.124 355.953C303.294 356.351 302.38 356.539 301.46 356.5C299.718 356.405 298.078 355.647 296.878 354.38C295.678 353.113 295.009 351.435 295.009 349.69C295.009 347.945 295.678 346.267 296.878 345C298.078 343.733 299.718 342.974 301.46 342.88C302.35 342.848 303.235 343.025 304.044 343.396C304.854 343.768 305.564 344.324 306.12 345.02V337.68H308.54ZM306.14 349.68C306.101 348.799 305.803 347.948 305.285 347.235C304.766 346.521 304.049 345.976 303.223 345.666C302.397 345.357 301.498 345.297 300.639 345.494C299.779 345.691 298.996 346.137 298.387 346.775C297.779 347.414 297.371 348.217 297.215 349.085C297.059 349.954 297.162 350.849 297.511 351.659C297.86 352.469 298.439 353.159 299.177 353.643C299.914 354.127 300.778 354.383 301.66 354.38C302.272 354.396 302.88 354.283 303.445 354.049C304.01 353.816 304.52 353.466 304.942 353.023C305.364 352.581 305.689 352.054 305.895 351.479C306.102 350.903 306.185 350.29 306.14 349.68Z" fill="#263238"/>
<path d="M320.98 343.38C320.98 341.78 319.66 340.68 317.38 340.68C316.525 340.633 315.671 340.789 314.889 341.137C314.106 341.485 313.418 342.014 312.88 342.68L311.06 341.38C311.842 340.428 312.839 339.675 313.969 339.185C315.1 338.694 316.331 338.48 317.56 338.56C321.18 338.56 323.56 340.24 323.56 343.04C323.56 347.24 319.12 347.5 319.12 350.8H316.6C316.56 346.84 320.98 346.28 320.98 343.38ZM316.2 354.88C316.245 354.479 316.435 354.108 316.736 353.839C317.037 353.57 317.426 353.421 317.83 353.421C318.234 353.421 318.623 353.57 318.924 353.839C319.225 354.108 319.416 354.479 319.46 354.88C319.416 355.281 319.225 355.652 318.924 355.921C318.623 356.19 318.234 356.339 317.83 356.339C317.426 356.339 317.037 356.19 316.736 355.921C316.435 355.652 316.245 355.281 316.2 354.88Z" fill="#263238"/>
<path d="M371.22 392.46C371.22 392.76 300.46 392.98 213.22 392.98C125.98 392.98 55.22 392.76 55.22 392.46C55.22 392.16 125.96 391.94 213.22 391.94C300.48 391.94 371.22 392.18 371.22 392.46Z" fill="black"/>
<path d="M303.76 409.36C303.76 409.64 263.22 409.88 213.2 409.88C163.18 409.88 122.62 409.64 122.62 409.36C122.62 409.08 163.18 408.84 213.2 408.84C263.22 408.84 303.76 409 303.76 409.36Z" fill="black"/>
<path d="M275.2 195.18C281.815 189.009 286.559 181.101 288.887 172.359C291.216 163.618 291.035 154.398 288.366 145.754C285.697 137.111 280.648 129.394 273.797 123.487C266.945 117.58 258.568 113.722 249.626 112.356C240.684 110.989 231.537 112.168 223.234 115.759C214.931 119.35 207.807 125.206 202.678 132.658C197.55 140.11 194.623 148.855 194.234 157.893C193.846 166.931 196.01 175.895 200.48 183.76L190.68 192.9L193.04 209.16L177.82 205L165.56 216.44L168 232.6L152.8 228.34L142.26 238.16L143.7 248.16L134.42 245.56L128.3 251.28L127.38 266.34L149.84 272L222.74 204C231.385 207.842 240.969 209.055 250.298 207.486C259.627 205.918 268.287 201.638 275.2 195.18ZM268 135.96C269.866 137.958 271.098 140.465 271.539 143.163C271.98 145.862 271.61 148.63 270.478 151.118C269.345 153.607 267.499 155.703 265.175 157.143C262.85 158.582 260.151 159.299 257.419 159.204C254.686 159.109 252.043 158.205 249.825 156.608C247.606 155.01 245.911 152.79 244.954 150.229C243.997 147.668 243.821 144.881 244.449 142.22C245.077 139.559 246.479 137.143 248.48 135.28C251.16 132.784 254.721 131.453 258.381 131.581C262.041 131.708 265.501 133.283 268 135.96Z" fill="#263238"/>
<path d="M268 135.96C268 135.96 267.1 135.12 265.26 133.96C262.644 132.397 259.59 131.729 256.56 132.06C254.105 132.325 251.771 133.268 249.822 134.785C247.872 136.301 246.383 138.33 245.522 140.645C244.661 142.96 244.461 145.468 244.945 147.89C245.429 150.312 246.578 152.551 248.263 154.357C249.948 156.163 252.103 157.464 254.485 158.114C256.868 158.764 259.385 158.738 261.753 158.039C264.122 157.339 266.249 155.994 267.896 154.154C269.544 152.314 270.646 150.051 271.08 147.62C271.636 144.624 271.179 141.527 269.78 138.82C268.78 136.82 267.9 136.02 268 135.94C268.1 135.86 268.26 136.12 268.66 136.54C269.248 137.146 269.765 137.817 270.2 138.54C271.826 141.298 272.435 144.539 271.92 147.7C271.622 149.58 270.949 151.381 269.941 152.997C268.933 154.612 267.611 156.008 266.054 157.103C264.497 158.198 262.735 158.969 260.874 159.371C259.013 159.772 257.09 159.796 255.22 159.44C252.207 158.888 249.452 157.379 247.362 155.139C245.273 152.898 243.961 150.044 243.62 147C243.396 145.111 243.553 143.196 244.082 141.368C244.612 139.541 245.502 137.838 246.701 136.361C247.9 134.884 249.384 133.663 251.063 132.769C252.743 131.876 254.585 131.329 256.48 131.16C259.677 130.865 262.876 131.7 265.52 133.52C266.252 133.99 266.924 134.547 267.52 135.18C268 135.7 268.12 135.94 268 135.96Z" fill="#263238"/>
<path d="M275.2 195.18C275.2 195.18 274.98 195.42 274.5 195.84L272.38 197.84C269.506 200.18 266.38 202.193 263.06 203.84C256.741 206.867 249.84 208.487 242.834 208.587C235.828 208.687 228.883 207.265 222.48 204.42H222.88L150.1 272.54L149.9 272.76H149.6L127.14 267.12L126.68 267.02V266.54C126.96 261.84 127.26 256.7 127.58 251.48V251L127.74 250.84L134 245L134.22 244.78H134.54L143.82 247.38L143.08 248.02C142.62 244.92 142.14 241.52 141.64 238.02V237.72L141.86 237.52L152.4 227.68L152.64 227.44H152.96L168.16 231.7L167.42 232.36C166.68 227.2 165.88 221.68 165.08 216.1V215.78L165.32 215.58L168.56 212.54L177.58 204.14L177.82 203.9H178.14L193.36 208.16L192.6 208.82C191.813 203.34 191.034 197.92 190.26 192.56V192.26L190.48 192.04L200.28 182.9L200.18 183.62C196.388 176.883 194.243 169.344 193.92 161.62C193.733 157.888 194.002 154.147 194.72 150.48C195.375 146.874 196.449 143.357 197.92 140C201.63 131.51 207.689 124.257 215.384 119.096C223.079 113.935 232.089 111.082 241.352 110.872C250.615 110.661 259.745 113.103 267.666 117.91C275.587 122.716 281.969 129.687 286.06 138C289.897 145.843 291.535 154.58 290.8 163.28C290.293 169.765 288.455 176.077 285.4 181.82C285.1 182.42 284.8 182.98 284.5 183.54L283.52 185.06C282.86 186.04 282.32 187.06 281.68 187.8C280.38 189.36 279.38 190.76 278.4 191.8L276 194.46L275.22 195.18C275.22 195.18 275.44 194.9 275.92 194.38L278.08 192.08C279.02 191.08 280.08 189.66 281.26 188.08C281.86 187.26 282.38 186.3 283.02 185.34C283.34 184.84 283.66 184.34 283.98 183.8L284.86 182.1C287.815 176.416 289.595 170.195 290.095 163.809C290.594 157.422 289.804 151 287.77 144.925C285.736 138.851 282.5 133.248 278.255 128.45C274.011 123.652 268.844 119.757 263.062 116.998C257.281 114.239 251.003 112.672 244.603 112.389C238.203 112.107 231.812 113.116 225.81 115.356C219.808 117.595 214.319 121.02 209.668 125.426C205.017 129.831 201.301 135.128 198.74 141C197.314 144.283 196.267 147.719 195.62 151.24C194.936 154.824 194.681 158.476 194.86 162.12C195.201 169.636 197.305 176.966 201 183.52L201.22 183.92L200.88 184.24L191.1 193.38L191.28 192.86C192.054 198.193 192.834 203.62 193.62 209.14L193.76 210.04L192.86 209.8L177.66 205.54L178.24 205.4L169.22 213.8L166 216.78L166.18 216.24C166.98 221.82 167.78 227.36 168.52 232.5L168.66 233.42L167.76 233.18L152.56 228.9L153.12 228.76C149.5 232.16 145.9 235.5 142.58 238.6L142.78 238.08C143.26 241.5 143.74 244.9 144.2 248.08L144.32 248.96L143.46 248.72L134.2 246.12L134.74 245.98L128.6 251.7L128.78 251.32C128.46 256.54 128.14 261.68 127.86 266.38L127.44 265.8L149.9 271.46L149.4 271.6L222.4 203.72L222.58 203.56H222.8C229.114 206.401 235.967 207.847 242.891 207.799C249.814 207.75 256.646 206.209 262.92 203.28C266.23 201.703 269.367 199.786 272.28 197.56L274.46 195.74L275.2 195.18Z" fill="#263238"/>
<path d="M273.58 189.72C280.192 183.553 284.934 175.649 287.262 166.912C289.59 158.176 289.411 148.96 286.745 140.321C284.079 131.682 279.034 123.968 272.188 118.062C265.341 112.157 256.97 108.299 248.033 106.93C239.096 105.562 229.954 106.737 221.654 110.323C213.354 113.909 206.231 119.759 201.102 127.205C195.973 134.651 193.044 143.39 192.651 152.423C192.258 161.456 194.417 170.417 198.88 178.28L189.1 187.4L191.44 203.68L176.24 199.4L164 210.86L166.34 227.12L151.14 222.86L140.6 232.7L142.02 242.7L132.76 240.12L126.62 245.84L125.7 260.9L148.16 266.54L221.06 198.54C229.71 202.403 239.309 203.627 248.652 202.058C257.994 200.489 266.666 196.197 273.58 189.72ZM266.46 130.5C268.326 132.498 269.558 135.005 269.999 137.703C270.44 140.402 270.071 143.17 268.938 145.658C267.805 148.147 265.959 150.243 263.635 151.683C261.31 153.122 258.611 153.839 255.879 153.744C253.146 153.649 250.503 152.745 248.285 151.148C246.066 149.55 244.371 147.33 243.414 144.769C242.457 142.208 242.281 139.421 242.909 136.76C243.537 134.099 244.94 131.683 246.94 129.82C248.266 128.582 249.823 127.617 251.522 126.981C253.22 126.344 255.028 126.049 256.841 126.113C258.654 126.176 260.437 126.596 262.087 127.349C263.738 128.101 265.224 129.172 266.46 130.5Z" fill="#E3F1F6"/>
<path d="M266.46 130.5C266.46 130.5 265.56 129.66 263.72 128.5C261.13 126.885 258.075 126.181 255.04 126.5C252.591 126.769 250.265 127.714 248.323 129.23C246.38 130.746 244.897 132.772 244.041 135.082C243.184 137.392 242.986 139.894 243.47 142.31C243.955 144.726 245.101 146.959 246.782 148.761C248.463 150.562 250.612 151.86 252.989 152.51C255.365 153.16 257.876 153.136 260.239 152.441C262.603 151.745 264.727 150.406 266.373 148.573C268.019 146.74 269.122 144.485 269.56 142.06C270.112 139.061 269.647 135.965 268.24 133.26C267.24 131.26 266.38 130.46 266.46 130.38C266.54 130.3 266.72 130.56 267.14 130.98C267.721 131.587 268.231 132.258 268.66 132.98C270.293 135.743 270.901 138.993 270.38 142.16C270.079 144.037 269.405 145.835 268.398 147.447C267.391 149.059 266.071 150.454 264.516 151.548C262.962 152.642 261.204 153.414 259.346 153.818C257.488 154.222 255.569 154.25 253.7 153.9C250.688 153.377 247.924 151.899 245.817 149.684C243.71 147.469 242.372 144.635 242 141.6C241.782 139.712 241.943 137.799 242.474 135.974C243.006 134.148 243.897 132.448 245.095 130.972C246.293 129.496 247.774 128.275 249.451 127.38C251.128 126.485 252.967 125.934 254.86 125.76C258.059 125.469 261.259 126.311 263.9 128.14C264.636 128.604 265.309 129.162 265.9 129.8C266.32 130.24 266.5 130.48 266.46 130.5Z" fill="#263238"/>
<path d="M273.58 189.72C273.58 189.72 273.36 189.96 272.9 190.38L270.78 192.26C267.902 194.594 264.776 196.606 261.46 198.26C255.137 201.286 248.233 202.905 241.224 203.005C234.215 203.105 227.267 201.684 220.86 198.84H221.26L148.5 266.96L148.28 267.16H148L125.52 261.52L125.08 261.4V260.94C125.36 256.24 125.68 251.1 125.98 245.88V245.64L126.14 245.5L132.28 239.76L132.52 239.54H132.84L142.1 242.12L141.36 242.78C140.92 239.68 140.42 236.28 139.92 232.78V232.48L140.16 232.26L150.68 222.44L150.92 222.2L151.26 222.3L166.46 226.56L165.7 227.22L163.36 211V210.68L163.58 210.46L166.84 207.44L175.84 199.04L176.08 198.8L176.42 198.9L191.62 203.16L190.86 203.82C190.073 198.34 189.293 192.92 188.52 187.56V187.24L188.76 187.04L198.56 177.9L198.44 178.62C194.648 171.883 192.503 164.344 192.18 156.62C192.003 152.888 192.272 149.148 192.98 145.48C193.639 141.875 194.713 138.358 196.18 135C200.731 124.42 208.898 115.805 219.219 110.697C229.541 105.588 241.344 104.319 252.515 107.117C263.687 109.914 273.499 116.596 280.194 125.967C286.89 135.337 290.033 146.784 289.06 158.26C288.55 164.745 286.712 171.056 283.66 176.8L282.76 178.52L281.78 180.04C281.12 181.02 280.58 182.04 279.96 182.78C278.66 184.34 277.66 185.74 276.68 186.78L274.36 189C273.86 189.5 273.58 189.74 273.58 189.74C273.58 189.74 273.82 189.44 274.3 188.92L276.44 186.64C277.38 185.64 278.44 184.22 279.62 182.64C280.22 181.84 280.76 180.88 281.4 179.9L282.36 178.38L283.22 176.66C286.176 170.948 287.939 164.695 288.4 158.28C289.25 147.048 286.099 135.877 279.505 126.745C272.911 117.613 263.3 111.107 252.371 108.38C241.442 105.652 229.9 106.879 219.789 111.842C209.677 116.805 201.647 125.186 197.12 135.5C195.7 138.784 194.66 142.22 194.02 145.74C193.326 149.322 193.07 152.976 193.26 156.62C193.595 164.134 195.692 171.465 199.38 178.02L199.62 178.42L199.28 178.74L189.48 187.88L189.66 187.36C190.447 192.693 191.227 198.113 192 203.62L192.14 204.54L191.26 204.28L176 200L176.56 199.86L167.56 208.28L164.3 211.3L164.48 210.78C165.3 216.36 166.08 221.88 166.82 227.04L166.96 227.96L166.08 227.7L150.86 223.44L151.44 223.3L140.9 233.12L141.08 232.62C141.56 236.04 142.06 239.42 142.5 242.52L142.62 243.42L141.76 243.18L132.5 240.58L133.04 240.44L126.92 246.16L127.1 245.76C126.78 250.98 126.46 256.14 126.16 260.82L125.74 260.24L148.2 265.92L147.7 266.06L220.7 198.18L220.88 198.02L221.1 198.12C227.418 200.947 234.269 202.385 241.19 202.337C248.112 202.289 254.942 200.755 261.22 197.84C264.534 196.259 267.677 194.343 270.6 192.12L272.76 190.3L273.58 189.72Z" fill="#263238"/>
<path d="M269.16 185.96C271.535 183.418 273.702 180.689 275.64 177.8C277.834 174.376 279.499 170.64 280.58 166.72C282.058 161.524 282.527 156.092 281.96 150.72C281.303 144.228 279.131 137.98 275.62 132.48C271.576 126.183 265.929 121.075 259.26 117.68C255.688 115.82 251.849 114.525 247.88 113.84C245.839 113.459 243.774 113.218 241.7 113.12C239.582 113.087 237.464 113.194 235.36 113.44C226.524 114.453 218.246 118.273 211.741 124.339C205.236 130.404 200.848 138.396 199.22 147.14C198.828 149.221 198.574 151.325 198.46 153.44C198.419 155.518 198.519 157.596 198.76 159.66C199.163 163.668 200.189 167.588 201.8 171.28C204.72 178.172 209.429 184.159 215.44 188.62C220.672 192.515 226.751 195.119 233.18 196.22C238.481 197.159 243.913 197.071 249.18 195.96C253.167 195.142 257.009 193.733 260.58 191.78C263.595 190.057 266.465 188.09 269.16 185.9C269.16 185.9 269.02 186.08 268.68 186.38L267.18 187.74C266.377 188.477 265.514 189.146 264.6 189.74C263.398 190.65 262.128 191.466 260.8 192.18C257.221 194.23 253.35 195.72 249.32 196.6C239.595 198.772 229.416 197.471 220.55 192.923C211.683 188.375 204.689 180.866 200.78 171.7C199.111 167.888 198.045 163.839 197.62 159.7C197.047 155.474 197.175 151.183 198 147C199.661 138.003 204.169 129.777 210.86 123.537C217.55 117.296 226.069 113.371 235.16 112.34C239.442 111.789 243.786 111.937 248.02 112.78C252.094 113.512 256.033 114.861 259.7 116.78C266.53 120.284 272.296 125.553 276.4 132.04C279.64 137.191 281.747 142.972 282.582 148.999C283.416 155.027 282.959 161.163 281.24 167C280.087 170.967 278.326 174.732 276.02 178.16C275.228 179.432 274.331 180.636 273.34 181.76C272.674 182.632 271.939 183.448 271.14 184.2L269.68 185.6C269.36 185.82 269.18 185.98 269.16 185.96Z" fill="#263238"/>
<path d="M267.22 151.78C267.12 151.78 268.22 150.74 269.56 148.6C271.445 145.545 272.248 141.946 271.84 138.38C271.563 135.767 270.632 133.267 269.132 131.11C267.632 128.953 265.613 127.209 263.26 126.04C260.512 124.633 257.405 124.083 254.34 124.46C251.934 124.75 249.628 125.595 247.603 126.928C245.579 128.26 243.892 130.045 242.674 132.141C241.456 134.237 240.742 136.586 240.587 139.005C240.432 141.424 240.84 143.846 241.78 146.08C242.881 148.65 244.632 150.89 246.86 152.58C248.823 154.042 251.094 155.034 253.5 155.48C257.033 156.131 260.682 155.575 263.86 153.9C266.1 152.72 267.12 151.68 267.22 151.78C267.32 151.88 267 152.08 266.5 152.54C265.771 153.232 264.958 153.83 264.08 154.32C261.342 155.906 258.201 156.662 255.041 156.495C251.88 156.328 248.837 155.246 246.28 153.38C243.723 151.53 241.744 148.99 240.576 146.058C239.407 143.126 239.096 139.922 239.68 136.82C240.325 133.305 242.086 130.091 244.702 127.656C247.317 125.22 250.648 123.693 254.2 123.3C257.496 122.902 260.835 123.508 263.78 125.04C266.437 126.425 268.675 128.497 270.26 131.04C271.931 133.724 272.792 136.833 272.738 139.994C272.685 143.155 271.72 146.234 269.96 148.86C269.388 149.698 268.716 150.463 267.96 151.14C267.52 151.6 267.24 151.82 267.22 151.78Z" fill="#263238"/>
<path d="M142.24 263.78C142.02 263.54 158.42 247.78 178.9 228.76C199.38 209.74 216.16 194.38 216.38 194.62C216.6 194.86 200.2 210.62 179.72 229.64C159.24 248.66 142.46 264.02 142.24 263.78Z" fill="#263238"/>
<path d="M151.28 168.34L151.96 166.86L152.84 168.22C153.559 169.306 154.571 170.166 155.76 170.7L157.26 171.36L155.9 172.26C154.804 172.973 153.936 173.987 153.4 175.18L152.74 176.66L151.84 175.3C151.124 174.21 150.111 173.35 148.92 172.82L147.44 172.16L148.8 171.26C149.896 170.551 150.758 169.536 151.28 168.34Z" fill="#116A81"/>
<path d="M106.66 157.22L107.04 156.36L107.56 157.14C107.972 157.777 108.563 158.278 109.26 158.58L110.12 158.98L109.32 159.5C108.692 159.913 108.192 160.496 107.88 161.18L107.5 162.06L106.98 161.26C106.568 160.622 105.976 160.121 105.28 159.82L104.42 159.42L105.2 158.92C105.834 158.498 106.339 157.91 106.66 157.22Z" fill="#116A81"/>
<path d="M247.2 233.28L247.58 232.42L248.1 233.22C248.528 233.843 249.115 234.34 249.8 234.66L250.66 235.04L249.88 235.56C249.242 235.972 248.741 236.563 248.44 237.26L248.04 238.12L247.52 237.34C247.109 236.704 246.527 236.198 245.84 235.88L244.96 235.5L245.76 234.98C246.397 234.568 246.898 233.976 247.2 233.28Z" fill="#116A81"/>
<path d="M316 194.28L316.66 192.8L317.56 194.16C318.275 195.25 319.289 196.111 320.48 196.64L321.96 197.3L320.6 198.2C319.509 198.914 318.648 199.928 318.12 201.12L317.44 202.6L316.56 201.24C315.836 200.158 314.825 199.3 313.64 198.76L312.14 198.1L313.5 197.2C314.596 196.486 315.464 195.473 316 194.28Z" fill="#116A81"/>
<path d="M307.06 139.64L308.18 137.14L309.68 139.44C310.885 141.269 312.584 142.718 314.58 143.62L317.08 144.72L314.78 146.22C312.954 147.437 311.506 149.141 310.6 151.14L309.48 153.64L307.98 151.34C306.775 149.511 305.076 148.062 303.08 147.16L300.58 146.04L302.88 144.54C304.709 143.335 306.158 141.636 307.06 139.64Z" fill="#116A81"/>
<path d="M137.42 122.8L138.54 120.3L140.04 122.58C141.239 124.414 142.94 125.865 144.94 126.76L147.44 127.88L145.16 129.38C143.321 130.573 141.868 132.276 140.98 134.28L139.86 136.78L138.36 134.5C137.158 132.661 135.449 131.209 133.44 130.32L130.96 129.2L133.24 127.7C135.074 126.501 136.525 124.8 137.42 122.8Z" fill="#116A81"/>
<path d="M413.68 33.1599C413.68 33.4399 321.22 33.6799 207.18 33.6799C93.1402 33.6799 0.680176 33.4399 0.680176 33.1599C0.680176 32.8799 93.1202 32.6399 207.18 32.6399C321.24 32.6399 413.68 32.8799 413.68 33.1599Z" fill="#263238"/>
<path d="M24.0002 16.76C23.9962 17.752 23.6985 18.7206 23.1445 19.5435C22.5904 20.3664 21.8051 21.0067 20.8874 21.3836C19.9698 21.7604 18.9611 21.857 17.9886 21.6611C17.0161 21.4651 16.1235 20.9854 15.4235 20.2826C14.7234 19.5797 14.2473 18.6852 14.0552 17.712C13.8631 16.7388 13.9637 15.7304 14.3442 14.8143C14.7248 13.8982 15.3682 13.1153 16.1933 12.5646C17.0184 12.0139 17.9882 11.72 18.9802 11.72C19.6411 11.72 20.2955 11.8505 20.9059 12.104C21.5162 12.3575 22.0705 12.7291 22.5369 13.1974C23.0034 13.6656 23.3727 14.2214 23.6238 14.8328C23.8749 15.4441 24.0028 16.0991 24.0002 16.76Z" fill="#263238"/>
<path d="M38.52 16.76C38.516 17.752 38.2182 18.7206 37.6642 19.5435C37.1102 20.3664 36.3248 21.0067 35.4072 21.3836C34.4896 21.7604 33.4809 21.857 32.5084 21.6611C31.5359 21.4651 30.6433 20.9854 29.9433 20.2826C29.2432 19.5797 28.7671 18.6852 28.575 17.712C28.3829 16.7388 28.4835 15.7304 28.864 14.8143C29.2446 13.8982 29.888 13.1153 30.7131 12.5646C31.5382 12.0139 32.5079 11.72 33.4999 11.72C34.1609 11.72 34.8153 11.8505 35.4256 12.104C36.036 12.3575 36.5903 12.7291 37.0567 13.1974C37.5231 13.6656 37.8925 14.2214 38.1436 14.8328C38.3947 15.4441 38.5226 16.0991 38.52 16.76Z" fill="#263238"/>
<path d="M52.9602 16.7598C52.9561 17.7544 52.6568 18.7253 52.1001 19.5495C51.5434 20.3736 50.7544 21.0138 49.8333 21.3889C48.9122 21.7639 47.9004 21.8569 46.9264 21.656C45.9523 21.4552 45.0598 20.9695 44.3622 20.2607C43.6646 19.5518 43.1933 18.6517 43.008 17.6746C42.8228 16.6974 42.9319 15.6873 43.3217 14.7723C43.7114 13.8573 44.3642 13.0786 45.1971 12.5352C46.0301 11.9917 47.0057 11.708 48.0002 11.7198C49.3246 11.7357 50.5891 12.2743 51.5182 13.2183C52.4472 14.1624 52.9655 15.4353 52.9602 16.7598Z" fill="#263238"/>
<path d="M414.42 628C414.42 623.72 414.22 370.12 413.94 1.23993L414.42 1.71993H0.840057L1.36005 1.19993C1.36005 237.72 1.36005 455.78 1.24005 627.96L0.840057 627.56L414.46 627.96L0.840057 628.38H0.420074V627.96C0.420074 455.78 0.420068 237.72 0.320068 1.19993V0.679932H0.880066H414.46H414.94V1.15993C414.62 370.12 414.42 623.74 414.42 628Z" fill="#263238"/>
</svg>
