<svg width="408" height="455" viewBox="0 0 408 455" fill="none" xmlns="http://www.w3.org/2000/svg">
<path d="M117.122 75.3945H73.8098V214.816H117.122V75.3945Z" fill="#F5F5F5"/>
<path d="M117.123 75.3945H95.4663V214.433H117.123V75.3945Z" fill="#EBEBEB"/>
<path d="M94.0506 61.6992H78.7559V75.3856H94.0506V61.6992Z" fill="#F5F5F5"/>
<path d="M94.0505 61.6992H90.4038V75.3856H94.0505V61.6992Z" fill="#EBEBEB"/>
<path d="M70.199 75.3945V74.5938H118.395V75.3945" fill="#E0E0E0"/>
<path d="M86.0223 81.3633H82.3577V89.2166H86.0223V81.3633Z" fill="#FAFAFA"/>
<path d="M95.4661 92.2921C95.4661 92.374 90.6188 92.4468 84.6335 92.4468C78.6482 92.4468 73.8098 92.374 73.8098 92.2921C73.8098 92.2102 78.6572 92.1465 84.6335 92.1465C90.6098 92.1465 95.4661 92.2102 95.4661 92.2921Z" fill="#E0E0E0"/>
<path d="M107.867 81.3633H104.202V89.2166H107.867V81.3633Z" fill="#E0E0E0"/>
<path d="M117.311 92.2921C117.311 92.374 112.463 92.4468 106.487 92.4468C100.511 92.4468 95.6543 92.374 95.6543 92.2921C95.6543 92.2102 100.502 92.1465 106.487 92.1465C112.472 92.1465 117.311 92.2102 117.311 92.2921Z" fill="#E0E0E0"/>
<path d="M107.867 96.9531H104.202V104.806H107.867V96.9531Z" fill="#E0E0E0"/>
<path d="M117.311 107.882C117.311 107.964 112.463 108.037 106.487 108.037C100.511 108.037 95.6543 107.964 95.6543 107.882C95.6543 107.8 100.502 107.736 106.487 107.736C112.472 107.736 117.311 107.8 117.311 107.882Z" fill="#E0E0E0"/>
<path d="M107.867 113.004H104.202V120.857H107.867V113.004Z" fill="#E0E0E0"/>
<path d="M117.311 123.942C117.311 124.024 112.463 124.088 106.487 124.088C100.511 124.088 95.6543 124.024 95.6543 123.942C95.6543 123.861 100.502 123.797 106.487 123.797C112.472 123.797 117.311 123.861 117.311 123.942Z" fill="#E0E0E0"/>
<path d="M107.867 129.066H104.202V136.92H107.867V129.066Z" fill="#E0E0E0"/>
<path d="M117.311 140.004C117.311 140.086 112.463 140.15 106.487 140.15C100.511 140.15 95.6543 140.086 95.6543 140.004C95.6543 139.922 100.502 139.85 106.487 139.85C112.472 139.85 117.311 139.922 117.311 140.004Z" fill="#E0E0E0"/>
<path d="M107.867 144.672H104.202V152.525H107.867V144.672Z" fill="#E0E0E0"/>
<path d="M117.311 155.61C117.311 155.692 112.463 155.765 106.487 155.765C100.511 155.765 95.6543 155.692 95.6543 155.61C95.6543 155.529 100.502 155.465 106.487 155.465C112.472 155.465 117.311 155.519 117.311 155.61Z" fill="#E0E0E0"/>
<path d="M107.867 160.334H104.202V168.187H107.867V160.334Z" fill="#E0E0E0"/>
<path d="M107.867 176.205H104.202V184.058H107.867V176.205Z" fill="#E0E0E0"/>
<path d="M117.311 171.263C117.311 171.345 112.463 171.417 106.487 171.417C100.511 171.417 95.6543 171.345 95.6543 171.263C95.6543 171.181 100.502 171.117 106.487 171.117C112.472 171.117 117.311 171.181 117.311 171.263Z" fill="#E0E0E0"/>
<path d="M86.0223 97.1895H82.3577V105.043H86.0223V97.1895Z" fill="#FAFAFA"/>
<path d="M95.4662 108.118C95.4662 108.2 90.6189 108.273 84.6336 108.273C78.6483 108.273 73.792 108.2 73.792 108.118C73.792 108.036 78.6394 107.973 84.6157 107.973C90.592 107.973 95.4662 108.036 95.4662 108.118Z" fill="#E0E0E0"/>
<path d="M86.0223 113.014H82.3577V120.867H86.0223V113.014Z" fill="#FAFAFA"/>
<path d="M95.4662 123.952C95.4662 124.033 90.6189 124.097 84.6336 124.097C78.6483 124.097 73.792 124.033 73.792 123.952C73.792 123.87 78.6394 123.797 84.6157 123.797C90.592 123.797 95.4662 123.87 95.4662 123.952Z" fill="#E0E0E0"/>
<path d="M86.0223 128.838H82.3577V136.691H86.0223V128.838Z" fill="#FAFAFA"/>
<path d="M95.4662 139.778C95.4662 139.86 90.6189 139.923 84.6336 139.923C78.6483 139.923 73.792 139.86 73.792 139.778C73.792 139.696 78.6394 139.623 84.6157 139.623C90.592 139.623 95.4662 139.696 95.4662 139.778Z" fill="#E0E0E0"/>
<path d="M86.0223 144.672H82.3577V152.525H86.0223V144.672Z" fill="#FAFAFA"/>
<path d="M95.4662 155.61C95.4662 155.692 90.6189 155.765 84.6336 155.765C78.6483 155.765 73.792 155.683 73.792 155.61C73.792 155.538 78.6394 155.465 84.6157 155.465C90.592 155.465 95.4662 155.519 95.4662 155.61Z" fill="#E0E0E0"/>
<path d="M86.0223 160.498H82.3577V168.351H86.0223V160.498Z" fill="#FAFAFA"/>
<path d="M95.4661 171.427C95.4661 171.509 90.6188 171.582 84.6335 171.582C78.6482 171.582 73.8098 171.509 73.8098 171.427C73.8098 171.345 78.6572 171.281 84.6335 171.281C90.6098 171.281 95.4661 171.345 95.4661 171.427Z" fill="#E0E0E0"/>
<path d="M86.0223 176.322H82.3577V184.176H86.0223V176.322Z" fill="#FAFAFA"/>
<path d="M275.75 104.951H232.438V244.372H275.75V104.951Z" fill="#F5F5F5"/>
<path d="M275.759 104.951H254.103V243.99H275.759V104.951Z" fill="#EBEBEB"/>
<path d="M252.687 91.2656H237.393V104.952H252.687V91.2656Z" fill="#F5F5F5"/>
<path d="M252.687 91.2656H249.041V104.952H252.687V91.2656Z" fill="#EBEBEB"/>
<path d="M228.836 104.951V104.15H277.023V104.951" fill="#E0E0E0"/>
<path d="M244.659 110.92H240.995V118.773H244.659V110.92Z" fill="#FAFAFA"/>
<path d="M254.103 121.86C254.103 121.942 249.256 122.005 243.27 122.005C237.285 122.005 232.438 121.942 232.438 121.86C232.438 121.778 237.294 121.705 243.27 121.705C249.247 121.705 254.103 121.778 254.103 121.86Z" fill="#E0E0E0"/>
<path d="M266.504 110.92H262.839V118.773H266.504V110.92Z" fill="#E0E0E0"/>
<path d="M275.948 121.86C275.948 121.942 271.1 122.005 265.115 122.005C259.13 122.005 254.291 121.942 254.291 121.86C254.291 121.778 259.139 121.705 265.115 121.705C271.091 121.705 275.948 121.778 275.948 121.86Z" fill="#E0E0E0"/>
<path d="M266.504 126.51H262.839V134.363H266.504V126.51Z" fill="#E0E0E0"/>
<path d="M275.948 137.411C275.948 137.492 271.1 137.556 265.115 137.556C259.13 137.556 254.291 137.492 254.291 137.411C254.291 137.329 259.139 137.256 265.115 137.256C271.091 137.256 275.948 137.411 275.948 137.411Z" fill="#E0E0E0"/>
<path d="M266.504 142.57H262.839V150.424H266.504V142.57Z" fill="#E0E0E0"/>
<path d="M275.948 153.508C275.948 153.59 271.1 153.654 265.115 153.654C259.13 153.654 254.291 153.59 254.291 153.508C254.291 153.426 259.139 153.354 265.115 153.354C271.091 153.354 275.948 153.426 275.948 153.508Z" fill="#E0E0E0"/>
<path d="M266.504 158.633H262.839V166.486H266.504V158.633Z" fill="#E0E0E0"/>
<path d="M275.948 169.562C275.948 169.653 271.1 169.716 265.115 169.716C259.13 169.716 254.291 169.653 254.291 169.562C254.291 169.471 259.139 169.416 265.115 169.416C271.091 169.416 275.948 169.48 275.948 169.562Z" fill="#E0E0E0"/>
<path d="M266.504 174.229H262.839V182.082H266.504V174.229Z" fill="#E0E0E0"/>
<path d="M275.948 185.168C275.948 185.25 271.1 185.314 265.115 185.314C259.13 185.314 254.291 185.25 254.291 185.168C254.291 185.086 259.139 185.014 265.115 185.014C271.091 185.014 275.948 185.086 275.948 185.168Z" fill="#E0E0E0"/>
<path d="M266.504 189.891H262.839V197.744H266.504V189.891Z" fill="#E0E0E0"/>
<path d="M266.504 205.762H262.839V213.615H266.504V205.762Z" fill="#E0E0E0"/>
<path d="M275.948 200.829C275.948 200.911 271.1 200.975 265.115 200.975C259.13 200.975 254.291 200.911 254.291 200.829C254.291 200.747 259.139 200.684 265.115 200.684C271.091 200.684 275.948 200.747 275.948 200.829Z" fill="#E0E0E0"/>
<path d="M244.659 126.746H240.995V134.599H244.659V126.746Z" fill="#FAFAFA"/>
<path d="M254.103 137.685C254.103 137.767 249.256 137.83 243.27 137.83C237.285 137.83 232.438 137.767 232.438 137.685C232.438 137.603 237.294 137.539 243.27 137.539C249.247 137.539 254.103 137.603 254.103 137.685Z" fill="#E0E0E0"/>
<path d="M244.659 142.58H240.995V150.433H244.659V142.58Z" fill="#FAFAFA"/>
<path d="M254.103 153.509C254.103 153.591 249.256 153.664 243.27 153.664C237.285 153.664 232.438 153.591 232.438 153.509C232.438 153.427 237.294 153.363 243.27 153.363C249.247 153.363 254.103 153.427 254.103 153.509Z" fill="#E0E0E0"/>
<path d="M244.659 158.404H240.995V166.258H244.659V158.404Z" fill="#FAFAFA"/>
<path d="M254.103 169.333C254.103 169.424 249.256 169.488 243.27 169.488C237.285 169.488 232.438 169.424 232.438 169.333C232.438 169.242 237.294 169.188 243.27 169.188C249.247 169.188 254.103 169.26 254.103 169.333Z" fill="#E0E0E0"/>
<path d="M244.659 174.229H240.995V182.082H244.659V174.229Z" fill="#FAFAFA"/>
<path d="M254.103 185.168C254.103 185.25 249.256 185.314 243.27 185.314C237.285 185.314 232.438 185.25 232.438 185.168C232.438 185.086 237.294 185.014 243.27 185.014C249.247 185.014 254.103 185.086 254.103 185.168Z" fill="#E0E0E0"/>
<path d="M244.659 190.062H240.995V197.916H244.659V190.062Z" fill="#FAFAFA"/>
<path d="M254.103 200.993C254.103 201.075 249.256 201.139 243.27 201.139C237.285 201.139 232.438 201.075 232.438 200.993C232.438 200.911 237.294 200.848 243.27 200.848C249.247 200.848 254.103 200.911 254.103 200.993Z" fill="#E0E0E0"/>
<path d="M244.659 205.889H240.995V213.742H244.659V205.889Z" fill="#FAFAFA"/>
<path d="M329.842 159.051H259.703V252.999H329.842V159.051Z" fill="#EBEBEB"/>
<path d="M329.833 159.051H296.95V252.999H329.833V159.051Z" fill="#E0E0E0"/>
<path d="M280.714 171.771H274.406V187.332H280.714V171.771Z" fill="#F5F5F5"/>
<path d="M280.714 232.67H274.406V248.231H280.714V232.67Z" fill="#F5F5F5"/>
<path d="M296.95 193.44C296.95 193.612 288.617 193.749 278.331 193.749C268.045 193.749 259.703 193.612 259.703 193.44C259.703 193.267 268.036 193.121 278.331 193.121C288.626 193.121 296.95 193.258 296.95 193.44Z" fill="#F5F5F5"/>
<path d="M280.714 202.449H274.406V218.01H280.714V202.449Z" fill="#F5F5F5"/>
<path d="M296.95 224.115C296.95 224.288 288.617 224.434 278.331 224.434C268.045 224.434 259.703 224.288 259.703 224.115C259.703 223.942 268.036 223.797 278.331 223.797C288.626 223.797 296.95 223.942 296.95 224.115Z" fill="#F5F5F5"/>
<path d="M310.246 171.771H303.938V187.332H310.246V171.771Z" fill="#F5F5F5"/>
<path d="M323.928 171.771H317.62V187.332H323.928V171.771Z" fill="#F5F5F5"/>
<path d="M310.246 201.293H303.938V216.854H310.246V201.293Z" fill="#F5F5F5"/>
<path d="M323.928 201.293H317.62V216.854H323.928V201.293Z" fill="#F5F5F5"/>
<path d="M310.246 230.822H303.938V246.383H310.246V230.822Z" fill="#F5F5F5"/>
<path d="M323.928 230.822H317.62V246.383H323.928V230.822Z" fill="#F5F5F5"/>
<path d="M335.11 155.775H254.426V159.161H335.11V155.775Z" fill="#E0E0E0"/>
<path d="M330.326 159.486C330.326 159.659 314.655 159.796 295.319 159.796C275.983 159.796 260.303 159.659 260.303 159.486C260.303 159.314 275.983 159.168 295.319 159.168C314.655 159.168 330.326 159.304 330.326 159.486Z" fill="#EBEBEB"/>
<path d="M101.057 254.874H37.3158L37.0381 152.562H100.78L101.057 254.874Z" fill="#EBEBEB"/>
<path d="M100.779 152.562H68.9087V254.874H100.779V152.562Z" fill="#E0E0E0"/>
<path d="M66.821 132.424H44.3135V152.562H66.821V132.424Z" fill="#EBEBEB"/>
<path d="M66.8211 132.424H61.4541V152.562H66.8211V132.424Z" fill="#E0E0E0"/>
<path d="M102.643 151.389H31.7249V152.563H102.643V151.389Z" fill="#E0E0E0"/>
<path d="M55.0118 161.354H49.6179V172.911H55.0118V161.354Z" fill="white"/>
<path d="M68.9087 177.451C68.9087 177.569 61.7407 177.669 52.9689 177.669C44.197 177.669 37.0559 177.56 37.0559 177.451C37.0559 177.342 44.2239 177.232 52.9868 177.232C61.7497 177.232 68.9087 177.314 68.9087 177.451Z" fill="#E0E0E0"/>
<path d="M87.1603 161.354H81.7664V172.911H87.1603V161.354Z" fill="#F5F5F5"/>
<path d="M101.057 177.451C101.057 177.569 93.8892 177.669 85.1174 177.669C76.3456 177.669 69.1865 177.569 69.1865 177.451C69.1865 177.333 76.3545 177.232 85.1174 177.232C93.8803 177.232 101.057 177.314 101.057 177.451Z" fill="#EBEBEB"/>
<path d="M87.1603 184.295H81.7664V195.852H87.1603V184.295Z" fill="#F5F5F5"/>
<path d="M101.057 200.384C101.057 200.502 93.8892 200.602 85.1174 200.602C76.3456 200.602 69.1865 200.502 69.1865 200.384C69.1865 200.265 76.3545 200.156 85.1174 200.156C93.8803 200.156 101.057 200.256 101.057 200.384Z" fill="#EBEBEB"/>
<path d="M87.1603 207.926H81.7664V219.483H87.1603V207.926Z" fill="#F5F5F5"/>
<path d="M101.057 224.015C101.057 224.133 93.8892 224.233 85.1174 224.233C76.3456 224.233 69.1865 224.133 69.1865 224.015C69.1865 223.896 76.3545 223.787 85.1174 223.787C93.8803 223.787 101.057 223.86 101.057 224.015Z" fill="#EBEBEB"/>
<path d="M87.1603 231.551H81.7664V243.108H87.1603V231.551Z" fill="#F5F5F5"/>
<path d="M101.057 247.647C101.057 247.766 93.8892 247.866 85.1174 247.866C76.3456 247.866 69.1865 247.766 69.1865 247.647C69.1865 247.529 76.3545 247.42 85.1174 247.42C93.8803 247.42 101.057 247.52 101.057 247.647Z" fill="#EBEBEB"/>
<path d="M55.0118 184.641H49.6179V196.198H55.0118V184.641Z" fill="white"/>
<path d="M68.9087 200.728C68.9087 200.856 61.7407 200.947 52.9689 200.947C44.197 200.947 37.0559 200.856 37.0559 200.728C37.0559 200.601 44.2239 200.51 52.9868 200.51C61.7497 200.51 68.9087 200.61 68.9087 200.728Z" fill="#E0E0E0"/>
<path d="M55.0118 207.926H49.6179V219.483H55.0118V207.926Z" fill="white"/>
<path d="M68.9087 224.015C68.9087 224.143 61.7407 224.243 52.9689 224.243C44.197 224.243 37.0559 224.143 37.0559 224.015C37.0559 223.888 44.2239 223.797 52.9868 223.797C61.7497 223.797 68.9087 223.861 68.9087 224.015Z" fill="#E0E0E0"/>
<path d="M55.0118 231.223H49.6179V242.78H55.0118V231.223Z" fill="white"/>
<path d="M68.9087 247.312C68.9087 247.43 61.7407 247.531 52.9689 247.531C44.197 247.531 37.0559 247.43 37.0559 247.312C37.0559 247.194 44.2239 247.094 52.9868 247.094C61.7497 247.094 68.9087 247.185 68.9087 247.312Z" fill="#E0E0E0"/>
<path d="M353.487 131.887C353.828 129.393 350.369 127.337 347.771 127.137C346.529 127.187 345.286 127.08 344.07 126.818C341.535 125.908 340.486 122.578 338.04 121.522C336.186 120.721 334.053 121.431 332.252 122.35C330.451 123.269 328.668 124.425 326.67 124.552C324.878 124.671 323.023 124.006 321.5 124.88C320.362 125.526 319.762 126.855 318.714 127.61C317.62 128.29 316.358 128.637 315.076 128.611C313.797 128.575 312.523 128.785 311.322 129.23C310.724 129.464 310.218 129.888 309.879 130.44C309.539 130.991 309.385 131.639 309.44 132.287L353.487 131.887Z" fill="#F5F5F5"/>
<path d="M245.654 60.9708C246.182 57.0851 240.771 53.8819 236.694 53.5452C234.758 53.3905 232.742 53.6908 230.915 53.0447C226.936 51.6342 225.341 46.4108 221.462 44.7455C218.559 43.5079 215.19 44.609 212.403 46.0468C209.617 47.4846 206.812 49.2955 203.667 49.5048C200.979 49.6777 197.96 48.6494 195.603 50.0053C193.811 51.0154 192.915 53.1084 191.249 54.3369C189.582 55.5654 187.539 55.7929 185.55 55.9021C183.561 56.0113 181.491 56.0386 179.672 56.8758C177.853 57.713 176.357 59.6786 176.733 61.6624L245.654 60.9708Z" fill="#EBEBEB"/>
<path d="M61.4272 114.843C61.8483 111.74 57.5385 109.183 54.2592 108.919C52.7181 108.791 51.1142 109.037 49.6448 108.518C46.4729 107.39 45.1648 103.231 42.1184 101.903C39.7977 100.911 37.1366 101.794 34.8966 102.94C32.6566 104.087 30.4166 105.534 27.9257 105.67C25.7485 105.807 23.383 104.988 21.4745 106.071C20.0499 106.871 19.3062 108.537 17.9981 109.519C16.6365 110.377 15.0571 110.811 13.4553 110.766C11.8591 110.73 10.2702 110.996 8.76926 111.549C7.3267 112.222 6.12606 113.778 6.4307 115.362L61.4272 114.843Z" fill="#F5F5F5"/>
<path d="M29.7356 183.282C26.2546 183.367 22.8624 184.416 19.9244 186.314C16.9864 188.212 14.614 190.888 13.0627 194.054C11.5114 197.22 10.8399 200.756 11.1207 204.281C11.4014 207.806 12.6237 211.187 14.6559 214.058L14.8351 214.322L28.3916 233.041C28.6683 233.422 29.0311 233.731 29.4496 233.94C29.868 234.149 30.3298 234.253 30.796 234.243C31.2623 234.233 31.7195 234.11 32.129 233.883C32.5385 233.657 32.8885 233.334 33.1494 232.941L45.3977 214.441C47.7094 210.855 49.3043 207.097 49.3043 202.674C49.2989 200.088 48.7856 197.53 47.7944 195.148C46.8031 192.766 45.3539 190.609 43.5315 188.803C41.7091 186.997 39.5503 185.578 37.1814 184.63C34.8125 183.682 32.2811 183.224 29.7356 183.282ZM30.1926 216.852C27.3466 216.852 24.5644 215.995 22.1981 214.389C19.8317 212.783 17.9873 210.501 16.8982 207.83C15.8091 205.16 15.5241 202.221 16.0793 199.386C16.6346 196.551 18.005 193.947 20.0175 191.903C22.0299 189.86 24.5939 188.468 27.3853 187.904C30.1766 187.34 33.0699 187.629 35.6993 188.735C38.3287 189.842 40.5761 191.715 42.1572 194.118C43.7384 196.521 44.5823 199.347 44.5823 202.238C44.5823 206.114 43.0663 209.831 40.3677 212.572C37.6691 215.312 34.009 216.852 30.1926 216.852Z" fill="#87BECC"/>
<g opacity="0.3">
<path d="M29.7356 183.282C26.2546 183.367 22.8624 184.416 19.9244 186.314C16.9864 188.212 14.614 190.888 13.0627 194.054C11.5114 197.22 10.8399 200.756 11.1207 204.281C11.4014 207.806 12.6237 211.187 14.6559 214.058L14.8351 214.322L28.3916 233.041C28.6683 233.422 29.0311 233.731 29.4496 233.94C29.868 234.149 30.3298 234.253 30.796 234.243C31.2623 234.233 31.7195 234.11 32.129 233.883C32.5385 233.657 32.8885 233.334 33.1494 232.941L45.3977 214.441C47.7094 210.855 49.3043 207.097 49.3043 202.674C49.2989 200.088 48.7856 197.53 47.7944 195.148C46.8031 192.766 45.3539 190.609 43.5315 188.803C41.7091 186.997 39.5503 185.578 37.1814 184.63C34.8125 183.682 32.2811 183.224 29.7356 183.282ZM30.1926 216.852C27.3466 216.852 24.5644 215.995 22.1981 214.389C19.8317 212.783 17.9873 210.501 16.8982 207.83C15.8091 205.16 15.5241 202.221 16.0793 199.386C16.6346 196.551 18.005 193.947 20.0175 191.903C22.0299 189.86 24.5939 188.468 27.3853 187.904C30.1766 187.34 33.0699 187.629 35.6993 188.735C38.3287 189.842 40.5761 191.715 42.1572 194.118C43.7384 196.521 44.5823 199.347 44.5823 202.238C44.5823 206.114 43.0663 209.831 40.3677 212.572C37.6691 215.312 34.009 216.852 30.1926 216.852Z" fill="black"/>
</g>
<path d="M28.6067 183.283C23.6965 183.416 19.0232 185.455 15.5482 188.981C12.0733 192.507 10.0609 197.251 9.92513 202.238C9.80671 206.474 11.0664 210.632 13.5091 214.068L13.6973 214.332L27.2448 233.051C27.5198 233.44 27.8837 233.755 28.3053 233.97C28.7269 234.185 29.1936 234.292 29.6651 234.283C30.1367 234.274 30.5991 234.149 31.0125 233.919C31.4259 233.688 31.7779 233.359 32.0384 232.96L44.2867 214.459C46.6074 210.874 48.1933 207.116 48.1933 202.693C48.1904 200.104 47.6783 197.542 46.687 195.156C45.6957 192.771 44.2452 190.611 42.4207 188.803C40.5961 186.995 38.4343 185.575 36.0621 184.627C33.69 183.679 31.1552 183.222 28.6067 183.283ZM29.0547 214.223C26.9002 214.221 24.7946 213.57 23.004 212.353C21.2135 211.136 19.8184 209.408 18.9951 207.385C18.1718 205.363 17.9574 203.139 18.3788 200.993C18.8002 198.847 19.8386 196.876 21.3627 195.329C22.8868 193.783 24.8282 192.73 26.9414 192.303C29.0547 191.877 31.2449 192.097 33.2352 192.935C35.2256 193.772 36.9267 195.191 38.1235 197.01C39.3203 198.83 39.959 200.969 39.959 203.157C39.9579 204.61 39.6749 206.049 39.1263 207.391C38.5776 208.733 37.7741 209.952 36.7615 210.979C35.749 212.006 34.5472 212.82 33.2249 213.375C31.9025 213.93 30.4855 214.215 29.0547 214.214V214.223Z" fill="#87BECC"/>
<path d="M329.923 164.856C327.267 164.915 324.677 165.71 322.433 167.155C320.189 168.6 318.376 170.639 317.19 173.054C316.004 175.469 315.49 178.166 315.704 180.856C315.917 183.545 316.849 186.125 318.4 188.316L318.543 188.516L328.874 202.776C329.085 203.059 329.359 203.288 329.674 203.443C329.989 203.598 330.335 203.675 330.685 203.668C331.034 203.661 331.377 203.57 331.686 203.402C331.994 203.234 332.259 202.995 332.458 202.703L341.795 188.607C343.652 185.991 344.692 182.868 344.778 179.643C344.774 177.677 344.384 175.732 343.633 173.92C342.881 172.108 341.782 170.467 340.399 169.09C339.017 167.714 337.378 166.631 335.58 165.904C333.781 165.177 331.858 164.821 329.923 164.856ZM330.272 190.445C328.105 190.445 325.986 189.793 324.183 188.57C322.38 187.348 320.974 185.611 320.143 183.578C319.312 181.544 319.093 179.307 319.513 177.147C319.934 174.987 320.974 173.003 322.505 171.443C324.035 169.884 325.986 168.821 328.111 168.387C330.236 167.953 332.44 168.168 334.444 169.006C336.449 169.843 338.164 171.265 339.373 173.092C340.583 174.919 341.232 177.069 341.239 179.27C341.244 180.736 340.964 182.188 340.415 183.544C339.866 184.9 339.059 186.132 338.04 187.17C337.021 188.208 335.81 189.032 334.477 189.594C333.144 190.156 331.715 190.445 330.272 190.445Z" fill="#87BECC"/>
<g opacity="0.3">
<path d="M329.923 164.856C327.267 164.915 324.677 165.71 322.433 167.155C320.189 168.6 318.376 170.639 317.19 173.054C316.004 175.469 315.49 178.166 315.704 180.856C315.917 183.545 316.849 186.125 318.4 188.316L318.543 188.516L328.874 202.776C329.085 203.059 329.359 203.288 329.674 203.443C329.989 203.598 330.335 203.675 330.685 203.668C331.034 203.661 331.377 203.57 331.686 203.402C331.994 203.234 332.259 202.995 332.458 202.703L341.795 188.607C343.652 185.991 344.692 182.868 344.778 179.643C344.774 177.677 344.384 175.732 343.633 173.92C342.881 172.108 341.782 170.467 340.399 169.09C339.017 167.714 337.378 166.631 335.58 165.904C333.781 165.177 331.858 164.821 329.923 164.856ZM330.272 190.445C328.105 190.445 325.986 189.793 324.183 188.57C322.38 187.348 320.974 185.611 320.143 183.578C319.312 181.544 319.093 179.307 319.513 177.147C319.934 174.987 320.974 173.003 322.505 171.443C324.035 169.884 325.986 168.821 328.111 168.387C330.236 167.953 332.44 168.168 334.444 169.006C336.449 169.843 338.164 171.265 339.373 173.092C340.583 174.919 341.232 177.069 341.239 179.27C341.244 180.736 340.964 182.188 340.415 183.544C339.866 184.9 339.059 186.132 338.04 187.17C337.021 188.208 335.81 189.032 334.477 189.594C333.144 190.156 331.715 190.445 330.272 190.445Z" fill="black"/>
</g>
<path d="M329.062 164.855C326.409 164.919 323.822 165.718 321.582 167.164C319.342 168.611 317.533 170.651 316.351 173.065C315.168 175.479 314.656 178.174 314.87 180.862C315.085 183.549 316.017 186.126 317.567 188.315L317.701 188.515L328.023 202.775C328.234 203.065 328.511 203.301 328.83 203.46C329.149 203.62 329.501 203.7 329.856 203.693C330.212 203.685 330.56 203.592 330.873 203.419C331.185 203.247 331.453 203.001 331.652 202.702L340.988 188.606C342.843 185.989 343.88 182.866 343.963 179.642C343.96 177.672 343.57 175.722 342.816 173.907C342.061 172.092 340.958 170.447 339.571 169.07C338.183 167.693 336.539 166.611 334.735 165.887C332.93 165.164 331.002 164.813 329.062 164.855ZM329.403 188.433C327.76 188.433 326.154 187.938 324.788 187.011C323.423 186.084 322.358 184.767 321.729 183.226C321.101 181.684 320.936 179.988 321.257 178.352C321.577 176.715 322.368 175.212 323.53 174.032C324.691 172.853 326.171 172.049 327.783 171.724C329.394 171.398 331.064 171.565 332.582 172.204C334.099 172.842 335.396 173.924 336.309 175.311C337.222 176.698 337.709 178.329 337.709 179.997C337.71 181.106 337.496 182.203 337.079 183.227C336.662 184.251 336.05 185.181 335.279 185.965C334.507 186.749 333.591 187.37 332.583 187.793C331.575 188.217 330.494 188.434 329.403 188.433Z" fill="#87BECC"/>
<path d="M40.2011 253.155L-23.7913 414.552L96.1921 394.514L184.188 414.552L274.308 394.514L394.829 417.865L330.308 253.155L258.314 234.736L185.523 248.823L111.128 234.736L40.2011 253.155Z" fill="white"/>
<path d="M40.201 253.154L41.3748 252.835L44.8781 251.925L58.6049 248.331L111.102 234.681H111.146L185.514 248.722H185.452L258.243 234.617H258.368L330.353 252.981H330.46V253.081L394.972 417.791L395.134 418.191L394.712 418.11L332.718 406.098L274.191 394.759H274.29L184.161 414.779H184.108L96.1204 394.759H96.1921L-23.8003 414.779L-24.0959 414.824L-23.9795 414.542C-4.18683 364.711 11.8605 324.361 22.9172 296.47L35.6941 264.374L39.0183 256.039C39.7709 254.164 40.1652 253.208 40.1652 253.208C40.1652 253.208 39.7978 254.182 39.0541 256.075L35.7569 264.447L23.0964 296.543L-23.63 414.615L-23.8182 414.379L96.1921 394.304H96.2727L184.26 414.324H184.17L274.29 394.304H274.335L332.862 405.643L394.856 417.655L394.596 417.973L330.084 253.263L330.227 253.39L258.243 234.954H258.368L185.55 248.977H185.487L111.119 234.854L58.6765 248.431L44.9229 251.971L41.4017 252.881L40.201 253.154Z" fill="#263238"/>
<path d="M43.9373 257.485L-12.5913 406.425L95.6634 388.552L185.523 409.673L274.308 388.015L384.695 409.673L326.572 257.485L259.381 240.695L185.523 254.782L110.062 240.695L43.9373 257.485Z" fill="white"/>
<path d="M-6.3103 389.881L79.7326 369.633L76.5607 350.814L83.7108 346.237L72.5825 302.275L38.1761 272.654L-6.3103 389.881Z" fill="#E3F1F6"/>
<path d="M-12.5913 406.424L-8.39803 395.377L135.876 361.334L143.707 383.238L141.171 387.66L114.076 392.884L95.6634 388.552L-12.5913 406.424Z" fill="#EBEBEB"/>
<path d="M143.707 359.214L149.432 380.881L166.053 388.216L189.69 377.551L239.283 362.881L223.809 339.203L143.707 359.214Z" fill="#EBEBEB"/>
<path d="M86.0851 367.241L112.893 361.335L107.544 343.645L88.0115 348.431L82.8147 352.162L86.0851 367.241Z" fill="#E0E0E0"/>
<path d="M80.6106 308.609L90.3412 341.051L105.555 337.647L102.813 325.19L136.279 317.573L80.6106 308.609Z" fill="#E3F1F6"/>
<path d="M40.7117 265.993L82.8147 300.319L138.707 311.084L198.327 296.032L171.116 252.089L110.062 240.695L43.9373 257.485L40.7117 265.993Z" fill="#EBEBEB"/>
<path d="M179.26 253.609L266.665 389.882L274.308 388.016L189.708 253.982L185.523 254.783L179.26 253.609Z" fill="#EBEBEB"/>
<path d="M108.44 328.62L119.515 361.334L217.842 335.818L199.644 304.359L108.44 328.62Z" fill="#E0E0E0"/>
<path d="M163.141 404.414L164.1 402.967L170.56 393.221L186.052 388.216L196.714 380.062L242.921 367.24L257.275 392.165L185.523 409.674" fill="#E0E0E0"/>
<path d="M245 243.434L268.152 269.597L326.572 257.485L259.381 240.695L245 243.434Z" fill="#E0E0E0"/>
<path d="M338.865 289.673L295.964 301.785L274.308 272.656L328.032 261.326L338.865 289.673Z" fill="#E0E0E0"/>
<path d="M194.295 253.1L239.283 318.729L291.198 303.595L239.283 244.527L194.295 253.1Z" fill="#EBEBEB"/>
<path d="M320.058 396.988L371.963 376.34L384.695 409.673L320.058 396.988Z" fill="#E0E0E0"/>
<path d="M265.769 314.807L293.975 307.336L323.767 343.645L294.773 353.418L265.769 314.807Z" fill="#E3F1F6"/>
<path d="M300.328 304.359L331.715 340.904L355.351 332.842L339.805 292.146L300.328 304.359Z" fill="#E0E0E0"/>
<path d="M323.767 388.462L300.328 355.438L356.982 337.102L368.486 367.241L361.103 374.785L323.767 388.462Z" fill="#E3F1F6"/>
<path d="M242.034 323.552L285.096 389.882L311.617 395.333L316.617 393.012L262.051 317.428L242.034 323.552Z" fill="#E0E0E0"/>
<path d="M65.5579 372.973L54.8327 321.74L17.0036 328.456L-6.3103 389.881L65.5579 372.973Z" fill="#E0E0E0"/>
<path d="M100.34 243.162V266.622L108.44 267.659L131.055 294.413L150.499 292.147L159.754 305.77L138.707 311.085L82.8147 300.319L40.7117 265.994L43.9373 257.486L100.34 243.162Z" fill="#E3F1F6"/>
<path d="M218.577 248.677L250.34 295.751L277.704 288.244L239.283 244.527L218.577 248.677Z" fill="#E0E0E0"/>
<path d="M311.823 297.308L300.328 279.063L331.401 270.145L338.865 289.673L311.823 297.308Z" fill="#EBEBEB"/>
<path d="M265.769 360.115L280.813 354.828L309.987 394.996L285.096 389.881L265.769 360.115Z" fill="#EBEBEB"/>
<path d="M127.023 395.924L141.01 394.195L145.669 387.27L163.141 392.848L158.572 403.34L127.023 395.924Z" fill="#E3F1F6"/>
<path d="M43.9374 257.531L48.292 256.394L61.0869 253.118L110.035 240.624H110.08L185.55 254.665H185.487L259.345 240.551H259.425L326.625 257.322H326.724V257.431C344.563 303.941 364.213 355.411 384.91 409.592L385.063 409.993L384.65 409.911L329.269 399.046L274.263 388.244H274.362L185.577 409.902H185.47L95.6187 388.762H95.6993L-12.5644 406.598L-12.8511 406.644L-12.7525 406.362C4.74637 360.361 18.9121 323.124 28.6964 297.389C33.5976 284.54 37.3966 274.557 39.9771 267.787L42.9249 260.098C43.588 258.359 43.9374 257.486 43.9374 257.486C43.9374 257.486 43.6059 258.396 42.9518 260.134L40.0488 267.851L28.8398 297.517L-12.43 406.489L-12.6181 406.262L95.6276 388.353H95.7083L185.568 409.501H185.47L274.254 387.834H274.308L329.358 398.581L384.704 409.447L384.444 409.765C363.756 355.575 344.124 304.142 326.339 257.568L326.482 257.695L259.282 240.887H259.363L185.496 254.938H185.434L109.991 240.815L61.1585 253.172L48.3368 256.403L43.9374 257.531Z" fill="#263238"/>
<g opacity="0.2">
<path d="M184.188 414.552L185.523 248.823L111.128 234.736L96.1921 394.514L184.188 414.552Z" fill="black"/>
</g>
<g opacity="0.2">
<path d="M258.314 234.736L274.308 394.514L394.829 417.865L330.308 253.155L258.314 234.736Z" fill="black"/>
</g>
<path d="M186.097 91.9904C134.129 93.2189 91.739 136.244 90.5025 189.024C89.9554 210.69 96.424 231.939 108.915 249.511L109.874 250.831L110.008 251.022L179.359 346.827C180.774 348.781 182.631 350.361 184.773 351.433C186.915 352.505 189.28 353.039 191.668 352.988C194.056 352.937 196.397 352.303 198.493 351.141C200.589 349.978 202.379 348.321 203.712 346.308L266.432 251.668C278.295 233.286 286.431 214.085 286.431 191.444C286.431 178.176 283.818 165.042 278.746 152.815C273.673 140.588 266.244 129.516 256.895 120.248C247.546 110.981 236.466 103.707 224.307 98.8542C212.148 94.0013 199.157 91.6676 186.097 91.9904ZM188.426 263.789C173.861 263.791 159.622 259.406 147.51 251.189C135.399 242.972 125.959 231.291 120.383 217.625C114.808 203.958 113.349 188.92 116.189 174.411C119.03 159.902 126.043 146.574 136.341 136.113C146.64 125.652 159.762 118.528 174.047 115.641C188.333 112.755 203.14 114.235 216.597 119.896C230.054 125.557 241.556 135.143 249.648 147.443C257.74 159.743 262.06 174.203 262.06 188.996C262.06 208.831 254.302 227.854 240.493 241.88C226.685 255.906 207.956 263.787 188.426 263.789Z" fill="#87BECC"/>
<g opacity="0.3">
<path d="M186.097 91.9904C134.129 93.2189 91.739 136.244 90.5025 189.024C89.9554 210.69 96.424 231.939 108.915 249.511L109.874 250.831L110.008 251.022L179.359 346.827C180.774 348.781 182.631 350.361 184.773 351.433C186.915 352.505 189.28 353.039 191.668 352.988C194.056 352.937 196.397 352.303 198.493 351.141C200.589 349.978 202.379 348.321 203.712 346.308L266.432 251.668C278.295 233.286 286.431 214.085 286.431 191.444C286.431 178.176 283.818 165.042 278.746 152.815C273.673 140.588 266.244 129.516 256.895 120.248C247.546 110.981 236.466 103.707 224.307 98.8542C212.148 94.0013 199.157 91.6676 186.097 91.9904ZM188.426 263.789C173.861 263.791 159.622 259.406 147.51 251.189C135.399 242.972 125.959 231.291 120.383 217.625C114.808 203.958 113.349 188.92 116.189 174.411C119.03 159.902 126.043 146.574 136.341 136.113C146.64 125.652 159.762 118.528 174.047 115.641C188.333 112.755 203.14 114.235 216.597 119.896C230.054 125.557 241.556 135.143 249.648 147.443C257.74 159.743 262.06 174.203 262.06 188.996C262.06 208.831 254.302 227.854 240.493 241.88C226.685 255.906 207.956 263.787 188.426 263.789Z" fill="black"/>
</g>
<path d="M180.291 91.9904C128.323 93.2189 85.9328 136.244 84.6964 189.024C84.1493 210.69 90.6178 231.939 103.109 249.511L104.068 250.831L104.202 251.022L173.553 346.827C174.968 348.781 176.825 350.361 178.967 351.433C181.109 352.505 183.474 353.039 185.862 352.988C188.25 352.937 190.59 352.303 192.687 351.141C194.783 349.978 196.573 348.321 197.906 346.308L260.626 251.668C272.489 233.286 280.625 214.085 280.625 191.444C280.625 178.176 278.012 165.042 272.94 152.815C267.867 140.588 260.438 129.516 251.089 120.248C241.739 110.981 230.659 103.707 218.501 98.8542C206.342 94.0013 193.351 91.6676 180.291 91.9904ZM182.62 263.789C168.055 263.791 153.816 259.406 141.704 251.189C129.593 242.972 120.152 231.291 114.577 217.625C109.002 203.958 107.542 188.92 110.383 174.411C113.223 159.902 120.236 146.574 130.535 136.113C140.834 125.652 153.956 118.528 168.241 115.641C182.526 112.755 197.334 114.235 210.791 119.896C224.248 125.557 235.75 135.143 243.842 147.443C251.934 159.743 256.253 174.203 256.253 188.996C256.253 208.831 248.496 227.854 234.687 241.88C220.879 255.906 202.15 263.787 182.62 263.789Z" fill="#87BECC"/>
<g opacity="0.3">
<path d="M224.983 245.408C223.8 246.764 145.929 267.649 144.755 269.004C159.682 273.627 177.907 277.65 193.515 276.73C202.305 276.221 211.435 274.628 218.424 269.132C225.413 263.636 229.212 253.252 224.983 245.408Z" fill="black"/>
</g>
<path d="M150.615 94.4746C148.368 96.9009 146.732 99.8428 145.846 103.05C144.96 106.257 144.85 109.634 145.526 112.893C146.207 116.042 147.569 119.554 145.866 122.275C144.164 124.996 140.203 125.46 138.618 128.217C136.736 131.448 139.245 135.497 138.931 139.265C138.728 141.021 137.916 142.647 136.641 143.851C135.365 145.055 133.709 145.758 131.969 145.835C136.459 148.595 141.612 150.044 146.861 150.021C147.936 148.128 149.008 146.235 150.077 144.343C148.841 146.354 149.629 149.147 151.323 150.776C153.016 152.405 155.382 153.088 157.684 153.506C163.209 154.408 168.863 153.999 174.206 152.311C179.548 150.623 184.434 147.703 188.48 143.778" fill="#263238"/>
<path d="M213.443 114.222C212.323 111.893 210.692 109.818 209.859 107.379C207.977 102.147 209.724 95.6946 206.472 91.2083C204.16 88.0051 200.02 86.8676 196.159 86.2397C192.297 85.6118 188.202 85.1932 185.066 82.8363C182.764 81.0982 181.231 78.4774 178.938 76.7393C175.667 74.255 171.286 73.8819 167.218 74.2004C163.15 74.5189 158.778 75.529 155.328 77.9405C151.878 80.352 149.244 84.2559 149.155 88.5147C149.11 90.5895 149.647 92.6825 149.289 94.7209C148.895 96.9686 147.497 98.8796 146.717 101.027C145.984 103.333 146.026 105.82 146.837 108.099C147.648 110.377 149.182 112.317 151.197 113.613L184.797 146.891C191.069 148.329 205.19 143.497 209.187 138.355C213.183 133.214 216.256 120.119 213.443 114.222Z" fill="#263238"/>
<path d="M151.233 108.762C151.233 100.127 156.206 89.2065 164.673 89.5796L191.464 94.6665C192.709 94.7223 193.889 95.2506 194.77 96.1469C195.651 97.0432 196.169 98.2424 196.222 99.5077L197.386 164.263H197.566C197.566 164.263 192.727 182.864 174.951 178.45C171.42 177.54 169.575 173.846 168.679 169.942H168.508C168.463 169.469 168.437 169.032 168.401 168.586C167.87 165.667 167.645 162.699 167.729 159.732C167.343 154.517 167.218 152.379 167.218 152.452C167.218 152.524 156.278 151.323 153.151 137.118C151.601 130.129 151.233 118.363 151.233 108.762Z" fill="#FFBE9D"/>
<path d="M175.775 117.616C175.784 117.855 175.839 118.09 175.938 118.307C176.037 118.524 176.177 118.72 176.35 118.882C176.523 119.044 176.726 119.17 176.947 119.253C177.168 119.335 177.403 119.373 177.638 119.363C177.872 119.37 178.104 119.33 178.322 119.244C178.54 119.158 178.738 119.028 178.906 118.863C179.073 118.697 179.206 118.499 179.296 118.28C179.386 118.061 179.432 117.826 179.43 117.589C179.421 117.349 179.366 117.115 179.267 116.897C179.168 116.68 179.028 116.485 178.855 116.322C178.682 116.16 178.479 116.034 178.258 115.952C178.037 115.869 177.802 115.832 177.567 115.841C177.333 115.834 177.101 115.875 176.883 115.961C176.665 116.047 176.467 116.176 176.299 116.342C176.132 116.508 175.999 116.706 175.909 116.925C175.819 117.143 175.773 117.379 175.775 117.616Z" fill="#263238"/>
<path d="M157.272 119.055C157.282 119.294 157.337 119.529 157.436 119.746C157.535 119.963 157.674 120.158 157.848 120.321C158.021 120.483 158.224 120.609 158.445 120.692C158.666 120.774 158.901 120.812 159.136 120.802C159.373 120.809 159.61 120.768 159.831 120.679C160.051 120.59 160.252 120.456 160.42 120.286C160.588 120.115 160.719 119.911 160.807 119.687C160.894 119.463 160.936 119.223 160.928 118.982C160.907 118.501 160.699 118.047 160.35 117.722C160 117.396 159.538 117.224 159.064 117.244C158.827 117.235 158.591 117.276 158.371 117.363C158.15 117.451 157.949 117.584 157.781 117.754C157.613 117.924 157.481 118.127 157.394 118.351C157.306 118.574 157.265 118.814 157.272 119.055Z" fill="#263238"/>
<path d="M153.384 114.986C153.626 115.287 155.176 113.985 157.281 113.994C159.387 114.003 160.946 115.268 161.188 114.959C161.304 114.822 161.062 114.276 160.39 113.685C159.512 112.943 158.406 112.534 157.263 112.529C156.12 112.55 155.022 112.982 154.163 113.749C153.536 114.295 153.267 114.85 153.384 114.986Z" fill="#263238"/>
<path d="M173.078 114.496C173.365 114.769 174.87 113.322 177.101 113.104C179.332 112.885 181.124 113.941 181.339 113.622C181.446 113.477 181.142 112.958 180.362 112.458C179.333 111.826 178.127 111.554 176.931 111.684C175.74 111.806 174.624 112.328 173.759 113.167C173.123 113.814 172.934 114.378 173.078 114.496Z" fill="#263238"/>
<path d="M167.128 128.974C166.078 128.717 165.001 128.592 163.921 128.601C163.428 128.601 162.944 128.51 162.845 128.164C162.766 127.645 162.848 127.114 163.078 126.644C163.473 125.397 163.885 124.078 164.315 122.704C166.026 117.089 167.227 112.494 167.003 112.421C166.779 112.348 165.211 116.852 163.508 122.431C163.096 123.814 162.711 125.161 162.335 126.398C162.058 127.028 162.01 127.738 162.2 128.4C162.287 128.577 162.414 128.73 162.569 128.849C162.725 128.967 162.905 129.047 163.096 129.083C163.391 129.145 163.692 129.167 163.992 129.147C165.041 129.224 166.094 129.166 167.128 128.974Z" fill="#263238"/>
<path d="M167.227 152.489C173.872 152.163 180.298 149.973 185.792 146.164C185.792 146.164 181.814 156.311 167.585 155.865L167.227 152.489Z" fill="#EB996E"/>
<path d="M168.248 133.695C168.59 133.197 169.05 132.796 169.586 132.528C170.122 132.261 170.716 132.136 171.313 132.166C171.745 132.181 172.171 132.283 172.564 132.466C172.958 132.649 173.312 132.909 173.606 133.231C173.887 133.546 174.066 133.941 174.119 134.362C174.172 134.784 174.096 135.212 173.902 135.588C173.61 135.963 173.214 136.241 172.766 136.386C172.318 136.532 171.837 136.539 171.384 136.407C170.444 136.133 169.567 135.672 168.804 135.051C168.573 134.911 168.372 134.726 168.213 134.505C168.139 134.397 168.099 134.268 168.099 134.137C168.099 134.005 168.139 133.876 168.213 133.768" fill="#87BECC"/>
<path d="M172.952 129.983C172.63 129.983 172.755 132.131 171.044 133.769C169.332 135.407 167.057 135.316 167.057 135.589C167.057 135.726 167.585 135.971 168.544 135.935C169.784 135.871 170.963 135.369 171.877 134.515C172.746 133.689 173.269 132.555 173.338 131.348C173.364 130.475 173.096 129.956 172.952 129.983Z" fill="#263238"/>
<path d="M172.352 107.797C172.585 108.324 174.511 107.942 176.832 108.079C179.153 108.215 181.025 108.725 181.312 108.224C181.429 107.988 181.079 107.496 180.3 107.023C179.264 106.451 178.114 106.124 176.936 106.068C175.758 106.011 174.583 106.225 173.499 106.696C172.639 107.096 172.245 107.542 172.352 107.797Z" fill="#263238"/>
<path d="M154.486 108.917C154.898 109.344 156.403 108.78 158.249 108.634C160.095 108.489 161.681 108.725 162.012 108.225C162.156 107.988 161.878 107.552 161.17 107.169C160.202 106.704 159.126 106.518 158.061 106.632C156.994 106.71 155.971 107.088 155.104 107.724C154.477 108.234 154.298 108.707 154.486 108.917Z" fill="#263238"/>
<path d="M197.44 95.903C195.872 94.083 193.408 93.3641 191.078 92.809C181.02 90.4303 170.718 89.2726 160.39 89.3601C159.423 91.6533 160.982 94.3651 163.078 95.63C165.175 96.8949 167.729 97.1588 170.121 97.6957C172.513 98.2326 175.04 99.2336 176.294 101.336C177.63 103.62 177.19 106.605 178.4 108.952C180.497 112.993 186.527 113.502 188.597 117.579C190.165 120.646 188.803 124.331 188.812 127.789C188.814 129.544 189.184 131.278 189.898 132.876C190.612 134.473 191.653 135.898 192.952 137.054C194.251 138.211 195.778 139.073 197.431 139.583C199.084 140.093 200.825 140.238 202.538 140.011C201.541 127.707 200.549 115.407 199.564 103.11C199.366 100.599 199.089 97.8413 197.44 95.903Z" fill="#263238"/>
<path d="M225.888 123.286C223.747 121.83 221.166 120.674 220.064 118.308C218.469 114.868 220.727 110.227 218.442 107.215C216.364 104.485 211.454 105.313 209.482 102.483C207.941 100.272 209.043 97.9332 208.291 95.9312C207.538 93.9292 204.357 92.4823 202.296 93.0283L189.224 119.518C188.821 127.836 187.88 132.368 190.245 136.863C191.544 139.329 193.121 141.686 193.829 144.38C194.537 147.073 194.313 150.276 192.333 152.215C202.243 151.596 210.719 145.071 218.523 138.819L226.775 132.204C227.69 131.588 228.439 130.75 228.952 129.765C230.001 127.399 228.021 124.742 225.888 123.286Z" fill="#263238"/>
<path d="M218.46 136.345C218.137 136.501 217.797 136.62 217.448 136.7C216.438 136.954 215.392 137.028 214.357 136.918C212.708 136.757 211.13 136.161 209.778 135.189C207.983 133.859 206.712 131.924 206.194 129.729C205.872 128.467 205.802 127.152 205.988 125.862C206.253 124.502 206.693 123.183 207.296 121.94C207.942 120.643 208.398 119.257 208.649 117.826C208.78 117.094 208.748 116.342 208.556 115.624C208.363 114.906 208.016 114.241 207.538 113.677C206.481 112.594 204.778 112.53 203.157 112.121C202.278 111.94 201.473 111.497 200.845 110.847C200.256 110.133 199.896 109.253 199.814 108.326C199.582 106.506 200.119 104.686 200.209 102.984C200.29 102.12 200.177 101.249 199.877 100.436C199.542 99.6452 198.942 99.0004 198.184 98.6162C196.625 97.7881 194.797 97.8791 193.032 97.9792C191.241 98.1667 189.433 97.8945 187.772 97.1875C186.17 96.4706 184.791 95.3219 183.785 93.866C182.906 92.4468 182.253 90.896 181.85 89.2705C181.469 87.7721 180.938 86.3175 180.264 84.9298C179.567 83.6725 178.614 82.5805 177.468 81.7266C175.567 80.3122 173.271 79.5497 170.914 79.5497C168.557 79.5497 166.261 80.3122 164.36 81.7266C163.04 82.6662 161.897 83.8372 160.982 85.1846C160.219 86.3496 159.593 87.6019 159.118 88.9156C159.124 88.8226 159.142 88.7309 159.172 88.6426C159.226 88.4697 159.288 88.1967 159.414 87.8691C159.764 86.8801 160.227 85.9363 160.794 85.0572C161.694 83.6464 162.838 82.413 164.172 81.4172C165.934 80.1088 168.024 79.3299 170.202 79.1695C172.881 79.0083 175.534 79.7751 177.728 81.3444C178.939 82.2324 179.947 83.3745 180.685 84.6932C181.382 86.1083 181.932 87.5936 182.325 89.1249C182.725 90.6912 183.36 92.1858 184.206 93.5566C185.16 94.9207 186.461 95.9964 187.969 96.6688C189.549 97.3219 191.265 97.5628 192.96 97.3695C194.752 97.2785 196.661 97.1511 198.399 98.0702C199.281 98.5124 199.977 99.2616 200.361 100.181C200.697 101.074 200.825 102.033 200.737 102.984C200.63 104.804 200.11 106.551 200.325 108.235C200.394 109.045 200.706 109.814 201.221 110.437C201.779 111.001 202.485 111.39 203.255 111.556C204.035 111.766 204.85 111.866 205.656 112.084C206.488 112.27 207.255 112.678 207.878 113.267C208.409 113.891 208.795 114.628 209.009 115.423C209.223 116.218 209.259 117.052 209.115 117.863C208.851 119.342 208.374 120.774 207.699 122.112C207.096 123.324 206.656 124.613 206.391 125.944C206.205 127.174 206.259 128.429 206.552 129.638C207.047 131.742 208.251 133.603 209.957 134.898C211.258 135.858 212.778 136.465 214.374 136.663C215.744 136.828 217.132 136.719 218.46 136.345Z" fill="#455A64"/>
<path d="M229.176 117.317C229.374 117.538 229.523 117.798 229.615 118.081C229.887 118.907 229.859 119.805 229.535 120.611C229.309 121.199 228.943 121.722 228.468 122.131C227.889 122.609 227.186 122.909 226.444 122.995C225.544 123.106 224.632 122.964 223.807 122.583C222.982 122.203 222.276 121.599 221.766 120.838C221.171 119.961 220.788 118.954 220.646 117.899C220.527 116.765 220.609 115.618 220.888 114.514C221.363 112.248 222.492 109.964 222.17 107.416C222.134 106.791 221.974 106.179 221.698 105.619C221.423 105.059 221.037 104.562 220.566 104.158C219.45 103.467 218.114 103.242 216.838 103.53C215.423 103.842 213.963 103.898 212.529 103.694C211.766 103.494 211.083 103.058 210.575 102.447C210.089 101.83 209.741 101.113 209.554 100.345C209.286 98.8693 209.202 97.3651 209.303 95.8679C209.324 94.467 209.052 93.0776 208.506 91.7911C207.465 89.3411 205.542 87.3878 203.13 86.3311C200.827 85.3301 198.345 85.5394 196.114 85.7214C194.004 86.025 191.86 85.9882 189.761 85.6122C188.037 85.2215 186.409 84.4784 184.977 83.4282C183.898 82.6463 182.94 81.7046 182.136 80.6345C181.433 79.7398 180.89 78.7264 180.532 77.6406C181.048 78.6409 181.647 79.5939 182.324 80.4889C184.23 82.8925 186.89 84.5595 189.86 85.2118C191.92 85.5365 194.018 85.5365 196.078 85.2118C198.309 85.0116 200.881 84.7659 203.345 85.8033C205.897 86.8954 207.942 88.9364 209.061 91.509C209.641 92.8668 209.931 94.3337 209.912 95.8133C209.812 97.2618 209.893 98.7173 210.154 100.145C210.273 100.825 210.574 101.458 211.025 101.975C211.475 102.492 212.058 102.873 212.708 103.075C214.075 103.26 215.463 103.205 216.812 102.911C218.229 102.601 219.709 102.869 220.933 103.658C221.46 104.109 221.89 104.664 222.198 105.29C222.506 105.916 222.686 106.599 222.725 107.298C222.85 108.591 222.719 109.896 222.34 111.138C222.026 112.339 221.641 113.458 221.381 114.568C221.098 115.616 221.01 116.709 221.121 117.79C221.243 118.768 221.59 119.703 222.134 120.52C222.597 121.23 223.243 121.799 224 122.164C224.758 122.53 225.6 122.679 226.435 122.595C227.12 122.525 227.772 122.26 228.316 121.83C228.77 121.463 229.127 120.988 229.356 120.447C229.684 119.687 229.747 118.837 229.535 118.036C229.427 117.79 229.308 117.55 229.176 117.317Z" fill="#263238"/>
<path d="M126.656 137.982C126.489 138.869 126.625 139.787 127.041 140.585C127.273 141.044 127.602 141.446 128.004 141.761C128.407 142.076 128.874 142.296 129.371 142.405C130.03 142.505 130.704 142.417 131.316 142.15C131.929 141.884 132.456 141.449 132.838 140.894C133.266 140.243 133.462 139.463 133.394 138.683C133.303 137.822 133.057 136.986 132.668 136.217C131.915 134.606 130.598 132.923 130.455 130.693C130.378 129.565 130.533 128.432 130.911 127.369C131.289 126.305 131.881 125.333 132.65 124.514C133.456 123.649 134.417 122.948 135.482 122.448C136.573 121.959 137.724 121.619 138.904 121.438C140.042 121.262 141.16 120.978 142.246 120.592C143.261 120.222 144.115 119.5 144.657 118.554C145.118 117.597 145.307 116.529 145.203 115.469C145.114 114.429 144.885 113.406 144.522 112.429C143.85 110.5 142.99 108.644 142.838 106.724C142.694 104.956 143.072 103.186 143.922 101.637C144.655 100.4 145.613 99.3163 146.744 98.4427C147.565 97.7783 148.338 97.0545 149.056 96.2769C149.647 95.6001 150.096 94.8072 150.373 93.9473C150.373 93.9473 150.373 94.011 150.373 94.1293C150.35 94.3063 150.308 94.4802 150.248 94.648C150.029 95.2977 149.692 95.8997 149.253 96.4225C148.554 97.2346 147.793 97.9892 146.977 98.6793C145.898 99.5517 144.987 100.619 144.289 101.828C143.508 103.311 143.172 104.994 143.322 106.669C143.483 108.489 144.325 110.309 145.033 112.238C145.42 113.26 145.665 114.332 145.759 115.423C145.878 116.59 145.67 117.766 145.158 118.818C144.556 119.884 143.605 120.702 142.47 121.129C141.35 121.539 140.196 121.844 139.021 122.039C137.888 122.212 136.782 122.537 135.732 123.004C134.723 123.466 133.81 124.12 133.044 124.933C132.324 125.693 131.768 126.596 131.41 127.586C131.052 128.577 130.901 129.631 130.966 130.684C131.073 132.722 132.301 134.324 133.08 136.035C133.487 136.863 133.736 137.761 133.815 138.683C133.888 139.562 133.653 140.438 133.152 141.158C132.72 141.765 132.129 142.236 131.446 142.518C130.763 142.8 130.016 142.88 129.29 142.751C128.423 142.526 127.663 141.997 127.143 141.258C126.623 140.518 126.378 139.616 126.45 138.71C126.473 138.457 126.543 138.21 126.656 137.982Z" fill="#263238"/>
<path d="M129.926 193.475C129.926 193.475 131.432 181.235 137.238 175.12C143.044 169.005 167.343 161.343 167.343 161.343C167.343 161.343 168.347 170.069 174.171 172.172C180.344 174.41 187.315 173.573 191.831 168.24C194.562 164.823 196.482 160.812 197.44 156.52C197.44 156.52 226.461 159.25 231.192 167.312C235.923 175.375 242.043 206.706 242.043 206.706L214.912 212.557L218.604 266.484H146.547L147.954 215.87L128.332 218.718L129.926 193.475Z" fill="#FED046"/>
<path d="M209.563 214.286C209.478 213.889 209.444 213.482 209.464 213.075C209.464 212.293 209.464 211.155 209.464 209.763C209.464 206.96 209.509 203.102 209.599 198.843C209.688 194.584 209.796 190.717 209.912 187.923C209.966 186.522 210.02 185.393 210.074 184.611C210.067 184.202 210.118 183.794 210.226 183.4C210.305 183.799 210.335 184.205 210.316 184.611C210.316 185.393 210.316 186.531 210.316 187.923C210.316 190.726 210.271 194.584 210.181 198.843C210.092 203.102 209.984 206.969 209.868 209.763C209.814 211.155 209.751 212.284 209.706 213.066C209.717 213.478 209.668 213.888 209.563 214.286Z" fill="#263238"/>
<path d="M141.27 192.082C141.44 192.037 143.134 197.542 145.051 204.304C146.968 211.065 148.402 216.643 148.232 216.689C148.062 216.734 146.377 211.229 144.451 204.477C142.524 197.724 141.109 192.137 141.27 192.082Z" fill="#263238"/>
<path d="M228.2 165.329C228.2 165.438 226.91 165.683 224.929 166.448C219.736 168.467 215.413 172.286 212.726 177.231C211.704 179.115 211.283 180.398 211.176 180.362C211.197 180.049 211.267 179.742 211.382 179.452C211.633 178.623 211.951 177.816 212.332 177.04C213.593 174.465 215.342 172.169 217.479 170.282C219.617 168.396 222.1 166.957 224.786 166.047C225.595 165.768 226.425 165.558 227.268 165.42C227.57 165.331 227.886 165.3 228.2 165.329Z" fill="#263238"/>
<path d="M136.808 177.586C136.969 177.586 137.542 179.251 138.08 181.39C138.618 183.528 138.913 185.303 138.743 185.348C138.573 185.394 138.008 183.683 137.471 181.544C136.933 179.406 136.637 177.631 136.808 177.586Z" fill="#263238"/>
<path d="M237.258 207.697C237.258 207.697 229.132 249.612 228.2 253.197C227.268 256.783 225.772 266.438 215.925 268.44C202.637 271.17 150.463 269.25 150.463 269.25L160.319 256.601L205.97 243.597L212.242 213.103L237.258 207.697Z" fill="#FFBE9D"/>
<path d="M159.45 249.521C159.631 249.819 159.761 250.145 159.835 250.486C160.103 251.4 160.277 252.339 160.355 253.289C160.63 256.442 159.981 259.608 158.491 262.389C157.698 263.938 156.694 265.366 155.507 266.629C154.522 267.655 153.334 268.459 152.022 268.986C151.141 269.324 150.218 269.535 149.28 269.614C148.939 269.671 148.591 269.671 148.25 269.614C149.471 269.385 150.671 269.047 151.834 268.604C153.057 268.047 154.159 267.249 155.077 266.256C156.195 265.017 157.152 263.638 157.927 262.152C159.362 259.46 160.043 256.42 159.898 253.362C159.808 250.959 159.333 249.558 159.45 249.521Z" fill="#EB996E"/>
<path d="M115.761 199.918C115.761 199.918 123.117 225.061 126.163 235.926C129.407 247.465 136.494 273.673 151.601 269.023C163.096 265.474 159.718 250.35 159.718 250.35L147.954 215.825L138.806 217.381L129.926 194.094L115.761 199.918Z" fill="#FFBE9D"/>
<path d="M155.695 251.441C156.106 249.568 156.106 247.626 155.695 245.753C155.21 243.738 154.379 241.825 153.24 240.102C151.806 237.999 150.212 236.012 148.474 234.16C146.728 232.274 145.128 230.254 143.689 228.118C142.539 226.355 141.535 224.498 140.687 222.567C140.114 221.268 139.623 219.934 139.218 218.572C139.032 218.081 138.911 217.567 138.86 217.043C139.091 217.509 139.286 217.993 139.442 218.49C139.8 219.4 140.338 220.765 141.091 222.376C141.98 224.258 143.01 226.068 144.173 227.79C145.619 229.885 147.212 231.871 148.94 233.732C150.7 235.608 152.301 237.633 153.724 239.784C154.883 241.586 155.701 243.592 156.134 245.699C156.414 247.116 156.414 248.576 156.134 249.994C156.063 250.376 155.958 250.75 155.821 251.113C155.795 251.228 155.753 251.339 155.695 251.441Z" fill="#EB996E"/>
<path d="M129.927 194.093C129.927 194.093 129.98 184.083 129.111 181.225L122.122 165.373C122.122 165.373 120.33 164.254 119.434 167.412C118.538 170.569 121.298 173.827 121.298 173.827L121.513 177.977L118.718 175.629L113.279 165.273C113.279 165.273 109.525 157.729 108.557 158.903C107.589 160.077 107.903 162.543 109.516 165.774L113.189 173.163C113.189 173.163 113.745 174.473 111.818 172.571C109.892 170.669 105.708 161.46 104.839 160.304C103.969 159.149 102.787 155.754 100.914 156.546C99.0414 157.338 101.443 161.36 101.443 161.36L107.437 175.01C107.437 175.01 103.96 169.841 103.333 168.968C102.706 168.094 101.255 165.137 100.117 163.626C98.9787 162.115 97.7333 161.533 96.9089 161.897C96.5066 162.044 96.1748 162.342 95.9816 162.729C95.7883 163.117 95.7483 163.564 95.8696 163.981L102.276 175.265C102.276 175.265 105.475 180.334 105.475 180.725C105.475 181.116 102.679 179.05 102.679 179.05L99.9912 175.574C99.9912 175.574 97.0881 170.369 95.5649 170.651C94.0417 170.933 94.3105 172.089 94.3105 172.089L99.6865 181.571L107.518 191.8L115.886 200.244L120.725 198.661L129.927 194.093Z" fill="#FFBE9D"/>
<path d="M114.524 192.4C114.768 191.375 114.93 190.331 115.008 189.279C115.322 187.404 115.958 184.592 118.225 182.782C119.141 182.005 120.285 181.56 121.477 181.517H121.88V181.08C121.755 179.132 121.827 177.276 121.755 176.048C121.813 175.371 121.721 174.69 121.486 174.055C121.361 174.708 121.298 175.373 121.298 176.038C121.16 177.755 121.11 179.477 121.146 181.198L121.513 180.761C120.14 180.758 118.81 181.248 117.759 182.145C116.611 183.086 115.734 184.324 115.223 185.73C114.821 186.85 114.568 188.019 114.47 189.206C114.315 190.267 114.333 191.346 114.524 192.4Z" fill="#EB996E"/>
</svg>
