<?xml version="1.0" ?><!DOCTYPE svg  PUBLIC '-//W3C//DTD SVG 1.1//EN'  'http://www.w3.org/Graphics/SVG/1.1/DTD/svg11.dtd'><svg enable-background="new 0 0 96 96" height="96px" id="Layer_1" version="1.1" viewBox="0 0 96 96" width="96px" xml:space="preserve" xmlns="http://www.w3.org/2000/svg" xmlns:xlink="http://www.w3.org/1999/xlink"><g><g><g><path d="M48.207,52.447c0.24,0,0.43,0.191,0.43,0.43v0.221c0.59,0.07,1.09,0.26,1.549,0.549c0.16,0.09,0.301,0.24,0.301,0.48     c0,0.311-0.25,0.549-0.561,0.549c-0.1,0-0.199-0.029-0.299-0.09c-0.35-0.209-0.689-0.359-1.029-0.439v1.92     c1.52,0.379,2.168,0.988,2.168,2.059c0,1.1-0.859,1.828-2.129,1.949v0.6c0,0.24-0.189,0.43-0.43,0.43s-0.439-0.189-0.439-0.43     v-0.619c-0.75-0.08-1.439-0.352-2.049-0.781c-0.17-0.109-0.27-0.27-0.27-0.479c0-0.311,0.24-0.551,0.549-0.551     c0.121,0,0.24,0.041,0.33,0.111c0.471,0.34,0.93,0.568,1.48,0.668v-1.969c-1.461-0.379-2.141-0.93-2.141-2.059     c0-1.068,0.85-1.809,2.1-1.908v-0.211C47.768,52.639,47.967,52.447,48.207,52.447z M47.809,55.855v-1.768     c-0.641,0.059-0.961,0.398-0.961,0.838C46.848,55.346,47.039,55.605,47.809,55.855z M48.598,57.246v1.818     c0.639-0.07,0.988-0.391,0.988-0.869C49.586,57.756,49.367,57.484,48.598,57.246z"/></g><path d="    M66.75,69.766H71c1.104,0,2-0.896,2-2V45.762c0-1.104-0.896-2-2-2H25c-1.104,0-2,0.896-2,2v22.004c0,1.104,0.896,2,2,2h35.875" fill="none" stroke="#000000" stroke-linecap="round" stroke-linejoin="round" stroke-miterlimit="10" stroke-width="2"/><circle cx="48" cy="56.764" fill="none" r="7.656" stroke="#000000" stroke-linecap="round" stroke-linejoin="round" stroke-miterlimit="10" stroke-width="2"/></g><g><path d="    M65.896,27.593c-0.261-0.979-1.266-1.558-2.242-1.295L22.967,37.199c-0.979,0.263-1.559,1.266-1.296,2.243" fill="none" stroke="#000000" stroke-linecap="round" stroke-linejoin="round" stroke-miterlimit="10" stroke-width="2"/><path d="    M70.23,43.766l-4.334-16.173c-0.261-0.979-1.266-1.558-2.242-1.295L22.967,37.199c-0.979,0.263-1.559,1.266-1.296,2.243L23,44.647    " fill="none" stroke="#000000" stroke-linecap="round" stroke-linejoin="round" stroke-miterlimit="10" stroke-width="2"/><line fill="none" stroke="#000000" stroke-linecap="round" stroke-linejoin="round" stroke-miterlimit="10" stroke-width="2" x1="62.885" x2="47.578" y1="39.66" y2="43.762"/><polyline fill="none" points="    49.541,35.811 66.855,31.172 68.713,38.099 65.797,38.88   " stroke="#000000" stroke-linecap="round" stroke-linejoin="round" stroke-miterlimit="10" stroke-width="2"/><line fill="none" stroke="#000000" stroke-linecap="round" stroke-linejoin="round" stroke-miterlimit="10" stroke-width="2" x1="22.63" x2="43.949" y1="43.021" y2="37.31"/></g></g></svg>