<svg width="667" height="708" viewBox="0 0 667 708" fill="none" xmlns="http://www.w3.org/2000/svg">
<path d="M128.578 574.175V584.826H203.684V574.175H128.578Z" fill="#E0E0E0"/>
<path d="M138.809 574.617C139.07 574.617 139.282 576.852 139.282 579.606C139.282 582.361 139.07 584.596 138.809 584.596C138.548 584.596 138.337 582.361 138.337 579.606C138.337 576.852 138.549 574.617 138.809 574.617Z" fill="#FAFAFA"/>
<path d="M137.174 574.4C137.435 574.4 137.646 576.635 137.646 579.39C137.646 582.146 137.435 584.38 137.174 584.38C136.914 584.38 136.702 582.146 136.702 579.39C136.702 576.635 136.914 574.4 137.174 574.4Z" fill="#FAFAFA"/>
<path d="M197.875 574.617C198.136 574.617 198.347 576.852 198.347 579.606C198.347 582.361 198.136 584.596 197.875 584.596C197.615 584.596 197.403 582.361 197.403 579.606C197.404 576.852 197.615 574.617 197.875 574.617Z" fill="#FAFAFA"/>
<path d="M196.241 574.4C196.501 574.4 196.713 576.635 196.713 579.39C196.713 582.146 196.501 584.38 196.241 584.38C195.981 584.38 195.769 582.146 195.769 579.39C195.769 576.635 195.979 574.4 196.241 574.4Z" fill="#FAFAFA"/>
<path d="M186.431 579.824C186.431 580.101 177.828 580.325 167.22 580.325C156.608 580.325 148.007 580.1 148.007 579.824C148.007 579.547 156.608 579.322 167.22 579.322C177.828 579.322 186.431 579.547 186.431 579.824Z" fill="#FAFAFA"/>
<path d="M128.252 622.129V643.43H203.358V622.129H128.252Z" fill="#E0E0E0"/>
<path d="M204.321 637.438C204.327 637.454 204.19 637.537 203.913 637.686C203.638 637.837 203.219 638.043 202.661 638.293C201.545 638.778 199.86 639.464 197.569 639.84C195.318 640.179 192.296 640.276 189.307 638.595C187.839 637.762 186.444 636.498 185.382 634.82C184.344 633.146 183.677 630.958 184.016 628.684C184.196 627.553 184.642 626.436 185.397 625.512C186.13 624.588 187.308 623.907 188.564 623.986C189.822 624.045 190.958 624.811 191.746 625.808C192.542 626.808 193.087 628.088 193.199 629.442C193.497 632.142 192.425 634.943 190.61 636.991C188.824 639.112 186.153 640.405 183.393 640.736C180.614 641.086 177.741 640.618 175.014 639.631C172.289 638.633 169.595 637.01 167.694 634.409C166.762 633.116 166.088 631.512 165.988 629.81C165.85 628.114 166.359 626.29 167.588 625.025C168.199 624.395 169.052 623.972 169.937 623.932C170.823 623.887 171.678 624.193 172.393 624.666C173.842 625.62 174.767 627.254 175.157 628.963C175.863 632.447 174.565 636.074 172.195 638.346C169.82 640.64 166.709 641.658 163.739 641.999C160.75 642.318 157.743 642.081 154.973 641.083C152.215 640.109 149.733 638.181 148.305 635.58C146.852 633.038 146.376 629.82 147.47 627.118C147.983 625.78 149.144 624.593 150.534 624.367C151.888 624.098 153.273 624.496 154.317 625.335C156.437 627.121 156.79 630.182 156.106 632.512C155.411 634.908 153.893 636.744 152.32 638.171C149.109 641.049 145.309 642.293 142.02 642.418C138.697 642.543 135.904 641.57 133.86 640.45C131.802 639.313 130.446 638.023 129.605 637.102C129.191 636.632 128.888 636.261 128.706 635.995C128.518 635.733 128.428 635.594 128.441 635.583C128.538 635.444 129.945 637.908 134.026 640.101C136.051 641.145 138.787 642.031 141.998 641.857C145.178 641.685 148.834 640.427 151.887 637.632C153.387 636.246 154.799 634.474 155.408 632.291C156.022 630.18 155.623 627.447 153.846 625.997C152.978 625.301 151.784 624.976 150.689 625.207C149.575 625.403 148.692 626.303 148.233 627.469C147.286 629.835 147.7 632.767 149.053 635.103C150.38 637.492 152.656 639.256 155.268 640.175C157.878 641.108 160.78 641.333 163.642 641.02C166.484 640.689 169.401 639.706 171.564 637.606C173.7 635.573 174.866 632.236 174.238 629.187C173.898 627.696 173.092 626.298 171.895 625.514C170.723 624.69 169.19 624.715 168.233 625.75C167.264 626.744 166.794 628.288 166.922 629.742C167.007 631.222 167.588 632.635 168.435 633.816C170.157 636.192 172.713 637.771 175.308 638.724C177.932 639.684 180.68 640.134 183.293 639.817C185.901 639.51 188.341 638.34 190.007 636.387C191.7 634.501 192.678 631.942 192.425 629.53C192.243 627.186 190.559 624.902 188.53 624.758C187.53 624.687 186.572 625.209 185.924 626.004C185.263 626.794 184.846 627.796 184.679 628.802C184.352 630.858 184.932 632.884 185.89 634.471C186.868 636.062 188.181 637.289 189.565 638.103C192.368 639.746 195.314 639.733 197.524 639.453C199.777 639.144 201.467 638.525 202.597 638.105C203.723 637.667 204.305 637.4 204.321 637.438Z" fill="#FAFAFA"/>
<path d="M134.96 585.135V622.091H203.359V585.135H134.96Z" fill="#EBEBEB"/>
<path d="M146.325 586.402C146.587 586.402 146.797 594.411 146.797 604.288C146.797 614.169 146.587 622.176 146.325 622.176C146.064 622.176 145.853 614.169 145.853 604.288C145.853 594.411 146.064 586.402 146.325 586.402Z" fill="#E0E0E0"/>
<path d="M151.509 585.943C151.771 585.943 151.981 593.85 151.981 603.599C151.981 613.353 151.769 621.257 151.509 621.257C151.249 621.257 151.037 613.353 151.037 603.599C151.037 593.85 151.249 585.943 151.509 585.943Z" fill="#E0E0E0"/>
<path d="M195.626 584.757C195.887 584.757 196.098 593.083 196.098 603.352C196.098 613.623 195.887 621.947 195.626 621.947C195.366 621.947 195.154 613.622 195.154 603.352C195.154 593.083 195.366 584.757 195.626 584.757Z" fill="#E0E0E0"/>
<path d="M189.532 585.255C189.792 585.255 190.004 593.366 190.004 603.37C190.004 613.377 189.792 621.486 189.532 621.486C189.272 621.486 189.06 613.377 189.06 603.37C189.06 593.367 189.271 585.255 189.532 585.255Z" fill="#E0E0E0"/>
<path d="M557.706 504.459C564.796 500.576 573.145 500.071 581.017 501.451C585.246 502.193 589.655 503.537 592.532 506.908C595.41 510.28 595.955 516.214 592.651 519.112C590.683 520.836 587.941 521.098 585.39 521.067C579.228 520.991 572.39 519.839 567.468 523.774C564.658 526.02 562.789 529.753 559.43 530.857C556.145 531.938 552.438 529.88 550.695 526.732C548.953 523.585 548.896 519.651 549.707 516.103C549.707 516.103 550.563 508.37 557.706 504.459Z" fill="#EBEBEB"/>
<path d="M541.462 471.171C545.797 477.744 554.224 475.568 558.131 471.557C562.039 467.544 563.69 461.73 565.193 456.184C568.628 443.514 572.092 430.223 569.537 417.321C568.774 413.464 567.415 409.616 564.861 406.755C562.308 403.893 558.381 402.191 554.791 403.198C550.542 404.39 547.901 408.807 545.993 413.009C540.384 425.361 537.413 439.054 537.369 452.765C537.348 459.169 538.059 465.884 541.462 471.171Z" fill="#EBEBEB"/>
<path d="M529.556 480.603C534.263 474.673 535.156 466.023 533.061 458.595C530.967 451.165 526.234 444.845 520.781 439.685C514.385 433.636 506.87 428.928 498.788 425.912C495.608 424.725 492.254 423.789 488.898 424.129C485.542 424.469 482.163 426.29 480.598 429.459C478.283 434.145 480.502 439.827 482.903 444.464C487.132 452.633 491.966 460.447 497.347 467.811C501.678 473.736 506.636 479.58 513.234 482.257C519.832 484.935 526.686 484.621 530.184 479.762" fill="#EBEBEB"/>
<path d="M541.168 570.324C541.249 570.329 541.381 569.265 541.56 567.337C541.759 565.164 542.01 562.434 542.307 559.187C542.665 555.757 543.137 551.675 544.035 547.23C544.93 542.797 546.331 537.992 548.129 533.118C549.991 528.274 552.263 523.872 554.918 520.35C557.554 516.813 560.618 514.253 563.499 512.778C566.371 511.271 568.947 510.661 570.727 510.389C572.522 510.193 573.528 510.043 573.528 509.958C573.529 509.873 572.521 509.859 570.677 509.912C568.85 510.04 566.168 510.532 563.14 511.993C560.104 513.423 556.852 516.022 554.088 519.632C551.301 523.228 548.947 527.728 547.051 532.658C545.221 537.617 543.841 542.471 542.986 547.001C542.134 551.524 541.744 555.65 541.489 559.108C541.245 562.568 541.153 565.372 541.109 567.309C541.068 569.246 541.089 570.32 541.168 570.324Z" fill="#E0E0E0"/>
<path d="M541.698 564.053C541.738 564.051 541.763 563.573 541.774 562.667C541.771 561.626 541.768 560.313 541.764 558.703C541.755 555.264 541.758 550.287 541.931 544.141C542.218 531.849 543.214 518.619 545.141 499.969C546.964 482.43 549.412 462.02 551.996 448.751C552.55 445.733 553.107 443.016 553.633 440.639C554.133 438.254 554.561 436.199 554.974 434.537C555.328 432.972 555.617 431.697 555.846 430.686C556.033 429.801 556.113 429.329 556.074 429.318C556.035 429.305 555.881 429.752 555.621 430.618C555.336 431.614 554.978 432.872 554.536 434.415C554.056 436.063 553.562 438.104 553.001 440.479C552.414 442.846 551.799 445.556 551.192 448.57C548.636 460.594 545.929 477.399 543.985 496.095C542.055 514.785 541.187 531.802 541.109 544.126C541.04 550.287 541.164 555.275 541.312 558.716C541.404 560.326 541.48 561.637 541.54 562.677C541.604 563.581 541.658 564.056 541.698 564.053Z" fill="#E0E0E0"/>
<path d="M541.775 531.23C541.856 531.227 541.842 529.756 541.748 527.089C541.604 524.429 541.26 520.584 540.554 515.873C539.806 511.174 538.76 505.595 537.118 499.531C536.407 496.76 534.733 490.118 530.68 480.194C525.34 466.748 518.086 455.756 511.773 448.946C510.294 447.139 508.645 445.835 507.326 444.558C506.643 443.946 506.04 443.334 505.426 442.852C504.809 442.4 504.234 441.979 503.701 441.588C501.624 440.08 500.461 439.286 500.418 439.357C500.232 439.626 505.071 442.649 511.181 449.549C517.267 456.435 524.318 467.353 529.616 480.686C532.569 487.917 534.629 494.369 536.091 499.844C537.78 505.848 538.9 511.372 539.747 516.023C540.553 520.686 541.019 524.492 541.3 527.129C541.528 529.77 541.695 531.234 541.775 531.23Z" fill="#E0E0E0"/>
<path d="M509.818 584.143L512.917 629.201H567.449L570.548 584.143H509.818Z" fill="#EBEBEB"/>
<path d="M577.054 566.383H504.55V584.142H577.054V566.383Z" fill="#EBEBEB"/>
<path d="M504.55 627.477V632.4H507.957H575.856V627.477H504.55Z" fill="#E0E0E0"/>
<path d="M511.296 640.519L507.957 631.854H573.259L569.363 640.519H511.296Z" fill="#E0E0E0"/>
<path d="M569.535 598.869C569.547 598.881 569.461 599.021 569.281 599.283C569.065 599.587 568.796 599.965 568.466 600.43C567.691 601.482 566.627 602.928 565.289 604.746L565.148 604.938L565.011 604.737C563.014 601.806 560.346 597.89 557.205 593.279H557.655C555.334 596.768 552.747 600.655 549.971 604.828L549.73 605.19L549.46 604.849C546.624 601.268 543.544 597.378 540.348 593.34L540.873 593.333C540.714 593.544 540.544 593.772 540.372 594.001C537.545 597.762 534.81 601.403 532.223 604.845L531.951 605.206L531.701 604.829C528.934 600.675 526.35 596.794 524.013 593.283L524.46 593.306C520.671 597.888 517.457 601.774 514.991 604.756L514.823 604.96L514.695 604.73C513.447 602.504 512.451 600.73 511.731 599.443C511.421 598.869 511.17 598.405 510.97 598.035C510.802 597.714 510.723 597.543 510.738 597.533C510.753 597.523 510.861 597.676 511.056 597.979C511.277 598.334 511.554 598.782 511.897 599.334C512.655 600.597 513.7 602.339 515.01 604.525L514.713 604.499C517.14 601.481 520.301 597.547 524.03 592.91L524.265 592.616L524.477 592.932C526.834 596.425 529.442 600.29 532.234 604.426L531.713 604.41C534.294 600.962 537.022 597.318 539.842 593.551C540.014 593.322 540.185 593.094 540.344 592.883L540.602 592.537L540.869 592.876C544.057 596.921 547.128 600.818 549.956 604.407L549.447 604.429C552.251 600.277 554.863 596.41 557.207 592.938L557.435 592.601L557.656 592.938C560.731 597.598 563.342 601.557 565.296 604.521L565.019 604.512C566.411 602.741 567.517 601.332 568.323 600.307C568.682 599.866 568.972 599.508 569.207 599.219C569.411 598.978 569.522 598.858 569.535 598.869Z" fill="#F5F5F5"/>
<path d="M571.307 583.845C571.307 584.045 557.643 584.205 540.792 584.205C523.934 584.205 510.272 584.043 510.272 583.845C510.272 583.647 523.934 583.485 540.792 583.485C557.641 583.485 571.307 583.647 571.307 583.845Z" fill="#F5F5F5"/>
<path d="M260.404 114.474C260.398 114.487 260.293 114.451 260.093 114.372C259.853 114.271 259.563 114.151 259.21 114.004C258.381 113.638 257.258 113.141 255.843 112.517C252.869 111.165 248.672 109.259 243.514 106.914C233.078 102.088 218.764 95.4682 202.951 88.156C202.469 87.9323 201.989 87.7085 201.545 87.5018L201.837 87.5032C186.291 94.5606 172.285 100.917 162.092 105.543C157.056 107.789 152.965 109.614 150.066 110.907C148.688 111.504 147.594 111.977 146.787 112.327C146.034 112.644 145.634 112.799 145.625 112.773C145.616 112.749 145.996 112.547 146.729 112.184C147.525 111.802 148.598 111.284 149.955 110.631C152.833 109.284 156.892 107.382 161.89 105.042C172.061 100.36 186.036 93.9276 201.549 86.7867L201.696 86.7188L201.842 86.7867C202.287 86.9935 202.767 87.2172 203.248 87.4409C219.028 94.8338 233.313 101.527 243.726 106.407C248.846 108.847 253.009 110.83 255.961 112.238C257.354 112.92 258.459 113.46 259.274 113.859C259.615 114.035 259.895 114.179 260.127 114.3C260.314 114.403 260.409 114.462 260.404 114.474Z" fill="#E0E0E0"/>
<path d="M323.681 108.291H63.157V315.348H323.681V108.291Z" fill="#E0E0E0"/>
<path d="M315.551 117.919H72.2642V306.84H315.551V117.919Z" fill="#FAFAFA"/>
<path d="M126.002 200.46C126.002 200.46 126.255 232.174 127.775 241.85L165.248 239.968C165.248 239.968 161.957 208.792 163.223 200.46H126.002Z" fill="#E0E0E0"/>
<path d="M144.459 204.944C144.459 204.94 144.506 204.934 144.596 204.928C144.702 204.924 144.835 204.919 145 204.911C145.357 204.885 145.884 204.911 146.56 204.994C147.231 205.107 148.057 205.299 148.942 205.745C149.826 206.19 150.739 206.915 151.536 207.923C152.303 208.948 153.006 210.221 153.333 211.754C153.641 213.287 153.485 215.009 152.939 216.668C152.674 217.502 152.312 218.322 151.887 219.125C151.464 219.927 151.039 220.732 150.686 221.606C149.979 223.342 149.417 225.252 149.171 227.25L149.155 227.382L149.033 227.385C147.85 227.405 146.6 227.426 145.333 227.448C144.003 227.471 142.693 227.492 141.452 227.512L141.315 227.515L141.309 227.366C141.245 225.366 140.398 223.543 139.51 221.93C139.06 221.115 138.568 220.352 138.106 219.578C137.655 218.819 137.149 218.093 136.79 217.3C136.051 215.717 135.924 213.965 136.203 212.456C136.471 210.944 136.943 209.571 137.649 208.492C138.35 207.412 139.244 206.66 140.087 206.162C140.936 205.66 141.733 205.389 142.388 205.217C143.046 205.049 143.566 204.982 143.919 204.952C144.095 204.943 144.229 204.934 144.32 204.937C144.412 204.934 144.459 204.94 144.459 204.944C144.459 204.95 144.412 204.952 144.323 204.962C144.219 204.974 144.088 204.988 143.925 205.006C143.577 205.053 143.062 205.137 142.415 205.321C141.771 205.506 140.988 205.789 140.162 206.296C139.34 206.799 138.477 207.545 137.805 208.604C137.131 209.656 136.676 211.012 136.424 212.494C136.163 213.974 136.296 215.656 137.016 217.182C137.367 217.951 137.864 218.657 138.329 219.431C138.787 220.191 139.287 220.963 139.743 221.783C140.644 223.413 141.52 225.261 141.592 227.361L141.449 227.215C142.691 227.194 144.001 227.171 145.33 227.148C146.597 227.127 147.847 227.107 149.03 227.087L148.893 227.222C149.149 225.169 149.719 223.253 150.44 221.491C150.798 220.611 151.238 219.782 151.66 218.989C152.081 218.201 152.44 217.396 152.703 216.582C153.245 214.959 153.403 213.288 153.115 211.803C152.812 210.325 152.129 209.056 151.39 208.051C150.622 207.057 149.737 206.337 148.878 205.888C148.017 205.437 147.207 205.231 146.545 205.103C145.878 205.005 145.355 204.961 145 204.969C144.835 204.965 144.703 204.961 144.598 204.958C144.506 204.952 144.459 204.948 144.459 204.944Z" fill="white"/>
<path d="M146.381 227.038C146.381 227.038 146.372 226.995 146.358 226.913C146.345 226.825 146.326 226.702 146.301 226.545C146.253 226.215 146.185 225.738 146.097 225.125C145.929 223.89 145.679 222.103 145.511 219.878C145.471 219.322 145.435 218.738 145.414 218.13C145.395 217.521 145.37 216.886 145.403 216.228C145.438 215.572 145.539 214.881 145.825 214.238C146.112 213.605 146.589 213.009 147.253 212.719C147.912 212.417 148.752 212.575 149.293 213.131C149.56 213.41 149.739 213.808 149.731 214.22C149.729 214.631 149.58 215.031 149.348 215.36C149.117 215.694 148.796 215.95 148.446 216.133C148.095 216.32 147.716 216.436 147.332 216.525C146.564 216.697 145.771 216.791 144.967 216.817C144.163 216.837 143.366 216.821 142.587 216.695C142.199 216.627 141.816 216.521 141.46 216.35C141.102 216.18 140.778 215.938 140.515 215.637C140.254 215.337 140.054 214.972 139.971 214.574C139.884 214.176 139.942 213.754 140.105 213.396C140.266 213.039 140.539 212.732 140.888 212.586C141.236 212.436 141.631 212.478 141.953 212.638C142.28 212.798 142.55 213.056 142.749 213.356C142.949 213.661 143.067 214.005 143.146 214.347C143.299 215.038 143.295 215.724 143.336 216.377C143.4 217.686 143.46 218.906 143.514 220.02C143.62 222.243 143.705 224.044 143.765 225.295C143.792 225.913 143.813 226.396 143.828 226.729C143.833 226.889 143.837 227.014 143.841 227.103C143.844 227.186 143.842 227.23 143.842 227.23C143.842 227.23 143.836 227.188 143.83 227.104C143.824 227.015 143.816 226.892 143.805 226.732C143.785 226.399 143.757 225.916 143.721 225.299C143.653 224.048 143.554 222.249 143.433 220.026C143.374 218.911 143.309 217.692 143.239 216.384C143.198 215.731 143.198 215.047 143.047 214.374C142.97 214.042 142.853 213.709 142.663 213.423C142.474 213.137 142.215 212.893 141.909 212.745C141.607 212.596 141.244 212.559 140.928 212.696C140.61 212.83 140.355 213.114 140.205 213.45C140.053 213.785 139.999 214.179 140.081 214.55C140.158 214.924 140.347 215.271 140.598 215.558C141.102 216.144 141.845 216.452 142.606 216.578C143.372 216.701 144.167 216.716 144.963 216.698C145.761 216.673 146.548 216.579 147.307 216.409C147.684 216.321 148.055 216.207 148.394 216.028C148.733 215.851 149.037 215.608 149.256 215.292C149.476 214.98 149.616 214.604 149.617 214.224C149.625 213.843 149.463 213.481 149.214 213.22C148.708 212.699 147.915 212.545 147.293 212.829C146.661 213.103 146.196 213.675 145.917 214.289C145.637 214.912 145.535 215.589 145.499 216.238C145.465 216.889 145.487 217.522 145.503 218.13C145.522 218.737 145.555 219.32 145.593 219.876C145.75 222.097 145.988 223.886 146.141 225.122C146.22 225.736 146.281 226.214 146.324 226.545C146.344 226.703 146.358 226.827 146.369 226.916C146.378 226.994 146.381 227.038 146.381 227.038Z" fill="white"/>
<path d="M141.448 227.247C141.467 227.266 141.497 227.742 141.545 228.57C141.592 229.53 141.648 230.677 141.712 232.016L141.681 231.933C142.435 232.855 143.285 233.895 144.204 235.018L144.075 234.959C144.992 234.904 145.973 234.846 146.991 234.785L146.868 234.85C147.336 234.242 147.823 233.612 148.321 232.968C148.566 232.651 148.81 232.336 149.049 232.026L149.01 232.147C148.972 230.331 148.934 228.614 148.9 227.048L149.058 227.208C146.933 227.233 145.091 227.254 143.61 227.271C143.019 227.271 142.5 227.27 142.036 227.27C141.664 227.266 141.46 227.26 141.448 227.247C141.436 227.235 141.617 227.218 141.967 227.195C142.42 227.169 142.927 227.141 143.504 227.11C145.011 227.048 146.887 226.968 149.049 226.879L149.204 226.872L149.209 227.039C149.253 228.605 149.303 230.323 149.353 232.137L149.356 232.205L149.315 232.259C149.076 232.569 148.833 232.883 148.588 233.2C148.089 233.843 147.6 234.473 147.131 235.079L147.083 235.142L147.008 235.146C145.99 235.198 145.01 235.249 144.091 235.297L144.011 235.302L143.96 235.238C143.058 234.098 142.224 233.043 141.485 232.108L141.455 232.07V232.023C141.443 230.651 141.432 229.473 141.423 228.489C141.424 227.668 141.429 227.229 141.448 227.247Z" fill="white"/>
<path d="M148.974 231.728C148.97 231.736 148.873 231.688 148.698 231.603C148.524 231.518 148.266 231.403 147.942 231.284C147.295 231.046 146.356 230.824 145.309 230.858C144.261 230.891 143.336 231.174 142.703 231.454C142.386 231.593 142.136 231.725 141.966 231.821C141.795 231.916 141.702 231.971 141.696 231.963C141.692 231.955 141.779 231.888 141.943 231.779C142.107 231.669 142.354 231.525 142.67 231.374C143.301 231.07 144.239 230.769 145.303 230.735C146.368 230.7 147.322 230.94 147.969 231.202C148.293 231.332 148.548 231.461 148.718 231.559C148.889 231.658 148.978 231.72 148.974 231.728Z" fill="white"/>
<path d="M148.974 230.488C148.97 230.497 148.873 230.449 148.698 230.364C148.524 230.279 148.266 230.164 147.942 230.045C147.295 229.807 146.356 229.585 145.307 229.619C144.26 229.653 143.334 229.935 142.702 230.215C142.385 230.354 142.135 230.485 141.966 230.582C141.795 230.677 141.702 230.732 141.696 230.723C141.692 230.716 141.778 230.648 141.943 230.539C142.107 230.43 142.354 230.286 142.67 230.134C143.301 229.831 144.239 229.53 145.303 229.496C146.368 229.46 147.322 229.701 147.969 229.963C148.294 230.093 148.548 230.222 148.718 230.32C148.888 230.419 148.977 230.481 148.974 230.488Z" fill="white"/>
<path d="M148.905 229.311C148.901 229.319 148.804 229.271 148.629 229.186C148.453 229.101 148.197 228.987 147.873 228.868C147.226 228.63 146.287 228.408 145.239 228.442C144.192 228.476 143.266 228.757 142.634 229.036C142.317 229.175 142.067 229.307 141.896 229.403C141.726 229.498 141.632 229.553 141.627 229.545C141.623 229.538 141.71 229.47 141.874 229.361C142.038 229.252 142.285 229.107 142.601 228.956C143.232 228.653 144.169 228.351 145.234 228.317C146.3 228.282 147.252 228.522 147.899 228.784C148.225 228.915 148.478 229.043 148.649 229.141C148.818 229.242 148.908 229.305 148.905 229.311Z" fill="white"/>
<path d="M84.2661 148.613C84.2661 148.613 84.5196 180.327 86.039 190.003L123.512 188.121C123.512 188.121 120.22 156.945 121.486 148.613H84.2661Z" fill="#EBEBEB"/>
<path d="M115.839 161.935C115.851 162.151 110.231 162.684 103.289 163.128C96.3442 163.571 90.7054 163.756 90.6934 163.541C90.6814 163.326 96.3002 162.792 103.245 162.349C110.187 161.906 115.826 161.72 115.839 161.935Z" fill="white"/>
<path d="M115.849 168.652C115.861 168.867 110.24 169.401 103.298 169.844C96.3521 170.288 90.7147 170.473 90.7027 170.258C90.6906 170.043 96.3095 169.509 103.254 169.066C110.196 168.622 115.837 168.437 115.849 168.652Z" fill="white"/>
<path d="M109.479 175.248C109.491 175.463 106.293 175.843 102.338 176.095C98.3813 176.347 95.1637 176.378 95.1516 176.163C95.1396 175.948 98.3359 175.57 102.294 175.316C106.249 175.063 109.467 175.033 109.479 175.248Z" fill="white"/>
<path d="M82.4919 241.919C82.4919 241.919 82.7454 273.634 84.2648 283.309L121.738 281.427C121.738 281.427 118.446 250.25 119.713 241.918H82.4919V241.919Z" fill="#EBEBEB"/>
<path d="M114.065 255.239C114.077 255.455 108.457 255.989 101.515 256.432C94.57 256.875 88.9312 257.06 88.9192 256.845C88.9072 256.63 94.526 256.096 101.471 255.653C108.413 255.21 114.053 255.026 114.065 255.239Z" fill="white"/>
<path d="M114.074 261.957C114.086 262.172 108.466 262.706 101.524 263.15C94.5793 263.593 88.9405 263.778 88.9285 263.563C88.9165 263.348 94.5353 262.814 101.48 262.371C108.424 261.927 114.062 261.743 114.074 261.957Z" fill="white"/>
<path d="M107.705 268.553C107.717 268.769 104.519 269.148 100.564 269.4C96.6071 269.652 93.3895 269.683 93.3775 269.468C93.3655 269.253 96.5617 268.875 100.52 268.621C104.476 268.369 107.693 268.338 107.705 268.553Z" fill="white"/>
<path d="M184.9 157.021L188.613 248.493L296.191 249.87L291.362 158.228L184.9 157.021Z" fill="#EBEBEB"/>
<path d="M290.517 156.365H183.655V242.018H290.517V156.365Z" fill="#F5F5F5"/>
<path d="M290.517 242.017C290.517 242.017 290.496 241.465 290.484 240.429C290.476 239.369 290.465 237.843 290.449 235.858C290.431 231.842 290.405 225.991 290.372 218.526C290.335 203.591 290.28 182.22 290.215 156.365L290.516 156.685C260.306 156.705 223.43 156.729 183.663 156.754H183.653L184.02 156.365C184.007 187.17 183.995 216.337 183.984 242.016L183.653 241.665C215.272 241.737 241.944 241.798 260.736 241.84C270.134 241.88 277.556 241.913 282.659 241.934C285.189 241.952 287.14 241.966 288.486 241.976C289.134 241.985 289.632 241.992 289.993 241.996C290.335 242.003 290.517 242.017 290.517 242.017C290.517 242.017 290.36 242.032 290.032 242.037C289.68 242.041 289.193 242.049 288.562 242.057C287.23 242.067 285.303 242.081 282.8 242.1C277.715 242.122 270.318 242.153 260.953 242.193C242.109 242.235 215.362 242.296 183.656 242.369L183.325 242.37V242.017C183.314 216.337 183.302 187.17 183.289 156.366V155.976H183.657H183.667C223.434 156.001 260.31 156.025 290.52 156.045H290.823L290.821 156.365C290.756 182.303 290.703 203.744 290.664 218.727C290.631 226.161 290.604 231.988 290.587 235.987C290.572 237.945 290.56 239.452 290.552 240.497C290.54 241.512 290.517 242.017 290.517 242.017Z" fill="#E0E0E0"/>
<path d="M239.865 174.51H196.546V232.38H239.865V174.51Z" fill="#F5F5F5"/>
<path d="M239.865 232.38C239.859 232.373 239.852 232.276 239.847 232.089C239.841 231.869 239.836 231.602 239.828 231.266C239.819 230.504 239.805 229.449 239.789 228.101C239.768 225.305 239.739 221.293 239.701 216.228C239.661 206.041 239.604 191.627 239.537 174.511L239.867 174.861C226.958 174.872 212.184 174.887 196.552 174.902C196.465 174.984 197.243 174.17 196.915 174.523V174.538V174.569V174.632V174.758V175.008V175.51V176.511V178.506C196.915 179.833 196.915 181.154 196.913 182.468C196.912 185.096 196.911 187.697 196.911 190.266C196.907 195.404 196.903 200.42 196.899 205.283C196.883 215.002 196.867 224.111 196.852 232.38L196.546 232.056C209.544 232.126 220.328 232.184 227.911 232.223C231.673 232.259 234.639 232.287 236.712 232.307C237.702 232.322 238.475 232.335 239.045 232.344C239.575 232.356 239.865 232.38 239.865 232.38C239.876 232.392 239.62 232.405 239.109 232.416C238.554 232.424 237.799 232.437 236.835 232.453C234.777 232.473 231.836 232.501 228.103 232.536C220.473 232.577 209.624 232.635 196.548 232.703L196.244 232.705V232.379C196.229 224.11 196.214 215.001 196.198 205.281C196.194 200.419 196.19 195.404 196.186 190.264C196.185 187.694 196.184 185.095 196.184 182.466C196.184 181.152 196.184 179.831 196.182 178.505V176.509V175.508V175.007V174.756V174.63V174.568V174.537V174.521C195.855 174.865 196.626 174.034 196.554 174.121C212.186 174.135 226.96 174.149 239.869 174.162H240.2L240.199 174.511C240.131 191.721 240.075 206.213 240.035 216.455C239.997 221.486 239.968 225.47 239.948 228.249C239.932 229.568 239.919 230.599 239.909 231.344C239.901 231.664 239.896 231.92 239.891 232.128C239.879 232.303 239.872 232.388 239.865 232.38Z" fill="#E0E0E0"/>
<path d="M281.226 161.269H198.206V169.607H281.226V161.269Z" fill="#F5F5F5"/>
<path d="M281.225 169.606C281.215 169.596 281.206 169.402 281.195 169.035C281.186 168.629 281.175 168.095 281.161 167.418C281.141 165.969 281.113 163.91 281.077 161.268L281.225 161.425C267.224 161.563 235.311 161.658 198.21 161.658H198.206C198.94 160.879 198.409 161.442 198.573 161.27V161.272V161.281V161.298V161.332V161.398V161.532V161.799V162.334V163.401C198.573 164.109 198.573 164.814 198.573 165.512C198.573 166.908 198.571 168.279 198.571 169.607L198.206 169.219C221.423 169.284 242.112 169.342 257.053 169.385C264.5 169.433 270.513 169.473 274.715 169.501C276.768 169.523 278.377 169.542 279.521 169.555C280.043 169.566 280.459 169.574 280.781 169.582C281.066 169.589 281.217 169.597 281.225 169.606C281.233 169.614 281.099 169.624 280.829 169.633C280.519 169.64 280.119 169.648 279.616 169.659C278.491 169.672 276.911 169.691 274.894 169.713C270.712 169.74 264.729 169.78 257.317 169.828C242.309 169.87 221.527 169.928 198.205 169.994L197.839 169.995V169.606C197.839 168.277 197.839 166.907 197.838 165.511C197.838 164.812 197.838 164.107 197.838 163.399V162.333V161.798V161.53V161.397V161.331V161.297V161.28V161.271V161.268C198.002 161.094 197.471 161.656 198.206 160.876H198.21C235.311 160.876 267.224 160.971 281.225 161.108L281.376 161.11L281.373 161.267C281.337 163.949 281.307 166.037 281.289 167.509C281.274 168.171 281.262 168.694 281.254 169.09C281.243 169.443 281.234 169.616 281.225 169.606Z" fill="#E0E0E0"/>
<path d="M281.225 174.51H245.169V209.387H281.225V174.51Z" fill="#F5F5F5"/>
<path d="M281.225 209.389C281.213 209.376 281.202 209.147 281.19 208.715C281.181 208.232 281.169 207.606 281.154 206.822C281.134 205.117 281.107 202.727 281.073 199.712C281.034 193.575 280.978 184.912 280.913 174.511L281.225 174.843C270.812 174.86 258.429 174.879 245.172 174.901C245.088 174.984 245.864 174.164 245.536 174.517V174.527V174.545V174.582V174.656V174.804V175.102V175.695V176.879C245.536 177.666 245.536 178.452 245.536 179.232C245.535 180.794 245.535 182.343 245.534 183.877C245.531 186.942 245.527 189.947 245.524 192.874C245.512 198.725 245.502 204.267 245.491 209.386L245.168 209.043C255.861 209.114 264.821 209.174 271.176 209.216C274.304 209.254 276.787 209.285 278.554 209.307C279.373 209.324 280.024 209.336 280.523 209.346C280.974 209.362 281.213 209.375 281.225 209.389C281.237 209.402 281.022 209.414 280.595 209.427C280.112 209.437 279.483 209.45 278.689 209.467C276.94 209.488 274.48 209.519 271.383 209.557C264.978 209.6 255.945 209.659 245.168 209.73L244.847 209.733L244.845 209.389C244.835 204.27 244.824 198.728 244.812 192.877C244.809 189.95 244.807 186.945 244.803 183.88C244.803 182.346 244.801 180.797 244.8 179.235C244.8 178.453 244.8 177.669 244.8 176.882V175.698V175.105V174.807V174.659V174.585V174.548V174.53V174.52C244.472 174.865 245.247 174.038 245.171 174.123C258.427 174.145 270.809 174.164 281.223 174.181H281.538L281.536 174.513C281.469 185 281.414 193.736 281.376 199.924C281.341 202.906 281.314 205.273 281.294 206.959C281.279 207.717 281.267 208.321 281.258 208.788C281.249 209.196 281.237 209.4 281.225 209.389Z" fill="#E0E0E0"/>
<path d="M281.225 214.855H245.169V232.38H281.225V214.855Z" fill="#F5F5F5"/>
<path d="M281.225 232.38C281.206 232.36 281.187 231.923 281.167 231.11C281.151 230.229 281.129 229.058 281.101 227.591C281.066 224.499 281.017 220.17 280.957 214.856L281.223 215.139C271.82 215.167 259.134 215.204 245.171 215.245C244.841 215.594 245.615 214.771 245.535 214.857V214.861V214.87V214.888V214.924V214.996V215.14V215.429V216.004V217.151C245.535 217.913 245.534 218.672 245.534 219.425C245.532 220.932 245.531 222.421 245.53 223.887C245.524 226.818 245.52 229.659 245.515 232.377L245.167 232.008C255.565 232.079 264.512 232.141 270.95 232.185C274.103 232.227 276.636 232.263 278.463 232.287C279.296 232.305 279.967 232.321 280.492 232.333C280.962 232.35 281.211 232.365 281.225 232.38C281.239 232.396 281.018 232.41 280.578 232.426C280.071 232.437 279.424 232.452 278.621 232.472C276.812 232.498 274.305 232.532 271.186 232.574C264.691 232.618 255.663 232.679 245.168 232.751L244.82 232.754V232.382C244.816 229.663 244.811 226.822 244.807 223.891C244.805 222.426 244.804 220.936 244.803 219.429C244.803 218.676 244.801 217.917 244.801 217.155V216.008V215.434V215.145V215V214.928V214.893V214.874V214.866V214.861C244.721 214.944 245.498 214.121 245.171 214.469C259.134 214.51 271.821 214.549 281.223 214.575L281.493 214.577L281.49 214.86C281.43 220.245 281.382 224.633 281.347 227.767C281.319 229.207 281.297 230.357 281.281 231.222C281.262 232.001 281.243 232.4 281.225 232.38Z" fill="#E0E0E0"/>
<path d="M238.794 174.61C225.385 194.273 209.956 212.718 196.546 232.38L238.794 174.61Z" fill="white"/>
<path d="M196.546 232.38C196.526 232.365 196.648 232.143 196.9 231.735C197.207 231.258 197.58 230.676 198.031 229.972C199.022 228.447 200.504 226.279 202.368 223.624C206.09 218.31 211.416 211.118 217.382 203.252C223.349 195.383 228.734 188.254 232.558 183.031C234.413 180.488 235.941 178.395 237.077 176.838C237.573 176.169 237.983 175.617 238.319 175.163C238.61 174.785 238.773 174.593 238.793 174.61C238.813 174.626 238.69 174.848 238.439 175.256C238.132 175.733 237.759 176.315 237.308 177.018C236.317 178.541 234.835 180.711 232.971 183.366C229.249 188.68 223.921 195.873 217.954 203.74C211.99 211.605 206.605 218.734 202.781 223.958C200.926 226.501 199.398 228.594 198.262 230.152C197.766 230.82 197.356 231.372 197.02 231.827C196.729 232.205 196.566 232.396 196.546 232.38Z" fill="#E0E0E0"/>
<path d="M239.865 232.38C239.706 232.515 229.879 219.668 217.918 203.689C205.954 187.706 196.386 174.644 196.545 174.51C196.704 174.375 206.529 187.22 218.493 203.204C230.455 219.182 240.024 232.246 239.865 232.38Z" fill="#E0E0E0"/>
<path d="M188.613 174.633C188.613 178.606 185.578 181.826 181.836 181.826C178.093 181.826 175.06 178.606 175.06 174.633C175.06 170.659 178.093 167.439 181.836 167.439C185.579 167.439 188.613 170.661 188.613 174.633Z" fill="#E0E0E0"/>
<path d="M299.451 157.172C299.451 161.145 296.416 164.365 292.674 164.365C288.931 164.365 285.898 161.145 285.898 157.172C285.898 153.199 288.933 149.979 292.674 149.979C296.418 149.979 299.451 153.199 299.451 157.172Z" fill="#E0E0E0"/>
<path d="M564.55 207.277H486.454V327.433H564.55V207.277Z" fill="#E0E0E0"/>
<path d="M560.639 207.277H482.542V327.433H560.639V207.277Z" fill="#F5F5F5"/>
<path d="M550.935 220.29H492.245V314.419H550.935V220.29Z" fill="white"/>
<path d="M550.935 314.418C550.935 314.418 550.927 314.258 550.923 313.958C550.921 313.648 550.917 313.203 550.913 312.623C550.907 311.44 550.899 309.709 550.889 307.46C550.877 302.949 550.859 296.374 550.837 288.071C550.813 271.472 550.78 247.968 550.74 220.29L550.935 220.496C533.004 220.502 513.135 220.508 492.251 220.515H492.245L492.457 220.29C492.441 255.799 492.426 288.539 492.414 314.418L492.245 314.238C510.118 314.278 524.769 314.311 534.963 314.333C540.063 314.353 544.045 314.369 546.765 314.379C548.116 314.387 549.153 314.394 549.863 314.398C550.566 314.405 550.935 314.418 550.935 314.418C550.935 314.418 550.59 314.431 549.9 314.438C549.197 314.442 548.171 314.449 546.833 314.458C544.121 314.468 540.151 314.483 535.069 314.503C524.849 314.526 510.162 314.558 492.245 314.598H492.075V314.418C492.063 288.538 492.048 255.799 492.032 220.29V220.064H492.245H492.251C513.135 220.072 533.004 220.077 550.935 220.083H551.13V220.29C551.091 248.023 551.058 271.574 551.034 288.207C551.011 296.492 550.994 303.049 550.982 307.551C550.971 309.781 550.963 311.498 550.958 312.672C550.953 313.243 550.949 313.678 550.946 313.983C550.943 314.275 550.935 314.418 550.935 314.418Z" fill="#E0E0E0"/>
<path d="M560.858 207.277C560.903 207.315 560.373 208.136 559.466 209.424C558.559 210.711 557.272 212.462 555.802 214.357C554.332 216.251 552.958 217.928 551.941 219.12C550.925 220.313 550.267 221.022 550.223 220.981C550.178 220.94 550.755 220.155 551.713 218.912C552.76 217.564 554.049 215.905 555.474 214.069C556.897 212.234 558.184 210.575 559.23 209.225C560.197 207.989 560.811 207.237 560.858 207.277Z" fill="#E0E0E0"/>
<path d="M551.235 314.115C554.15 319.036 557.592 323.604 561.472 327.705L551.235 314.115Z" fill="white"/>
<path d="M561.471 327.705C561.433 327.746 560.736 327.105 559.686 325.982C558.636 324.859 557.246 323.245 555.824 321.359C554.404 319.471 553.226 317.676 552.425 316.342C551.624 315.008 551.187 314.146 551.234 314.114C551.287 314.079 551.813 314.88 552.674 316.163C553.534 317.446 554.744 319.201 556.155 321.077C557.568 322.95 558.914 324.589 559.904 325.762C560.895 326.938 561.515 327.658 561.471 327.705Z" fill="#E0E0E0"/>
<path d="M482.531 327.338C485.94 322.872 489.35 318.407 492.76 313.941L482.531 327.338Z" fill="white"/>
<path d="M492.76 313.94C492.85 314.018 490.635 317.081 487.81 320.781C484.985 324.481 482.621 327.416 482.531 327.338C482.44 327.26 484.656 324.197 487.481 320.497C490.305 316.797 492.669 313.862 492.76 313.94Z" fill="#E0E0E0"/>
<path d="M482.543 207.277C482.635 207.199 484.858 210.021 487.508 213.577C490.158 217.135 492.231 220.08 492.139 220.157C492.047 220.235 489.825 217.414 487.174 213.856C484.523 210.3 482.45 207.353 482.543 207.277Z" fill="#E0E0E0"/>
<path d="M532.65 239.401H512.998V298.628H532.65V239.401Z" fill="#E0E0E0"/>
<path d="M546.557 79.6058L535.378 79.6699L535.678 138.717L546.857 138.653L546.557 79.6058Z" fill="#E0E0E0"/>
<path d="M467.479 79.7608L438.528 79.9268L438.694 112.524L467.645 112.359L467.479 79.7608Z" fill="#EBEBEB"/>
<path d="M496.292 79.5968L467.342 79.7627L467.508 112.36L496.458 112.194L496.292 79.5968Z" fill="#F5F5F5"/>
<path d="M438.563 88.949C457.802 89.1175 477.089 88.9986 496.325 88.6672C496.722 88.6615 496.719 88.0173 496.321 88.0144C477.082 87.9012 457.796 88.0017 438.559 88.3897C438.222 88.3968 438.224 88.9462 438.563 88.949Z" fill="#E0E0E0"/>
<path d="M473.078 111.819L420.479 112.12L420.614 138.684L473.213 138.383L473.078 111.819Z" fill="#EBEBEB"/>
<path d="M525.427 111.516L472.829 111.817L472.964 138.382L525.563 138.08L525.427 111.516Z" fill="#F5F5F5"/>
<path d="M420.506 119.524C455.448 119.945 490.512 119.568 525.452 118.975C525.848 118.968 525.846 118.323 525.449 118.322C490.505 118.126 455.44 118.148 420.505 118.965C420.165 118.972 420.166 119.52 420.506 119.524Z" fill="#E0E0E0"/>
<path d="M604.614 138.7H400.836V148.217H604.614V138.7Z" fill="#E0E0E0"/>
<path d="M442.472 143.275H434.2V175.75H442.472V143.275Z" fill="#E0E0E0"/>
<path d="M565.96 143.275H557.688V175.75H565.96V143.275Z" fill="#E0E0E0"/>
<path d="M557.465 57.5863L546.286 57.6504L546.7 138.861L557.878 138.797L557.465 57.5863Z" fill="#EBEBEB"/>
<path d="M574.935 72.7032L557.563 72.8027L557.898 138.614L575.27 138.515L574.935 72.7032Z" fill="#F5F5F5"/>
<path d="M574.806 85.406C574.806 85.583 570.917 85.726 566.122 85.726C561.323 85.726 557.436 85.583 557.436 85.406C557.436 85.229 561.325 85.0859 566.122 85.0859C570.917 85.0859 574.806 85.229 574.806 85.406Z" fill="#E0E0E0"/>
<path d="M574.806 82.6403C574.806 82.8173 570.917 82.9603 566.122 82.9603C561.323 82.9603 557.436 82.8173 557.436 82.6403C557.436 82.4633 561.325 82.3203 566.122 82.3203C570.917 82.3217 574.806 82.4647 574.806 82.6403Z" fill="#E0E0E0"/>
<path d="M574.806 128.636C574.806 128.813 570.917 128.956 566.122 128.956C561.323 128.956 557.436 128.813 557.436 128.636C557.436 128.459 561.325 128.316 566.122 128.316C570.917 128.316 574.806 128.459 574.806 128.636Z" fill="#E0E0E0"/>
<path d="M574.806 125.871C574.806 126.048 570.917 126.191 566.122 126.191C561.323 126.191 557.436 126.048 557.436 125.871C557.436 125.694 561.325 125.551 566.122 125.551C570.917 125.552 574.806 125.695 574.806 125.871Z" fill="#E0E0E0"/>
<path d="M566.401 119.839C566.234 119.839 566.099 113.199 566.099 105.01C566.099 96.8189 566.234 90.1807 566.401 90.1807C566.567 90.1807 566.702 96.8189 566.702 105.01C566.702 113.199 566.567 119.839 566.401 119.839Z" fill="#E0E0E0"/>
<path d="M593.902 88.8877H574.994V138.562H593.902V88.8877Z" fill="#EBEBEB"/>
<path d="M584.982 125.68C582.495 125.68 580.757 123.8 580.757 121.212C580.757 119.807 581.268 118.59 582.287 117.86L582.717 118.488C581.872 119.131 581.473 120.112 581.473 121.212C581.473 123.295 582.877 124.817 584.982 124.817C587.087 124.817 588.49 123.294 588.49 121.212C588.49 120.112 588.091 119.131 587.246 118.488L587.677 117.86C588.681 118.588 589.207 119.807 589.207 121.212C589.208 123.8 587.454 125.68 584.982 125.68Z" fill="#FAFAFA"/>
<path d="M588.139 116.627L587.502 116.237C588.043 115.561 588.506 114.358 588.506 113.056C588.506 111.194 587.885 110.45 586.943 110.45C584.519 110.45 586.305 116.305 583.037 116.305C581.778 116.305 580.757 115.188 580.757 112.954C580.757 111.837 581.076 110.619 581.569 109.925L582.207 110.314C581.696 111.058 581.457 112.023 581.457 112.971C581.457 114.697 582.127 115.46 583.02 115.46C585.522 115.46 583.753 109.604 586.925 109.604C588.281 109.604 589.205 110.838 589.205 113.09C589.208 114.545 588.745 115.933 588.139 116.627Z" fill="#FAFAFA"/>
<path d="M588.139 108.539L587.502 108.15C588.043 107.473 588.506 106.271 588.506 104.966C588.506 103.106 587.885 102.361 586.943 102.361C584.519 102.361 586.305 108.216 583.037 108.216C581.778 108.216 580.757 107.099 580.757 104.866C580.757 103.747 581.076 102.529 581.569 101.836L582.207 102.225C581.696 102.97 581.457 103.936 581.457 104.883C581.457 106.608 582.127 107.371 583.02 107.371C585.522 107.371 583.753 101.516 586.925 101.516C588.281 101.516 589.205 102.75 589.205 105.002C589.208 106.457 588.745 107.845 588.139 108.539Z" fill="#FAFAFA"/>
<path d="M551.701 74.8867C553.476 74.8867 554.915 73.3595 554.915 71.4756C554.915 69.5917 553.476 68.0645 551.701 68.0645C549.926 68.0645 548.488 69.5917 548.488 71.4756C548.488 73.3595 549.926 74.8867 551.701 74.8867Z" fill="#E0E0E0"/>
<path d="M552.695 80.8555H550.709V129.167H552.695V80.8555Z" fill="#E0E0E0"/>
<path d="M628.055 642.893C628.055 643.096 499.207 643.261 340.301 643.261C181.34 643.261 52.5183 643.095 52.5183 642.893C52.5183 642.689 181.339 642.524 340.301 642.524C499.207 642.524 628.055 642.689 628.055 642.893Z" fill="#263238"/>
<path d="M208.344 156.098C186.936 191.84 188.338 241.396 211.727 275.71C227.319 298.585 250.709 313.919 269.283 334.131C287.856 354.345 301.962 384.132 292.159 410.38C282.181 437.101 252.956 447.972 231.069 464.897C207.229 483.334 190.485 511.811 185.355 542.643C180.226 573.475 186.768 606.316 203.216 632.306H430.562C430.562 632.306 470.498 551.516 419.152 489.948C367.807 428.38 340.231 427.371 342.132 386.999C344.035 346.628 370.659 333.505 385.872 318.367C401.085 303.229 475.252 267.902 431.513 156.099L208.344 156.098Z" fill="#FAFAFA"/>
<path d="M208.344 156.098C208.344 156.098 209.663 156.075 212.258 156.064C214.861 156.057 218.721 156.046 223.782 156.031C233.929 156.016 248.883 155.993 268.146 155.963C306.711 155.934 362.517 155.89 431.513 155.836H431.68L431.74 155.997C434.847 164.372 437.986 172.991 440.211 182.128C442.5 191.225 444.377 200.702 445.041 210.523C445.737 220.325 445.439 230.446 443.599 240.499C441.701 250.522 438.318 260.451 433.323 269.636C430.839 274.238 427.918 278.607 424.76 282.824C421.567 287.016 418.03 290.956 414.288 294.717C410.54 298.474 406.547 302.012 402.401 305.398C398.264 308.795 393.946 312.007 389.729 315.396C387.618 317.087 385.689 318.983 383.677 320.883C381.655 322.747 379.572 324.545 377.471 326.327C373.271 329.893 369.027 333.459 365.021 337.363C356.936 345.042 350.106 354.63 346.349 365.789C344.527 371.358 343.221 377.194 342.794 383.166C342.681 384.657 342.492 386.147 342.44 387.645C342.412 389.145 342.332 390.648 342.399 392.151C342.418 395.16 342.737 398.164 343.252 401.13C344.32 407.057 346.665 412.737 350.075 417.66C353.435 422.629 357.579 427.003 361.866 431.211C370.498 439.588 379.652 447.584 388.422 456.218C397.234 464.803 405.791 473.867 414.034 483.392C418.124 488.171 422.282 492.98 425.857 498.314C429.555 503.547 432.659 509.265 435.387 515.183C440.764 527.072 444.089 540.114 445.177 553.45C446.348 566.787 445.453 580.378 442.963 593.679C441.73 600.335 440.095 606.928 438.086 613.413C436.075 619.9 433.755 626.296 430.867 632.474L430.775 632.673H430.56C428.716 632.673 426.712 632.673 424.707 632.673C347.1 632.667 272.219 632.661 203.216 632.656H203.039L202.941 632.5C192.109 615.239 185.678 595.409 183.904 575.537C182.019 555.662 184.9 535.73 191.769 518.04C198.549 500.286 209.087 484.715 221.821 472.476C228.17 466.308 235.248 461.261 242.338 456.591C249.437 451.914 256.595 447.589 263.362 442.855C270.1 438.111 276.594 433.059 281.866 426.877C287.157 420.747 291.2 413.547 293.317 405.807C295.444 398.06 295.464 389.936 294.22 382.287C292.96 374.611 290.414 367.352 287.194 360.666C283.965 353.971 280.048 347.824 275.751 342.216C271.465 336.588 266.7 331.594 261.904 326.88C252.279 317.477 242.432 309.251 233.566 300.799C229.126 296.582 224.919 292.326 221.046 287.952C217.202 283.553 213.687 279.044 210.668 274.372C204.58 265.052 200.404 255.232 197.66 245.753C194.912 236.263 193.546 227.089 193.233 218.648C193.046 216.541 193.119 214.474 193.122 212.456C193.147 210.438 193.09 208.466 193.287 206.553C193.426 204.637 193.562 202.769 193.694 200.95C193.9 199.14 194.181 197.387 194.41 195.679C196.411 182.009 200.297 172.021 203.327 165.628C204.053 164.003 204.692 162.575 205.384 161.418C206.034 160.244 206.578 159.258 207.015 158.464C207.893 156.888 208.344 156.098 208.344 156.098C208.251 156.272 207.88 156.967 207.055 158.514C206.626 159.309 206.092 160.296 205.456 161.473C204.78 162.624 204.147 164.056 203.431 165.683C200.439 172.086 196.594 182.072 194.632 195.718C194.408 197.422 194.13 199.171 193.93 200.978C193.803 202.793 193.671 204.657 193.538 206.568C193.346 208.477 193.407 210.445 193.386 212.458C193.387 214.47 193.318 216.533 193.509 218.633C193.838 227.051 195.216 236.197 197.971 245.651C200.72 255.095 204.896 264.872 210.973 274.146C213.987 278.794 217.495 283.284 221.335 287.664C225.201 292.021 229.405 296.263 233.843 300.468C242.707 308.897 252.564 317.11 262.215 326.521C267.023 331.236 271.81 336.244 276.122 341.894C280.443 347.524 284.383 353.695 287.637 360.424C290.881 367.146 293.451 374.449 294.729 382.192C295.989 389.906 295.977 398.119 293.831 405.961C291.695 413.796 287.606 421.082 282.272 427.27C276.956 433.512 270.428 438.594 263.673 443.358C256.887 448.11 249.727 452.443 242.644 457.115C235.566 461.784 228.53 466.808 222.219 472.946C209.559 485.128 199.079 500.626 192.344 518.289C185.519 535.889 182.663 555.704 184.544 575.472C186.314 595.233 192.719 614.953 203.49 632.108L203.215 631.952C272.217 631.946 347.097 631.942 424.706 631.936C426.711 631.936 428.713 631.936 430.559 631.936L430.252 632.133C433.104 626.029 435.427 619.635 437.425 613.186C439.426 606.729 441.055 600.163 442.282 593.537C444.762 580.296 445.652 566.776 444.489 553.518C443.408 540.262 440.107 527.307 434.768 515.499C432.059 509.622 428.977 503.943 425.303 498.742C421.755 493.446 417.621 488.662 413.531 483.882C405.303 474.369 396.762 465.318 387.965 456.744C379.207 448.118 370.07 440.133 361.413 431.728C357.113 427.505 352.942 423.103 349.537 418.068C346.082 413.079 343.689 407.284 342.609 401.263C342.086 398.252 341.764 395.206 341.747 392.166C341.68 390.646 341.76 389.132 341.789 387.618C341.843 386.106 342.032 384.605 342.147 383.101C342.579 377.08 343.9 371.187 345.743 365.56C349.543 354.281 356.461 344.589 364.594 336.874C368.623 332.951 372.882 329.377 377.08 325.815C379.181 324.037 381.259 322.244 383.269 320.392C385.246 318.527 387.228 316.582 389.353 314.882C393.591 311.478 397.9 308.278 402.029 304.891C406.164 301.517 410.144 297.995 413.877 294.257C417.605 290.515 421.125 286.598 424.303 282.432C427.443 278.241 430.351 273.901 432.822 269.328C437.791 260.205 441.156 250.345 443.051 240.382C444.885 230.393 445.19 220.323 444.505 210.564C443.851 200.785 441.987 191.339 439.712 182.268C437.501 173.158 434.376 164.554 431.283 156.194L431.51 156.356C362.556 156.302 306.783 156.258 268.242 156.228C248.964 156.198 233.998 156.176 223.844 156.16C218.769 156.146 214.898 156.135 212.29 156.128C209.687 156.121 208.344 156.098 208.344 156.098Z" fill="#263238"/>
<path d="M422.439 221.651C455.924 227.494 403.128 290.444 373.245 315.283C355.942 329.667 337.358 345.264 329.14 366.9C319.817 391.448 326.727 419.039 322.209 443.733C321.459 447.832 315.75 447.188 315.807 443.012C316.03 426.804 315.623 410.604 313.092 394.646C309.504 372.014 301.307 349.624 286.363 333.037C274.165 319.498 258.17 310.501 245.159 297.844C226.161 279.365 206.647 255.531 204.744 228.254C204.744 228.254 241.218 197.068 261.464 201.005C285.125 205.605 308.418 244.36 345.082 239.922C370.681 236.822 383.6 214.876 422.439 221.651Z" fill="#0082AE"/>
<path d="M425.413 558.583C424.567 549.695 422.334 539.636 414.902 535.443C410.4 532.903 404.918 533.186 399.988 534.562C395.057 535.938 390.424 538.319 385.537 539.859C375.92 542.891 365.385 542.537 355.969 538.865C346.884 535.322 339.085 528.919 330.649 523.885C322.213 518.852 312.339 515.099 302.947 517.58C286.753 521.858 278.324 542.553 262.314 547.55C255.197 549.77 247.556 548.524 240.321 546.784C233.087 545.043 225.825 542.81 218.413 543.105C212.605 543.336 206.562 545.467 202.49 549.692L202.533 549.633C202.492 549.676 202.457 549.723 202.416 549.769C201.746 550.472 201.131 551.233 200.58 552.053C195.614 559.08 194.82 568.529 196.347 577.11C198.058 586.718 202.286 595.599 206.825 604.108C212.17 614.13 218.241 624.11 227.079 630.792C237.982 639.036 251.692 633.346 265.036 634.464C296.163 637.071 329.65 638.85 360.78 636.289C377.223 634.935 392.636 636.827 405.684 626.119C414.865 618.586 420.834 607.231 423.713 595.299C426.592 583.366 426.578 570.837 425.413 558.583Z" fill="#0082AE"/>
<g opacity="0.24">
<path d="M366.669 541.559C364.91 544.415 364.162 548.241 365.856 551.141C367.55 554.041 369.841 556.676 370.576 559.998C371.73 565.214 368.771 570.316 366.565 575.136C362.617 583.758 360.822 593.594 362.153 603.075C363.484 612.557 368.067 621.615 375.216 627.472C378.377 630.061 382.485 632.069 386.294 630.802C389.882 629.608 392.201 625.744 392.914 621.826C393.626 617.908 393.038 613.872 392.57 609.913C390.395 591.538 390.841 572.815 393.886 554.58C394.396 551.532 394.883 548.051 393.062 545.631C391.9 544.086 390.046 543.36 388.278 542.734C381.34 540.283 373.852 543.007 366.669 541.559Z" fill="black"/>
</g>
<path d="M186.532 643.261C186.532 643.261 185.906 632.185 199.514 626.02H438.636C438.636 626.02 451.105 632.719 452.641 643.031L186.532 643.261Z" fill="#263238"/>
<path d="M433.57 157.447C433.446 157.509 433.319 157.572 433.191 157.634L208.344 156.097C208.344 156.097 207.546 155.555 206.35 154.563C199.944 149.244 203.539 138.32 211.671 138.389L429.903 140.26C438.911 140.337 441.715 153.362 433.57 157.447Z" fill="#263238"/>
<g opacity="0.24">
<path d="M397.584 248.49C398.036 249.41 396.35 251.4 393.126 254.437C389.892 257.477 385.171 261.647 379.171 266.782C373.137 271.874 365.828 278.013 356.517 283.742C351.853 286.603 346.661 289.198 340.984 291.31C338.129 292.326 335.17 293.271 332.058 293.929C328.964 294.633 325.735 295.1 322.414 295.262C315.793 295.665 309.057 294.636 303.03 292.449C297.036 290.242 291.925 287.131 287.454 284.01C282.972 280.855 279.108 277.741 275.466 274.761C271.839 271.773 268.533 268.893 265.578 266.184C253.767 255.322 247.556 247.334 248.754 245.792C249.992 244.189 258.352 249.27 271.382 257.769C274.639 259.891 278.202 262.214 282.025 264.704C285.844 267.174 289.953 269.9 294.142 272.42C298.344 274.941 302.729 277.233 307.276 278.72C311.793 280.153 316.61 280.834 321.734 280.53C331.975 279.974 341.914 276.144 350.525 271.733C359.18 267.238 366.918 262.151 373.669 258.14C380.411 254.083 386.178 251.085 390.375 249.492C394.579 247.894 397.149 247.605 397.584 248.49Z" fill="black"/>
</g>
<path d="M315.975 473.315C318.443 472.394 321.393 475.029 320.958 477.767C320.523 480.506 316.921 481.969 314.875 480.238C312.828 478.508 313.366 474.455 315.783 473.393" fill="#0082AE"/>
<path d="M235.552 287.988C235.535 288.005 235.262 287.712 234.759 287.138C234.218 286.51 233.493 285.666 232.58 284.604C231.66 283.479 230.449 282.179 229.211 280.519C227.954 278.859 226.532 276.98 224.964 274.91C223.514 272.733 221.868 270.388 220.214 267.79C219.427 266.46 218.615 265.087 217.777 263.672C217.365 262.96 216.918 262.256 216.519 261.507C216.132 260.751 215.741 259.985 215.345 259.209C212.062 253.074 209.139 245.889 207.061 238.04C204.981 230.187 204.006 222.423 203.918 215.356C203.913 213.59 204.003 211.868 204.041 210.196C204.078 209.36 204.063 208.533 204.142 207.726C204.223 206.919 204.303 206.125 204.382 205.344C204.55 203.784 204.668 202.272 204.865 200.83C205.109 199.399 205.344 198.022 205.568 196.707C205.95 194.066 206.607 191.748 207.078 189.691C207.334 188.667 207.534 187.704 207.789 186.837C208.053 185.981 208.296 185.195 208.516 184.48C208.947 183.118 209.289 182.033 209.543 181.226C209.786 180.485 209.924 180.1 209.946 180.109C209.969 180.117 209.876 180.518 209.677 181.272C209.453 182.088 209.153 183.184 208.775 184.562C208.572 185.281 208.351 186.071 208.108 186.932C207.873 187.802 207.692 188.767 207.454 189.791C207.021 191.851 206.399 194.167 206.051 196.8C205.842 198.11 205.623 199.482 205.395 200.908C205.213 202.343 205.111 203.848 204.954 205.4C204.882 206.176 204.809 206.966 204.734 207.767C204.662 208.57 204.682 209.39 204.65 210.22C204.624 211.881 204.542 213.59 204.557 215.343C204.681 222.356 205.667 230.048 207.729 237.836C209.79 245.621 212.672 252.761 215.907 258.879C216.296 259.652 216.682 260.417 217.061 261.17C217.453 261.917 217.894 262.62 218.298 263.333C219.122 264.747 219.921 266.121 220.694 267.45C222.32 270.051 223.937 272.403 225.357 274.593C226.889 276.683 228.281 278.577 229.511 280.252C230.717 281.933 231.897 283.258 232.784 284.41C233.655 285.509 234.346 286.384 234.863 287.034C235.332 287.645 235.57 287.971 235.552 287.988Z" fill="#263238"/>
<path d="M222.893 498.352C222.882 498.346 222.967 498.188 223.142 497.886C223.34 497.555 223.602 497.114 223.936 496.555C224.297 495.96 224.735 495.242 225.247 494.401C225.509 493.975 225.79 493.516 226.089 493.029C226.417 492.562 226.801 492.09 227.19 491.578C227.978 490.555 228.853 489.421 229.807 488.184C230.834 487.01 232.011 485.793 233.245 484.455C235.778 481.855 238.841 479.08 242.402 476.275C249.483 470.578 258.619 464.917 268.521 458.312C273.435 454.954 278.607 451.417 283.498 447.111C288.395 442.839 293.116 437.913 296.938 432.036C304.475 420.142 307.536 406.361 307.803 394.045C308.107 381.634 305.621 370.581 302.69 361.769C299.724 352.926 296.323 346.194 293.854 341.655C292.618 339.379 291.603 337.646 290.905 336.479C290.575 335.917 290.316 335.475 290.12 335.144C289.946 334.841 289.862 334.682 289.872 334.675C289.881 334.668 289.985 334.812 290.178 335.103C290.388 335.426 290.667 335.853 291.021 336.398C291.759 337.541 292.812 339.252 294.086 341.51C296.632 346.014 300.113 352.73 303.153 361.595C306.157 370.426 308.714 381.543 308.443 394.062C308.394 397.183 308.157 400.379 307.707 403.612C307.286 406.849 306.641 410.125 305.754 413.392C304.039 419.941 301.285 426.443 297.513 432.451C293.64 438.408 288.864 443.379 283.927 447.673C278.994 452.002 273.797 455.539 268.862 458.888C258.923 465.475 249.784 471.075 242.695 476.697C239.128 479.465 236.058 482.198 233.513 484.757C232.273 486.074 231.088 487.27 230.052 488.424C229.085 489.641 228.201 490.755 227.402 491.76C227.007 492.265 226.616 492.726 226.281 493.186C225.974 493.665 225.686 494.114 225.417 494.533C224.884 495.357 224.43 496.059 224.055 496.641C223.697 497.184 223.416 497.611 223.204 497.931C223.007 498.213 222.902 498.359 222.893 498.352Z" fill="#263238"/>
<path d="M210.487 523.373C210.507 523.387 210.405 523.612 210.194 524.03C209.938 524.515 209.625 525.11 209.245 525.832C208.815 526.603 208.305 527.556 207.791 528.705C207.265 529.848 206.601 531.113 206.038 532.599C205.738 533.336 205.424 534.103 205.099 534.902C204.777 535.705 204.514 536.57 204.201 537.448C203.548 539.197 203.043 541.132 202.467 543.153C201.439 547.232 200.582 551.795 200.137 556.647C199.743 561.507 199.804 566.161 200.115 570.37C200.336 572.468 200.5 574.471 200.842 576.316C200.999 577.24 201.109 578.142 201.287 578.993C201.47 579.841 201.647 580.657 201.816 581.439C202.113 583.009 202.551 584.381 202.871 585.606C203.18 586.835 203.518 587.87 203.807 588.711C204.058 589.494 204.263 590.139 204.433 590.667C204.569 591.117 204.629 591.359 204.608 591.369C204.585 591.379 204.481 591.157 204.303 590.723C204.102 590.208 203.854 589.576 203.555 588.812C203.224 587.982 202.848 586.957 202.501 585.732C202.142 584.511 201.67 583.141 201.339 581.568C201.155 580.783 200.963 579.965 200.763 579.115C200.568 578.26 200.444 577.354 200.273 576.425C199.905 574.568 199.716 572.552 199.476 570.435C199.126 566.19 199.045 561.489 199.444 556.582C199.892 551.683 200.778 547.077 201.849 542.97C202.448 540.935 202.979 538.99 203.659 537.235C203.986 536.355 204.263 535.487 204.601 534.684C204.944 533.887 205.272 533.119 205.588 532.383C206.183 530.9 206.883 529.643 207.445 528.513C207.996 527.376 208.542 526.44 209.01 525.688C209.435 524.993 209.788 524.421 210.074 523.953C210.325 523.558 210.465 523.359 210.487 523.373Z" fill="#263238"/>
<path d="M375.417 557.403C375.424 557.414 375.332 557.484 375.146 557.613C374.923 557.76 374.651 557.941 374.314 558.165C373.525 558.667 372.445 559.357 371.077 560.229C370.366 560.677 369.583 561.17 368.728 561.706C367.854 562.217 366.87 562.703 365.831 563.261C363.732 564.336 361.403 565.704 358.654 566.807C357.295 567.398 355.873 568.017 354.392 568.663C352.904 569.296 351.3 569.784 349.669 570.383C346.422 571.642 342.827 572.539 339.071 573.579C331.495 575.369 323.019 576.68 314.054 576.985C305.084 577.177 296.552 576.336 288.898 574.97C285.094 574.14 281.461 573.443 278.155 572.366C276.497 571.859 274.869 571.458 273.354 570.909C271.843 570.347 270.392 569.807 269.005 569.292C266.206 568.343 263.812 567.107 261.664 566.15C260.598 565.65 259.592 565.218 258.695 564.756C257.816 564.268 257.008 563.817 256.276 563.411C254.867 562.615 253.755 561.988 252.942 561.529C252.596 561.325 252.314 561.158 252.085 561.024C251.894 560.906 251.798 560.841 251.805 560.83C251.81 560.818 251.917 560.862 252.119 560.959C252.357 561.076 252.649 561.22 253.009 561.399C253.834 561.827 254.965 562.413 256.396 563.155C257.134 563.543 257.948 563.972 258.835 564.438C259.738 564.879 260.749 565.29 261.819 565.77C263.975 566.688 266.372 567.887 269.171 568.799C270.555 569.299 272.005 569.82 273.514 570.364C275.028 570.896 276.652 571.28 278.304 571.773C281.601 572.82 285.221 573.49 289.007 574.299C296.628 575.623 305.114 576.437 314.034 576.246C322.949 575.943 331.38 574.658 338.925 572.914C342.666 571.897 346.249 571.028 349.488 569.799C351.114 569.215 352.718 568.742 354.202 568.126C355.683 567.499 357.104 566.897 358.463 566.322C361.213 565.256 363.548 563.926 365.656 562.89C366.701 562.35 367.69 561.885 368.571 561.393C369.434 560.878 370.225 560.405 370.943 559.976C372.335 559.156 373.437 558.507 374.239 558.035C374.59 557.836 374.875 557.676 375.106 557.545C375.306 557.441 375.41 557.392 375.417 557.403Z" fill="#263238"/>
<path d="M389.331 257.721C389.337 257.731 389.241 257.825 389.046 258.001C388.82 258.199 388.531 258.451 388.171 258.766C387.354 259.458 386.214 260.424 384.766 261.651C381.797 264.142 377.507 267.754 372.085 272.058C366.651 276.337 360.069 281.321 352.243 285.981C348.291 288.221 344.084 290.511 339.46 292.224C334.853 293.949 329.9 295.272 324.71 295.706C314.288 296.455 304.408 293.652 296.369 289.449C292.35 287.311 288.724 284.915 285.424 282.539C282.166 280.099 279.193 277.739 276.562 275.476C271.281 270.977 267.143 267.17 264.268 264.56C262.866 263.274 261.764 262.262 260.972 261.535C260.624 261.207 260.346 260.943 260.126 260.735C259.938 260.551 259.845 260.453 259.853 260.444C259.861 260.434 259.969 260.513 260.171 260.677C260.403 260.871 260.696 261.116 261.062 261.422C261.874 262.123 263.005 263.099 264.443 264.34C267.371 266.884 271.557 270.63 276.868 275.068C279.513 277.301 282.494 279.628 285.751 282.035C289.048 284.377 292.662 286.737 296.652 288.839C304.628 292.966 314.388 295.706 324.661 294.97C329.773 294.541 334.667 293.242 339.232 291.543C343.813 289.857 347.999 287.597 351.936 285.385C359.737 280.783 366.332 275.857 371.795 271.637C377.247 267.395 381.583 263.845 384.602 261.423C386.084 260.242 387.25 259.314 388.087 258.648C388.463 258.358 388.766 258.124 389.005 257.941C389.213 257.786 389.324 257.711 389.331 257.721Z" fill="#263238"/>
<g opacity="0.24">
<path d="M269.02 569.297C275.34 564.116 284.222 565.374 292.038 567.117C299.853 568.86 307.726 571.698 315.635 570.522C321.595 569.637 327.063 566.524 332.946 565.171C338.828 563.819 345.965 564.819 349.227 570.188C323.347 579.119 294.718 578.802 269.02 569.297Z" fill="black"/>
</g>
<path d="M489.623 530.872L460.893 496.727L460.602 538.233L469.249 564.855L383.311 580.677L379.667 508.702L373.48 453.426C372.722 446.653 376.361 440.189 382.34 437.69L405.991 427.805L439.301 434.291L452.701 439.698C458.326 441.968 463.341 445.669 467.303 450.479L507.639 499.442" fill="#0082AE"/>
<path d="M458.878 488.563C458.885 488.417 460.769 488.713 463.732 488.2C466.664 487.715 470.716 486.192 474.078 482.909C477.434 479.617 479.193 475.452 479.885 472.388C480.605 469.295 480.481 467.279 480.617 467.283C480.659 467.282 480.727 467.779 480.739 468.685C480.753 469.591 480.671 470.91 480.364 472.505C479.778 475.673 478.036 480.03 474.549 483.451C471.057 486.864 466.824 488.355 463.802 488.717C462.279 488.913 461.034 488.894 460.184 488.805C459.333 488.719 458.873 488.607 458.878 488.563Z" fill="white"/>
<path d="M461.392 536.466C461.593 536.465 461.644 522.085 461.508 504.354C461.37 486.617 461.097 472.243 460.897 472.246C460.695 472.248 460.645 486.624 460.781 504.361C460.917 522.092 461.19 536.467 461.392 536.466Z" fill="#263238"/>
<path d="M458.244 547.016L406.316 524.828C402.129 523.038 399.259 518.88 398.917 514.103L395.116 461.258C395.116 461.258 395.566 438.783 382.34 437.688L374.817 440.833C365.093 446.315 362.684 461.343 364.007 472.945C365.888 489.432 366.671 512.762 368.776 527.071C370.498 538.775 376.814 549.071 387.606 552.086L451.563 566.782L458.244 547.016Z" fill="#0082AE"/>
<path d="M395.862 469.319C395.886 469.318 395.942 469.734 396.026 470.53C396.109 471.391 396.219 472.552 396.359 474.012C396.625 477.109 396.998 481.47 397.457 486.828C397.898 492.263 398.418 498.7 398.997 505.842C399.138 507.632 399.284 509.466 399.432 511.339C399.586 513.212 399.693 515.131 400.095 516.993C400.475 518.862 401.321 520.613 402.676 521.945C404.023 523.283 405.708 524.262 407.468 525.11C421.787 531.687 434.983 537.116 444.562 540.925C449.318 542.784 453.187 544.298 455.935 545.373C457.231 545.88 458.262 546.283 459.027 546.583C459.731 546.867 460.098 547.027 460.09 547.052C460.082 547.076 459.7 546.963 458.981 546.725C458.206 546.457 457.161 546.098 455.845 545.645C453.128 544.689 449.21 543.256 444.393 541.416C434.757 537.728 421.54 532.379 407.18 525.782C405.395 524.92 403.64 523.91 402.201 522.48C400.75 521.059 399.819 519.11 399.433 517.159C399.018 515.203 398.921 513.271 398.771 511.403C398.631 509.529 398.494 507.694 398.359 505.903C397.836 498.755 397.365 492.312 396.968 486.872C396.601 481.505 396.302 477.138 396.09 474.036C396.005 472.572 395.937 471.408 395.886 470.544C395.846 469.741 395.838 469.321 395.862 469.319Z" fill="#263238"/>
<path d="M366.111 498.047C366.135 498.045 366.168 498.29 366.214 498.756C366.26 499.307 366.316 499.981 366.386 500.797C366.54 502.68 366.749 505.215 367.002 508.296C367.286 511.458 367.648 515.223 368.165 519.383C368.699 523.536 369.33 528.118 370.51 532.77C371.069 535.119 371.855 537.288 373.045 539.152C374.235 541.031 375.557 542.717 376.924 544.211C379.67 547.192 382.601 549.377 385.234 550.828C390.547 553.759 394.409 553.802 394.354 553.997C394.353 554.023 394.121 554.016 393.679 553.98C393.238 553.948 392.584 553.894 391.758 553.717C390.103 553.407 387.722 552.717 385.012 551.291C382.307 549.875 379.292 547.696 376.469 544.687C375.065 543.179 373.707 541.469 372.482 539.555C371.24 537.637 370.397 535.316 369.842 532.965C368.644 528.243 368.035 523.645 367.532 519.47C367.047 515.29 366.735 511.513 366.514 508.338C366.295 505.164 366.179 502.591 366.118 500.812C366.102 499.992 366.087 499.317 366.076 498.763C366.074 498.295 366.087 498.047 366.111 498.047Z" fill="#263238"/>
<path d="M388.315 535.025C388.245 535.004 388.465 533.826 389.261 532.089C390.047 530.356 391.502 528.114 393.621 526.185C395.747 524.265 398.06 523.091 399.797 522.538C401.538 521.976 402.669 521.929 402.679 522.007C402.7 522.13 401.61 522.359 399.959 523.031C398.308 523.695 396.122 524.897 394.073 526.746C392.032 528.605 390.571 530.709 389.695 532.335C388.812 533.959 388.427 535.067 388.315 535.025Z" fill="#263238"/>
<path d="M398.529 494.837C398.535 494.825 398.646 494.879 398.858 494.991C399.103 495.127 399.409 495.297 399.788 495.508C400.622 495.924 401.837 496.578 403.492 497.176C406.757 498.38 411.873 499.603 418.046 498.496C424.141 497.438 431.229 493.625 436.138 486.564C438.567 483.078 440.448 478.784 440.875 474.077C441.09 471.739 440.91 469.303 440.183 467.011C439.47 464.724 438.166 462.602 436.438 460.939C434.72 459.273 432.586 458.099 430.343 457.796C428.134 457.425 425.766 458.045 424.233 459.617C423.493 460.407 423.031 461.463 423.042 462.551C423.039 463.637 423.433 464.709 424.045 465.579C425.275 467.362 427.347 468.193 429.328 468.503C433.374 469.094 437.349 468.316 440.678 466.78C444.022 465.232 446.754 462.933 448.722 460.395C450.693 457.847 451.909 455.091 452.634 452.592C453.364 450.083 453.587 447.807 453.623 445.961C453.649 444.109 453.467 442.676 453.331 441.708C453.253 441.262 453.191 440.903 453.141 440.614C453.1 440.366 453.085 440.237 453.097 440.234C453.097 440.234 453.832 442.198 453.894 445.961C453.9 447.83 453.715 450.145 453.008 452.709C452.305 455.264 451.099 458.093 449.104 460.725C447.113 463.346 444.331 465.729 440.911 467.341C437.501 468.941 433.433 469.769 429.235 469.177C427.172 468.862 424.91 467.999 423.514 466.001C422.83 465.033 422.372 463.826 422.371 462.551C422.355 461.27 422.905 460.01 423.753 459.108C425.493 457.32 428.066 456.684 430.438 457.069C432.839 457.393 435.1 458.642 436.908 460.394C438.725 462.144 440.091 464.367 440.84 466.779C441.601 469.186 441.782 471.722 441.555 474.145C441.102 479.017 439.153 483.412 436.656 486.968C431.606 494.166 424.347 497.997 418.13 499.01C411.838 500.067 406.67 498.742 403.404 497.445C400.099 496.108 398.529 494.837 398.529 494.837Z" fill="white"/>
<path d="M364.514 480.742C364.482 480.711 364.773 480.299 365.367 479.614C365.966 478.934 366.893 478.001 368.172 477.024C370.692 475.012 374.866 473.182 379.659 472.702C382.055 472.432 384.38 472.553 386.429 473.004C388.481 473.455 390.246 474.189 391.646 474.949C393.05 475.705 394.112 476.452 394.819 477C395.523 477.552 395.886 477.893 395.86 477.931C395.788 478.048 394.236 476.801 391.434 475.421C388.663 474.013 384.423 472.839 379.732 473.437C375.035 473.911 370.987 475.599 368.451 477.454C365.881 479.27 364.61 480.846 364.514 480.742Z" fill="white"/>
<path d="M372.82 442.955C372.926 442.83 374.154 444.634 377.023 446.197C378.441 446.979 380.274 447.633 382.372 447.862C384.463 448.097 386.825 447.844 389.071 446.881C391.301 445.879 393.142 444.286 394.465 442.55C395.798 440.814 396.658 438.976 397.143 437.358C398.131 434.1 397.799 431.904 397.958 431.911C397.994 431.907 398.098 432.437 398.131 433.414C398.168 434.389 398.059 435.818 397.613 437.511C397.173 439.204 396.329 441.141 394.965 442.976C393.613 444.809 391.694 446.504 389.337 447.562C386.967 448.58 384.48 448.82 382.303 448.538C380.118 448.26 378.23 447.524 376.792 446.657C375.35 445.794 374.32 444.863 373.697 444.147C373.07 443.432 372.79 442.979 372.82 442.955Z" fill="white"/>
<path d="M418.07 529.85C418.046 529.847 418.084 529.489 418.178 528.806C418.325 528.139 418.531 527.128 419.099 525.954C420.146 523.58 422.755 520.606 426.872 518.792C430.931 516.857 436.513 516.483 442.14 518.212C444.884 519.08 448.035 520.149 450.096 522.995C451.103 524.394 451.448 526.478 450.68 528.177C449.945 529.887 448.499 531.062 446.979 531.885C445.431 532.687 443.75 533.142 442.064 533.177C440.392 533.211 438.649 532.771 437.344 531.624C436.027 530.494 435.334 528.748 435.231 527.083C435.11 525.404 435.431 523.781 435.938 522.308C438.151 516.412 442.627 512.664 446.641 510.809C450.721 508.913 454.416 508.715 456.855 508.947C459.315 509.216 460.588 509.781 460.588 509.781C460.566 509.877 459.266 509.41 456.835 509.233C454.424 509.091 450.808 509.37 446.843 511.285C444.876 512.239 442.845 513.608 441.016 515.483C439.196 517.348 437.559 519.738 436.541 522.542C436.063 523.949 435.774 525.489 435.894 527.028C435.999 528.557 436.62 530.078 437.778 531.069C438.922 532.073 440.494 532.482 442.054 532.448C443.624 532.416 445.22 531.984 446.673 531.23C448.103 530.461 449.425 529.356 450.053 527.882C450.708 526.417 450.433 524.68 449.546 523.421C448.667 522.135 447.382 521.208 446.072 520.494C444.753 519.786 443.339 519.306 441.969 518.872C436.46 517.145 431.049 517.456 427.064 519.281C423.021 520.994 420.441 523.816 419.343 526.093C418.202 528.373 418.169 529.879 418.07 529.85Z" fill="white"/>
<path d="M383.497 549.75C383.476 549.611 385.477 549.431 388.477 548.297C391.458 547.188 395.432 544.915 398.685 541.098C401.937 537.277 403.667 532.851 404.406 529.591C405.168 526.309 405.134 524.179 405.268 524.187C405.309 524.187 405.357 524.715 405.341 525.673C405.328 526.632 405.212 528.021 404.885 529.708C404.255 533.061 402.552 537.656 399.2 541.592C395.847 545.527 391.713 547.787 388.633 548.79C387.085 549.304 385.794 549.566 384.898 549.677C384.001 549.792 383.501 549.795 383.497 549.75Z" fill="white"/>
<path d="M366.669 508.671C366.662 508.647 366.877 508.555 367.296 508.404C367.714 508.259 368.336 508.055 369.15 507.837C370.771 507.42 373.188 506.85 376.223 507.073C377.733 507.199 379.387 507.565 381.032 508.335C382.667 509.104 384.304 510.313 385.518 512.072C386.708 513.829 387.439 516.113 387.262 518.498C387.179 519.686 386.836 520.879 386.232 521.946C385.623 522.995 384.711 523.948 383.51 524.361C382.327 524.756 380.937 524.555 380.002 523.625C379.079 522.676 378.848 521.345 378.792 520.19C378.708 517.839 379.187 515.586 380.015 513.632C381.667 509.68 384.74 507.085 387.588 506.004C390.458 504.877 393.003 504.961 394.651 505.262C395.483 505.415 396.111 505.612 396.529 505.768C396.944 505.934 397.156 506.031 397.148 506.055C397.126 506.128 396.257 505.762 394.612 505.546C392.984 505.336 390.511 505.34 387.766 506.49C385.04 507.596 382.151 510.114 380.6 513.908C379.823 515.78 379.384 517.936 379.471 520.153C379.523 521.236 379.762 522.373 380.477 523.091C381.18 523.799 382.324 523.986 383.3 523.658C384.287 523.321 385.095 522.502 385.642 521.561C386.185 520.605 386.502 519.526 386.583 518.437C386.756 516.253 386.092 514.111 384.996 512.467C383.881 510.82 382.347 509.649 380.793 508.89C379.23 508.128 377.639 507.746 376.179 507.59C373.236 507.306 370.833 507.784 369.209 508.113C367.577 508.471 366.683 508.727 366.669 508.671Z" fill="white"/>
<g opacity="0.3">
<path d="M443.321 540.716C437.769 537.387 432.336 534.829 426.53 532.029C420.725 529.228 415.038 525.633 411.239 520.197C404.072 509.944 404.889 495.147 397.553 485.029C398.032 491.833 398.511 498.636 398.99 505.44C399.429 511.674 398.528 517.841 402.313 522.078C405.5 525.647 411.715 528.384 416.116 529.925C424.958 533.022 434.478 537.621 443.321 540.716Z" fill="black"/>
</g>
<path d="M533.551 618.386C533.551 618.386 576.999 631.15 578.741 631.801C581.358 632.779 580.92 642.958 576.846 642.799C574.919 642.724 543.473 644.042 539.5 643.779C535.526 643.515 523.54 638.501 523.54 638.501L533.551 618.386Z" fill="#0082AE"/>
<path d="M551.649 635.985C551.868 636.016 552.161 633.577 553.563 631.033C554.932 628.467 556.772 626.972 556.636 626.788C556.56 626.609 554.401 627.909 552.934 630.648C551.441 633.369 551.466 636.004 551.649 635.985Z" fill="#263238"/>
<path d="M547.12 633.804C547.334 633.844 547.772 631.663 548.93 629.254C550.066 626.833 551.453 625.159 551.297 625.001C551.177 624.849 549.48 626.357 548.281 628.907C547.064 631.446 546.933 633.791 547.12 633.804Z" fill="#263238"/>
<path d="M542.87 632.596C543.089 632.581 542.922 630.278 543.886 627.723C544.809 625.152 546.405 623.578 546.253 623.41C546.166 623.234 544.217 624.66 543.21 627.443C542.173 630.211 542.694 632.662 542.87 632.596Z" fill="#263238"/>
<path d="M543.641 626.639C543.718 626.66 544.104 625.371 544.107 623.208C544.104 622.13 543.986 620.84 543.666 619.447C543.508 618.75 543.293 618.031 543.019 617.306C542.879 616.94 542.718 616.518 542.323 616.176C541.917 615.789 541.18 615.87 540.832 616.254C540.433 616.622 540.307 617.142 540.253 617.558C540.209 617.981 540.187 618.376 540.195 618.776C540.206 619.57 540.302 620.33 540.463 621.033C540.785 622.442 541.302 623.623 541.8 624.559C542.813 626.43 543.69 627.386 543.752 627.335C543.85 627.262 543.123 626.187 542.256 624.306C541.829 623.366 541.384 622.211 541.117 620.878C540.984 620.213 540.908 619.503 540.908 618.771C540.928 618.063 540.917 617.177 541.308 616.836C541.515 616.653 541.701 616.642 541.883 616.785C542.075 616.94 542.235 617.256 542.359 617.59C542.628 618.28 542.847 618.963 543.017 619.625C543.358 620.951 543.524 622.185 543.592 623.226C543.721 625.315 543.524 626.62 543.641 626.639Z" fill="#263238"/>
<path d="M543.588 626.169C543.608 626.086 542.559 625.702 540.785 625.689C539.902 625.688 538.843 625.786 537.702 626.09C537.139 626.252 536.535 626.406 535.926 626.784C535.331 627.104 534.708 627.982 534.945 628.891C535.131 629.749 535.822 630.35 536.509 630.538C537.202 630.743 537.871 630.67 538.458 630.532C539.651 630.242 540.578 629.619 541.281 629.06C542.674 627.9 543.353 627.013 543.301 626.948C543.225 626.851 542.402 627.61 540.986 628.612C540.274 629.095 539.383 629.617 538.321 629.837C537.793 629.945 537.223 629.977 536.709 629.813C536.199 629.664 535.773 629.249 535.652 628.717C535.528 628.201 535.821 627.73 536.297 627.43C536.763 627.124 537.339 626.947 537.874 626.777C538.949 626.451 539.954 626.301 540.802 626.235C542.503 626.109 543.569 626.293 543.588 626.169Z" fill="#263238"/>
<path d="M558.326 636.478C558.54 636.453 558.328 634.48 559.182 632.318C559.996 630.137 561.446 628.886 561.31 628.707C561.238 628.519 559.421 629.612 558.51 632.026C557.572 634.429 558.151 636.559 558.326 636.478Z" fill="#263238"/>
<path d="M528.009 638.607C527.991 638.657 528.587 638.951 529.69 639.447C530.807 639.894 532.439 640.521 534.524 641.037C538.68 642.148 544.604 642.779 551.113 642.705C557.624 642.628 563.491 642.314 567.746 642.133C569.761 642.02 571.448 641.925 572.781 641.85C573.97 641.766 574.626 641.694 574.625 641.64C574.623 641.586 573.964 641.557 572.773 641.549C571.439 641.559 569.749 641.572 567.732 641.588C563.331 641.68 557.528 641.8 551.11 641.933C544.631 642.005 538.779 641.467 534.639 640.504C530.485 639.598 528.06 638.464 528.009 638.607Z" fill="#263238"/>
<path d="M526.724 639.657C526.783 639.764 527.972 639.026 529.979 638.093C531.963 637.189 534.937 636.106 538.201 636.641C541.474 637.174 543.796 639.507 545.307 641.129C546.83 642.807 547.723 643.922 547.811 643.843C547.876 643.785 547.135 642.56 545.685 640.758C544.951 639.867 544.021 638.833 542.803 637.899C541.6 636.96 540.05 636.161 538.314 635.88C534.812 635.31 531.726 636.552 529.762 637.597C527.769 638.68 526.68 639.582 526.724 639.657Z" fill="#263238"/>
<path d="M487.431 605.653C487.431 605.653 446.318 634.227 444.844 635.409C442.629 637.185 445.169 645.641 449.004 644.177C450.818 643.485 485.318 633.298 489.028 631.766C492.738 630.234 502.724 621.592 502.724 621.592L487.431 605.653Z" fill="#0082AE"/>
<path d="M475.223 628.254C475.403 628.213 474.673 625.695 472.472 623.583C470.29 621.447 467.862 620.905 467.84 621.099C467.764 621.319 469.944 622.15 471.982 624.153C474.046 626.126 475.024 628.355 475.223 628.254Z" fill="#263238"/>
<path d="M478.914 624.716C479.087 624.644 478.292 622.452 476.407 620.425C474.536 618.381 472.487 617.492 472.416 617.675C472.312 617.876 474.113 619.023 475.887 620.964C477.68 622.887 478.723 624.823 478.914 624.716Z" fill="#263238"/>
<path d="M482.617 622.197C482.804 622.204 482.598 619.7 480.82 617.396C479.063 615.071 476.799 614.341 476.766 614.536C476.67 614.746 478.639 615.73 480.254 617.882C481.905 620.005 482.405 622.253 482.617 622.197Z" fill="#263238"/>
<path d="M480.178 616.769C480.286 616.714 479.724 615.533 479.247 613.502C479.014 612.488 478.818 611.259 478.764 609.886C478.736 609.199 478.75 608.478 478.81 607.735C478.832 607.376 478.895 607.024 479.033 606.813C479.165 606.617 479.345 606.569 479.595 606.677C480.065 606.875 480.309 607.723 480.531 608.392C480.74 609.09 480.871 609.789 480.933 610.466C481.06 611.821 480.967 613.066 480.829 614.1C480.541 616.171 480.156 617.43 480.27 617.468C480.344 617.498 480.905 616.303 481.336 614.193C481.543 613.141 481.699 611.848 481.602 610.402C481.554 609.682 481.428 608.924 481.211 608.165C481.106 607.781 480.972 607.412 480.808 607.022C480.637 606.643 480.369 606.188 479.884 605.966C479.441 605.713 478.715 605.874 478.44 606.373C478.163 606.827 478.129 607.28 478.1 607.674C478.048 608.453 478.049 609.207 478.096 609.922C478.189 611.353 478.447 612.62 478.752 613.648C479.375 615.711 480.11 616.813 480.178 616.769Z" fill="#263238"/>
<path d="M480.096 616.304C480.149 616.416 481.112 615.896 482.768 615.469C483.595 615.259 484.595 615.078 485.713 615.043C486.271 615.033 486.871 615.014 487.402 615.156C487.941 615.289 488.357 615.643 488.385 616.174C488.421 616.721 488.134 617.253 487.69 617.559C487.247 617.882 486.696 618.033 486.161 618.101C485.088 618.234 484.088 618.025 483.272 617.794C481.636 617.294 480.636 616.837 480.591 616.956C480.56 617.034 481.46 617.659 483.12 618.316C483.95 618.622 485.011 618.917 486.231 618.811C486.83 618.753 487.489 618.605 488.089 618.188C488.689 617.787 489.178 616.991 489.11 616.115C489.075 615.171 488.23 614.537 487.571 614.422C486.883 614.258 486.264 614.305 485.681 614.333C484.507 614.411 483.469 614.659 482.629 614.945C480.941 615.528 480.053 616.231 480.096 616.304Z" fill="#263238"/>
<path d="M454.243 642.583C454.29 642.651 454.934 642.141 455.249 640.892C455.593 639.673 455.377 637.798 454.479 636.155C454.049 635.327 453.557 634.609 453.101 633.976C452.651 633.342 452.186 632.768 451.706 632.386C451.231 631.992 450.733 631.815 450.392 631.803C450.047 631.787 449.873 631.876 449.878 631.922C449.879 632.042 450.613 631.984 451.373 632.804C451.759 633.193 452.143 633.741 452.559 634.395C452.981 635.044 453.44 635.75 453.841 636.526C454.674 638.066 454.922 639.657 454.746 640.781C454.596 641.911 454.147 642.508 454.243 642.583Z" fill="#263238"/>
<path d="M469.002 630.876C469.193 630.898 469.134 628.682 467.555 626.695C465.996 624.689 463.952 624.234 463.937 624.435C463.858 624.649 465.598 625.374 466.997 627.189C468.43 628.975 468.79 630.922 469.002 630.876Z" fill="#263238"/>
<path d="M498.497 623.133C498.461 623.087 497.831 623.579 496.689 624.45C495.533 625.299 493.835 626.489 491.62 627.746C489.408 629.006 486.679 630.315 483.568 631.551C480.455 632.783 476.963 633.945 473.271 635.081C465.874 637.341 459.179 639.408 454.347 640.95C452.03 641.705 450.107 642.332 448.633 642.812C447.289 643.268 446.552 643.544 446.566 643.597C446.579 643.648 447.343 643.469 448.711 643.101C450.201 642.682 452.144 642.135 454.487 641.476C459.356 640.067 466.069 638.084 473.474 635.822C477.173 634.683 480.68 633.494 483.806 632.215C486.928 630.932 489.666 629.559 491.868 628.223C494.073 626.891 495.746 625.619 496.857 624.689C497.957 623.739 498.525 623.168 498.497 623.133Z" fill="#263238"/>
<path d="M500.022 623.72C500.043 623.633 498.746 623.125 496.537 622.736C494.367 622.373 491.07 622.185 487.897 623.856C486.324 624.684 485.076 625.944 484.198 627.227C483.305 628.512 482.714 629.794 482.27 630.881C481.403 633.065 481.048 634.472 481.127 634.506C481.234 634.552 481.765 633.203 482.736 631.111C483.712 629.079 485.256 626.107 488.222 624.545C491.18 622.982 494.323 623.056 496.471 623.277C498.652 623.52 499.996 623.84 500.022 623.72Z" fill="#263238"/>
<path d="M572.873 535.966C572.873 535.966 585.207 540.641 585.258 555.322C585.356 583.441 531.731 614.437 531.731 614.437L460.369 564.247L455.896 562.325C455.896 562.325 552.229 523.915 572.873 535.966Z" fill="#263238"/>
<path d="M496.519 589.598C496.549 589.64 497.21 589.162 498.377 588.26C499.547 587.361 501.216 586.024 503.258 584.347C507.344 580.996 512.903 576.244 518.883 570.796C524.864 565.343 530.129 560.229 533.868 556.448C535.738 554.559 537.234 553.01 538.249 551.918C539.265 550.829 539.811 550.209 539.776 550.171C539.742 550.133 539.131 550.679 538.054 551.7C536.888 552.817 535.361 554.281 533.519 556.047C529.693 559.722 524.381 564.764 518.41 570.21C512.437 575.65 506.939 580.462 502.938 583.92C501.014 585.586 499.42 586.967 498.204 588.022C497.09 588.998 496.488 589.555 496.519 589.598Z" fill="#455A64"/>
<path d="M552.727 546.478C552.753 546.289 549.571 545.958 545.85 547.14C542.12 548.293 539.616 550.404 539.736 550.547C539.855 550.748 542.456 548.988 546.057 547.881C549.644 546.737 552.729 546.714 552.727 546.478Z" fill="#455A64"/>
<path d="M546.58 542.045C546.516 541.863 544.228 542.93 542.35 545.423C540.449 547.898 539.947 550.496 540.13 550.524C540.338 550.601 541.118 548.242 542.917 545.908C544.684 543.552 546.693 542.245 546.58 542.045Z" fill="#455A64"/>
<path d="M576.796 631.082C576.834 630.994 575.945 630.811 574.957 631.674C573.985 632.498 573.16 634.147 572.894 636.07C572.626 638.007 573.032 639.787 573.545 640.919C574.051 642.07 574.606 642.609 574.668 642.556C574.766 642.483 574.376 641.845 574.023 640.716C573.66 639.6 573.369 637.956 573.615 636.179C573.859 634.412 574.542 632.886 575.302 632.078C576.058 631.237 576.811 631.205 576.796 631.082Z" fill="#263238"/>
<path d="M556.458 490.028L531.043 558.417L421.604 560.31L419.578 554.026L457.931 552.549L476.365 491.882L556.458 490.028Z" fill="#455A64"/>
<path d="M505.35 519.635C506.754 518.625 509.349 519.03 510.612 520.231C511.876 521.433 512.285 523.513 511.642 525.18C511.001 526.847 509.382 528.015 507.688 528.111C505.889 528.213 504.012 527.018 503.509 525.181C503.007 523.345 503.566 520.604 505.35 519.635Z" fill="#EBEBEB"/>
<path d="M538.489 617.854C538.489 617.854 437.663 547.654 433.534 546.193C429.405 544.731 419.428 537.793 409.451 540.714C399.474 543.635 390.529 553.131 386.056 567.008C383.501 574.936 382.292 588.463 381.727 598.607C381.05 610.737 384.588 622.831 392.063 632.034C395.463 636.221 399.658 639.864 404.634 641.508C405.684 641.855 406.774 642.155 407.893 642.411C426.956 646.798 446.547 637.715 457.258 620.411L459.61 616.61C459.61 616.61 525.567 642.332 526.599 641.967L538.489 617.854Z" fill="#263238"/>
<path d="M413.751 598.531C413.751 598.531 413.934 598.63 414.304 598.79C414.703 598.958 415.25 599.189 415.955 599.485C417.442 600.094 419.588 600.97 422.347 602.097C427.955 604.34 436.045 607.575 446.102 611.596C456.193 615.592 468.279 620.343 481.841 625.582C495.404 630.814 510.434 636.559 526.484 642.327L526.777 642.432L526.919 642.142C529.439 637.033 532.098 631.644 534.797 626.174C536.172 623.384 537.537 620.616 538.812 618.03L538.967 617.716L538.688 617.528C508.411 597.127 481.326 578.875 461.777 565.703C452.017 559.169 444.141 553.895 438.675 550.235C435.969 548.442 433.861 547.046 432.401 546.079C431.701 545.624 431.157 545.272 430.763 545.016C430.392 544.779 430.194 544.676 430.194 544.676C430.194 544.676 430.367 544.823 430.726 545.081C431.111 545.351 431.642 545.725 432.327 546.207C433.77 547.201 435.855 548.638 438.531 550.481C443.967 554.188 451.803 559.531 461.512 566.151C481.027 579.373 508.069 597.695 538.294 618.175L538.17 617.673C536.895 620.258 535.53 623.027 534.154 625.815C531.458 631.285 528.8 636.678 526.282 641.787L526.715 641.601C510.673 635.848 495.636 630.131 482.061 624.94C468.507 619.704 456.4 615.027 446.271 611.115C436.182 607.185 428.066 604.026 422.44 601.835C419.663 600.764 417.502 599.928 416.004 599.35C415.29 599.081 414.734 598.873 414.33 598.722C413.95 598.583 413.751 598.531 413.751 598.531Z" fill="#455A64"/>
<path d="M424.215 349.238C425.933 344.305 429.733 342.162 434.549 340.925C439.365 339.687 444.724 341.153 448.377 344.706C450.821 347.082 452.613 350.365 455.63 351.818C460.601 354.21 466.969 350.715 471.68 353.638C474.468 355.368 475.838 359.306 474.776 362.544C473.714 365.783 470.339 367.969 467.14 367.488C470.379 369.112 470.983 374.286 468.753 377.261C466.522 380.236 462.4 381.042 458.953 380.006C455.508 378.971 452.645 376.418 450.21 373.63C447.776 370.842 445.644 367.748 443.009 365.174C440.373 362.6 437.085 360.527 433.506 360.385C428.661 360.194 424.191 363.65 421.647 368.031C419.103 372.412 418.154 377.608 417.446 382.698C416.738 387.79 416.203 392.984 414.352 397.742C414.135 398.3 413.824 398.92 413.268 399.043C412.463 399.222 411.874 398.276 411.551 397.473C407.907 388.408 405.963 378.576 405.864 368.721C405.807 362.997 406.411 357.639 409.759 353.152C413.108 348.665 420.832 345.872 424.215 349.238Z" fill="#263238"/>
<path d="M412.845 372.083L405.433 429.257C404.173 438.979 410.835 447.843 420.045 448.7C428.64 449.498 436.314 442.986 437.481 433.911C438.035 429.606 438.506 426.018 438.59 425.579C438.59 425.579 452.479 426.214 455.337 411.952C456.718 405.06 458.473 390.62 459.919 377.536C461.472 363.485 452.581 350.528 439.512 347.756L438.212 347.48C424.035 345.378 414.432 356.983 412.845 372.083Z" fill="#FFBE9D"/>
<path d="M438.651 425.378C438.651 425.378 430.002 424.307 422.09 416.356C422.09 416.356 424.303 427.526 437.986 429.088L438.651 425.378Z" fill="#EB996E"/>
<path d="M454.192 386.28C454.025 387.366 453.021 388.11 451.95 387.946C450.88 387.782 450.146 386.771 450.314 385.685C450.481 384.599 451.486 383.853 452.555 384.017C453.625 384.181 454.359 385.193 454.192 386.28Z" fill="#263238"/>
<path d="M455.704 383.939C455.416 384.155 454.174 382.702 452.102 382.268C450.04 381.804 448.308 382.613 448.135 382.295C448.047 382.152 448.38 381.723 449.138 381.352C449.885 380.981 451.088 380.722 452.377 381.001C453.664 381.281 454.654 382.015 455.181 382.664C455.72 383.318 455.844 383.844 455.704 383.939Z" fill="#263238"/>
<path d="M433.753 382.721C433.586 383.807 432.582 384.552 431.51 384.388C430.44 384.223 429.707 383.212 429.873 382.126C430.04 381.04 431.045 380.294 432.115 380.458C433.186 380.621 433.92 381.635 433.753 382.721Z" fill="#263238"/>
<path d="M435.283 380.034C434.993 380.249 433.75 378.796 431.681 378.363C429.619 377.898 427.887 378.707 427.712 378.39C427.624 378.247 427.955 377.818 428.716 377.448C429.463 377.077 430.666 376.818 431.953 377.097C433.24 377.379 434.23 378.112 434.757 378.759C435.296 379.412 435.422 379.94 435.283 380.034Z" fill="#263238"/>
<path d="M439.726 397.92C439.74 397.793 441.071 397.829 443.21 397.989C443.748 398.043 444.27 398.038 444.431 397.674C444.632 397.294 444.525 396.643 444.391 395.936C444.15 394.473 443.898 392.94 443.632 391.333C442.607 384.791 441.977 379.457 442.225 379.414C442.473 379.373 443.507 384.642 444.533 391.184C444.773 392.794 445.004 394.33 445.221 395.799C445.301 396.479 445.509 397.274 445.081 398.059C444.86 398.448 444.414 398.67 444.058 398.695C443.698 398.733 443.4 398.675 443.135 398.637C441.015 398.312 439.712 398.046 439.726 397.92Z" fill="#263238"/>
<path d="M433.35 398.147C433.69 398.198 433.246 400.583 434.851 402.684C436.45 404.79 438.895 405.029 438.851 405.366C438.854 405.522 438.231 405.716 437.215 405.53C436.217 405.356 434.832 404.71 433.85 403.426C432.872 402.139 432.63 400.648 432.736 399.652C432.836 398.639 433.199 398.102 433.35 398.147Z" fill="#263238"/>
<path d="M437.437 371.538C437.121 372.091 435.107 371.371 432.622 371.167C430.139 370.909 428.038 371.249 427.816 370.644C427.72 370.357 428.169 369.868 429.069 369.458C429.963 369.047 431.318 368.764 432.808 368.9C434.298 369.04 435.587 369.568 436.398 370.139C437.219 370.708 437.579 371.273 437.437 371.538Z" fill="#263238"/>
<path d="M456.14 377.42C455.682 377.842 454.354 377.022 452.643 376.633C450.947 376.181 449.414 376.297 449.178 375.704C449.079 375.419 449.402 374.968 450.125 374.631C450.839 374.292 451.956 374.129 453.128 374.417C454.299 374.706 455.234 375.375 455.734 376.013C456.244 376.654 456.347 377.211 456.14 377.42Z" fill="#263238"/>
<path d="M411.951 382.901C411.742 382.746 403.244 378.032 401.698 387.869C400.152 397.705 409.774 397.324 409.835 397.045C409.897 396.766 411.951 382.901 411.951 382.901Z" fill="#FFBE9D"/>
<path d="M407.59 392.817C407.554 392.779 407.41 392.909 407.117 392.993C406.83 393.075 406.359 393.084 405.905 392.806C404.986 392.251 404.422 390.456 404.656 388.674C404.773 387.775 405.084 386.954 405.493 386.301C405.889 385.631 406.407 385.206 406.914 385.201C407.424 385.167 407.724 385.542 407.793 385.839C407.874 386.137 407.784 386.322 407.83 386.348C407.853 386.377 408.055 386.219 408.044 385.798C408.036 385.596 407.964 385.345 407.776 385.117C407.584 384.886 407.271 384.731 406.922 384.709C406.199 384.636 405.447 385.219 404.996 385.936C404.506 386.649 404.137 387.568 404.005 388.578C403.752 390.57 404.417 392.595 405.692 393.242C406.315 393.538 406.893 393.426 407.209 393.244C407.537 393.052 407.62 392.841 407.59 392.817Z" fill="#EB996E"/>
<path d="M463.329 375.172C457.08 375.59 450.716 372.584 446.826 367.376C444.104 363.732 442.374 358.958 438.522 356.744C435.928 355.255 432.739 355.238 429.927 356.185C427.116 357.132 424.639 358.965 422.42 361.028C423.656 368.846 420.381 376.584 417.188 383.75C416.836 384.542 416.432 385.39 415.692 385.778C414.435 386.436 412.936 385.396 412.185 384.14C410.983 382.129 410.841 379.618 410.887 377.237C410.988 371.812 411.884 366.36 413.96 361.402C416.034 356.444 419.332 351.997 423.648 349.088C429.04 345.455 435.834 344.418 442.077 345.848C448.32 347.278 453.989 351.076 458.234 356.143C460.203 358.493 461.917 361.192 462.587 364.256" fill="#263238"/>
<path d="M89.9917 605.835C89.9797 605.827 90.0584 605.625 90.2252 605.237C90.4119 604.815 90.6614 604.247 90.9816 603.526C91.6232 602.016 92.4583 599.726 93.2027 596.679C94.6727 590.59 95.185 581.285 93.0132 570.234C92.0047 564.7 90.3786 558.764 88.3923 552.471C86.4366 546.167 84.1648 539.478 82.3092 532.248C80.475 525.035 79.0263 517.204 79.3051 508.996C79.5865 500.772 81.8797 492.562 84.4036 484.39C86.9209 476.205 89.5248 468.204 90.3052 460.158C91.187 452.125 89.5675 444.239 86.1205 437.778C82.7815 431.247 78.5807 425.663 75.4365 419.878C72.2429 414.112 70.2459 408.184 69.0146 402.67C66.6281 391.551 67.4645 382.184 68.6077 376.011C69.847 369.804 71.229 366.596 71.229 366.596C71.2424 366.601 71.189 366.812 71.0743 367.222C70.9435 367.668 70.7675 368.265 70.5433 369.027C70.0804 370.613 69.4828 372.982 68.9145 376.074C67.87 382.235 67.1323 391.539 69.5669 402.534C70.8222 407.987 72.8285 413.838 76.0101 419.524C79.1463 425.241 83.3658 430.803 86.7715 437.408C90.2919 443.942 91.9847 452.084 91.0869 460.243C90.3026 468.426 87.6786 476.48 85.1667 484.655C82.6441 492.819 80.3776 500.943 80.0908 509.03C79.8053 517.112 81.2167 524.868 83.0229 532.045C84.8478 539.24 87.093 545.931 89.0246 552.253C90.9856 558.566 92.5917 564.548 93.5695 570.122C95.6839 581.256 95.0809 590.654 93.5055 596.762C92.7091 599.821 91.8206 602.106 91.1283 603.6C90.7788 604.308 90.504 604.865 90.2986 605.28C90.1065 605.653 90.0037 605.842 89.9917 605.835Z" fill="#263238"/>
<path d="M79.7053 425.587C79.7053 425.587 73.3208 403.916 84.7732 391.229C85.1747 390.783 85.883 390.994 85.9871 391.601C86.5981 395.178 87.3624 406.078 79.7053 425.587Z" fill="#0082AE"/>
<path d="M83.5311 398.448C83.6391 398.471 83.4564 399.996 83.1015 402.446C82.6827 405.2 82.1891 408.433 81.6448 412.004C81.1112 415.576 80.627 418.808 80.2161 421.562C79.8666 424.009 79.6572 425.527 79.5398 425.517C79.437 425.508 79.4464 423.966 79.6545 421.488C79.8653 419.012 80.2775 415.606 80.8551 411.866C81.4314 408.128 82.045 404.761 82.5453 402.335C83.0428 399.91 83.4217 398.426 83.5311 398.448Z" fill="#263238"/>
<path d="M87.2048 476.695C87.2048 476.695 91.1094 454.372 106.821 448.841C107.374 448.647 107.906 449.184 107.73 449.773C106.695 453.239 102.567 463.253 87.2048 476.695Z" fill="#0082AE"/>
<path d="M102.542 454.607C102.627 454.681 101.795 455.938 100.401 457.928C98.816 460.154 96.9564 462.766 94.9034 465.653C92.857 468.546 91.0055 471.163 89.4287 473.392C88.0413 475.381 87.1875 476.619 87.0888 476.552C87.0008 476.494 87.6891 475.136 88.9644 473.049C90.2424 470.966 92.106 468.158 94.2644 465.141C96.4202 462.122 98.4478 459.451 99.9579 457.555C101.467 455.658 102.457 454.532 102.542 454.607Z" fill="#263238"/>
<path d="M82.9588 532.698C82.9588 532.698 80.5869 510.133 94.1097 499.997C94.5846 499.641 95.2409 499.991 95.2343 500.609C95.1902 504.245 93.9816 515.1 82.9588 532.698Z" fill="#0082AE"/>
<path d="M91.5911 506.833C91.6939 506.877 91.2403 508.337 90.4506 510.67C89.5435 513.289 88.4789 516.363 87.3023 519.758C86.1364 523.157 85.0812 526.232 84.1821 528.85C83.399 531.183 82.9201 532.63 82.8068 532.596C82.7067 532.566 82.9948 531.055 83.6432 528.665C84.2955 526.278 85.3107 523.016 86.5513 519.464C87.7892 515.911 88.9965 512.729 89.9236 510.449C90.8494 508.17 91.4884 506.789 91.5911 506.833Z" fill="#263238"/>
<path d="M94.7954 589.028C94.7954 589.028 93.1866 566.388 107.042 556.771C107.528 556.434 108.173 556.808 108.145 557.424C107.979 561.058 106.404 571.859 94.7954 589.028Z" fill="#0082AE"/>
<path d="M104.295 563.509C104.396 563.557 103.893 564.999 103.026 567.301C102.031 569.884 100.864 572.914 99.5738 576.263C98.2945 579.615 97.1352 582.648 96.1481 585.231C95.2863 587.532 94.7607 588.959 94.6487 588.922C94.5499 588.889 94.8874 587.39 95.6171 585.025C96.3495 582.663 97.4754 579.445 98.8347 575.94C100.191 572.436 101.507 569.303 102.509 567.06C103.508 564.816 104.193 563.46 104.295 563.509Z" fill="#263238"/>
<path d="M70.5313 406.547C70.5313 406.547 51.5711 396.037 51.1989 378.469C51.1856 377.852 51.8259 377.469 52.3048 377.82C55.1222 379.888 62.9315 387.015 70.5313 406.547Z" fill="#0082AE"/>
<path d="M55.1355 384.503C55.2276 384.438 56.1147 385.652 57.498 387.651C59.0375 389.911 60.8464 392.566 62.8434 395.497C64.8484 398.421 66.6626 401.068 68.2074 403.322C69.5921 405.313 70.4565 406.544 70.3671 406.624C70.2884 406.696 69.2679 405.599 67.7618 403.693C66.2598 401.786 64.2788 399.07 62.1937 395.994C60.1074 392.92 58.2958 390.081 57.0311 387.993C55.7665 385.903 55.0435 384.569 55.1355 384.503Z" fill="#263238"/>
<path d="M90.8907 453.085C90.8907 453.085 71.3636 443.816 69.9882 426.306C69.9402 425.691 70.5579 425.268 71.0541 425.586C73.9849 427.47 82.1863 434.078 90.8907 453.085Z" fill="#0082AE"/>
<path d="M74.2625 432.076C74.3505 432.006 75.3056 433.16 76.8011 435.065C78.4672 437.222 80.4242 439.755 82.5853 442.552C84.753 445.341 86.7154 447.866 88.3869 450.017C89.8836 451.916 90.8161 453.087 90.732 453.173C90.6573 453.25 89.5768 452.22 87.964 450.415C86.3552 448.608 84.2234 446.025 81.9663 443.089C79.7079 440.155 77.7375 437.437 76.3555 435.434C74.9721 433.431 74.1744 432.147 74.2625 432.076Z" fill="#263238"/>
<path d="M79.6544 504.995C79.6544 504.995 66.2477 487.304 72.5362 471.049C72.7563 470.479 73.4886 470.401 73.7941 470.925C75.5964 474.019 80.0612 483.867 79.6544 504.995Z" fill="#0082AE"/>
<path d="M73.866 478.253C73.9754 478.232 74.3303 479.722 74.8439 482.141C75.4015 484.867 76.0565 488.067 76.7808 491.603C77.5145 495.135 78.1775 498.331 78.7431 501.054C79.2607 503.468 79.5889 504.962 79.4755 504.997C79.3768 505.03 78.8552 503.59 78.1949 501.204C77.5385 498.818 76.7475 495.487 75.9991 491.783C75.2467 488.08 74.6598 484.707 74.2889 482.256C73.9167 479.804 73.758 478.274 73.866 478.253Z" fill="#263238"/>
<path d="M92.9346 566.084C92.9346 566.084 73.5582 556.468 72.459 538.937C72.4203 538.321 73.0446 537.909 73.5369 538.237C76.4383 540.17 84.5344 546.924 92.9346 566.084Z" fill="#0082AE"/>
<path d="M76.6424 544.78C76.7318 544.711 77.6683 545.882 79.133 547.813C80.7645 550 82.6815 552.567 84.7972 555.402C86.9209 558.229 88.8432 560.788 90.48 562.969C91.9461 564.893 92.8599 566.081 92.7745 566.166C92.6985 566.241 91.6339 565.193 90.0505 563.36C88.471 561.524 86.3793 558.903 84.1689 555.928C81.9571 552.955 80.0308 550.202 78.6808 548.176C77.3308 546.148 76.5531 544.85 76.6424 544.78Z" fill="#263238"/>
<path d="M131.531 476.815C131.55 476.817 131.558 476.987 131.555 477.315C131.546 477.71 131.535 478.188 131.522 478.767C131.464 480.13 131.388 481.972 131.292 484.272C131.043 489.112 130.695 495.861 130.277 503.933L130.276 503.952L130.27 503.98C128.887 512.196 124.945 521.302 119.651 530.143C115.766 536.656 111.695 542.577 108.183 548.084C104.648 553.575 101.666 558.662 99.5858 563.169C97.4928 567.669 96.2762 571.536 95.5638 574.239C95.2237 575.596 94.9675 576.653 94.8195 577.377C94.6607 578.098 94.5633 578.474 94.5353 578.47C94.5086 578.464 94.5513 578.078 94.6607 577.344C94.7567 576.608 94.9649 575.535 95.261 574.157C95.884 571.414 97.0299 567.48 99.0749 562.908C101.107 558.329 104.061 553.175 107.57 547.648C111.057 542.101 115.107 536.171 118.97 529.692C124.237 520.894 128.159 511.927 129.593 503.843L129.587 503.889C130.121 495.825 130.568 489.084 130.888 484.248C131.063 481.954 131.203 480.116 131.307 478.755C131.362 478.179 131.407 477.705 131.444 477.311C131.486 476.983 131.514 476.815 131.531 476.815Z" fill="#263238"/>
<path d="M119.993 528.454C119.993 528.454 128.2 507.487 117.878 493.751C117.515 493.269 116.792 493.411 116.637 494.004C115.723 497.509 114.032 508.29 119.993 528.454Z" fill="#0082AE"/>
<path d="M118.499 501.06C118.609 501.047 118.861 502.563 119.15 505.027C119.441 507.491 119.765 510.904 120.02 514.682C120.277 518.461 120.396 521.893 120.395 524.38C120.39 526.868 120.269 528.404 120.165 528.403C120.048 528.401 119.969 526.869 119.829 524.398C119.655 521.617 119.449 518.352 119.221 514.742C118.984 511.133 118.769 507.866 118.586 505.084C118.441 502.607 118.389 501.072 118.499 501.06Z" fill="#263238"/>
<g opacity="0.3">
<path d="M119.993 528.454C119.993 528.454 128.2 507.487 117.878 493.751C117.515 493.269 116.792 493.411 116.637 494.004C115.723 497.509 114.032 508.29 119.993 528.454Z" fill="black"/>
</g>
<path d="M94.5754 578.981C94.5754 578.981 101.153 557.376 89.8143 544.574C89.4155 544.124 88.7071 544.328 88.5977 544.934C87.9547 548.505 87.093 559.398 94.5754 578.981Z" fill="#0082AE"/>
<path d="M90.9935 551.807C91.1016 551.786 91.4684 553.274 91.9447 555.705C92.4222 558.135 93.0065 561.508 93.5495 565.252C94.0951 568.997 94.4753 572.407 94.6647 574.885C94.8501 577.364 94.8461 578.906 94.7434 578.913C94.626 578.922 94.4312 577.402 94.1031 574.951C93.7162 572.194 93.2613 568.957 92.7597 565.379C92.2475 561.802 91.7833 558.565 91.3884 555.807C91.0536 553.355 90.8855 551.828 90.9935 551.807Z" fill="#263238"/>
<g opacity="0.3">
<path d="M94.5754 578.981C94.5754 578.981 101.153 557.376 89.8143 544.574C89.4155 544.124 88.7071 544.328 88.5977 544.934C87.9547 548.505 87.093 559.398 94.5754 578.981Z" fill="black"/>
</g>
<path d="M130.445 502.829C130.445 502.829 147.969 489.808 146.2 472.337C146.137 471.724 145.455 471.432 145.025 471.844C142.482 474.283 135.605 482.419 130.445 502.829Z" fill="#0082AE"/>
<g opacity="0.3">
<path d="M130.445 502.829C130.445 502.829 147.969 489.808 146.2 472.337C146.137 471.724 145.455 471.432 145.025 471.844C142.482 474.283 135.605 482.419 130.445 502.829Z" fill="black"/>
</g>
<path d="M143.029 478.861C143.128 478.913 142.574 480.335 141.574 482.579C140.573 484.824 139.123 487.888 137.427 491.222C135.735 494.559 134.101 497.522 132.843 499.619C131.582 501.715 130.703 502.943 130.616 502.883C130.517 502.815 131.224 501.479 132.356 499.313C133.614 496.867 135.09 493.994 136.723 490.819C138.347 487.639 139.817 484.758 141.069 482.306C142.198 480.135 142.93 478.81 143.029 478.861Z" fill="#263238"/>
<path d="M101.642 557.563C101.642 557.563 122.776 554.066 128.438 537.554C128.636 536.975 128.146 536.394 127.587 536.563C124.293 537.561 114.743 541.65 101.642 557.563Z" fill="#0082AE"/>
<g opacity="0.3">
<path d="M101.642 557.563C101.642 557.563 122.776 554.066 128.438 537.554C128.636 536.975 128.146 536.394 127.587 536.563C124.293 537.561 114.743 541.65 101.642 557.563Z" fill="black"/>
</g>
<path d="M122.886 541.928C122.952 542.021 121.865 543.038 120.036 544.586C118.207 546.133 115.634 548.206 112.728 550.407C109.824 552.61 107.127 554.508 105.127 555.803C103.125 557.096 101.827 557.787 101.774 557.692C101.714 557.585 102.904 556.715 104.818 555.301C106.963 553.692 109.48 551.803 112.263 549.716C115.04 547.619 117.555 545.721 119.696 544.106C121.61 542.683 122.817 541.834 122.886 541.928Z" fill="#263238"/>
<path d="M81.4794 598.848L75.3149 642.892H113.734L108.753 598.848H81.4794Z" fill="#455A64"/>
<path d="M110.29 612.495C110.29 612.73 103.353 612.92 94.798 612.92C86.2404 612.92 79.3049 612.73 79.3049 612.495C79.3049 612.26 86.2404 612.07 94.798 612.07C103.353 612.072 110.29 612.261 110.29 612.495Z" fill="#263238"/>
<path d="M111.052 616C111.052 616.235 103.887 616.425 95.0516 616.425C86.2125 616.425 79.0503 616.235 79.0503 616C79.0503 615.765 86.2125 615.575 95.0516 615.575C103.887 615.577 111.052 615.766 111.052 616Z" fill="#263238"/>
</svg>
