<svg width="1128" height="874" viewBox="0 0 1128 874" fill="none" xmlns="http://www.w3.org/2000/svg">
<path d="M659.05 379.72C659.05 379.72 659.05 379.54 659.05 379.24V377.92C659.05 376.72 659.05 375.02 659.05 372.86C659.05 368.42 659.05 362.02 658.917 353.98L659.167 354.28L578.083 354.46C578.267 354.24 577.667 354.96 578.5 353.98V367.02C578.5 371.3 578.5 375.54 578.5 379.68L578.1 379.18L635.883 379.4L652.933 379.54H657.55H658.75C658.894 379.523 659.039 379.523 659.183 379.54H658.817H657.65H653.133L636 380L577.933 380.22H577.533V379.74C577.533 375.6 577.533 371.36 577.533 367.08V354L577.95 353.5L659.033 353.68H659.333V354C659.333 362.12 659.233 368.58 659.2 373.06C659.2 375.2 659.2 376.86 659.2 378.06C659.2 378.58 659.2 379 659.2 379.32C659.165 379.461 659.114 379.595 659.05 379.72Z" fill="#E3F1F6"/>
<path d="M815.017 110.48C815.002 110.327 815.002 110.173 815.017 110.02C815.017 109.68 815.017 109.24 815.017 108.7C815.017 107.48 815.017 105.8 815.017 103.62C815.017 99.1798 814.933 92.7999 814.883 84.7399L815.133 85.0398L734.05 85.2399C734.233 85.0199 733.633 85.7399 734.45 84.7399V110.48L734.033 110L791.817 110.22L808.883 110.36H813.5H814.7H815.133C815.006 110.379 814.877 110.379 814.75 110.36H813.6H809.067L792.1 110.5L734.033 110.72H733.633V84.7798C734.45 83.7998 733.85 84.4998 734.05 84.2798L815.133 84.4798H815.383V84.7798C815.383 92.9198 815.267 99.3598 815.233 103.84C815.233 105.98 815.233 107.66 815.233 108.84C815.233 109.36 815.233 109.78 815.233 110.12C815.17 110.247 815.098 110.368 815.017 110.48Z" fill="#E0E0E0"/>
<path d="M1115.72 496C1115.7 495.847 1115.7 495.693 1115.72 495.54V494.22C1115.72 493.02 1115.72 491.32 1115.72 489.16C1115.72 484.72 1115.72 478.32 1115.58 470.26L1115.83 470.56L1034.75 470.76L1035.17 470.26V496L1034.77 495.52L1092.55 495.74L1109.6 495.88H1114.22H1115.42H1115.85C1115.85 495.88 1115.73 495.88 1115.47 495.88H1114.32H1109.8L1092.83 496.02L1034.77 496.24H1034.35V470.36L1034.77 469.88L1115.85 470.06H1116V470.36C1116 478.5 1115.9 484.94 1115.87 489.44C1115.87 491.58 1115.87 493.24 1115.87 494.44V495.7C1115.82 495.804 1115.77 495.904 1115.72 496Z" fill="#E0E0E0"/>
<path d="M1126.72 470.34C1126.69 470.181 1126.69 470.019 1126.72 469.86C1126.72 469.48 1126.72 469.04 1126.72 468.5C1126.72 467.22 1126.72 465.5 1126.72 463.34C1126.72 458.82 1126.63 452.44 1126.57 444.6L1126.87 444.96L1078.15 445.1C1077.77 445.54 1078.65 444.5 1078.55 444.6V457.84C1078.55 462.16 1078.55 466.32 1078.55 470.32L1078.15 469.86L1113.02 470.08L1123.17 470.22H1125.9H1126.88C1126.59 470.247 1126.29 470.247 1126 470.22H1123.33L1113.33 470.36L1078.22 470.58H1077.67V470.1C1077.67 466.1 1077.67 461.94 1077.67 457.62V444.38C1077.57 444.5 1078.45 443.44 1078.08 443.9L1126.8 444.02H1127.1V444.36C1127.1 452.36 1126.98 458.74 1126.95 463.3C1126.95 465.44 1126.95 467.14 1126.95 468.4C1126.9 469.051 1126.83 469.699 1126.72 470.34Z" fill="#E0E0E0"/>
<path d="M360.25 785.24L341.917 794.7L343.15 664.2C343.717 648.58 337.733 641.92 334.483 637.48C304.967 597.2 260.95 626.42 260.567 667.24L259.467 783.86L241.617 783.62L243.383 661.62C243.517 647.88 252.417 624.04 261.4 615.5C311.067 568.28 361.883 617.06 361.4 668.66L360.25 785.24Z" fill="#E3F1F6"/>
<path d="M360.25 785.24V782.9C360.25 781.36 360.25 779.1 360.25 776.14C360.25 770.14 360.35 761.44 360.417 750.14C360.483 738.84 360.6 725.14 360.717 709.16C360.783 701.16 360.85 692.646 360.917 683.62C360.917 674.58 361.6 664.96 360.05 655.08C358.498 644.733 355.004 634.946 349.833 626.46C349.15 625.36 348.5 624.24 347.783 623.16C347.067 622.08 346.25 621.16 345.483 620.06C343.917 617.975 342.247 616.004 340.483 614.16C339.633 613.18 338.633 612.4 337.7 611.5C336.767 610.6 335.85 609.68 334.8 608.96C332.781 607.345 330.676 605.888 328.5 604.6C324.047 601.912 319.333 599.897 314.467 598.6L310.7 597.86L308.817 597.48L306.9 597.34L303.033 597.04C301.733 597.04 300.433 597.14 299.133 597.2C288.359 597.787 277.929 601.94 269 609.2C259.603 616.835 252.237 627.555 247.783 640.08C245.546 646.541 244.076 653.348 243.417 660.3C242.917 667.3 243.05 674.52 242.933 681.74C242.667 710.68 242.383 740.64 242.1 771.34C242.1 775.433 242.061 779.513 241.983 783.58L241.567 783.06L259.417 783.3L259 783.8C259.211 760.6 259.428 737.933 259.65 715.8C259.75 704.786 259.855 693.926 259.967 683.22C259.967 677.886 260.017 672.586 260.117 667.32C260.212 662.061 260.942 656.847 262.283 651.84C265.019 642.097 270.171 633.59 277.05 627.46C277.865 626.688 278.716 625.973 279.6 625.32L282.267 623.32C284.076 622.17 285.953 621.181 287.883 620.36C289.791 619.526 291.746 618.858 293.733 618.36C294.717 618.1 295.717 618 296.7 617.8L298.183 617.56H299.683C303.599 617.299 307.526 617.697 311.35 618.74C315.077 619.814 318.674 621.461 322.05 623.64C331.657 630.04 338.825 640.655 342.05 653.26C342.992 657.169 343.551 661.196 343.717 665.26C343.717 666.26 343.717 667.26 343.8 668.24C343.883 669.22 343.8 670.24 343.8 671.18C343.8 673.18 343.8 675.06 343.8 676.98C343.8 680.8 343.8 684.56 343.683 688.24C343.517 702.96 343.383 716.48 343.25 728.68C342.967 753.06 342.75 772.14 342.6 784.82L342.483 784.68L355.95 784.94H359.283H360.367H356L342.467 784.84H342.35V784.7C342.35 772.02 342.583 752.94 342.767 728.56C342.867 716.36 342.983 702.82 343.1 688.1C343.1 684.42 343.1 680.66 343.2 676.84C343.2 674.84 343.2 673 343.2 671.04C343.2 670.08 343.2 669.04 343.2 668.12L343.1 665.18C342.852 656.983 340.824 649.006 337.217 642.04C333.455 634.579 328.128 628.434 321.767 624.22C318.447 622.086 314.912 620.472 311.25 619.42C307.473 618.404 303.597 618.027 299.733 618.3H298.267L296.817 618.56C295.833 618.74 294.85 618.84 293.883 619.1C289.967 620.102 286.183 621.737 282.633 623.96L280.017 625.84C279.152 626.448 278.317 627.116 277.517 627.84C270.756 633.873 265.701 642.25 263.033 651.84C261.721 656.757 261.013 661.878 260.933 667.04C260.933 672.293 260.883 677.593 260.783 682.94C260.683 693.606 260.583 704.467 260.483 715.52C260.283 737.52 260.067 760.26 259.85 783.52V784.02H259.433L241.567 783.78H241.15V783.28C241.15 779.28 241.189 775.2 241.267 771.04C241.567 740.36 241.85 710.4 242.133 681.44C242.25 674.2 242.133 667.06 242.617 659.9C243.297 652.858 244.794 645.964 247.067 639.42C249.39 633.165 252.394 627.308 256 622C259.653 616.828 263.862 612.262 268.517 608.42C277.562 601.058 288.131 596.849 299.05 596.26C300.367 596.26 301.683 596.08 303 596.12L307.483 596.44L309.95 596.78L313.683 597.52L315.35 597.96C319.978 599.259 324.455 601.234 328.683 603.84C330.891 605.14 333.024 606.616 335.067 608.26C336.117 609 337.017 610 337.983 610.84C338.95 611.68 339.933 612.54 340.817 613.52C342.581 615.399 344.251 617.403 345.817 619.52L348.15 622.66C348.867 623.76 349.517 624.9 350.2 626.02C355.418 634.602 358.935 644.5 360.483 654.96C362.033 664.96 361.25 674.64 361.3 683.68C361.35 692.72 361.1 701.32 361.017 709.32C360.833 725.32 360.667 739.08 360.533 750.34C360.4 761.6 360.3 770.34 360.217 776.22C360.217 779.14 360.217 781.4 360.117 782.92C360.017 784.44 360.25 785.24 360.25 785.24Z" fill="#E3F1F6"/>
<path d="M221.228 707.442L382.884 709.643C384.537 709.666 386.115 710.475 387.271 711.894C388.427 713.312 389.065 715.224 389.047 717.208L387.629 867.138C387.612 868.941 386.999 870.663 385.924 871.923C384.849 873.184 383.401 873.881 381.898 873.86L219.742 871.653L221.295 707.443L221.228 707.442Z" fill="#E3F1F6"/>
<path d="M221.23 707.023L363.397 708.729C365.191 708.75 366.905 709.626 368.162 711.164C369.418 712.702 370.114 714.776 370.096 716.93L368.879 862.93C368.857 865.582 367.958 868.115 366.379 869.972C364.801 871.828 362.672 872.856 360.462 872.83L220.096 871.145C218.239 871.123 216.466 870.217 215.166 868.626C213.867 867.035 213.147 864.889 213.166 862.661L214.396 715.061C214.414 712.908 215.144 710.851 216.425 709.343C217.707 707.836 219.435 707.001 221.23 707.023Z" fill="#E3F1F6"/>
<path d="M312.417 776.3C312.446 773.232 311.961 770.188 310.992 767.349C310.022 764.51 308.586 761.933 306.77 759.773C304.954 757.613 302.795 755.912 300.421 754.773C298.047 753.633 295.506 753.078 292.95 753.14C288.032 753.316 283.356 755.738 279.877 759.913C276.399 764.088 274.38 769.699 274.233 775.6C274.156 780.604 275.452 785.499 277.922 789.532C280.392 793.566 283.897 796.513 287.9 797.92L275.15 829.36L308.067 830.54L298.333 798C302.326 796.71 305.861 793.894 308.402 789.979C310.943 786.064 312.352 781.262 312.417 776.3Z" fill="#D4E6EC"/>
<path d="M367.967 858.18C367.733 858.18 367.967 829.6 368.383 794.36C368.8 759.12 369.4 730.52 369.633 730.52C369.867 730.52 369.633 759.1 369.217 794.36C368.8 829.62 368.2 858.2 367.967 858.18Z" fill="#FAFAFA"/>
<path d="M333.233 714C333.233 714.28 312.283 714.56 286.433 714.62C260.583 714.68 239.617 714.5 239.617 714.22C239.617 713.94 260.567 713.68 286.433 713.62C312.3 713.56 333.233 713.68 333.233 714Z" fill="white"/>
<path d="M273.5 788.12C273.174 787.696 272.909 787.209 272.717 786.68C272.118 785.288 271.638 783.827 271.283 782.32C270.091 777.298 270.202 771.958 271.601 767.013C273 762.068 275.622 757.752 279.117 754.64C280.156 753.698 281.273 752.887 282.45 752.22C282.865 751.944 283.316 751.754 283.783 751.66C283.783 751.82 281.967 752.76 279.467 755.2C276.183 758.346 273.72 762.556 272.37 767.331C271.02 772.106 270.839 777.246 271.85 782.14C272.667 786 273.633 788 273.5 788.12Z" fill="white"/>
<path d="M281 799.08C280.883 799.32 279.767 798.74 278.5 797.8C277.233 796.86 276.317 795.9 276.433 795.66C276.55 795.42 277.683 796 278.95 796.94C280.217 797.88 281 798.84 281 799.08Z" fill="white"/>
<path d="M296.867 602.34C295.804 602.584 294.73 602.751 293.65 602.84C290.739 603.307 287.864 604.05 285.05 605.06C275.702 608.315 267.319 614.697 260.882 623.46C254.445 632.222 250.219 643.002 248.7 654.54C248.199 658.014 247.948 661.534 247.95 665.06C247.95 667.54 247.95 668.94 247.95 668.94C247.861 668.617 247.815 668.28 247.817 667.94C247.817 667.28 247.65 666.32 247.633 665.06C247.516 661.502 247.683 657.939 248.133 654.42C249.524 642.688 253.747 631.701 260.28 622.816C266.814 613.931 275.373 607.536 284.9 604.42C287.75 603.416 290.675 602.746 293.633 602.42C294.667 602.28 295.483 602.3 296.033 602.28C296.312 602.267 296.591 602.287 296.867 602.34Z" fill="white"/>
<path d="M247.067 686.64C246.687 684.674 246.586 682.646 246.767 680.64C246.653 678.619 246.828 676.59 247.283 674.64C247.786 678.625 247.713 682.684 247.067 686.64Z" fill="white"/>
<path d="M349.783 129.54H268.7V155.28H349.783V129.54Z" fill="#F5F5F5"/>
<path d="M315.5 182.4C315.5 182.4 315.5 182.24 315.5 181.94V180.62C315.5 179.4 315.5 177.7 315.5 175.54C315.5 171.1 315.5 164.72 315.367 156.66L315.617 156.96L234.533 157.16C234.717 156.94 234.117 157.64 234.95 156.66V169.7C234.95 173.993 234.95 178.213 234.95 182.36L234.55 181.88L292.333 182.1L309.383 182.24H314H315.2C315.344 182.223 315.489 182.223 315.633 182.24H315.267H314.1H309.583L292.617 182.38L234.55 182.6H234.15V182.12C234.15 177.973 234.15 173.753 234.15 169.46V156.42L234.567 155.92L315.65 156.12H315.9V156.42C315.9 164.54 315.8 171 315.767 175.48C315.767 177.62 315.767 179.28 315.767 180.48C315.767 181 315.767 181.42 315.767 181.74C315.767 182.06 315.517 182.4 315.5 182.4Z" fill="#E0E0E0"/>
<path d="M1103.77 62.3398H1022.68V88.0798H1103.77V62.3398Z" fill="#F5F5F5"/>
<path d="M1069.48 115.2C1069.47 115.047 1069.47 114.893 1069.48 114.74V113.42C1069.48 112.2 1069.48 110.52 1069.48 108.34C1069.48 103.9 1069.48 97.52 1069.35 89.46L1069.6 89.76L988.517 89.96C988.7 89.74 988.1 90.44 988.933 89.46V92.72C988.933 93.82 988.933 94.92 988.933 96V115.2L988.533 114.72L1046.32 114.94L1063.37 115.08H1067.98H1069.18H1069.62H1069.23H1068.08H1063.57L1046.6 115.22L988.533 115.44H988.117V89.5L988.533 89L1069.62 89.2H1069.87V89.5C1069.87 97.62 1069.77 104.08 1069.73 108.56C1069.73 110.7 1069.73 112.36 1069.73 113.56C1069.73 114.08 1069.73 114.5 1069.73 114.84C1069.73 115.18 1069.5 115.2 1069.48 115.2Z" fill="#E0E0E0"/>
<path d="M641.35 574.06H560.267V599.8H641.35V574.06Z" fill="#F5F5F5"/>
<path d="M607.067 626.92C607.055 626.76 607.055 626.599 607.067 626.44V625.12C607.067 623.92 607.067 622.22 607.067 620.06C607.067 615.62 606.983 609.24 606.933 601.18L607.183 601.48L526.1 601.68C526.283 601.46 525.683 602.16 526.5 601.18V626.88L526.1 626.4L583.884 626.62L600.933 626.76H605.55H606.75H607.183H606.8H605.65H601.133L584.167 626.9L526 627.4H525.583V601.22L526 600.72L607.083 600.92H607.333V601.22C607.333 609.34 607.234 615.8 607.2 620.28C607.2 622.42 607.2 624.08 607.2 625.28C607.2 625.8 607.2 626.22 607.2 626.54C607.162 626.67 607.118 626.797 607.067 626.92Z" fill="#E0E0E0"/>
<path d="M109.767 89.2198C109.752 89.067 109.752 88.9126 109.767 88.7598C109.767 88.4198 109.767 87.9798 109.767 87.4398C109.767 86.2198 109.767 84.5398 109.767 82.3598C109.767 77.9198 109.767 71.5398 109.633 63.4798L109.883 63.7798L28.6833 63.9998C28.8666 63.7798 28.2666 64.4998 29.0833 63.4998V89.2198L28.6833 88.7398L86.4666 88.9598L103.517 89.0998H108.133H109.333H109.767C109.639 89.1186 109.511 89.1186 109.383 89.0998H108.233H103.7L86.7499 89.2398L28.6833 89.4598H28.2666V63.5198L28.6833 63.0198L109.767 63.2198H110.017V63.5198C110.017 71.6598 109.917 78.0998 109.883 82.5798C109.883 84.7198 109.883 86.3998 109.883 87.5798C109.883 88.0998 109.883 88.5198 109.883 88.8598C109.852 88.9833 109.813 89.1036 109.767 89.2198Z" fill="#E0E0E0"/>
<path d="M918.35 831.46C918.35 831.46 918.35 831.3 918.35 831V829.68C918.35 828.46 918.35 826.78 918.35 824.6C918.35 820.16 918.35 813.78 918.217 805.72L918.467 806.02L837.383 806.22L837.8 805.72V818.76C837.8 823.067 837.8 827.287 837.8 831.42L837.4 830.94L895.183 831.16L912.233 831.3H916.85H918.067H918.483C918.483 831.3 918.367 831.3 918.117 831.3H916.95H912.433L895.467 831.44L837.4 831.66H837V831.18C837 827.033 837 822.813 837 818.52V805.48L837.417 804.98L918.5 805.18H918.75V805.48C918.75 813.6 918.65 820.06 918.617 824.54C918.617 826.68 918.617 828.34 918.617 829.54C918.617 830.06 918.617 830.48 918.617 830.82C918.617 831.16 918.367 831.48 918.35 831.46Z" fill="#E0E0E0"/>
<path d="M593.267 52.2598C593.267 52.2598 593.267 52.0798 593.267 51.7798V50.4598C593.267 49.2598 593.267 47.5598 593.267 45.3998C593.267 40.9598 593.267 34.5598 593.133 26.5198L593.383 26.8198L512.3 26.9998L512.717 26.5198V39.5998C512.717 43.9065 512.717 48.1265 512.717 52.2598L512.317 51.7798L570.1 51.9998L587.15 52.1198H591.767H592.983C593.122 52.1034 593.262 52.1034 593.4 52.1198H593.033H591.867H587.35L570.383 52.2598L512.317 52.4798H511.917V51.9998C511.917 47.8598 511.917 43.6398 511.917 39.3398V26.5598L512.333 26.0598L593.417 26.2598H593.667V26.5598C593.667 34.6798 593.567 41.1398 593.533 45.6198C593.533 47.7598 593.533 49.4198 593.533 50.6198V51.8798C593.461 52.0215 593.371 52.1495 593.267 52.2598Z" fill="#E0E0E0"/>
<path d="M604.333 26.5199C604.321 26.3536 604.321 26.1862 604.333 26.0199C604.333 25.6599 604.333 25.1999 604.333 24.6599C604.333 23.3999 604.333 21.6799 604.333 19.4999C604.333 14.9799 604.233 8.61989 604.167 0.779895L604.467 1.1199L555.75 1.2599L556.15 0.779895V13.9999C556.15 18.2999 556.15 22.4799 556.15 26.4799L555.767 25.9999L590.617 26.2199L600.767 26.3599H603.5H604.483C604.189 26.3885 603.894 26.3885 603.6 26.3599H600.933L590.933 26.4799L555.817 26.6999H555.417V26.2399C555.417 22.2399 555.417 18.0599 555.417 13.7599V0.819896C555.317 0.819896 556.2 -0.120104 555.833 0.319896L604.55 0.459895H604.85V0.819896C604.85 8.8199 604.717 15.1799 604.683 19.7599C604.683 21.8999 604.683 23.5799 604.683 24.8399C604.683 26.0999 604.333 26.5399 604.333 26.5199Z" fill="#E0E0E0"/>
<path d="M81.6 666C81.5929 665.847 81.5929 665.693 81.6 665.54C81.6 665.2 81.6 664.76 81.6 664.22C81.6 663 81.6 661.32 81.6 659.16C81.6 654.72 81.6 648.32 81.4667 640.26L81.7167 640.56L0.633333 640.76L1.05 640.26V653.32C1.05 657.613 1.05 661.833 1.05 665.98L0.650003 665.5L58.4333 665.72L75.4833 665.86H80.1H81.3167H81.7333C81.7333 665.86 81.6167 665.86 81.3667 665.86H80.2H75.6833L58.7167 666L0.650003 666.22H0.25V666C0.25 661.86 0.25 657.64 0.25 653.34V640.28C1.08333 639.3 0.483333 640.02 0.666667 639.8L81.75 639.98H82V640.28C82 648.42 81.9 654.86 81.8667 659.36C81.8667 661.5 81.8667 663.16 81.8667 664.36V665.62C81.6167 666 81.6167 666 81.6 666Z" fill="#E0E0E0"/>
<path d="M92.6667 640.3C92.6535 640.14 92.6535 639.979 92.6667 639.82C92.6667 639.44 92.6667 639 92.6667 638.46C92.6667 637.18 92.6667 635.46 92.6667 633.3C92.6667 628.78 92.5667 622.4 92.5 614.56L92.8 614.92L44.0833 615.06C43.7167 615.5 44.5833 614.46 44.4833 614.56V627.8C44.4833 632.12 44.4833 636.28 44.4833 640.28L44.1 639.82L78.95 640.04L89.1 640.18H91.8333H92.8167C92.5227 640.208 92.2273 640.208 91.9333 640.18H89.2667L79.2667 640.32L44.15 640.54H43.75V640.06C43.75 636.06 43.75 631.9 43.75 627.58V614.34L44.1667 613.84L92.6667 614.2H92.9667V614.56C92.9667 622.56 92.8333 628.94 92.8 633.5C92.8 635.64 92.8 637.34 92.8 638.6C92.8 639.86 92.6667 640.34 92.6667 640.3Z" fill="#E0E0E0"/>
<path d="M336.933 454.38C336.919 454.227 336.919 454.073 336.933 453.92V452.6C336.933 451.38 336.933 449.7 336.933 447.54C336.933 443.08 336.85 436.7 336.8 428.64L337.05 428.94L255.967 429.14C256.15 428.92 255.55 429.64 256.367 428.64V454.34L255.967 453.86L313.75 454.08L330.8 454.22H335.417H336.617H337.05H336.667H335.517H330.983L314.033 454.34L255.967 454.56H255.55V428.36L255.967 427.86L337.05 428.06H337.3V428.36C337.3 436.5 337.2 442.94 337.167 447.44C337.167 449.56 337.167 451.24 337.167 452.42V453.7C337.118 453.939 337.039 454.169 336.933 454.38Z" fill="#E0E0E0"/>
<path d="M347.933 428.64C347.91 428.481 347.91 428.319 347.933 428.16C347.933 427.78 347.933 427.34 347.933 426.78L347.85 421.62C347.85 417.12 347.85 410.74 347.7 402.9L348 403.26L299.267 403.4L299.683 402.9V416.14C299.683 420.44 299.683 424.62 299.683 428.62L299.283 428.16L334.133 428.38L344.3 428.5H347.033H348.017C347.717 428.526 347.416 428.526 347.117 428.5H344.467L334.467 428.64L299.35 428.86H298.967V428.38C298.967 424.38 298.967 420.2 298.967 415.9V402.66C298.967 402.76 299.767 401.72 299.383 402.16L348.117 402.3H348.417V402.66C348.417 410.66 348.3 417.04 348.267 421.6C348.267 423.74 348.267 425.44 348.183 426.68C348.1 427.92 347.95 428.66 347.933 428.64Z" fill="#E0E0E0"/>
</svg>
