<svg width="691" height="880" viewBox="0 0 691 880" fill="none" xmlns="http://www.w3.org/2000/svg">
<path d="M30.7 769.2L0.75 818L51.1833 863.04C54.5167 857.04 35.5667 822.08 35.5667 822.08L55.8333 791.76L30.7 769.2Z" fill="#116A81"/>
<path d="M21.6666 805.56C21.0736 805.301 20.4215 805.315 19.8366 805.6C19.2516 805.884 18.7754 806.419 18.5 807.1C18.2657 807.805 18.2646 808.591 18.4969 809.298C18.7292 810.004 19.1774 810.577 19.75 810.9C20.3784 811.166 21.0664 811.143 21.6817 810.837C22.2971 810.53 22.7962 809.962 23.0833 809.24C23.2674 808.474 23.1966 807.651 22.8858 806.946C22.5749 806.241 22.0483 805.709 21.4166 805.46" fill="white"/>
<path d="M0.68335 818.12L3.86668 812.88L50.9833 858.4C50.9833 858.4 52.4833 861.6 50.9833 863.26L0.68335 818.12Z" fill="#263238"/>
<path d="M36.6666 822.52C36.4833 822.82 35.1666 821.86 33.3333 821.72C31.4999 821.58 30.1166 822.26 29.9999 821.94C29.8833 821.62 31.2833 820.24 33.4499 820.44C35.6166 820.64 36.7999 822.3 36.6666 822.52Z" fill="#263238"/>
<path d="M40.2499 829.88C40.1166 830.22 38.7499 829.76 37.1333 830.26C35.5166 830.76 34.4666 831.88 34.2166 831.64C33.9666 831.4 34.8666 829.64 36.8832 829.02C38.8999 828.4 40.4166 829.6 40.2499 829.88Z" fill="#263238"/>
<path d="M38.5334 840.16C38.2668 840.02 38.8501 838.16 40.4834 837.18C42.1168 836.2 43.6668 836.52 43.6168 836.86C43.5668 837.2 42.3168 837.42 41.0001 838.32C39.6834 839.22 38.8001 840.34 38.5334 840.16Z" fill="#263238"/>
<path d="M40.5667 815C40.2833 815.18 39.4167 813.76 37.95 812.64C36.4833 811.52 35.0833 811.06 35.1 810.64C35.1167 810.22 36.7667 810.14 38.5333 811.5C40.3 812.86 40.8333 814.88 40.5667 815Z" fill="#263238"/>
<path d="M152.633 564.92C153.533 571.04 154.967 623.1 155.883 650.56C156.8 678.02 154.517 691.52 151.9 697.68C149.283 703.84 50.5999 791.1 43.0833 812L18.0833 787.82C18.0833 787.82 54.7499 708.84 70.3833 694.48C86.0166 680.12 116.1 666.94 116.1 666.94L107.55 516.56L148.533 513.88L152.633 564.92Z" fill="#263238"/>
<path d="M60.9167 817.46L60.4834 878L123.333 879.04C123.05 871.84 90.7001 856.82 90.7001 856.82L92.3667 818L60.9167 817.46Z" fill="#116A81"/>
<path d="M71.3 853.32C70.6935 853.53 70.173 854.002 69.8378 854.644C69.5027 855.286 69.3765 856.053 69.4833 856.8C69.6379 857.536 70.0206 858.173 70.5533 858.582C71.086 858.991 71.7286 859.14 72.35 859C72.9904 858.772 73.5382 858.268 73.8887 857.585C74.2392 856.903 74.3679 856.089 74.25 855.3C74.0266 854.552 73.5695 853.938 72.9754 853.587C72.3813 853.236 71.6968 853.176 71.0666 853.42" fill="white"/>
<path d="M60.4668 878.22V871.72L120.883 875.48C120.883 875.48 123.65 877.02 123.3 879.38L60.4668 878.22Z" fill="#263238"/>
<path d="M91.6666 856.54C91.6666 856.92 90.1166 857.06 88.6 858.22C87.0833 859.38 86.25 860.9 85.9666 860.76C85.6833 860.62 86.1666 858.48 88.0333 857.12C89.9 855.76 91.8 856.2 91.6666 856.54Z" fill="#263238"/>
<path d="M98.3335 860C98.3335 860.36 97.0501 860.96 96.0001 862.5C94.9501 864.04 94.6168 865.7 94.3335 865.66C94.0501 865.62 93.8501 863.56 95.2001 861.66C96.5501 859.76 98.3335 859.58 98.3335 860Z" fill="#263238"/>
<path d="M101.917 869.46C101.633 869.46 101.233 867.68 102.033 865.68C102.833 863.68 104.3 862.9 104.417 863.2C104.533 863.5 103.65 864.58 103 866.24C102.35 867.9 102.217 869.42 101.917 869.46Z" fill="#263238"/>
<path d="M91.2668 847.64C91.1334 847.98 89.7334 847.44 87.9334 847.64C86.1334 847.84 84.8334 848.38 84.6001 848.06C84.3668 847.74 85.7501 846.46 87.8001 846.36C89.8501 846.26 91.4168 847.36 91.2668 847.64Z" fill="#263238"/>
<path d="M157.167 507.66C157.167 511.2 161.95 600.82 137.533 665.66C137.533 665.66 129.083 685.94 127.533 694.8C125.983 703.66 94.4 850.62 94.4 850.62L57.9 849.02C57.9 849.02 52.0666 775.4 57.9 732.78C63.7333 690.16 74.5666 695.16 74.5666 667.64C74.5666 640.12 69.1166 583.06 69.1166 583.06C69.1166 583.06 61.15 567.48 58.4333 537.26C56.2166 512.72 65.85 486.42 65.85 486.42L75.3666 466.2L155.883 461.14L157.167 507.66Z" fill="#263238"/>
<path d="M157.167 507.66C157.167 507.66 157.167 506.62 157.167 504.6C157.167 502.58 157.067 499.58 157 495.64C156.85 487.74 156.6 476.1 156.3 461.06V460.84H156.1L75.5834 465.76H75.4168L75.3168 465.94C72.3668 472.22 69.1168 479.08 65.7834 486.16C63.3043 493.337 61.3687 500.767 60.0001 508.36C58.4881 516.355 57.8106 524.544 57.9834 532.74C58.4907 541.298 59.6059 549.789 61.3168 558.12C62.9672 566.867 65.5613 575.318 69.0334 583.26V583.06C70.4167 597.98 71.7001 613.44 72.7834 629.36C73.3167 637.36 73.7834 645.36 74.1168 653.58C74.2834 657.58 74.4168 661.78 74.4334 665.92C74.4334 667.92 74.4334 670.06 74.3334 672.12C74.2148 674.186 74.0034 676.242 73.7001 678.28C73.0179 682.386 71.809 686.339 70.1168 690C68.4501 693.74 66.7834 697.44 65.1168 701.34C62.0983 709.255 59.8986 717.584 58.5668 726.14C55.6668 743.34 55.0834 761.22 54.9167 779.24C54.9167 803.02 55.8501 826.38 57.4834 848.96V849.44H57.8668L94.3668 851.04H94.7168L94.8001 850.62C105.383 801.4 115.25 755.4 123.95 714.04L127.1 698.74C127.65 696.2 128 693.68 128.65 691.28C129.3 688.88 130.033 686.5 130.8 684.18C132.367 679.54 134.133 675.04 135.8 670.66L137.1 667.4C137.562 666.335 137.974 665.24 138.333 664.12C139.083 661.9 139.833 659.72 140.583 657.54C145.767 641.41 149.624 624.711 152.1 607.68C155.67 583.419 157.51 558.836 157.6 534.2C157.7 516.96 157.117 507.6 157.117 507.6C157.117 507.6 157.117 508.18 157.117 509.32C157.117 510.46 157.117 512.2 157.217 514.44C157.317 518.94 157.383 525.58 157.217 534.2C157.063 558.816 155.206 583.373 151.667 607.62C149.133 624.596 145.226 641.235 140 657.3L137.767 663.84C137.4 664.96 136.983 666.02 136.533 667.1C136.083 668.18 135.65 669.28 135.217 670.38C133.55 674.76 131.783 679.26 130.217 683.92C129.433 686.26 128.683 688.64 128.033 691.08C127.383 693.52 127 696.1 126.467 698.58C125.417 703.62 124.367 708.7 123.283 713.88C114.433 755.2 104.583 801.2 94.0334 850.42L94.4668 850.04L57.9668 848.42L58.4001 848.9C56.7334 826.36 55.7668 803.02 55.8334 779.28C56.0001 761.28 56.5834 743.48 59.4668 726.4C60.7945 717.923 62.9714 709.67 65.9501 701.82C67.4501 697.96 69.2834 694.3 70.9501 690.5C72.6312 686.74 73.8227 682.693 74.4834 678.5C74.7994 676.417 75.0164 674.313 75.1334 672.2C75.1334 670.2 75.3001 668 75.2334 665.94C75.2334 661.78 75.0834 657.64 74.9167 653.54C74.5834 645.34 74.1001 637.26 73.5501 629.3C72.439 613.3 71.1779 597.853 69.7668 582.96V582.84C66.2935 575 63.6881 566.65 62.0168 558C60.3155 549.728 59.2005 541.298 58.6834 532.8C58.5039 524.68 59.1645 516.565 60.6501 508.64C61.993 501.122 63.8836 493.761 66.3001 486.64L75.8001 466.4L75.5334 466.6L156.05 461.38L155.833 461.16C156.233 476.18 156.533 487.82 156.733 495.72C156.85 499.72 156.933 502.64 157 504.68C157.067 506.72 157.167 507.66 157.167 507.66Z" fill="#455A64"/>
<path d="M130.983 324.14C130.983 324.14 109.317 319.54 111.333 353C112.6 373 117.5 407.32 120.217 429.22C121.15 436.8 123.217 450.36 131.567 458.32L191.4 508L210.283 480.9L156.85 419.84L148.517 359.44L130.983 324.14Z" fill="#116A81"/>
<path d="M133.533 203.54C136.968 206.858 139.685 211.121 141.455 215.968C143.224 220.814 143.995 226.101 143.7 231.38C143.367 236.5 142.183 242.32 144.967 246.22C147.75 250.12 153.083 249.98 155.717 253.94C158.8 258.62 156.217 265.58 157.383 271.4C157.978 274.118 159.359 276.494 161.28 278.103C163.2 279.712 165.535 280.448 167.867 280.18C162.397 285.551 155.8 289.011 148.8 290.18L143.333 282C145.367 284.88 144.817 289.46 142.867 292.4C140.748 295.136 138.017 297.081 135 298C127.82 300.651 120.227 301.277 112.812 299.831C105.397 298.384 98.3606 294.904 92.25 289.66" fill="#263238"/>
<path d="M53.4832 248.68C54.5499 244.68 56.3499 241.14 57.0666 237.12C58.5999 228.46 55.0833 218.7 58.5833 210.9C61.0833 205.36 66.3832 202.64 71.4166 200.78C76.4499 198.92 81.8166 197.36 85.5666 192.94C88.2999 189.7 89.8666 185.22 92.5999 181.98C96.4999 177.34 102.267 175.76 107.733 175.36C113.378 174.706 119.068 175.815 124.25 178.58C126.823 179.989 129.084 182.104 130.85 184.755C132.616 187.406 133.838 190.518 134.417 193.84C134.85 197.08 134.517 200.5 135.383 203.64C136.317 207.08 138.567 209.76 139.967 212.98C141.369 216.438 141.774 220.357 141.12 224.122C140.465 227.886 138.787 231.284 136.35 233.78L97.7166 293.66C89.5999 297.34 69.9332 292.9 63.6666 285.66C57.3999 278.42 50.7999 258.58 53.4832 248.68Z" fill="#263238"/>
<path d="M135.333 226.18C133.667 212.58 125.117 196.52 113.867 199L79.1332 213C75.7999 213.76 78.1666 220.46 78.4999 224.6L86.0499 318.6C86.0499 318.6 81.3499 322.6 79.6832 321.84C79.5883 321.8 79.4855 321.797 79.3889 321.831C79.2924 321.864 79.207 321.933 79.1446 322.028C79.0823 322.122 79.0461 322.238 79.041 322.359C79.036 322.479 79.0624 322.598 79.1166 322.7C83.3332 330 102.983 361.74 123.333 352C127.867 349.82 122.85 332.68 123.333 326.34L122.733 310.12C122.283 301.84 122.067 298.44 122.067 298.52C122.067 298.6 136.433 294.28 137.983 271.22C138.767 259.8 137.1 241.28 135.333 226.18Z" fill="#FFBF9D"/>
<path d="M132.917 247.1C132.968 247.861 132.771 248.617 132.367 249.207C131.962 249.797 131.382 250.174 130.75 250.26C130.442 250.32 130.127 250.304 129.824 250.215C129.521 250.126 129.236 249.964 128.986 249.741C128.736 249.517 128.525 249.235 128.367 248.912C128.21 248.589 128.107 248.231 128.067 247.86C128.015 247.099 128.212 246.343 128.617 245.754C129.021 245.164 129.601 244.786 130.233 244.7C130.541 244.641 130.856 244.656 131.159 244.745C131.462 244.835 131.747 244.996 131.998 245.22C132.248 245.444 132.458 245.725 132.616 246.048C132.774 246.371 132.876 246.729 132.917 247.1Z" fill="#263238"/>
<path d="M109.25 248.88C109.306 249.639 109.113 250.395 108.711 250.985C108.309 251.576 107.731 251.954 107.1 252.04C106.792 252.097 106.478 252.079 106.176 251.989C105.874 251.898 105.59 251.737 105.34 251.514C105.09 251.29 104.88 251.01 104.722 250.688C104.563 250.366 104.46 250.01 104.417 249.64C104.365 248.879 104.562 248.123 104.967 247.534C105.371 246.944 105.951 246.566 106.583 246.48C106.891 246.421 107.205 246.436 107.507 246.526C107.809 246.615 108.092 246.777 108.341 247.001C108.59 247.225 108.799 247.507 108.955 247.829C109.111 248.152 109.212 248.51 109.25 248.88Z" fill="#263238"/>
<path d="M133.783 237.46C133.517 238 131.25 236.28 128.417 236.78C125.583 237.28 123.767 239.6 123.417 239.18C123.067 238.76 123.417 238.06 124.233 237C125.259 235.619 126.661 234.721 128.188 234.468C129.715 234.215 131.268 234.624 132.567 235.62C133.5 236.4 133.917 237.22 133.783 237.46Z" fill="#263238"/>
<path d="M108.333 240C108 240.5 105.783 238.56 102.733 238.72C99.6835 238.88 97.5168 240.94 97.1668 240.48C96.8168 240.02 97.3168 239.4 98.2668 238.48C99.5138 237.245 101.067 236.541 102.683 236.48C104.292 236.404 105.875 236.974 107.183 238.1C108.133 238.92 108.483 239.76 108.333 240Z" fill="#263238"/>
<path d="M117.883 261.54C119.229 260.881 120.641 260.437 122.083 260.22C122.733 260.08 123.367 259.86 123.433 259.3C123.442 258.464 123.232 257.646 122.833 256.96C122.083 255.08 121.3 253.1 120.467 250.96C117.133 242.5 114.717 235.54 115 235.38C115.283 235.22 118.2 241.94 121.5 250.38C122.3 252.48 123.067 254.38 123.783 256.38C124.271 257.308 124.466 258.415 124.333 259.5C124.257 259.793 124.126 260.06 123.949 260.282C123.773 260.504 123.557 260.674 123.317 260.78C122.956 260.928 122.581 261.022 122.2 261.06C120.782 261.424 119.333 261.585 117.883 261.54Z" fill="#263238"/>
<path d="M122.067 298.56C113.141 299.543 104.164 297.536 96.1333 292.76C96.1333 292.76 103.55 308.16 122.4 304.28L122.067 298.56Z" fill="#FF9A6C"/>
<path d="M109.9 270.7C110.197 269.91 110.656 269.222 111.233 268.7C111.94 268.297 112.743 268.205 113.5 268.44C114.626 268.637 115.667 269.269 116.467 270.24C116.859 270.73 117.136 271.337 117.267 271.998C117.399 272.659 117.382 273.35 117.217 274C116.917 275.32 115.283 276 114.167 276.28C113.01 276.483 111.83 276.193 110.833 275.46C110.4 275.223 110.021 274.862 109.731 274.409C109.44 273.956 109.246 273.424 109.167 272.86C109.241 272.073 109.494 271.325 109.9 270.7Z" fill="#FF9A6C"/>
<path d="M110.433 266.28C110.85 266.28 111.083 269.62 113.667 271.82C116.25 274.02 119.25 273.36 119.3 273.82C119.35 274.28 118.683 274.54 117.4 274.7C115.735 274.883 114.07 274.352 112.7 273.2C111.379 272.106 110.469 270.432 110.167 268.54C110 267.16 110.233 266.28 110.433 266.28Z" fill="#263238"/>
<path d="M108.1 227.7C107.883 228.56 105.25 228.4 102.2 229.14C99.15 229.88 96.7333 231.14 96.2833 230.36C96.0833 230.02 96.45 229.18 97.4 228.26C98.6725 227.122 100.146 226.35 101.706 226.004C103.266 225.657 104.872 225.745 106.4 226.26C107.567 226.66 108.183 227.28 108.1 227.7Z" fill="#263238"/>
<path d="M132.167 226C131.683 226.76 129.583 226.22 127.167 226.42C124.75 226.62 122.617 227.32 122.083 226.62C121.85 226.28 122.083 225.52 123 224.76C124.205 223.807 125.607 223.274 127.05 223.22C128.484 223.096 129.917 223.464 131.183 224.28C132.05 224.88 132.383 225.6 132.167 226Z" fill="#263238"/>
<path d="M71.45 216.28C73.1167 213.04 76.35 211.38 79.35 210C92.3063 203.997 105.813 199.868 119.583 197.7C121.25 201.08 119.717 205.7 117.133 208.16C114.55 210.62 111.217 211.6 108.133 212.98C105.05 214.36 101.867 216.52 100.583 220.18C99.3 223.84 100.383 228.66 99.1833 232.62C97.1333 239.46 89.1833 241.66 87.2 248.48C85.6667 253.66 88.1667 259.16 88.8667 264.6C89.1868 267.361 89.0124 270.172 88.3552 272.846C87.6981 275.519 86.5733 277.994 85.0558 280.105C83.5384 282.215 81.6632 283.913 79.5556 285.085C77.4479 286.257 75.1562 286.876 72.8333 286.9C71.9 267.314 70.9611 247.74 70.0167 228.18C69.7333 224.1 69.6 219.7 71.45 216.28Z" fill="#263238"/>
<path d="M38.5832 265.74C41.1666 262.96 44.3999 260.56 45.4166 256.6C46.9166 250.82 43.0499 244.04 45.5499 238.78C47.8166 233.98 54.4999 234.24 56.6166 229.34C58.2832 225.5 56.3666 222.12 56.9833 218.76C57.5999 215.4 61.5999 212.46 64.4333 212.86L86.6666 251.6C88.7332 264.6 90.8166 271.6 88.4999 279.12C86.9677 283.169 85.8107 287.408 85.0499 291.76C84.5499 296.16 85.4999 301.14 88.4832 303.76C75.1499 305.02 62.6833 296.66 51.1499 288.56L38.9999 280C37.6699 279.236 36.523 278.08 35.6666 276.64C33.8499 273.08 36.0166 268.5 38.5832 265.74Z" fill="#263238"/>
<path d="M50.8667 284.62C51.3319 284.8 51.8129 284.914 52.3 284.96C53.6904 285.12 55.0932 284.998 56.45 284.6C58.6159 283.978 60.6091 282.689 62.2334 280.86C64.3788 278.382 65.7248 275.074 66.0334 271.52C66.2337 269.459 66.0864 267.371 65.6 265.38C65.0024 263.258 64.173 261.241 63.1334 259.38C62.0311 257.492 61.1715 255.415 60.5834 253.22C60.271 252.098 60.1732 250.906 60.2973 249.732C60.4214 248.558 60.7641 247.433 61.3 246.44C62.5 244.44 64.75 244.02 66.85 243.02C67.9842 242.531 68.9708 241.647 69.6834 240.48C70.3395 239.233 70.6595 237.773 70.6 236.3C70.3118 233.476 69.804 230.691 69.0834 227.98C68.8275 226.665 68.8275 225.296 69.0834 223.98C69.3769 222.653 70.0569 221.497 71 220.72C73.028 219.317 75.3258 218.573 77.6667 218.56C80.0894 218.464 82.4521 217.631 84.5334 216.14C86.5586 214.659 88.2026 212.534 89.2834 210C90.1705 207.568 90.7329 204.983 90.95 202.34C91.1813 199.894 91.6168 197.482 92.25 195.14C92.952 193.011 94.0196 191.082 95.3834 189.48C97.8989 186.616 101.146 184.854 104.6 184.48C107.48 184.185 110.37 184.878 112.933 186.48C114.861 187.664 116.599 189.249 118.067 191.16C119.293 192.829 120.355 194.661 121.233 196.62C121.233 196.62 121.233 196.48 121.117 196.2C120.98 195.803 120.824 195.416 120.65 195.04C120.014 193.588 119.236 192.232 118.333 191C116.867 189.012 115.118 187.352 113.167 186.1C110.576 184.392 107.633 183.607 104.683 183.84C101.064 184.158 97.6454 185.959 95 188.94C93.5426 190.629 92.4056 192.676 91.6667 194.94C91.0059 197.325 90.548 199.784 90.3 202.28C90.0688 204.836 89.5065 207.333 88.6334 209.68C87.6171 212.041 86.0845 214.025 84.2 215.42C82.2143 216.818 79.9678 217.595 77.6667 217.68C75.1588 217.674 72.6954 218.475 70.5334 220C69.4518 220.883 68.6709 222.203 68.3334 223.72C68.0413 225.2 68.0413 226.741 68.3334 228.22C69.0392 230.88 69.5413 233.611 69.8334 236.38C69.9021 237.666 69.634 238.946 69.0667 240.04C68.4229 241.055 67.5492 241.826 66.55 242.26C65.5667 242.76 64.5 243.1 63.4667 243.62C62.3907 244.108 61.4418 244.929 60.7167 246C60.128 247.105 59.7509 248.352 59.6126 249.652C59.4743 250.953 59.5781 252.274 59.9167 253.52C60.5408 255.786 61.4393 257.929 62.5834 259.88C63.5985 261.648 64.4114 263.572 65 265.6C65.4723 267.491 65.6308 269.476 65.4667 271.44C65.1935 274.861 63.9318 278.059 61.9 280.48C60.3449 282.287 58.4276 283.582 56.3334 284.24C54.55 284.799 52.6919 284.928 50.8667 284.62Z" fill="#455A64"/>
<path d="M33.1 257.08C32.8819 257.473 32.7344 257.915 32.6666 258.38C32.445 259.752 32.6464 261.173 33.2333 262.38C33.64 263.242 34.2112 263.975 34.9 264.52C35.7586 265.143 36.7467 265.462 37.75 265.44C38.9692 265.408 40.1578 264.975 41.1864 264.189C42.2149 263.403 43.044 262.293 43.5833 260.98C44.2173 259.474 44.5429 257.808 44.5333 256.12C44.493 254.307 44.1767 252.517 43.6 250.84C42.55 247.38 40.6166 244 40.5833 239.96C40.5203 238.965 40.6251 237.966 40.8914 237.021C41.1577 236.076 41.5801 235.205 42.1333 234.46C43.4846 233.121 45.221 232.475 46.9666 232.66C48.9092 232.83 50.8616 232.587 52.7333 231.94C53.7141 231.461 54.5428 230.621 55.1 229.54C55.6364 228.466 55.972 227.265 56.0833 226.02C56.1794 223.632 56.0169 221.238 55.6 218.9C55.3016 216.706 55.4097 214.459 55.9167 212.32C56.8613 208.237 59.0742 204.744 62.1 202.56C64.9722 200.805 68.1606 199.925 71.3833 200C74.2474 200.008 77.0942 199.468 79.8166 198.4C82.0301 197.425 84.0588 195.929 85.7833 194C87.104 192.536 88.2283 190.836 89.1167 188.96C89.8984 187.404 90.4351 185.689 90.7 183.9C90.2038 185.589 89.5847 187.222 88.85 188.78C86.7502 192.985 83.516 196.203 79.6833 197.9C76.9837 198.891 74.1729 199.377 71.35 199.34C68.0335 199.228 64.7459 200.108 61.7833 201.9C58.6015 204.139 56.2525 207.752 55.2166 212C54.6833 214.256 54.5639 216.624 54.8666 218.94C55.2568 221.202 55.419 223.512 55.35 225.82C55.3106 226.918 55.0208 227.981 54.5124 228.894C54.004 229.808 53.2963 230.536 52.4667 231C50.6857 231.607 48.8292 231.83 46.9833 231.66C45.0503 231.457 43.1284 232.176 41.6333 233.66C41.0228 234.494 40.5602 235.469 40.2737 236.524C39.9872 237.58 39.8827 238.695 39.9667 239.8C40.0403 241.877 40.4537 243.915 41.1833 245.8C41.8333 247.6 42.55 249.28 43.1 250.96C43.6593 252.553 43.9754 254.253 44.0333 255.98C44.0561 257.557 43.7707 259.119 43.2 260.54C42.7164 261.766 41.9619 262.81 41.0187 263.557C40.0755 264.305 38.9795 264.728 37.85 264.78C36.9235 264.82 36.006 264.55 35.2 264C34.51 263.517 33.9359 262.828 33.5333 262C32.9491 260.887 32.7074 259.564 32.85 258.26C32.9333 257.54 33.15 257.1 33.1 257.08Z" fill="#263238"/>
<path d="M173.483 266.62C173.88 267.973 173.88 269.447 173.483 270.8C173.263 271.577 172.9 272.284 172.421 272.869C171.942 273.454 171.36 273.902 170.717 274.18C169.859 274.484 168.948 274.495 168.086 274.212C167.223 273.929 166.443 273.364 165.833 272.58C165.133 271.657 164.726 270.467 164.683 269.22C164.651 267.86 164.826 266.505 165.2 265.22C165.9 262.52 167.35 259.58 167.133 256.04C167.028 254.245 166.612 252.497 165.912 250.906C165.212 249.315 164.243 247.916 163.067 246.8C161.835 245.617 160.427 244.728 158.917 244.18C157.374 243.667 155.784 243.392 154.183 243.36C152.633 243.345 151.087 243.151 149.567 242.78C148.148 242.429 146.879 241.487 145.983 240.12C145.191 238.718 144.746 237.074 144.7 235.38C144.626 233.73 144.738 232.075 145.033 230.46C145.765 227.414 146.168 224.269 146.233 221.1C146.099 218.287 145.269 215.585 143.85 213.34C142.65 211.559 141.179 210.066 139.517 208.94C138.302 208.077 137.138 207.115 136.033 206.06C135.128 205.129 134.39 203.986 133.867 202.7C133.867 202.7 133.867 202.7 133.867 202.98C133.932 203.251 134.022 203.512 134.133 203.76C134.549 204.732 135.115 205.601 135.8 206.32C136.88 207.449 138.034 208.472 139.25 209.38C140.84 210.515 142.241 211.993 143.383 213.74C144.704 215.892 145.459 218.469 145.55 221.14C145.451 224.237 145.031 227.308 144.3 230.28C143.978 231.971 143.849 233.707 143.917 235.44C143.979 237.307 144.475 239.115 145.35 240.66C146.344 242.203 147.761 243.273 149.35 243.68C150.914 244.065 152.504 244.273 154.1 244.3C155.643 244.324 157.177 244.58 158.667 245.06C160.081 245.588 161.403 246.421 162.567 247.52C163.662 248.557 164.567 249.854 165.224 251.331C165.881 252.807 166.275 254.431 166.383 256.1C166.617 259.32 165.283 262.1 164.55 265C164.165 266.391 163.995 267.856 164.05 269.32C164.123 270.718 164.6 272.041 165.4 273.06C166.085 273.921 166.957 274.533 167.918 274.826C168.879 275.12 169.889 275.083 170.833 274.72C171.523 274.399 172.143 273.894 172.645 273.242C173.148 272.591 173.52 271.81 173.733 270.96C174.036 269.918 174.082 268.793 173.867 267.72C173.794 267.329 173.664 266.957 173.483 266.62Z" fill="#263238"/>
<path d="M157.55 423.28V401.16C159.617 388.74 158.633 374.02 153.817 362.68C150.322 355.371 146.46 348.324 142.25 341.58L123.917 313C113.817 321.82 98.0001 315.44 84.4334 309.52C84.4334 309.52 71.1001 318.42 64.8001 326.78C58.2501 335.58 80.6501 445.68 80.6501 445.68C70.5001 470.04 57.4001 491.68 55.4167 513.88L161.417 518.78L156.917 460.46L157.55 423.28Z" fill="#116A81"/>
<path d="M156.083 461.08C155.978 460.253 155.95 459.415 156 458.58C156 456.76 156 454.58 156 451.8C156.083 445.8 156.183 438.06 156.3 429.44C156.417 420.82 156.633 412.8 156.867 407.08C156.983 404.22 157.1 401.9 157.2 400.3C157.212 399.471 157.301 398.645 157.467 397.84C157.534 398.665 157.534 399.495 157.467 400.32C157.467 402.14 157.467 404.32 157.467 407.1C157.383 413.1 157.267 420.84 157.15 429.46C157.033 438.08 156.833 446.1 156.6 451.82C156.483 454.68 156.367 457 156.25 458.6C156.276 459.432 156.22 460.264 156.083 461.08Z" fill="#263238"/>
<path d="M204.5 481.2C204.5 481.2 214.833 481.88 221.167 486.68C227.5 491.48 237.833 498.96 242.083 508.22C244.033 512.48 238.483 513.38 235.733 510.92C232.983 508.46 228.8 503.78 226.717 503.22L224.633 502.64C226.535 507.806 228.655 512.852 230.983 517.76C233.133 521.76 235 528.4 228.533 528.7C228.533 528.7 224.183 535.5 219.783 530.46C219.783 530.46 216.35 536.64 210.817 528.08C210.817 528.08 207.583 532.98 206.25 531.1C204.917 529.22 200.5 526.26 199.217 520.14C197.291 513.016 195.066 506.014 192.55 499.16L204.5 481.2Z" fill="#FFBF9D"/>
<path d="M435.85 309.32C437 309.32 484.317 303.32 484.317 303.32C484.317 303.32 488.333 280.24 488.117 274.24C487.9 268.24 484.533 228.54 484.533 228.54L502.25 218.54C502.25 218.54 525.933 314.38 520.767 322.34C515.6 330.3 505.883 337.44 505.05 337.48C504.217 337.52 459.2 361.48 427.883 349.02C396.567 336.56 435.85 309.32 435.85 309.32Z" fill="#FFBF9D"/>
<path d="M394.383 361.06C401.35 369.36 413.35 376.26 433.383 370.26C472.983 358.38 502.667 348.26 514.467 340.66C526.267 333.06 521.667 299.1 522.667 297.56C525.65 292.92 522.367 282.96 518.117 281.4C506 277 484.917 278.74 483.85 280.06C477.633 287.9 483.3 297.42 483.3 297.42L431.083 305.64C424.664 305.279 418.23 305.769 411.9 307.1" fill="#116A81"/>
<path d="M411.9 307.1L413.15 306.78C413.983 306.6 415.217 306.34 416.85 306.1C421.575 305.386 426.342 305.145 431.1 305.38L483.3 296.98L483.05 297.68C481.335 294.653 480.492 291.036 480.65 287.38C480.792 285.489 481.306 283.666 482.15 282.06C482.574 281.253 483.053 280.491 483.583 279.78C483.792 279.595 484.022 279.447 484.267 279.34L484.867 279.16C485.267 279.04 485.65 279 486.033 278.9C492.501 278.005 499.024 277.845 505.517 278.42C508.925 278.669 512.313 279.231 515.65 280.1C516.483 280.32 517.317 280.62 518.183 280.88C519.072 281.22 519.886 281.794 520.567 282.56C521.892 284.071 522.902 285.934 523.517 288C524.178 290.069 524.412 292.299 524.2 294.5C524.047 295.645 523.689 296.737 523.15 297.7C523 297.9 523.017 298.44 523 298.96V300.56C523.117 304.86 523.283 309.24 523.183 313.64C523.21 319.886 522.359 326.093 520.667 332C519.797 334.959 518.304 337.598 516.333 339.66C515.313 340.617 514.192 341.411 513 342.02C511.9 342.72 510.733 343.26 509.667 343.9C505.1 346.24 500.517 348.16 496 349.9C491.483 351.64 487.05 353.32 482.667 354.86C465.233 360.86 449.333 365.72 436.1 369.7C432.939 370.703 429.734 371.498 426.5 372.08C423.602 372.565 420.675 372.752 417.75 372.64C413.051 372.52 408.416 371.311 404.1 369.08C401.393 367.647 398.868 365.761 396.6 363.48C395.801 362.705 395.054 361.856 394.367 360.94C394.367 360.94 395.133 361.82 396.717 363.32C399.014 365.519 401.548 367.335 404.25 368.72C408.54 370.845 413.126 371.978 417.767 372.06C420.66 372.143 423.554 371.929 426.417 371.42C429.629 370.812 432.811 369.997 435.95 368.98C449.283 364.98 465.05 360.06 482.433 353.94C486.783 352.4 491.217 350.76 495.767 348.96C500.317 347.16 504.833 345.26 509.35 342.96C510.45 342.34 511.6 341.8 512.683 341.1C513.796 340.512 514.843 339.76 515.8 338.86C517.661 336.92 519.068 334.432 519.883 331.64C521.525 325.811 522.342 319.693 522.3 313.54C522.4 309.16 522.3 304.82 522.117 300.5V298.86C522.117 298.58 522.117 298.3 522.117 298C522.103 297.84 522.103 297.68 522.117 297.52C522.154 297.397 522.199 297.276 522.25 297.16L522.333 297C522.802 296.18 523.11 295.243 523.233 294.26C523.429 292.226 523.206 290.166 522.583 288.26C522.024 286.35 521.099 284.624 519.883 283.22C519.293 282.556 518.587 282.057 517.817 281.76C516.983 281.5 516.15 281.22 515.333 280.98C512.04 280.123 508.697 279.568 505.333 279.32C498.909 278.731 492.452 278.878 486.05 279.76C485.667 279.76 485.283 279.88 484.917 280L484.383 280.14C484.267 280.195 484.156 280.261 484.05 280.34C483.548 280.997 483.096 281.706 482.7 282.46C481.907 283.932 481.426 285.614 481.3 287.36C481.156 290.797 481.939 294.199 483.533 297.06L483.867 297.68H483.283L431.05 305.68C426.319 305.392 421.577 305.552 416.867 306.16C415.2 306.36 413.983 306.58 413.15 306.72C412.317 306.86 411.9 307.1 411.9 307.1Z" fill="#263238"/>
<path d="M270.522 372.236L249.253 326.38L651.537 57.6898C656.172 54.5941 661.642 53.8347 666.743 55.5785C671.845 57.3223 676.16 61.4265 678.74 66.9883L680.563 70.9202C683.143 76.482 683.776 83.0457 682.323 89.1673C680.869 95.289 677.449 100.467 672.815 103.563L270.53 372.253L270.522 372.236Z" fill="#116A81"/>
<path d="M607.856 129.725L558.599 23.5263C558.36 23.0122 558.208 22.4469 558.152 21.8624C558.096 21.278 558.136 20.686 558.27 20.1202C558.404 19.5544 558.63 19.0258 558.935 18.5648C559.239 18.1037 559.617 17.7191 560.045 17.433L582.647 2.33718C583.075 2.05106 583.546 1.86898 584.033 1.80135C584.52 1.73373 585.013 1.78188 585.485 1.94305C585.956 2.10423 586.397 2.37529 586.781 2.74072C587.165 3.10616 587.486 3.55882 587.724 4.07288L636.982 110.271L607.856 129.725Z" fill="#116A81"/>
<path d="M510.955 80.273L546.854 157.672C548.305 160.799 551.593 161.923 554.199 160.182L573.888 147.032C576.494 145.291 577.431 141.345 575.98 138.218L540.081 60.8195C538.63 57.6925 535.342 56.5684 532.736 58.3089L513.047 71.4594C510.441 73.1999 509.504 77.1459 510.955 80.273Z" fill="#116A81"/>
<path d="M542.651 75.753L564.877 123.671L610.109 93.4595L587.884 45.5418L542.651 75.753Z" fill="#116A81"/>
<path d="M645.65 61.7202C645.767 61.9602 566.817 114.96 469.35 180.08C371.883 245.2 292.683 297.8 292.683 297.54C292.683 297.28 371.5 244.3 469 179.16C566.5 114.02 645.533 61.4602 645.65 61.7202Z" fill="#263238"/>
<path d="M107.6 460.82C137.267 524.82 199.817 550.82 247.317 519.12C294.817 487.42 309.317 409.82 279.65 345.9C249.983 281.98 187.45 255.9 139.933 287.6C92.4166 319.3 77.95 396.9 107.6 460.82ZM253.917 363.1C274.7 407.9 264.55 462.24 231.25 484.46C197.95 506.68 154.133 488.46 133.35 443.62C112.567 398.78 122.717 344.48 156 322.24C189.283 300 233.133 318.3 253.917 363.1Z" fill="#116A81"/>
<path d="M316.97 280.598L338.92 327.921C341.839 334.214 348.456 336.476 353.7 332.974L355.477 331.787C360.721 328.284 362.606 320.344 359.687 314.051L337.737 266.728C334.818 260.435 328.201 258.173 322.957 261.675L321.18 262.862C315.937 266.365 314.052 274.305 316.97 280.598Z" fill="#116A81"/>
<path d="M359.125 252.44L381.075 299.764C383.994 306.056 390.611 308.318 395.855 304.816L397.632 303.629C402.875 300.127 404.76 292.186 401.842 285.893L379.892 238.57C376.973 232.277 370.356 230.015 365.112 233.518L363.335 234.704C358.091 238.207 356.206 246.148 359.125 252.44Z" fill="#116A81"/>
<path d="M337.267 266C337.483 265.86 342.567 276.6 348.65 290C354.733 303.4 359.483 314.32 359.267 314.46C359.05 314.6 353.967 303.88 347.883 290.46C341.8 277.04 337.05 266 337.267 266Z" fill="#263238"/>
<path d="M317.917 282.5C318.133 282.36 323.1 292.62 329.033 305.38C334.967 318.14 339.583 328.64 339.383 328.78C339.183 328.92 334.2 318.66 328.333 306C322.467 293.34 317.717 282.64 317.917 282.5Z" fill="#263238"/>
<path d="M379.683 238.14C379.9 238 385.083 248.68 391.267 262C397.45 275.32 402.283 286.26 402.067 286.4C401.85 286.54 396.683 275.84 390.5 262.52C384.317 249.2 379.483 238.28 379.683 238.14Z" fill="#263238"/>
<path d="M359.333 252.88C359.533 252.74 364.617 263.36 370.65 276.6C376.683 289.84 381.433 300.6 381.217 300.82C381 301.04 375.95 290.34 369.9 277.1C363.85 263.86 359.117 253.02 359.333 252.88Z" fill="#263238"/>
<path d="M480.217 180.74C482.157 181.014 484.114 180.412 485.704 179.05C487.295 177.689 488.407 175.666 488.823 173.374C489.239 171.083 488.929 168.688 487.955 166.656C486.98 164.624 485.41 163.1 483.55 162.38C484.752 160.903 485.537 159.01 485.792 156.968C486.048 154.926 485.762 152.84 484.975 151.004C484.188 149.168 482.94 147.675 481.407 146.738C479.874 145.8 478.134 145.465 476.433 145.78C476.363 143.749 475.857 141.775 474.963 140.049C474.069 138.323 472.818 136.903 471.331 135.929C469.845 134.955 468.174 134.458 466.48 134.488C464.787 134.518 463.129 135.074 461.667 136.1C459.761 134.23 457.388 133.179 454.927 133.114C452.465 133.048 450.056 133.973 448.083 135.74C446.426 135.36 444.71 135.632 443.191 136.514C441.672 137.397 440.43 138.843 439.65 140.639C438.87 142.435 438.593 144.484 438.86 146.484C439.128 148.484 439.925 150.327 441.133 151.74" fill="#263238"/>
<path d="M446.4 145.06H448.067C456.47 145.069 464.563 148.874 470.734 155.72C476.904 162.565 480.701 171.948 481.367 182C482.617 201.38 483.783 222.8 483.65 233.2C483.333 254.8 465.433 258 465.433 258L466.883 283.88L423.333 282.18L419.717 188.38C418.183 166 427.733 146.3 446.4 145.06Z" fill="#FFBF9D"/>
<path d="M465.583 258C457.252 257.973 449.102 255.078 442.1 249.66C442.1 249.66 447.867 265.96 465.767 264.08L465.583 258Z" fill="#FF9A6C"/>
<path d="M471.517 202.3C471.521 203.101 471.264 203.873 470.799 204.449C470.335 205.025 469.701 205.359 469.033 205.38C468.708 205.407 468.381 205.356 468.072 205.231C467.763 205.106 467.478 204.908 467.233 204.649C466.988 204.391 466.788 204.077 466.645 203.725C466.502 203.373 466.419 202.991 466.4 202.6C466.399 201.798 466.658 201.027 467.121 200.449C467.584 199.871 468.216 199.531 468.883 199.5C469.21 199.473 469.538 199.524 469.848 199.651C470.158 199.777 470.444 199.977 470.689 200.238C470.934 200.498 471.134 200.815 471.276 201.169C471.418 201.523 471.5 201.907 471.517 202.3Z" fill="#263238"/>
<path d="M477.483 192.58C477.167 192.98 475.217 191.26 472.483 191.26C469.75 191.26 467.7 192.9 467.4 192.5C467.1 192.1 467.583 191.6 468.467 190.82C469.662 189.834 471.083 189.317 472.533 189.34C473.966 189.333 475.363 189.88 476.517 190.9C477.35 191.68 477.633 192.42 477.483 192.58Z" fill="#263238"/>
<path d="M446.667 200.86C446.68 201.674 446.425 202.46 445.956 203.049C445.488 203.637 444.844 203.979 444.167 204C443.841 204.027 443.515 203.977 443.206 203.851C442.897 203.726 442.611 203.528 442.366 203.27C442.121 203.011 441.922 202.697 441.779 202.345C441.636 201.993 441.552 201.611 441.533 201.22C441.529 200.417 441.786 199.643 442.249 199.064C442.713 198.485 443.348 198.146 444.017 198.12C444.341 198.09 444.667 198.137 444.975 198.259C445.284 198.381 445.57 198.574 445.816 198.829C446.063 199.084 446.264 199.394 446.41 199.743C446.556 200.091 446.643 200.471 446.667 200.86Z" fill="#263238"/>
<path d="M450.383 193.1C450.067 193.5 448.117 191.78 445.383 191.78C442.65 191.78 440.6 193.42 440.3 193.02C440 192.62 440.483 192.12 441.367 191.34C442.562 190.354 443.983 189.837 445.433 189.86C446.866 189.853 448.263 190.4 449.417 191.42C450.25 192.2 450.533 192.92 450.383 193.1Z" fill="#263238"/>
<path d="M460.317 217.68C461.771 217.131 463.278 216.809 464.8 216.72C465.5 216.72 466.167 216.48 466.3 215.9C466.359 215.029 466.196 214.158 465.833 213.4L463.767 206.96C460.9 197.78 458.767 190.24 459.133 190.12C459.5 190 462.017 197.3 464.883 206.46C465.567 208.72 466.233 210.88 466.867 212.94C467.299 213.965 467.423 215.138 467.217 216.26C467.112 216.556 466.953 216.82 466.751 217.032C466.548 217.243 466.309 217.396 466.05 217.48C465.666 217.617 465.267 217.684 464.867 217.68C463.356 217.907 461.827 217.907 460.317 217.68Z" fill="#263238"/>
<path d="M452.8 180.38C452.433 181.22 450.083 180.38 447.167 180.18C444.25 179.98 441.817 180.64 441.55 179.76C441.433 179.34 441.95 178.6 443 177.92C444.355 177.117 445.858 176.745 447.367 176.84C448.863 176.904 450.318 177.442 451.583 178.4C452.533 179.18 452.967 180 452.8 180.38Z" fill="#263238"/>
<path d="M477.65 178.96C477.067 179.7 474.783 178.96 472.05 178.96C469.317 178.96 467.05 179.46 466.467 178.66C466.233 178.28 466.6 177.52 467.617 176.82C469.017 175.939 470.587 175.518 472.167 175.6C473.738 175.625 475.275 176.157 476.617 177.14C477.583 177.82 477.9 178.58 477.65 178.96Z" fill="#263238"/>
<path d="M479.667 172.2C479.667 172.2 474.967 158.7 469.55 155.54C463 151.7 460.167 160.32 453.917 158.2C447.667 156.08 441.417 152.42 435.017 158.2C428.017 164.52 431.283 168.98 430.817 178.54C428.983 217.26 423.05 228.18 421.433 209.94C421.25 207.94 416.633 206.34 415.967 197.94C415.1 187 414.783 173.7 416.85 165.94C418.517 159.4 421.7 154.88 427.283 149.94C436.117 142.1 448.217 141.94 456.433 143C464.65 144.06 480.45 155.32 479.667 172.2Z" fill="#263238"/>
<path d="M422.567 209.34C422.548 208.55 422.396 207.773 422.12 207.055C421.844 206.337 421.449 205.694 420.96 205.165C420.471 204.636 419.897 204.232 419.274 203.976C418.65 203.721 417.99 203.62 417.333 203.68C414 204.06 410.25 206.32 410.45 214.62C410.8 229.34 423.05 225.88 423.067 225.44C423.083 225 422.767 215.5 422.567 209.34Z" fill="#FFBF9D"/>
<path d="M420.25 220C420.25 220 420.05 220.2 419.683 220.4C419.185 220.674 418.619 220.71 418.1 220.5C417.29 219.925 416.624 219.101 416.17 218.113C415.715 217.124 415.49 216.008 415.517 214.88C415.453 213.624 415.623 212.367 416.017 211.2C416.123 210.739 416.321 210.316 416.594 209.967C416.867 209.619 417.206 209.355 417.583 209.2C417.828 209.111 418.091 209.128 418.325 209.249C418.56 209.37 418.752 209.586 418.867 209.86C419.033 210.26 418.967 210.56 419.033 210.58C419.1 210.6 419.283 210.32 419.167 209.72C419.101 209.355 418.922 209.034 418.667 208.82C418.498 208.671 418.307 208.565 418.104 208.506C417.9 208.448 417.69 208.439 417.483 208.48C416.981 208.616 416.517 208.904 416.134 209.317C415.752 209.731 415.465 210.255 415.3 210.84C414.805 212.128 414.582 213.543 414.65 214.96C414.8 217.92 416.133 220.66 417.983 221.22C418.314 221.324 418.659 221.337 418.994 221.258C419.329 221.178 419.645 221.008 419.917 220.76C420.25 220.36 420.3 220 420.25 220Z" fill="#FF9A6C"/>
<path d="M422.883 180.82C424.384 182.288 426.165 183.284 428.067 183.72C429.021 183.9 429.998 183.658 430.816 183.041C431.634 182.423 432.238 181.471 432.517 180.36C432.667 179.34 432.517 178.14 433.017 177.36C433.517 176.58 434.933 176.72 435.95 176.86C439.517 177.32 443.7 172.6 444.617 168.44C445.08 169.238 445.779 169.794 446.572 169.994C447.364 170.195 448.191 170.025 448.883 169.52C450.017 168.689 451.021 167.626 451.85 166.38C452.333 165.587 452.969 164.945 453.703 164.51C454.437 164.074 455.248 163.858 456.067 163.88C456.93 164.238 457.825 164.473 458.733 164.58C460.4 164.42 461.133 162.16 461.383 160.24C461.633 158.32 461.833 156.1 463.2 155.06C464.603 154.401 466.153 154.351 467.583 154.92C469.067 155.2 470.917 154.78 471.367 153.04C471.428 152.575 471.411 152.1 471.316 151.643C471.222 151.186 471.052 150.757 470.817 150.38C469.825 148.596 468.361 147.266 466.661 146.606C464.961 145.945 463.125 145.992 461.45 146.74C460.86 144.279 459.673 142.084 458.04 140.435C456.407 138.786 454.402 137.757 452.28 137.481C450.158 137.204 448.016 137.691 446.126 138.881C444.236 140.07 442.683 141.908 441.667 144.16C440.369 142.734 438.802 141.705 437.101 141.162C435.4 140.618 433.615 140.577 431.898 141.04C430.18 141.504 428.582 142.459 427.239 143.824C425.895 145.189 424.847 146.924 424.183 148.88C422.683 148.4 421.098 148.46 419.626 149.052C418.153 149.645 416.859 150.744 415.903 152.212C414.947 153.681 414.373 155.455 414.251 157.312C414.129 159.17 414.465 161.03 415.217 162.66C414.075 163.337 413.095 164.351 412.369 165.607C411.643 166.863 411.195 168.319 411.067 169.84C411.067 172.88 413.483 175.84 415.933 175.12C415.425 176.318 415.319 177.704 415.635 178.993C415.952 180.283 416.668 181.377 417.636 182.053C418.605 182.729 419.752 182.934 420.842 182.627C421.933 182.319 422.884 181.522 423.5 180.4" fill="#263238"/>
<path d="M462.35 151.06C462.35 151.06 462.35 151.06 462.35 151.34C462.35 151.62 462.35 151.78 462.267 152.12C462.094 153.118 461.791 154.077 461.367 154.96C460.69 156.344 459.761 157.527 458.65 158.42C457.181 159.622 455.426 160.219 453.65 160.12L453.85 159.8C454.21 161.121 454.12 162.559 453.6 163.8C453.049 165.116 452.342 166.329 451.5 167.4C451.091 168.025 450.627 168.595 450.117 169.1C449.21 169.816 448.121 170.122 447.044 169.965C445.966 169.807 444.97 169.196 444.233 168.24L444.683 168.08C444.511 169.608 444.074 171.076 443.399 172.389C442.724 173.701 441.828 174.83 440.767 175.7C439.601 176.74 438.185 177.295 436.733 177.28C435.372 177.191 434.031 176.833 432.767 176.22L433.1 176.04C432.458 177.821 431.455 179.382 430.183 180.58C429.603 181.177 428.918 181.61 428.18 181.849C427.442 182.088 426.669 182.126 425.917 181.96C424.628 181.624 423.449 180.842 422.525 179.712C421.601 178.582 420.972 177.153 420.717 175.6L421 175.76C419.703 176.566 418.216 176.82 416.783 176.48C415.716 176.236 414.711 175.695 413.85 174.9C413.314 174.396 412.852 173.787 412.483 173.1C412.349 172.861 412.247 172.598 412.183 172.32C412.649 173.24 413.254 174.047 413.967 174.7C414.816 175.437 415.798 175.924 416.833 176.12C418.194 176.429 419.603 176.161 420.817 175.36L421.05 175.2V175.52C421.302 176.965 421.9 178.291 422.77 179.336C423.641 180.38 424.746 181.097 425.95 181.4C426.637 181.544 427.342 181.502 428.014 181.277C428.686 181.052 429.308 180.65 429.833 180.1C431.027 178.961 431.967 177.483 432.567 175.8L432.667 175.54H432.9C434.106 176.122 435.385 176.46 436.683 176.54C438.027 176.553 439.337 176.041 440.417 175.08C441.415 174.257 442.26 173.194 442.897 171.958C443.534 170.722 443.95 169.34 444.117 167.9V167.2L444.5 167.74C444.934 168.315 445.478 168.753 446.085 169.018C446.692 169.283 447.344 169.366 447.983 169.26C448.58 169.165 449.151 168.904 449.65 168.5C450.132 168.035 450.568 167.504 450.95 166.92C451.774 165.9 452.47 164.741 453.017 163.48C453.262 162.919 453.412 162.304 453.458 161.672C453.504 161.04 453.445 160.404 453.283 159.8L453.183 159.44H453.5C455.202 159.567 456.893 159.026 458.317 157.9C459.41 157.055 460.333 155.928 461.017 154.6C461.632 153.524 462.083 152.325 462.35 151.06Z" fill="#455A64"/>
<path d="M460.283 228.66C460.183 228.12 457.2 229 454.433 226.56C451.667 224.12 451.217 220.2 450.8 220.3C450.383 220.4 450.383 221.34 450.683 222.96C451.094 225.074 452.116 226.944 453.567 228.24C454.953 229.479 456.686 230.024 458.4 229.76C459.683 229.52 460.35 228.9 460.283 228.66Z" fill="#263238"/>
<path d="M552.717 788.24L564.55 836.62C564.55 836.62 609.55 838.42 612.433 847.12L535 878L513.967 803.5L552.717 788.24Z" fill="#116A81"/>
<path d="M539.517 842.16C538.849 842.73 538.379 843.575 538.198 844.535C538.016 845.494 538.136 846.5 538.533 847.36C538.982 848.182 539.676 848.767 540.472 848.994C541.269 849.221 542.108 849.073 542.817 848.58C543.525 847.974 544.021 847.074 544.209 846.055C544.397 845.035 544.263 843.968 543.833 843.06C543.29 842.258 542.51 841.74 541.656 841.613C540.801 841.486 539.939 841.761 539.25 842.38" fill="#E0E0E0"/>
<path d="M608.067 843.62C608.067 843.62 612.017 844.04 612.433 847.12L535 878L533.133 870.38L608 843.58" fill="#263238"/>
<path d="M565.667 835.64C565.783 836.1 564 837.06 562.5 839.26C561 841.46 560.583 843.76 560.183 843.72C559.783 843.68 559.633 840.84 561.433 838.22C563.233 835.6 565.633 835.2 565.667 835.64Z" fill="white"/>
<path d="M574.9 836.42C575.117 836.84 573.7 838.26 572.933 840.68C572.167 843.1 572.383 845.3 572 845.42C571.617 845.54 570.667 843.08 571.65 840.08C572.633 837.08 574.783 836 574.9 836.42Z" fill="white"/>
<path d="M582.75 846.24C582.433 846.48 581.283 844.42 581.567 841.56C581.85 838.7 583.333 836.98 583.6 837.3C583.867 837.62 583.133 839.3 582.933 841.74C582.733 844.18 583.117 846 582.75 846.24Z" fill="white"/>
<path d="M561.95 824.98C561.95 825.46 560 825.52 557.917 826.54C555.833 827.56 554.383 829.04 554.083 828.74C553.783 828.44 554.933 826.18 557.417 825C559.9 823.82 562.05 824.54 561.95 824.98Z" fill="white"/>
<path d="M372.15 788.66L355.3 834.86C355.3 834.86 388.783 870.86 386.367 879.82L310.533 843.82L334.317 770.54L372.15 788.66Z" fill="#116A81"/>
<path d="M333.15 819.8C332.334 819.723 331.524 820.008 330.872 820.602C330.22 821.196 329.774 822.056 329.617 823.02C329.523 823.996 329.744 824.978 330.233 825.766C330.723 826.554 331.444 827.088 332.25 827.26C333.116 827.337 333.975 827.029 334.663 826.395C335.352 825.76 335.822 824.844 335.983 823.82C335.983 821.82 334.467 819.54 332.833 819.82" fill="#E0E0E0"/>
<path d="M384.883 873.78C384.883 873.78 387.683 877.16 386.367 879.78L310.533 843.78L313.183 836.52L384.85 873.72" fill="#263238"/>
<path d="M356.667 834.98C356.517 835.42 354.6 834.74 352.3 835.3C350 835.86 348.417 837.3 348.133 836.94C347.85 836.58 349.25 834.3 352.033 833.68C354.817 833.06 356.9 834.6 356.667 834.98Z" fill="white"/>
<path d="M363.333 842.7C363.333 843.16 361.433 843.16 359.55 844.44C357.667 845.72 356.667 847.54 356.217 847.36C355.767 847.18 356.45 844.54 358.8 843C361.15 841.46 363.467 842.28 363.333 842.7Z" fill="white"/>
<path d="M364.1 856.26C363.733 856.26 363.95 853.74 365.767 851.76C367.583 849.78 369.567 849.62 369.6 850.06C369.633 850.5 368.133 851.3 366.717 852.96C365.3 854.62 364.483 856.4 364.1 856.26Z" fill="white"/>
<path d="M359.55 824C359.267 824.32 357.767 822.92 355.617 822C353.467 821.08 351.583 821.2 351.517 820.74C351.45 820.28 353.533 819.42 356.05 820.42C358.567 821.42 359.85 823.68 359.55 824Z" fill="white"/>
<path d="M400.533 534.86L373.967 664.18C373.967 664.18 326.05 760.98 317.933 809.42L361.767 830.1C361.767 830.1 393.65 736.8 403 719.68C407.207 712.008 412.042 704.859 417.433 698.34C420.939 694.167 423.453 688.948 424.717 683.22L444.833 590.96L400.533 534.86Z" fill="#263238"/>
<path d="M389.217 514.18C389.217 514.18 392.917 548.82 420.7 564.18L479.233 678.58C479.233 678.58 483.817 715.78 492.567 747.12C501.317 778.46 519 838.86 519 838.86L567.15 817.26L536.467 691.38L531.467 647.72L483.7 501.72L442.667 472.2L389.217 514.18Z" fill="#263238"/>
<path d="M389.217 514.18L390.1 513.46L392.75 511.34L403.15 503.1L442.583 472L442.717 471.9L442.85 472L483.917 501.46V501.58L531.783 647.44V647.54C533.367 661.34 535.117 676.12 536.783 691.2C545.117 725.2 553.95 761.58 563.083 799.06C564.561 805.1 566.028 811.1 567.483 817.06L567.6 817.52L567.217 817.68L519.067 839.28L518.65 839.46L518.517 838.96C510.183 809.94 502.117 782 494.5 755.5C492.583 748.88 490.7 742.32 489.133 735.76C487.567 729.2 486.15 722.68 484.867 716.24C482.333 703.36 480.3 690.78 478.7 678.58V678.74L420.5 564.3L420.6 564.4C413.561 560.45 407.309 554.735 402.267 547.64C398.571 542.432 395.538 536.595 393.267 530.32C391.861 526.447 390.746 522.431 389.933 518.32C389.65 516.96 389.483 515.9 389.383 515.18C389.283 514.46 389.267 514.1 389.267 514.1C389.267 514.1 389.267 514.46 389.45 515.16C389.633 515.86 389.733 516.92 390.05 518.3C390.91 522.357 392.059 526.319 393.483 530.14C395.783 536.351 398.826 542.125 402.517 547.28C407.578 554.301 413.828 559.947 420.85 563.84L479.5 678.16V678.26C481.167 690.42 483.167 702.98 485.7 715.84C486.983 722.26 488.383 728.76 489.967 735.3C491.55 741.84 493.417 748.36 495.333 754.98C502.983 781.48 511.033 809.42 519.4 838.42L518.85 838.12L567 816.52L566.733 817.14C565.289 811.18 563.822 805.18 562.333 799.14L536.067 691.26C534.4 676.18 532.633 661.4 531.067 647.6V647.72L483.383 501.72L483.517 501.9L442.517 472.32H442.767L403.333 503.28L392.833 511.4L390.133 513.5L389.217 514.18Z" fill="#455A64"/>
<path d="M415 267.04C415 267.04 400.967 280 394.15 294.48C385.983 311.82 385.1 337.52 384.85 377.44C384.6 414.36 389.2 424.62 387.433 438.54C383.95 465.72 381.367 556.94 381.367 556.94C381.367 556.94 426.367 536.2 435.1 526.94L443.883 517.78L500.2 540.12L488.833 457.08L481.033 353.58L471.033 298.68L469.367 277.14L421 253.82L415 267.04Z" fill="#116A81"/>
<path d="M467.55 276C468.133 276.14 466.167 280.88 462.7 287.84L462.55 288.12L462.283 288C457.4 285.72 450.933 282.86 443.867 279.76C435.9 276.28 428.7 273.04 423.55 270.52C420.967 269.26 418.9 268.2 417.483 267.42C416.731 267.071 416.006 266.643 415.317 266.14C416.107 266.352 416.878 266.66 417.617 267.06L423.767 269.84L444.167 278.78C451.233 281.88 457.683 284.78 462.5 287.26L462.1 287.42C465.733 280.6 467.883 276.1 467.55 276Z" fill="#263238"/>
<path d="M525.75 232.88C525.75 232.88 522.183 226.22 518.817 220.08C515.45 213.94 510.35 210.92 509.533 207.72C508.717 204.52 504.233 190.26 503.517 186.72C502.894 183.292 502.603 179.788 502.65 176.28C502.65 176.28 506.333 174.4 508.1 180.72C509.167 184.52 512.567 197.42 513.3 198.06C514.033 198.7 514.967 197.76 514.967 197.76C513.453 192.93 512.145 188.01 511.05 183.02C510.883 180.68 511.567 165.16 511.567 165.16C512.48 164.939 513.43 165.118 514.243 165.665C515.056 166.211 515.68 167.089 516 168.14C517.75 172.14 517.817 182.14 517.817 182.14L520.467 193.3L519.533 182.26L520.867 161.96C522.162 162.181 523.368 162.876 524.322 163.95C525.277 165.023 525.932 166.424 526.2 167.96C527.317 173.44 525.833 181.08 526.583 182.7C527.333 184.32 528.15 194.12 528.15 194.12C528.15 194.12 529.067 170.32 531.183 169.64C533.3 168.96 535.033 171.48 534.733 176.28C534.433 181.08 534.35 191.24 535.45 195.72C536.55 200.2 547.833 217.72 546.917 225.4C546.355 230.04 546.004 234.714 545.867 239.4H526.533L525.75 232.88Z" fill="#FFBF9D"/>
<path d="M457.933 292.82C459.017 293.32 505.2 307.04 505.2 307.04C505.2 307.04 515.517 287.04 517.033 281.24C518.55 275.44 526.667 236.8 526.667 236.8L546.183 234.6C546.183 234.6 541.183 334.38 534.117 339.76C527.05 345.14 515.783 347.86 515.05 347.56C514.317 347.26 465.133 351.36 439.217 326.86C413.3 302.36 457.933 292.82 457.933 292.82Z" fill="#FFBF9D"/>
<g opacity="0.3">
<path d="M424.833 345.64C429.79 352.373 436.404 357.038 443.717 358.96C455.967 362.2 482.05 367.94 482.05 367.94L480.783 352.58L424.117 345.3" fill="black"/>
</g>
<path d="M404.267 324.52C408.467 335.16 417.8 346.52 438.317 349.1C478.933 354.14 509.683 356.82 522.967 354.42C536.25 352.02 541.533 318.28 542.967 317.24C547.1 314.12 546.833 303.4 543.267 300.2C533.133 291.1 512.817 284.2 511.45 284.94C503.367 289.76 506 301.04 506 301.04L454.5 287.4C448.568 284.439 442.38 282.279 436.05 280.96" fill="#116A81"/>
<path d="M436.05 280.96C436.05 280.96 436.483 280.96 437.317 281.16C438.15 281.36 439.4 281.6 441 282.02C445.645 283.284 450.194 285.01 454.6 287.18L506.067 300.62L505.633 301.18C504.871 297.636 505.106 293.888 506.3 290.52C506.958 288.795 507.953 287.286 509.2 286.12C509.832 285.529 510.507 285.007 511.217 284.56C511.46 284.473 511.712 284.426 511.967 284.42H512.583C513 284.42 513.367 284.58 513.767 284.66C520.1 286.457 526.277 288.968 532.217 292.16C535.347 293.796 538.372 295.708 541.267 297.88C541.983 298.44 542.7 299.06 543.417 299.66C544.158 300.336 544.762 301.204 545.183 302.2C545.996 304.164 546.418 306.327 546.417 308.52C546.459 310.739 546.047 312.937 545.217 314.92C544.756 315.943 544.106 316.826 543.317 317.5C543.117 317.62 542.983 318.14 542.817 318.62L542.383 320.12C541.283 324.12 540.183 328.4 538.85 332.52C537.104 338.428 534.546 343.944 531.283 348.84C530.101 350.701 528.592 352.227 526.864 353.312C525.137 354.397 523.231 355.015 521.283 355.12C520.033 355.34 518.783 355.38 517.55 355.5C512.55 355.86 507.75 355.78 503 355.62C498.25 355.46 493.6 355.16 489.083 354.82C470.967 353.42 454.717 351.44 441.083 349.74C437.826 349.398 434.588 348.837 431.383 348.06C428.539 347.33 425.751 346.313 423.05 345.02C418.672 342.98 414.661 339.952 411.233 336.1C409.093 333.642 407.253 330.835 405.767 327.76C405.234 326.705 404.772 325.602 404.383 324.46C404.383 324.46 404.85 325.6 405.917 327.66C407.457 330.658 409.323 333.395 411.467 335.8C414.891 339.568 418.885 342.514 423.233 344.48C425.939 345.733 428.726 346.716 431.567 347.42C434.763 348.155 437.99 348.683 441.233 349C454.867 350.62 471.117 352.52 489.2 353.88C493.733 354.2 498.367 354.48 503.1 354.62C507.833 354.76 512.683 354.84 517.583 354.5C518.8 354.36 520.05 354.32 521.267 354.1C522.481 354.023 523.681 353.747 524.833 353.28C527.136 352.214 529.169 350.45 530.733 348.16C533.926 343.359 536.427 337.951 538.133 332.16C539.467 328.16 540.55 323.94 541.65 319.82L542.117 318.26C542.117 318.02 542.283 317.76 542.383 317.48C542.444 317.326 542.517 317.178 542.6 317.04C542.664 316.944 542.736 316.856 542.817 316.78L542.933 316.66C543.625 316.085 544.196 315.325 544.6 314.44C545.379 312.582 545.757 310.519 545.7 308.44C545.705 306.417 545.323 304.419 544.583 302.6C544.219 301.741 543.701 300.99 543.067 300.4C542.35 299.82 541.667 299.2 540.95 298.66C538.096 296.504 535.11 294.612 532.017 293C526.143 289.823 520.033 287.318 513.767 285.52C513.383 285.52 513 285.32 512.633 285.28H512.083H511.717C511.06 285.701 510.436 286.189 509.85 286.74C508.689 287.791 507.757 289.163 507.133 290.74C506.029 293.904 505.801 297.409 506.483 300.74L506.633 301.44L506.05 301.28L454.667 287.48C450.301 285.276 445.798 283.484 441.2 282.12C439.533 281.66 438.383 281.34 437.55 281.14C436.717 280.94 436.05 280.96 436.05 280.96Z" fill="#116A81"/>
<path d="M522.967 320.34C521.782 319.988 520.656 319.4 519.633 318.6C517.078 316.889 514.724 314.777 512.633 312.32C510.533 309.872 508.696 307.117 507.167 304.12C506.471 302.892 505.937 301.543 505.583 300.12C507.868 304.16 510.427 307.966 513.233 311.5C516.251 314.79 519.509 317.748 522.967 320.34Z" fill="#263238"/>
<path d="M160.367 485.06C160.367 485.06 170.7 485.72 177.033 490.54C183.367 495.36 193.7 502.8 197.95 512.08C199.9 516.34 194.35 517.24 191.617 514.76C188.883 512.28 184.667 507.64 182.583 507.06L180.5 506.5C182.4 511.661 184.519 516.701 186.85 521.6C189 525.6 190.867 532.24 184.417 532.56C184.417 532.56 180.05 539.36 175.65 534.32C175.65 534.32 172.217 540.48 166.683 531.94C166.683 531.94 163.467 536.82 162.117 534.96C160.767 533.1 156.367 530.12 155.083 524C153.168 516.872 150.943 509.869 148.417 503.02L160.367 485.06Z" fill="#FFBF9D"/>
<path d="M72.4334 322C67.1366 324.047 62.565 328.167 59.4501 333.7C55.4834 341.02 54.2668 353.7 55.4001 363.14C57.8001 383.04 65.4001 416.62 69.6834 438.18C71.1501 445.62 74.1668 458.94 83.0168 466L146.167 511.44L163.05 481.44L105.483 425.14L94.1001 347.98L72.4334 322Z" fill="#116A81"/>
<path d="M61.5166 397.84C61.6032 398.092 61.6701 398.353 61.7166 398.62L62.2499 400.96C62.6999 403.08 63.3333 406.12 64.1666 410.02C65.8333 418.02 68.1999 429.38 71.1499 443.52C72.8626 451.222 76.4904 458.115 81.5499 463.28C84.4401 466.057 87.53 468.52 90.7833 470.64L100.933 478L146.417 510.96L145.833 511.12L151.917 500.3L162.717 481.04L162.8 481.74L105.75 425.36H105.65V425.22C101.883 406.2 99.1499 390.62 97.4166 379.78C96.5666 374.36 95.9666 370.14 95.5833 367.26C95.4166 365.86 95.2833 364.76 95.1833 363.98C95.0833 363.2 95.0666 362.86 95.0666 362.86C95.1571 363.221 95.2295 363.589 95.2833 363.96C95.3999 364.74 95.5666 365.82 95.7666 367.22C96.2166 370.08 96.8666 374.3 97.7999 379.7C99.6166 390.5 102.45 406.04 106.3 425.04L106.183 424.82L163.333 480.94L163.633 481.24L163.417 481.62L152.617 500.88L146.533 511.7L146.317 512.1L145.95 511.86L100.533 478.8L90.3999 471.42C87.1251 469.278 84.0132 466.795 81.0999 464C75.9529 458.71 72.2822 451.653 70.5833 443.78C67.7333 429.6 65.4499 418.14 63.9166 410.2C63.1666 406.2 62.5666 403.22 62.1499 401.1L61.6666 398.64C61.601 398.378 61.5509 398.111 61.5166 397.84Z" fill="#116A81"/>
<path d="M62.55 332.66C62.9421 332.351 63.3766 332.128 63.8334 332C65.0431 331.552 66.2802 331.217 67.5334 331C71.7137 330.227 75.9913 330.921 79.8501 333C83.5795 335.333 86.7473 338.777 89.0501 343C89.7483 344.276 90.3083 345.654 90.7167 347.1C90.8957 347.615 90.9972 348.163 91.0167 348.72C90.2964 346.884 89.4665 345.113 88.5334 343.42C86.161 339.479 83.0569 336.254 79.4667 334C75.743 332.02 71.6481 331.261 67.6 331.8C64.4834 332.1 62.6 332.84 62.55 332.66Z" fill="#263238"/>
</svg>
