<svg width="151" height="221" viewBox="0 0 151 221" fill="none" xmlns="http://www.w3.org/2000/svg">
<path d="M120.283 150.66L107.117 147.38L123.783 51.16C124.403 46.1149 123.48 40.971 121.183 36.68C100.2 1.81998 66.0665 15.98 60.8332 46.1L45.8332 132.1L32.6665 128.8L49.4832 31.96C50.3496 26.9502 52.1349 22.2348 54.7092 18.1562C57.2836 14.0775 60.5825 10.738 64.3665 8.38C106.767 -17.84 142.35 22.92 135.1 64.7L120.283 150.66Z" fill="#E0E0E0"/>
<path d="M120.283 150.66C120.283 150.66 120.367 150.06 120.567 148.94C120.767 147.82 121.033 146.12 121.4 143.94L124.733 124.8C126.167 116.5 127.9 106.36 129.917 94.5801L133.25 75.7401C134.283 69.0601 136 62.0601 136.067 54.5001C136.167 46.5857 134.765 38.7478 131.967 31.5801C131.6 30.6601 131.25 29.7001 130.867 28.7801L129.533 26.0801C128.625 24.2711 127.629 22.5281 126.55 20.8601C126.017 19.9801 125.383 19.2201 124.8 18.4001C124.217 17.5801 123.65 16.7401 122.967 16.0201C121.671 14.4703 120.29 13.0271 118.833 11.7001C115.877 8.92336 112.64 6.60509 109.2 4.80007L106.517 3.60008L105 3.00007L103.6 2.56007L100.783 1.68007C99.8167 1.42007 98.85 1.30007 97.8833 1.10007C89.8439 -0.336386 81.63 0.923395 74.15 4.74007C68.2118 7.76788 62.8972 12.3173 58.5786 18.0697C54.2601 23.822 51.042 30.638 49.15 38.0401C47.9334 43.1401 47.15 48.4801 46.2 53.8001C42.5 75.1401 38.6501 97.2401 34.7334 119.8C34.2001 122.82 33.6834 125.8 33.1667 128.82L32.9167 128.36L46.0834 131.66L45.7167 131.96C48.6834 114.86 51.6001 98.1201 54.4167 81.9601C55.8279 73.8401 57.2222 65.8401 58.6 57.9601L60.6334 46.2401C61.3473 42.3689 62.5145 38.6385 64.1001 35.1601C67.3126 28.447 72.1482 23.0628 77.9668 19.7201C78.6834 19.3401 79.3667 18.8801 80.1167 18.5801L82.3167 17.6601C83.7912 17.1281 85.2949 16.7204 86.8167 16.4401C88.3284 16.1644 89.8544 16.0174 91.3834 16.0001C92.1334 16.0001 92.9 16.0001 93.65 16.1201H94.7667L95.8834 16.3401C98.8167 16.8198 101.679 17.7962 104.383 19.2401C106.997 20.6844 109.445 22.5262 111.667 24.7201C115.915 29.0243 119.151 34.589 121.05 40.8601C122.885 46.7291 123.419 53.0691 122.6 59.2601L122.3 61.4801C122.183 62.2001 122.05 62.9201 121.933 63.6401L121.183 67.9201C120.683 70.7401 120.2 73.5001 119.733 76.2201C117.833 87.0601 116.083 97.0401 114.517 106.02C111.35 124.02 108.883 138.02 107.25 147.4L107.167 147.26L117.167 149.8L119.6 150.44L120.4 150.66L119.617 150.48L117.2 149.92L107.2 147.48V147.36L114.3 105.96C115.85 96.9601 117.633 86.9801 119.45 76.1201C119.917 73.4201 120.4 70.6401 120.883 67.8201C121.117 66.4201 121.367 64.9801 121.617 63.5601C121.75 62.8401 121.867 62.1201 122 61.3801C122.133 60.6401 122.183 59.9201 122.283 59.2001C123.082 53.1009 122.548 46.8574 120.733 41.0801C118.853 34.9121 115.658 29.4436 111.467 25.2201C109.269 23.0635 106.849 21.2553 104.267 19.8401C101.612 18.4359 98.8072 17.4802 95.9334 17.0001L94.8334 16.8001H93.7167C92.9833 16.8001 92.2501 16.6801 91.5001 16.8001C88.4838 16.8409 85.4875 17.393 82.6 18.4401L80.4334 19.3601C79.7158 19.6839 79.0146 20.0579 78.3334 20.4801C72.6173 23.7596 67.8724 29.0558 64.7334 35.6601C63.191 39.0678 62.0682 42.7259 61.4001 46.5201C60.7334 50.4001 60.0556 54.3067 59.3667 58.2401C58 66.1201 56.6111 74.1201 55.2 82.2401L46.5167 132.24V132.62H46.2L33.0334 129.32H32.7334V128.94C33.2501 125.96 33.7667 122.94 34.3001 119.92C38.2334 97.3001 42.0667 75.2001 45.7833 53.9201C46.7333 48.5801 47.45 43.2801 48.75 38.0801C50.1037 32.9972 52.0389 28.1644 54.5001 23.7201C59.3765 15.1254 66.2171 8.40288 74.2001 4.36007C81.777 0.505556 90.0943 -0.761074 98.2334 0.700066C99.2167 0.900066 100.2 1.04007 101.167 1.28007L104.5 2.32007L106.283 3.00007L108.95 4.20007L110.183 4.82008C113.444 6.59339 116.516 8.82933 119.333 11.4801C120.794 12.8383 122.186 14.3009 123.5 15.8601C124.026 16.5467 124.526 17.2607 125 18.0001C125.583 18.8401 126.233 19.6001 126.75 20.4801C127.848 22.1731 128.861 23.9429 129.783 25.7801L131.117 28.5001C131.517 29.4401 131.85 30.5001 132.233 31.3401C135.044 38.5942 136.44 46.5215 136.317 54.5201C136.317 62.1601 134.5 69.1801 133.45 75.8801C132.4 82.5801 131.167 88.8801 130.117 94.7801C128.05 106.56 126.25 116.78 124.8 125C123.35 133.22 122.2 139.7 121.467 144.06L120.583 149C120.4 150.12 120.283 150.66 120.283 150.66Z" fill="#263238"/>
<path d="M26.9851 68.895L144.609 98.3053C146.227 98.71 147.645 99.8696 148.551 101.529C149.457 103.188 149.777 105.212 149.44 107.154L130.857 214.175C130.55 215.941 129.672 217.488 128.415 218.476C127.157 219.465 125.625 219.813 124.153 219.445L5.97481 189.896L26.9851 68.895Z" fill="#455A64"/>
<g opacity="0.3">
<path d="M27.0464 69.0088L144.05 98.2641C145.833 98.7099 147.395 99.9873 148.393 101.815C149.391 103.643 149.743 105.872 149.372 108.012L131.047 213.545C130.706 215.508 129.73 217.228 128.332 218.327C126.934 219.426 125.23 219.813 123.595 219.404L6.03609 190.01L27.0464 69.0088Z" fill="black"/>
</g>
<path d="M27.9874 69.15L129.442 94.5174C131.199 94.9567 132.738 96.2155 133.722 98.0169C134.705 99.8183 135.052 102.015 134.686 104.123L116.745 207.444C116.295 210.04 115.003 212.316 113.154 213.769C111.305 215.222 109.051 215.735 106.888 215.194L7.26056 190.283C6.36064 190.058 5.50642 189.623 4.74675 189.002C3.98709 188.381 3.33686 187.586 2.83311 186.663C2.32936 185.741 1.98196 184.708 1.81081 183.624C1.63967 182.54 1.6481 181.426 1.83561 180.347L20.0479 75.4593C20.4116 73.3645 21.4496 71.5266 22.9363 70.3452C24.423 69.1637 26.2382 68.7342 27.9874 69.15Z" fill="#116A81"/>
<g opacity="0.3">
<path d="M86.0165 135.72C86.4097 133.458 86.4206 131.125 86.0485 128.858C85.6764 126.592 84.9289 124.438 83.8502 122.524C82.7716 120.61 81.3838 118.976 79.769 117.718C78.1543 116.46 76.3454 115.604 74.4498 115.2C70.7923 114.477 67.0427 115.454 63.9647 117.932C60.8866 120.411 58.7117 124.204 57.8831 128.54C57.2263 132.227 57.5963 136.071 58.9361 139.482C60.2759 142.893 62.5116 145.681 65.2998 147.42L52.0498 168.44L76.2332 175.04L72.8998 149.34C76.026 149.102 79.0011 147.641 81.3699 145.181C83.7387 142.721 85.3708 139.398 86.0165 135.72Z" fill="black"/>
</g>
<path d="M117.15 205.9C116.983 205.9 120.583 184.78 125.183 158.82C129.783 132.86 133.667 111.82 133.833 111.86C134 111.9 130.4 133 125.8 159C121.2 185 117.317 205.94 117.15 205.9Z" fill="#116A81"/>
<path d="M108.95 93.2799C108.95 93.4799 93.3999 90.0199 74.2999 85.5599C55.1999 81.0999 39.7165 77.3199 39.7498 77.1199C39.7831 76.9199 55.2999 80.3599 74.4166 84.8199C93.5332 89.2799 108.983 92.9999 108.95 93.2799Z" fill="white"/>
<path d="M55.8333 137.66C55.8333 137.66 55.6334 137.26 55.4334 136.46C55.147 135.335 54.9681 134.174 54.9 133C54.6365 129.081 55.3625 125.157 56.9833 121.74C58.6321 118.344 61.0864 115.615 64.0333 113.9C64.92 113.391 65.8469 112.989 66.8 112.7C67.1451 112.571 67.5053 112.51 67.8666 112.52C67.8666 112.66 66.3833 113.02 64.2333 114.38C61.4369 116.148 59.1169 118.833 57.5441 122.123C55.9712 125.412 55.2103 129.171 55.35 132.96C55.4334 135.88 55.95 137.62 55.8333 137.66Z" fill="white"/>
<path d="M59.9999 147C59.8832 147.16 59.1166 146.54 58.3332 145.62C57.5499 144.7 56.9499 143.84 57.0665 143.62C57.1832 143.4 57.9499 144.1 58.7332 145C59.5165 145.9 60.1166 147 59.9999 147Z" fill="white"/>
<path d="M95.5834 4.48003C95.5834 4.48003 94.7168 4.48004 93.1501 4.28004C90.9283 4.11335 88.699 4.16016 86.4834 4.42004C79.1901 5.21115 72.2339 8.47134 66.4243 13.8212C60.6148 19.1711 56.1906 26.3908 53.6668 34.64C52.8933 37.1248 52.2858 39.6796 51.8501 42.28C51.5501 44.12 51.4168 45.16 51.3668 45.16C51.3416 44.9076 51.3416 44.6525 51.3668 44.4C51.3668 43.9 51.3668 43.16 51.5834 42.22C51.9389 39.5774 52.4969 36.9797 53.2501 34.46C55.7008 26.029 60.1526 18.6421 66.0574 13.2087C71.9623 7.77526 79.0624 4.53264 86.4834 3.88004C88.7038 3.66538 90.9361 3.70555 93.1501 4.00004C93.9334 4.00004 94.5334 4.24004 94.95 4.30004C95.1672 4.32344 95.3805 4.38405 95.5834 4.48003Z" fill="white"/>
<path d="M48.5834 58.08C48.5416 56.5638 48.7105 55.0497 49.0834 53.6001C49.2489 52.1035 49.6206 50.6503 50.1833 49.3C50.235 50.8089 50.0716 52.3172 49.7 53.76C49.5351 55.2657 49.1575 56.7267 48.5834 58.08Z" fill="white"/>
</svg>
