<svg width="7" height="14" viewBox="0 0 7 14" fill="none" xmlns="http://www.w3.org/2000/svg">
<path d="M0.658924 1.3772L5.83542 6.99995L0.658924 12.6227C0.566251 12.7232 0.514368 12.858 0.514368 12.9984C0.514368 13.1389 0.566251 13.2737 0.658924 13.3742C0.703936 13.4228 0.757662 13.4615 0.816956 13.4879C0.876251 13.5142 0.939921 13.5278 1.00424 13.5278C1.06855 13.5278 1.13222 13.5142 1.19152 13.4879C1.25081 13.4615 1.30454 13.4228 1.34955 13.3742L6.85755 7.39257C6.95425 7.28753 7.00837 7.14664 7.00837 6.99995C7.00837 6.85325 6.95425 6.71237 6.85755 6.60732L1.35061 0.625695C1.30557 0.576709 1.25171 0.537774 1.19222 0.511189C1.13273 0.484604 1.06881 0.470907 1.00424 0.470907C0.939665 0.470907 0.875746 0.484604 0.816256 0.511189C0.756765 0.537774 0.702907 0.576709 0.657862 0.625695C0.565188 0.726155 0.513306 0.861015 0.513306 1.00145C0.513306 1.14188 0.565188 1.27674 0.657862 1.3772H0.658924Z" fill="#0082AE"/>
</svg>
