<svg width="26" height="34" viewBox="0 0 26 34" fill="none" xmlns="http://www.w3.org/2000/svg">
<path d="M8.82226 15.3793V18.6415H6.07234V15.3793H8.82226ZM14.3221 15.3793V18.6415H11.5722V15.3793H14.3221ZM19.8219 15.3793V18.6415H17.072V15.3793H19.8219ZM22.5718 3.96146C23.3012 3.96146 24.0006 4.30516 24.5163 4.91695C25.032 5.52874 25.3218 6.3585 25.3218 7.2237V30.0594C25.3218 30.9246 25.032 31.7544 24.5163 32.3661C24.0006 32.9779 23.3012 33.3216 22.5718 33.3216H3.32243C2.5931 33.3216 1.89365 32.9779 1.37794 32.3661C0.862232 31.7544 0.57251 30.9246 0.57251 30.0594V7.2237C0.57251 6.3585 0.862232 5.52874 1.37794 4.91695C1.89365 4.30516 2.5931 3.96146 3.32243 3.96146H4.69739V0.699219H7.4473V3.96146H18.447V0.699219H21.1969V3.96146H22.5718ZM22.5718 30.0594V12.1171H3.32243V30.0594H22.5718ZM8.82226 21.9038V25.166H6.07234V21.9038H8.82226ZM14.3221 21.9038V25.166H11.5722V21.9038H14.3221ZM19.8219 21.9038V25.166H17.072V21.9038H19.8219Z" fill="#157F99"/>
</svg>
