<svg width="23" height="35" viewBox="0 0 23 35" fill="none" xmlns="http://www.w3.org/2000/svg">
<path d="M11.6296 0.446777C8.62218 0.450986 5.739 1.8701 3.61247 4.39282C1.48594 6.91553 0.289693 10.3359 0.286145 13.9035C0.282543 16.819 1.08532 19.6554 2.57133 21.9776C2.57133 21.9776 2.88069 22.4608 2.93122 22.5305L11.6296 34.7003L20.332 22.5244C20.3774 22.4596 20.6878 21.9776 20.6878 21.9776L20.6888 21.9739C22.1741 19.6528 22.9765 16.8177 22.973 13.9035C22.9694 10.3359 21.7732 6.91553 19.6466 4.39282C17.5201 1.8701 14.6369 0.450986 11.6296 0.446777V0.446777ZM11.6296 18.7969C10.8137 18.7969 10.0162 18.5099 9.33789 17.9722C8.65956 17.4345 8.13087 16.6703 7.81866 15.7761C7.50646 14.882 7.42478 13.8981 7.58394 12.9489C7.74309 11.9997 8.13595 11.1277 8.71282 10.4434C9.2897 9.75905 10.0247 9.293 10.8248 9.10419C11.625 8.91538 12.4544 9.01228 13.2081 9.38265C13.9618 9.75301 14.606 10.3802 15.0593 11.1849C15.5125 11.9896 15.7544 12.9357 15.7544 13.9035C15.7531 15.2008 15.318 16.4445 14.5448 17.3619C13.7715 18.2792 12.7231 18.7953 11.6296 18.7969V18.7969Z" fill="#157F99"/>
</svg>
