<svg width="22" height="36" viewBox="0 0 22 36" fill="none" xmlns="http://www.w3.org/2000/svg">
<path d="M10.8031 0.573598C9.89547 0.547849 8.99263 0.737693 8.14773 1.13196C7.30282 1.52623 6.53291 2.11696 5.88328 2.86941C5.23366 3.62186 4.71743 4.52082 4.36498 5.51343C4.01253 6.50603 3.83096 7.57223 3.83096 8.6493C3.83096 9.72638 4.01253 10.7926 4.36498 11.7852C4.71743 12.7778 5.23366 13.6767 5.88328 14.4292C6.53291 15.1816 7.30282 15.7724 8.14773 16.1666C8.99263 16.5609 9.89547 16.7508 10.8031 16.725C11.7108 16.7508 12.6136 16.5609 13.4585 16.1666C14.3034 15.7724 15.0734 15.1816 15.723 14.4292C16.3726 13.6767 16.8888 12.7778 17.2413 11.7852C17.5937 10.7926 17.7753 9.72638 17.7753 8.6493C17.7753 7.57223 17.5937 6.50603 17.2413 5.51343C16.8888 4.52082 16.3726 3.62186 15.723 2.86941C15.0734 2.11696 14.3034 1.52623 13.4585 1.13196C12.6136 0.737693 11.7108 0.547849 10.8031 0.573598V0.573598ZM6.91094 21.3377C5.10446 21.3377 3.37197 22.189 2.0946 23.7044C0.81723 25.2197 0.0996094 27.275 0.0996094 29.418V35.1828H21.5067V29.418C21.5067 27.275 20.789 25.2197 19.5117 23.7044C18.2343 22.189 16.5018 21.3377 14.6953 21.3377H6.91094Z" fill="#157F99"/>
</svg>
