<svg width="34" height="30" viewBox="0 0 34 30" fill="none" xmlns="http://www.w3.org/2000/svg">
<path d="M30.3571 0H3.64286C1.6317 0 0 1.43973 0 3.21429V26.7857C0 28.5603 1.6317 30 3.64286 30H30.3571C32.3683 30 34 28.5603 34 26.7857V3.21429C34 1.43973 32.3683 0 30.3571 0ZM26.646 10.6339C26.6612 10.8214 26.6612 11.0156 26.6612 11.2031C26.6612 17.0089 21.6522 23.6987 12.4996 23.6987C9.67634 23.6987 7.05804 22.9754 4.85714 21.7299C5.25938 21.7701 5.64643 21.7835 6.05625 21.7835C8.38616 21.7835 10.5263 21.0871 12.2339 19.9085C10.0482 19.8683 8.21161 18.6027 7.5817 16.8616C8.34821 16.9621 9.03884 16.9621 9.82813 16.7812C7.55134 16.3728 5.84375 14.6049 5.84375 12.4687V12.4152C6.50402 12.7433 7.27813 12.9442 8.09018 12.971C7.40747 12.5703 6.8478 12.0267 6.46112 11.3887C6.07443 10.7507 5.87276 10.0382 5.87411 9.31473C5.87411 8.49777 6.11696 7.74777 6.54955 7.09821C9.00089 9.76339 12.6817 11.5045 16.8103 11.692C16.1045 8.71205 18.6317 6.29464 21.6674 6.29464C23.1018 6.29464 24.392 6.82366 25.3027 7.6808C26.4259 7.4933 27.5036 7.125 28.4598 6.62277C28.0879 7.64062 27.3063 8.49777 26.2741 9.04018C27.2759 8.94643 28.2473 8.69866 29.1429 8.35714C28.4674 9.23437 27.6174 10.0112 26.646 10.6339Z" fill="black"/>
</svg>
