<svg width="21" height="18" viewBox="0 0 21 18" fill="none" xmlns="http://www.w3.org/2000/svg">
<path d="M20.3213 6.33831L14.0259 5.51709L11.2117 0.396152C11.1348 0.255944 11.0083 0.142442 10.8521 0.0734507C10.4604 -0.100141 9.98432 0.0445188 9.78844 0.396152L6.97423 5.51709L0.678842 6.33831C0.505279 6.36057 0.346592 6.43401 0.225098 6.54529C0.0782178 6.68079 -0.00271976 6.86309 6.97872e-05 7.05213C0.00285933 7.24117 0.0891477 7.42149 0.239975 7.55345L4.79477 11.5394L3.71868 17.1677C3.69345 17.2987 3.70959 17.4333 3.76528 17.5564C3.82096 17.6795 3.91397 17.7862 4.03374 17.8643C4.15352 17.9424 4.29528 17.9887 4.44294 17.9982C4.59059 18.0077 4.73825 17.9798 4.86916 17.9177L10.5001 15.2605L16.1309 17.9177C16.2847 17.9912 16.4632 18.0157 16.6343 17.989C17.0657 17.9222 17.3558 17.555 17.2814 17.1677L16.2053 11.5394L20.7601 7.55345C20.8841 7.4444 20.9659 7.30197 20.9907 7.14618C21.0577 6.75671 20.7552 6.39618 20.3213 6.33831Z" fill="#FED046"/>
</svg>
