<svg width="379" height="299" viewBox="0 0 379 299" fill="none" xmlns="http://www.w3.org/2000/svg">
<path opacity="0.4" d="M365.935 241.118L285.952 281.292C281.862 283.347 277.255 284.662 272.456 285.146C267.658 285.629 262.785 285.269 258.181 284.09L170.507 261.644C165.874 260.457 160.969 260.1 156.142 260.597C151.315 261.094 146.686 262.433 142.583 264.519L78.3952 297.154C76.426 298.145 74.1937 298.757 71.876 298.941C69.5582 299.125 67.2184 298.877 65.0419 298.215C62.8659 297.553 60.9129 296.497 59.3387 295.129C57.7645 293.762 56.6127 292.12 55.9731 290.336L0.574165 135.648C-0.314007 133.168 -0.169363 130.524 0.985435 128.115C2.14023 125.705 4.2442 123.658 6.98133 122.28L87.8172 81.5888C92.2987 79.3329 97.3477 77.8875 102.607 77.3559C107.866 76.8238 113.208 77.2176 118.256 78.5098L203.131 100.24C208.197 101.537 213.559 101.929 218.837 101.389C224.114 100.848 229.177 99.3886 233.666 97.1137L294.449 66.3051C296.418 65.3071 298.652 64.6894 300.973 64.5002C303.295 64.3114 305.639 64.5571 307.821 65.2169C310.002 65.8771 311.96 66.9338 313.538 68.3029C315.117 69.6719 316.272 71.3158 316.912 73.1031L372.302 227.77C373.189 230.245 373.048 232.88 371.9 235.286C370.753 237.691 368.661 239.737 365.935 241.118Z" fill="#CCCDCF"/>
<path d="M369.058 224.701L300.759 259.319C296.27 261.595 291.206 263.054 285.929 263.595C280.651 264.135 275.289 263.743 270.224 262.446L185.342 240.715C180.295 239.424 174.953 239.029 169.693 239.561C164.434 240.094 159.385 241.538 154.904 243.794L81.5154 280.738C79.5462 281.729 77.3139 282.341 74.9962 282.525C72.6779 282.709 70.3381 282.46 68.1621 281.798C65.9855 281.137 64.0331 280.08 62.4589 278.712C60.8847 277.345 59.7323 275.704 59.0933 273.92L3.69494 119.231C2.80619 116.751 2.95025 114.108 4.10563 111.698C5.26043 109.288 7.36381 107.242 10.1015 105.863L90.9333 65.1703C95.4148 62.9148 100.463 61.4699 105.723 60.9378C110.983 60.4057 116.324 60.7999 121.372 62.0917L206.253 83.8227C211.318 85.1196 216.68 85.5119 221.958 84.9715C227.235 84.4311 232.298 82.971 236.788 80.6956L297.57 49.8874C299.539 48.8899 301.773 48.2718 304.094 48.083C306.416 47.8942 308.761 48.1395 310.942 48.7997C313.123 49.4599 315.081 50.5167 316.66 51.8857C318.238 53.2547 319.393 54.8981 320.033 56.6854L375.424 211.352C376.31 213.826 376.17 216.463 375.022 218.868C373.875 221.274 371.783 223.32 369.058 224.701Z" fill="white"/>
<path d="M177.194 223.229L164.495 194.689L104.478 211.054L85.7116 167.746L36.8296 175.495L71.1017 271.19C71.2534 271.61 71.5728 271.978 72.0114 272.24C72.45 272.502 72.9838 272.643 73.5322 272.641C73.9975 272.64 74.4517 272.53 74.8398 272.326L144.612 237.204C144.309 236.921 177.194 223.229 177.194 223.229Z" fill="#EAF4F7"/>
<path d="M369.058 224.701L300.759 259.319C296.27 261.595 291.206 263.054 285.929 263.595C280.651 264.135 275.289 263.743 270.224 262.446L185.342 240.715C180.295 239.424 174.953 239.029 169.693 239.561C164.434 240.094 159.385 241.538 154.904 243.794L81.5154 280.738C79.5462 281.729 77.3139 282.341 74.9962 282.525C72.6779 282.709 70.3381 282.46 68.1621 281.798C65.9855 281.137 64.0331 280.08 62.4589 278.712C60.8847 277.345 59.7323 275.704 59.0933 273.92L3.69494 119.231C2.80619 116.751 2.95025 114.108 4.10563 111.698C5.26043 109.288 7.36381 107.242 10.1015 105.863L90.9333 65.1703C95.4148 62.9148 100.463 61.4699 105.723 60.9378C110.983 60.4057 116.324 60.7999 121.372 62.0917L206.253 83.8227C211.318 85.1196 216.68 85.5119 221.958 84.9715C227.235 84.4311 232.298 82.971 236.788 80.6956L297.57 49.8874C299.539 48.8899 301.773 48.2718 304.094 48.083C306.416 47.8942 308.761 48.1395 310.942 48.7997C313.123 49.4599 315.081 50.5167 316.66 51.8857C318.238 53.2547 319.393 54.8981 320.033 56.6854L375.424 211.352C376.31 213.826 376.17 216.463 375.022 218.868C373.875 221.274 371.783 223.32 369.058 224.701Z" stroke="#363A5A" stroke-width="6" stroke-miterlimit="10"/>
<path d="M114.2 205.486C114.2 205.486 115.241 205.27 116.995 204.862" stroke="#363A5A" stroke-width="4" stroke-linecap="round" stroke-linejoin="round"/>
<path d="M125.439 202.708C137.774 199.29 155.874 193.018 156.092 185.601C156.382 175.746 96.4161 126.441 128.655 123.461C236.286 113.511 188.06 184.811 237.148 183.217C257.885 182.544 219.535 159.835 278.787 143.42C287.57 140.986 283.206 123.194 280.26 113.891" stroke="#363A5A" stroke-width="4" stroke-linecap="round" stroke-linejoin="round" stroke-dasharray="10.18 15.26"/>
<path d="M279.122 110.477C278.632 109.082 278.309 108.257 278.309 108.257" stroke="#363A5A" stroke-width="4" stroke-linecap="round" stroke-linejoin="round"/>
<path opacity="0.22" d="M110.451 228.987C125.911 228.987 138.444 219.005 138.444 206.69C138.444 194.377 125.911 184.394 110.451 184.394C94.9897 184.394 82.4565 194.377 82.4565 206.69C82.4565 219.005 94.9897 228.987 110.451 228.987Z" fill="#3DC0CB"/>
<path d="M110.451 219.62C119.416 219.62 126.684 213.831 126.684 206.69C126.684 199.549 119.416 193.76 110.451 193.76C101.485 193.76 94.2173 199.549 94.2173 206.69C94.2173 213.831 101.485 219.62 110.451 219.62Z" fill="#3DC0CB"/>
<path d="M110.45 193.76C107.962 193.759 105.506 194.215 103.274 195.091C101.042 195.968 99.0935 197.242 97.5791 198.814C100.77 197.087 104.63 196.321 108.466 196.655C112.302 196.989 115.863 198.4 118.511 200.636C121.158 202.872 122.719 205.786 122.914 208.855C123.108 211.925 121.923 214.949 119.571 217.385C122.443 215.832 124.614 213.586 125.765 210.977C126.916 208.368 126.987 205.533 125.966 202.891C124.946 200.247 122.889 197.934 120.096 196.291C117.304 194.648 113.923 193.761 110.451 193.76H110.45Z" fill="#64C7CF"/>
<path d="M110.451 219.62C119.416 219.62 126.684 213.831 126.684 206.69C126.684 199.549 119.416 193.76 110.451 193.76C101.485 193.76 94.2173 199.549 94.2173 206.69C94.2173 213.831 101.485 219.62 110.451 219.62Z" stroke="#363A5A" stroke-width="6" stroke-miterlimit="10"/>
<path d="M117.848 91.3294L164.408 98.3588L153.715 83.3905L115.18 72.6821C112.951 72.063 110.591 71.7993 108.234 71.9066C105.878 72.014 103.57 72.4901 101.445 73.3076L16.7712 114.274C16.3164 114.504 15.9673 114.846 15.7745 115.247C15.5822 115.648 15.5572 116.088 15.703 116.502L29.3584 154.631L66.5867 147.299L59.7497 125.456L117.848 91.3294Z" fill="#87D5F7" stroke="#259AD6" stroke-width="4" stroke-linecap="round" stroke-linejoin="round"/>
<path d="M191.634 185.755L218.203 191.083L231.048 214.531L202.426 210.794L191.634 185.755Z" fill="#FDDCBF" stroke="#ECB072" stroke-width="4" stroke-linecap="round" stroke-linejoin="round"/>
<path d="M278.799 115.513C257.215 115.513 239.718 110.527 239.718 104.377C239.718 98.2266 257.215 93.2405 278.799 93.2405C300.383 93.2405 317.879 98.2266 317.879 104.377C317.879 110.527 300.382 115.513 278.799 115.513Z" fill="#EAF4F7"/>
<path d="M291.065 178.61L339.817 161.707L359.076 208.44L280.132 244.173L265.663 211.647L296.531 197.818L291.065 178.61Z" fill="#FDDCBF" stroke="#ECB072" stroke-width="4" stroke-linecap="round" stroke-linejoin="round"/>
<path d="M336.338 50.0783C336.338 23.3361 309.087 1.80168 276.065 3.05181C246.498 4.17147 221.292 24.2337 221.292 48.4506C221.292 83.4825 278.8 110.494 278.8 110.494C278.8 110.494 336.338 83.4825 336.338 50.0783Z" fill="#EE4637"/>
<path d="M299.803 96.9386C295.268 99.7562 289.677 101.279 283.926 101.264C278.175 101.248 272.597 99.6943 268.087 96.8516C251.067 86.1177 226.451 66.6287 226.451 43.7095C226.493 33.9782 230.534 24.5259 237.957 16.7961C227.749 25.0067 221.292 36.1958 221.292 48.4505C221.292 83.4824 278.8 110.494 278.8 110.494C278.8 110.494 302.252 99.4828 319.212 82.8268C313.226 87.936 306.735 92.6547 299.803 96.9386Z" fill="#CD3C27"/>
<path d="M276.065 3.05181C265.698 3.477 255.674 6.15261 247.079 10.789C253.848 8.18928 261.203 6.69671 268.708 6.4006C301.729 5.1514 328.981 26.6844 328.981 53.4271C328.981 79.6188 293.609 101.88 278.333 110.272C278.632 110.417 278.798 110.496 278.798 110.496C278.798 110.496 336.337 83.4825 336.337 50.0783C336.338 23.3361 309.087 1.80168 276.065 3.05181Z" fill="#F07378"/>
<path d="M278.799 68.0867C274.116 68.0867 269.539 66.981 265.646 64.9091C261.752 62.8368 258.718 59.892 256.926 56.4465C255.134 53.001 254.665 49.2094 255.578 45.5516C256.492 41.8937 258.747 38.5338 262.058 35.8966C265.369 33.2594 269.587 31.4638 274.179 30.736C278.771 30.0082 283.532 30.3816 287.858 31.8089C292.184 33.2363 295.881 35.6532 298.483 38.754C301.084 41.8548 302.473 45.5007 302.473 49.2302C302.473 54.2312 299.978 59.0272 295.539 62.5634C291.099 66.0996 285.078 68.0867 278.799 68.0867Z" fill="white"/>
<path d="M278.799 68.0867C274.116 68.0867 269.539 66.981 265.646 64.9091C261.752 62.8368 258.718 59.892 256.926 56.4465C255.134 53.001 254.665 49.2094 255.578 45.5516C256.492 41.8937 258.747 38.5338 262.058 35.8966C265.369 33.2594 269.587 31.4638 274.179 30.736C278.771 30.0082 283.532 30.3816 287.858 31.8089C292.184 33.2363 295.881 35.6532 298.483 38.754C301.084 41.8548 302.473 45.5007 302.473 49.2302C302.473 54.2312 299.978 59.0272 295.539 62.5634C291.099 66.0996 285.078 68.0867 278.799 68.0867Z" stroke="#363A5A" stroke-width="6" stroke-miterlimit="10"/>
<path d="M336.338 50.0783C336.338 23.3361 309.087 1.80168 276.065 3.05181C246.498 4.17147 221.292 24.2337 221.292 48.4506C221.292 83.4825 278.8 110.494 278.8 110.494C278.8 110.494 336.338 83.4825 336.338 50.0783Z" stroke="#363A5A" stroke-width="6" stroke-linecap="round" stroke-linejoin="round"/>
</svg>
