<svg width="496" height="450" viewBox="0 0 496 450" fill="none" xmlns="http://www.w3.org/2000/svg">
<g clip-path="url(#clip0_1594_95)">
<path fill-rule="evenodd" clip-rule="evenodd" d="M236.472 0.0029814C307.882 -0.252306 383.829 15.8226 426.543 73.05C468.092 128.715 454.759 203.206 438.56 270.752C422.665 337.03 400.65 408.462 339.089 437.715C277.785 466.845 208.64 438.849 147.699 408.965C87.4911 379.44 29.1074 340.594 9.97352 276.324C-10.5889 207.255 2.41217 130.136 48.0965 74.4029C93.1243 19.4704 165.443 0.256903 236.472 0.0029814Z" fill="#0082AE"/>
<mask id="mask0_1594_95" style="mask-type:luminance" maskUnits="userSpaceOnUse" x="20" y="44" width="66" height="80">
<path d="M85.6357 44H20.5V124H85.6357V44Z" fill="white"/>
</mask>
<g mask="url(#mask0_1594_95)">
<path d="M60.0685 75.6771C67.0414 72.7265 74.0143 69.7759 80.9871 66.8114C81.3907 67.6882 81.8083 68.5511 82.2119 69.428C75.7679 76.7209 64.3274 75.7467 56.9092 83.5685C66.6795 89.2888 76.1576 94.8281 85.6357 100.381C85.2878 101.063 84.9259 101.745 84.5779 102.413C74.2787 100.729 66.4569 93.2693 55.6844 88.1475C58.4958 100.465 60.9871 111.446 63.4923 122.427C62.9356 122.956 62.365 123.485 61.8083 124C60.1938 122.399 57.5772 121.022 57.1319 119.143C55.4896 112.267 54.5988 105.211 53.3601 98.238C52.9704 96.0668 52.372 93.9374 51.8709 91.794C51.175 91.6409 50.4791 91.4878 49.7832 91.3347C46.3455 100.298 42.9078 109.275 39.4005 118.461C35.253 114.327 36.937 108.05 47.1945 87.9944C37.9948 90.7919 29.6162 93.3528 21.2237 95.9137C20.9732 95.2317 20.7366 94.5358 20.5 93.8539C29.3796 90.2074 38.2731 86.5609 48.8507 82.2185C41.4603 77.1524 35.2669 72.8935 29.0734 68.6486C29.4214 68.064 29.7693 67.4795 30.1173 66.8949C36.0602 69.929 42.0031 72.9631 48.8368 76.4565C47.3198 65.364 45.8862 54.9255 44.4666 44.4732C45.3295 44.3201 46.2063 44.167 47.0692 44C49.0177 53.659 50.9523 63.318 52.9008 72.977C53.374 73.2276 53.8333 73.4642 54.3065 73.7147C58.4541 65.3083 62.6016 56.9019 66.763 48.4816C67.5285 48.8434 68.294 49.1914 69.0595 49.5532C65.6496 57.8205 62.2397 66.0877 58.8299 74.3549C58.7324 74.8977 58.635 75.4266 58.5376 75.9555C59.0386 75.858 59.5536 75.7606 60.0685 75.6771Z" fill="#91BAC8"/>
</g>
<mask id="mask1_1594_95" style="mask-type:luminance" maskUnits="userSpaceOnUse" x="328" y="27" width="37" height="35">
<path d="M364.66 27H328.5V62H364.66V27Z" fill="white"/>
</mask>
<g mask="url(#mask1_1594_95)">
<path d="M340.309 61.9998C336.249 54.707 331.967 47.7181 328.597 40.3147C327.961 38.9197 330.406 34.7899 332.381 33.7816C337.837 30.9777 343.735 28.8921 349.619 27.0965C351.083 26.6545 353.997 27.8838 354.909 29.2512C358.072 34.0026 360.627 39.1545 363.445 44.1407C365.53 47.8286 365.061 50.6324 360.917 52.4971C354.329 55.4529 347.782 58.5468 340.309 61.9998ZM342.381 56.7098C348.403 53.3672 353.638 50.4667 358.762 47.6352C351.967 31.9584 347.202 30.6048 333.818 40.1076C336.47 45.2319 339.149 50.4391 342.381 56.7098Z" fill="#91BAC8"/>
</g>
<mask id="mask2_1594_95" style="mask-type:luminance" maskUnits="userSpaceOnUse" x="281" y="371" width="215" height="68">
<path d="M495.33 371H281.5V438.48H495.33V371Z" fill="white"/>
</mask>
<g mask="url(#mask2_1594_95)">
<path d="M298.69 390.16C307.73 381.62 317.72 374.92 330.66 374.39C336.9 374.13 342.16 376.72 347.06 380.47C348.38 381.48 350.85 381.83 352.5 381.4C360.95 379.18 369.22 376.23 377.74 374.35C381.09 373.61 384.9 374.96 388.51 375.35C392.98 380.89 397.29 381.91 404.27 378.02C413.75 372.73 424.48 370.65 435.62 373.34C441.34 374.72 445.49 377.76 448.01 382.61C455.8 379.93 463.44 376.69 471.4 374.72C479.09 372.81 487.1 372.2 494.98 371.01C495.1 371.7 495.22 372.4 495.34 373.09C492.75 373.54 490.12 373.86 487.57 374.48C477.13 376.99 466.67 379.45 456.29 382.2C451.41 383.5 449.45 386.52 449.96 392.13C450.8 401.29 448.6 409.92 441.54 416.6C438.05 419.91 432.66 421.19 430.19 419.35C427.39 417.26 426.22 411.25 428.81 407.37C433.01 401.09 437.64 395.04 442.59 389.32C445.95 385.44 446.36 382.98 442.22 379.57C434.27 373.02 425.08 373.79 416.1 376.23C409.75 377.95 403.75 380.96 397.22 383.54C398.15 386.61 399.08 389.04 399.61 391.55C402.23 403.91 397 413.53 388.53 421.8C385.82 424.44 382.73 426.82 379.49 428.76C372.18 433.14 367.73 430.55 367.7 422.02C367.67 412.65 370.82 404.35 377.25 397.57C381.98 392.58 387.19 388.04 392.87 382.65C391.77 382.02 390.27 381.16 388.78 380.29C386.55 379.04 384.42 376.96 382.07 376.67C371.55 375.37 362.44 380.16 353.29 384.35C352.86 384.55 353.29 386.6 353.32 387.79C356.53 408.57 348.34 424.26 331.46 435.77C325.21 440.03 318.32 439.22 315.33 433.65C313.62 430.46 313.21 425.92 313.84 422.26C315.83 410.65 323.3 402.24 331.69 394.57C332.79 393.56 333.94 392.61 335.07 391.63C338.84 389.18 342.6 386.73 346.56 384.15C340.77 378.11 334.19 375.29 326.8 376.93C314.71 379.62 304.69 386.02 297.48 396.36C289.62 404.22 285.84 414.21 282.88 424.62C282.42 424.51 281.96 424.4 281.5 424.29C282.02 421.24 282.03 417.98 283.17 415.18C285.02 410.66 287.69 406.47 289.85 402.07C290.54 400.67 290.74 399.03 291.17 397.5C291.68 396.71 292.18 395.91 292.69 395.12C294.69 393.47 296.69 391.81 298.69 390.16ZM347.84 385.41C340.72 391.28 333.47 396.11 327.72 402.32C321.72 408.81 316.3 416.22 316.48 425.98C316.65 434.85 321.92 437.87 329.67 433.41C340.72 427.06 346.34 416.55 350.06 405.1C351.98 399.23 352.28 392.74 347.84 385.41ZM394.72 385.97C385.92 391.13 379.07 397.48 374.73 406.37C372.02 411.93 370.08 417.6 370.86 423.95C371.34 427.87 373.26 428.8 376.58 427.08C388.64 420.84 402.96 405.19 394.72 385.97ZM447.07 388.83C438.86 395.03 433.93 402.64 430.69 411.32C430.12 412.84 431.39 416.52 432.52 416.86C434.26 417.39 437.09 416.46 438.64 415.17C446.65 408.49 447.61 399.36 447.07 388.83Z" fill="#91BAC8"/>
</g>
<mask id="mask3_1594_95" style="mask-type:luminance" maskUnits="userSpaceOnUse" x="53" y="96" width="356" height="241">
<path d="M53 96H409V337H53V96Z" fill="white"/>
</mask>
<g mask="url(#mask3_1594_95)">
<path d="M337.538 266.912C338.587 266.913 339.593 267.514 340.335 268.582C341.077 269.649 341.494 271.097 341.495 272.607V285.93C341.494 287.44 341.077 288.888 340.335 289.955C339.593 291.023 338.587 291.624 337.538 291.625H332.52C331.471 291.624 330.465 291.023 329.723 289.955C328.981 288.888 328.564 287.44 328.563 285.93V272.607C328.564 271.097 328.981 269.649 329.723 268.582C330.465 267.514 331.471 266.913 332.52 266.912H337.538Z" fill="#3F3D56"/>
<path d="M244.765 292.068H249.784C250.915 292.067 251.999 291.419 252.798 290.269C253.598 289.118 254.047 287.558 254.049 285.93V272.607C254.047 270.979 253.598 269.419 252.798 268.268C251.999 267.118 250.915 266.47 249.784 266.469H244.765C243.635 266.47 242.551 267.118 241.751 268.268C240.952 269.419 240.502 270.979 240.501 272.607V285.93C240.502 287.558 240.952 289.118 241.751 290.269C242.551 291.419 243.635 292.067 244.765 292.068Z" fill="#3F3D56"/>
<path d="M248.095 281.401H334.516C338.449 281.401 341.649 278.064 341.649 273.962V250.043L337.359 243.541H244.418L240.962 250.057V273.962C240.962 278.064 244.162 281.401 248.095 281.401Z" fill="#CCCCCC"/>
<path d="M244.821 255.507H336.867L337.802 234.863L337.207 232.75L333.747 220.496H248.564L243.885 234.412L244.821 255.507Z" fill="#CCCCCC"/>
<path d="M244.042 234.456L244.728 249.967H264.979V238.444L244.617 232.745L244.042 234.456Z" fill="white"/>
<path d="M317.016 238.444V249.967H336.963L337.646 234.899L337.064 232.834L317.016 238.444Z" fill="white"/>
<path d="M249.077 224.041H333.234L324.258 180.978C323.892 179.199 323.138 177.637 322.108 176.523C321.078 175.409 319.826 174.801 318.537 174.79L262.802 174.026C261.456 174.007 260.143 174.637 259.075 175.816C258.006 176.996 257.242 178.656 256.904 180.532L249.077 224.041Z" fill="#CCCCCC"/>
<path d="M255.556 219.969L326.77 218.754C326.86 218.752 326.948 218.721 327.028 218.661C327.108 218.601 327.177 218.515 327.23 218.41C327.282 218.305 327.317 218.183 327.331 218.055C327.345 217.927 327.338 217.796 327.311 217.673L320.484 187.016C320.447 186.849 320.373 186.703 320.275 186.6C320.176 186.496 320.058 186.44 319.936 186.44H262.657C262.535 186.44 262.416 186.496 262.318 186.6C262.219 186.703 262.146 186.849 262.109 187.016L255.001 218.888C254.973 219.013 254.966 219.146 254.981 219.275C254.996 219.405 255.032 219.528 255.086 219.633C255.14 219.739 255.211 219.824 255.293 219.883C255.374 219.941 255.464 219.971 255.556 219.969Z" fill="white"/>
<path d="M281.558 179.281H300.753C300.915 179.281 301.062 179.052 301.136 178.683C301.21 178.305 301.2 177.903 301.105 177.534L299.523 171.773C299.442 171.479 299.31 171.304 299.17 171.304H283.141C283.001 171.304 282.87 171.479 282.789 171.773L281.206 177.534C281.112 177.903 281.101 178.305 281.176 178.683C281.25 179.052 281.397 179.281 281.558 179.281Z" fill="#6C63FF"/>
<path d="M333.182 223.155H345.806V219.161C345.805 217.87 345.448 216.632 344.814 215.719C344.18 214.806 343.32 214.293 342.423 214.292H333.182V223.155Z" fill="#CCCCCC"/>
<path d="M236.498 223.155H249.122V214.292H239.881C238.984 214.293 238.124 214.806 237.49 215.719C236.856 216.632 236.499 217.87 236.498 219.161V223.155Z" fill="#CCCCCC"/>
<path d="M347.283 285.412L409 317.323L408.738 318.372L347.021 286.462L347.283 285.412Z" fill="#3F3D56"/>
<path d="M235.41 285.415L235.672 286.464L173.953 318.367L173.691 317.317L235.41 285.415Z" fill="#3F3D56"/>
<path d="M287.722 308.552H291.417V301.684H287.722V308.552ZM287.722 294.816H291.417V287.949H287.722V294.816Z" fill="#E6E6E6"/>
<path d="M287.722 337H291.417V330.132H287.722V337ZM287.722 323.264H291.417V316.397H287.722V323.264Z" fill="#E6E6E6"/>
<path d="M125.404 313.277H129.473L131.409 290.69H125.404V313.277Z" fill="#FFB8B8"/>
<path d="M124.366 318.953H137.485V318.715C137.484 316.766 136.945 314.898 135.988 313.52C135.031 312.142 133.733 311.367 132.379 311.365H124.366V318.953Z" fill="#2F2E41"/>
<path d="M72.9376 302.18L76.4252 305.196L86.1671 287.27L81.02 282.819L72.9376 302.18Z" fill="#FFB8B8"/>
<path d="M81.262 316.002L81.3475 315.797C82.0434 314.125 82.2503 312.125 81.9227 310.234C81.5952 308.344 80.76 306.717 79.6003 305.712L72.7321 299.772L70.0168 306.277L81.262 316.002Z" fill="#2F2E41"/>
<path d="M124.347 308.616L124.417 308.615C126.396 308.606 128.373 308.442 130.34 308.124C131.09 308.018 131.903 307.902 132.883 307.786L132.917 307.777C133.585 307.491 133.604 298.468 133.32 267.579C133.175 251.758 133.011 233.826 133.207 222.407L133.208 222.295L133.15 222.221C125.892 213.135 116.571 209.729 106.905 212.631L106.833 212.652L106.796 212.743C102.797 222.481 96.7593 236.508 90.9206 250.073C77.5173 281.213 73.6839 290.372 74.1041 291.062L74.1548 291.119C75.07 291.778 75.7571 292.285 76.3414 292.716C78.2977 294.16 79.1074 294.757 83.4581 297.336L83.5655 297.399L83.6438 297.276C97.2435 275.827 108.561 251.867 115.561 229.718C116.379 237.28 117.372 247.154 118.421 257.586C121.438 287.586 123.477 307.341 124.297 308.544L124.347 308.616Z" fill="#2F2E41"/>
<path d="M103.224 126.625C101.854 118.486 100.694 109.305 103.277 101.809C105.069 96.6072 111.699 94.8556 115.5 96.7295C119.3 98.6033 122.048 103.687 123.257 109.231C124.465 114.774 124.325 120.747 123.798 126.509C116.808 126.316 109.818 126.123 103.224 126.625Z" fill="#2F2E41"/>
<path d="M115.019 126.623C110.518 126.623 106.868 121.37 106.868 114.891C106.868 108.412 110.518 103.159 115.019 103.159C119.521 103.159 123.17 108.412 123.17 114.891C123.17 121.37 119.521 126.623 115.019 126.623Z" fill="#FFB8B8"/>
<path d="M105.055 112.475C105.029 110.5 105.279 108.538 105.79 106.706C106.301 104.873 107.063 103.207 108.031 101.807C108.998 100.406 110.151 99.3 111.422 98.5537C112.692 97.8073 114.054 97.4362 115.426 97.4622C116.798 97.4882 118.152 97.9109 119.408 98.7052C120.664 99.4994 121.797 100.649 122.738 102.086C123.68 103.522 124.411 105.217 124.889 107.068C125.366 108.919 125.58 110.89 125.518 112.863C118.542 112.884 111.565 112.905 105.055 112.475Z" fill="#2F2E41"/>
<path d="M120.682 224.714C112.573 224.662 104.517 226.604 96.8618 230.454C96.5953 211.961 101.019 193.435 109.017 179.574L109.077 179.471L109.046 179.344C106.91 170.459 104.702 161.276 102.729 152.138L102.758 151.985C104.142 144.904 107.112 137.749 111.839 130.11C112.351 129.346 113.047 128.891 113.784 128.837C114.521 128.783 115.245 129.135 115.809 129.821C124.21 140.905 128.777 157.512 127.729 173.163L127.726 173.209L127.736 173.253C131.436 191.298 132.78 200.567 133.965 208.744C134.83 214.71 135.578 219.875 137.081 227.255C131.694 225.568 126.196 224.716 120.682 224.714Z" fill="#3F3D56"/>
<path opacity="0.1" d="M108.743 167.67L120.782 205.394L127.66 195.374L108.743 167.67Z" fill="black"/>
<path d="M135.766 188.624L134.926 190.971C134.919 190.993 134.917 191.018 134.922 191.041C134.928 191.065 134.939 191.084 134.954 191.095L134.994 191.125L130.622 203.354C130.501 203.692 130.478 204.086 130.559 204.448C130.639 204.811 130.817 205.112 131.052 205.286L136.361 209.219C136.477 209.305 136.604 209.357 136.735 209.373C136.865 209.388 136.997 209.367 137.121 209.309C137.246 209.252 137.361 209.16 137.461 209.038C137.561 208.916 137.643 208.767 137.703 208.6L141.923 196.8L141.952 196.821C141.963 196.829 141.975 196.831 141.986 196.826C141.998 196.82 142.007 196.809 142.013 196.794L142.491 195.458C142.493 195.45 142.495 195.442 142.495 195.433C142.496 195.425 142.495 195.416 142.493 195.408C142.492 195.4 142.489 195.392 142.485 195.386C142.481 195.379 142.476 195.374 142.471 195.37L142.442 195.348L142.622 194.845L142.651 194.867C142.662 194.875 142.675 194.877 142.687 194.871C142.699 194.865 142.709 194.853 142.715 194.837L143.186 193.519C143.192 193.503 143.193 193.485 143.189 193.468C143.185 193.45 143.177 193.436 143.166 193.428L143.136 193.406L143.382 192.719L143.412 192.741C143.422 192.749 143.433 192.75 143.444 192.745C143.454 192.74 143.463 192.73 143.468 192.716L143.725 191.996C143.731 191.982 143.732 191.965 143.728 191.95C143.725 191.935 143.717 191.922 143.707 191.915L143.677 191.892L144.198 190.436C144.319 190.098 144.342 189.704 144.261 189.342C144.18 188.98 144.003 188.678 143.768 188.504L138.459 184.572C138.224 184.398 137.95 184.365 137.699 184.481C137.447 184.597 137.237 184.852 137.116 185.191L135.892 188.614L135.852 188.584C135.837 188.573 135.819 188.571 135.803 188.578C135.787 188.586 135.774 188.602 135.766 188.624Z" fill="#3F3D56"/>
<path d="M137.451 185.758L131.008 203.774C130.932 203.989 130.917 204.238 130.969 204.468C131.02 204.698 131.132 204.889 131.281 205L136.363 208.764C136.512 208.875 136.685 208.896 136.845 208.823C137.004 208.75 137.137 208.588 137.214 208.374L137.215 208.372L143.657 190.355C143.695 190.249 143.718 190.133 143.725 190.014C143.732 189.895 143.723 189.775 143.697 189.661C143.672 189.547 143.631 189.441 143.578 189.35C143.524 189.259 143.458 189.184 143.384 189.129L142.624 188.566L142.574 188.706C142.542 188.794 142.499 188.871 142.447 188.935C142.395 188.999 142.335 189.047 142.269 189.077C142.204 189.107 142.136 189.118 142.067 189.11C141.999 189.102 141.933 189.075 141.872 189.03L139.288 187.115C139.165 187.024 139.072 186.867 139.03 186.677C138.988 186.488 139 186.282 139.063 186.106L139.113 185.965L138.302 185.365C138.153 185.254 137.98 185.233 137.82 185.307C137.66 185.381 137.527 185.543 137.451 185.758Z" fill="#6C63FF"/>
<path d="M135.583 207.768C135.097 207.719 134.623 207.518 134.197 207.177C133.77 206.836 133.4 206.365 133.114 205.797C132.827 205.229 132.631 204.577 132.538 203.887C132.446 203.198 132.46 202.488 132.578 201.807L122.659 192.452L128.316 188.935L136.869 198.357C137.65 198.72 138.312 199.483 138.729 200.502C139.146 201.521 139.289 202.724 139.13 203.884C138.972 205.044 138.523 206.08 137.87 206.796C137.216 207.512 136.402 207.858 135.583 207.768Z" fill="#FFB8B8"/>
<path d="M126.038 201.029L126.163 200.902C128.524 198.401 131.145 195.814 133.68 193.313L133.832 193.163L133.712 192.961C128.302 183.851 122.887 174.336 117.648 165.13C117.652 165.116 117.656 165.105 117.658 165.097L117.609 165.061L117.588 165.025L117.577 165.038L117.545 165.015L117.688 165.031L119.303 146.807C120.761 143.944 121.04 138.259 119.129 134.29C117.149 130.179 112.961 128.803 110.166 131.345C109.434 132.052 108.822 132.988 108.375 134.082C107.928 135.176 107.657 136.401 107.584 137.666C107.48 138.793 107.552 139.939 107.796 141.02C108.039 142.102 108.447 143.092 108.99 143.917C108.304 153.562 108.277 162.182 108.252 170.52L108.252 170.604L108.287 170.672C113.872 180.884 120.006 191.04 125.938 200.863L126.038 201.029Z" fill="#3F3D56"/>
<path d="M291.263 151.279C281.141 151.279 272.936 139.469 272.936 124.901C272.936 110.332 281.141 98.522 291.263 98.522C301.385 98.522 309.591 110.332 309.591 124.901C309.591 139.469 301.385 151.279 291.263 151.279Z" fill="#4ED339"/>
<path d="M293.01 136.035L298.495 125.884L295.305 122.313L292.708 127.119L283.934 113.788L280.999 117.789L293.01 136.035Z" fill="white"/>
</g>
</g>
<defs>
<clipPath id="clip0_1594_95">
<rect width="495" height="450" fill="white" transform="translate(0.5)"/>
</clipPath>
</defs>
</svg>
