<svg width="285" height="40" viewBox="0 0 285 40" fill="none" xmlns="http://www.w3.org/2000/svg">
<path d="M181.535 0.697709C161.338 1.32266 141.154 2.37085 121.004 3.84229C102.718 4.16634 84.4295 4.49039 66.144 4.81443C46.0795 5.17155 26.015 5.52535 5.95383 5.88247C4.01286 5.91553 1.00715 7.34068 0.709558 9.49328C0.382204 11.8674 3.31847 12.2642 4.97177 12.2378C18.0097 12.0063 31.0477 11.7748 44.0856 11.5434C38.6595 12.2345 33.2399 12.952 27.8204 13.7026C25.9423 13.9638 23.3201 14.8434 22.7216 16.8968C22.186 18.7286 23.8591 20.0281 25.6347 20.0612C55.7447 20.577 85.8579 21.0962 115.968 21.612C122.376 21.7211 128.784 21.8335 135.193 21.9426C125.974 22.9512 116.768 24.1118 107.589 25.4245C93.1953 27.4878 78.8612 29.9347 64.5899 32.7222C63.049 33.0231 60.8633 34.3722 60.6286 36.1015C60.4004 37.7548 62.2223 38.8361 63.6839 38.8493C97.9271 39.1469 132.17 39.4478 166.413 39.7454C176.069 39.8281 185.721 39.914 195.376 39.9967C197.588 40.0165 200.425 39.385 201.54 37.2126C202.535 35.2683 200.67 33.6513 198.769 33.6348C165.805 33.3471 132.842 33.0595 99.878 32.7718C100.797 32.6329 101.713 32.4907 102.632 32.3551C115.088 30.5101 127.587 28.946 140.113 27.6664C165.177 25.1071 190.353 23.6819 215.546 23.4009C216.661 23.3876 217.788 23.381 218.912 23.3744C231.683 23.5926 244.449 23.8142 257.219 24.0324C259.428 24.0688 262.275 23.4075 263.383 21.2483C264.401 19.2643 262.497 17.7466 260.612 17.6705C247.581 17.1481 234.536 16.9232 221.495 16.9993C204.423 16.705 187.351 16.414 170.279 16.1197C140.169 15.6039 110.056 15.0847 79.9457 14.5689C77.5187 14.5259 75.0883 14.4863 72.6613 14.4433C88.4272 12.7668 104.22 11.3483 120.032 10.1943C152.995 9.60901 185.962 9.02705 218.926 8.44178C238.99 8.08467 259.055 7.73086 279.116 7.37374C280.958 7.34068 283.662 6.07756 284.215 4.17956C284.757 2.32456 283.07 1.08127 281.301 1.01514C248.06 -0.221528 214.779 -0.330646 181.535 0.697709Z" fill="#0082AE"/>
</svg>
