<svg width="40" height="39" viewBox="0 0 40 39" fill="none" xmlns="http://www.w3.org/2000/svg">
<g clip-path="url(#clip0_416_241)">
<path d="M20 9.75C21.8334 9.75 23.3334 11.2125 23.3334 13C23.3334 14.7875 21.8334 16.25 20 16.25C18.1667 16.25 16.6667 14.7875 16.6667 13C16.6667 11.2125 18.1667 9.75 20 9.75ZM20 26C24.5 26 29.6667 28.0963 30 29.25H10C10.3834 28.08 15.5167 26 20 26ZM20 6.5C16.3167 6.5 13.3334 9.40875 13.3334 13C13.3334 16.5912 16.3167 19.5 20 19.5C23.6834 19.5 26.6667 16.5912 26.6667 13C26.6667 9.40875 23.6834 6.5 20 6.5ZM20 22.75C15.55 22.75 6.66669 24.9275 6.66669 29.25V32.5H33.3334V29.25C33.3334 24.9275 24.45 22.75 20 22.75Z" fill="#0082AE"/>
</g>
<defs>
<clipPath id="clip0_416_241">
<rect width="40" height="39" fill="white"/>
</clipPath>
</defs>
</svg>
