<svg width="415" height="628" viewBox="0 0 415 628" fill="none" xmlns="http://www.w3.org/2000/svg">
<path d="M349.44 502.94C349.44 502.94 350.08 502.94 351.32 502.78C352.1 502.768 352.877 502.681 353.64 502.52L355.1 502.28L356.76 501.84C359.664 501.091 362.422 499.861 364.92 498.2C370.409 494.607 374.503 489.243 376.52 483C377.328 480.449 377.772 477.796 377.84 475.12C377.84 473.72 377.84 472.26 377.84 470.82L377.72 468.62C377.72 467.88 377.5 467.14 377.38 466.4C376.801 463.308 375.727 460.33 374.2 457.58C370.74 451.46 365.131 446.841 358.46 444.62C354.838 443.464 351.038 442.963 347.24 443.14H335.12L76.3399 443.3C70.1176 443.305 64.0712 445.365 59.14 449.16C56.7317 451.04 54.627 453.28 52.8999 455.8C51.2203 458.329 49.9576 461.111 49.1599 464.04C48.7658 465.497 48.4784 466.981 48.3 468.48C48.3 469.98 48.1 471.48 48.14 473.02C48.0542 476.018 48.4182 479.011 49.2199 481.9C50.044 484.738 51.2914 487.435 52.92 489.9C54.5987 492.319 56.6198 494.482 58.92 496.32C61.2095 498.137 63.7754 499.575 66.52 500.58C67.8696 501.084 69.253 501.491 70.6599 501.8C72.0801 502.065 73.5169 502.232 74.96 502.3C80.74 502.44 86.58 502.3 92.3 502.3H125.92L242.26 502.4L320.7 502.58L342.02 502.68H347.58H349.46C349.46 502.68 348.82 502.68 347.58 502.68H342.02L320.7 502.78L242.26 502.94L125.92 503.06H92.2799C86.5399 503.06 80.78 503.06 74.88 503.06C73.3905 502.992 71.9072 502.825 70.44 502.56C68.9786 502.234 67.5418 501.806 66.14 501.28C63.2997 500.247 60.6453 498.761 58.2799 496.88C53.4298 493.085 49.9247 487.835 48.2799 481.9C47.4592 478.918 47.0819 475.832 47.1599 472.74C47.1599 471.22 47.16 469.64 47.32 468.1C47.5099 466.547 47.8106 465.01 48.2199 463.5C49.052 460.459 50.3617 457.57 52.1 454.94C53.8857 452.321 56.0725 449.999 58.58 448.06C63.6967 444.151 69.9611 442.042 76.3999 442.06L335.18 442.2H347.3C351.174 442.047 355.045 442.568 358.74 443.74C365.53 446.05 371.228 450.787 374.74 457.04C376.296 459.852 377.383 462.899 377.96 466.06L378.3 468.32C378.3 469.08 378.3 469.82 378.3 470.56C378.3 472.04 378.3 473.46 378.3 474.9C378.212 477.618 377.748 480.31 376.92 482.9C376.137 485.236 375.069 487.466 373.74 489.54C371.514 493.032 368.551 495.994 365.06 498.22C362.517 499.867 359.719 501.084 356.78 501.82L355.1 502.22L353.62 502.44C352.854 502.579 352.078 502.653 351.3 502.66L349.44 502.94Z" fill="#263238"/>
<path d="M349.44 515.8H76.3201C60.4696 515.8 47.6201 528.649 47.6201 544.5V547.24C47.6201 563.09 60.4696 575.94 76.3201 575.94H349.44C365.291 575.94 378.14 563.09 378.14 547.24V544.5C378.14 528.649 365.291 515.8 349.44 515.8Z" fill="#116A81"/>
<path d="M113.98 484.86C113.941 484.267 113.941 483.673 113.98 483.08C113.98 481.84 113.98 480.22 113.88 478.22C113.88 473.94 113.76 468.02 113.66 460.88L114.08 461.28L78.3399 461.4L78.86 460.88V467.16C78.86 469.16 78.86 471.28 78.86 473.28C78.86 477.28 78.86 481.16 78.86 484.82L78.38 484.34L104 484.58L111.4 484.7H113.4H114.12C113.284 484.795 112.442 484.835 111.6 484.82L104.3 484.94L78.3 485.18H77.68V484.7C77.68 481.04 77.68 477.18 77.68 473.16C77.68 471.16 77.68 469.16 77.68 467.04V460.92C77.22 461.38 78.32 460.28 78.2 460.38L113.94 460.5H114.36V460.92C114.26 468.18 114.18 474.18 114.14 478.52C114.14 480.52 114.14 482.08 114.02 483.3C114.042 483.82 114.029 484.341 113.98 484.86Z" fill="#263238"/>
<path d="M113.98 460.88C112.433 462.6 110.762 464.204 108.98 465.68C105.82 468.56 101.38 472.46 96.46 476.74H95.68L95.56 476.64L95.32 476.44L94.86 476.04L93.96 475.26L92.2 473.72L88.86 470.78L83.26 465.78C81.4782 464.304 79.807 462.7 78.26 460.98C80.1715 462.217 81.9837 463.601 83.68 465.12L89.42 469.96L92.8 472.84L94.58 474.36L95.5 475.16L95.94 475.56L96.18 475.74L96.3 475.84H95.68C100.62 471.58 105.12 467.84 108.42 465.02C110.161 463.495 112.02 462.111 113.98 460.88Z" fill="#263238"/>
<path d="M91.1401 472.04C89.4131 474.528 87.3992 476.803 85.1401 478.82C83.1 481.071 80.8122 483.083 78.3201 484.82C80.0602 482.343 82.0728 480.069 84.3201 478.04C86.3654 475.795 88.6526 473.783 91.1401 472.04Z" fill="#263238"/>
<path d="M113.98 484.86C111.597 482.97 109.443 480.808 107.56 478.42C105.422 476.263 103.53 473.875 101.92 471.3C104.296 473.197 106.45 475.358 108.34 477.74C110.485 479.89 112.378 482.279 113.98 484.86Z" fill="#263238"/>
<path d="M135.56 477.66V478.46H127.26V466.46H135.26V467.26H128.1V472H134.5V472.78H128.1V477.7L135.56 477.66Z" fill="#263238"/>
<path d="M153.22 473.22V478.46H152.36V473.28C152.36 471.28 151.3 470.18 149.56 470.18C149.105 470.16 148.651 470.238 148.229 470.41C147.807 470.582 147.427 470.843 147.116 471.176C146.804 471.508 146.568 471.904 146.424 472.336C146.28 472.769 146.231 473.227 146.28 473.68V478.46H145.42V473.28C145.42 471.28 144.36 470.18 142.62 470.18C142.165 470.16 141.711 470.238 141.289 470.41C140.867 470.582 140.487 470.843 140.176 471.176C139.864 471.508 139.628 471.904 139.484 472.336C139.34 472.769 139.291 473.227 139.34 473.68V478.46H138.48V469.48H139.3V471.48C139.609 470.842 140.102 470.311 140.714 469.954C141.327 469.598 142.033 469.433 142.74 469.48C143.45 469.421 144.159 469.601 144.753 469.993C145.348 470.385 145.794 470.964 146.02 471.64C146.341 470.961 146.856 470.393 147.501 470.008C148.146 469.624 148.89 469.44 149.64 469.48C150.133 469.444 150.628 469.518 151.09 469.695C151.551 469.873 151.968 470.15 152.31 470.508C152.652 470.865 152.911 471.293 153.068 471.762C153.225 472.231 153.277 472.729 153.22 473.22Z" fill="#263238"/>
<path d="M163.22 472.76V478.46H162.4V476.86C162.064 477.407 161.584 477.852 161.013 478.144C160.441 478.437 159.8 478.567 159.16 478.52C157.16 478.52 155.94 477.5 155.94 475.96C155.94 474.42 156.8 473.46 159.28 473.46H162.36V472.74C162.397 472.386 162.353 472.028 162.231 471.694C162.109 471.359 161.912 471.057 161.655 470.81C161.399 470.563 161.089 470.378 160.75 470.269C160.412 470.16 160.052 470.129 159.7 470.18C158.566 470.169 157.465 470.566 156.6 471.3L156.18 470.68C157.185 469.847 158.455 469.4 159.76 469.42C160.219 469.353 160.688 469.392 161.13 469.535C161.572 469.677 161.975 469.919 162.309 470.241C162.643 470.563 162.899 470.958 163.057 471.395C163.215 471.831 163.271 472.298 163.22 472.76ZM162.36 475.8V474.12H159.3C157.44 474.12 156.8 474.9 156.8 475.92C156.8 476.94 157.7 477.82 159.28 477.82C159.942 477.86 160.6 477.685 161.155 477.321C161.71 476.957 162.133 476.424 162.36 475.8Z" fill="#263238"/>
<path d="M166.48 466.62C166.48 466.528 166.498 466.437 166.533 466.352C166.568 466.267 166.62 466.19 166.685 466.125C166.75 466.06 166.827 466.008 166.912 465.973C166.997 465.938 167.088 465.92 167.18 465.92C167.318 465.92 167.454 465.961 167.569 466.038C167.684 466.115 167.774 466.224 167.827 466.352C167.88 466.48 167.894 466.621 167.867 466.757C167.84 466.892 167.773 467.017 167.675 467.115C167.577 467.213 167.452 467.28 167.317 467.307C167.181 467.334 167.04 467.32 166.912 467.267C166.784 467.214 166.675 467.124 166.598 467.009C166.521 466.894 166.48 466.758 166.48 466.62ZM166.74 469.48H167.68V478.46H166.82L166.74 469.48Z" fill="#263238"/>
<path d="M171.22 465.7H172.08V478.46H171.22V465.7Z" fill="#263238"/>
<path d="M147.02 553.94L143.78 549.4C143.34 549.43 142.899 549.43 142.46 549.4H138.58V553.84H137.68V540.32H142.54C145.94 540.32 148 542.02 148 544.9C148.046 545.866 147.753 546.818 147.173 547.592C146.592 548.366 145.76 548.913 144.82 549.14L148.22 553.88L147.02 553.94ZM142.46 548.64C145.36 548.64 146.92 547.28 146.92 544.96C146.92 542.64 145.36 541.26 142.46 541.26H138.58V548.64H142.46Z" fill="white"/>
<path d="M159.78 549.12H151.08C151.079 549.67 151.191 550.214 151.409 550.718C151.627 551.223 151.947 551.677 152.349 552.052C152.75 552.428 153.225 552.716 153.743 552.9C154.261 553.083 154.812 553.158 155.36 553.12C155.97 553.141 156.577 553.027 157.137 552.784C157.698 552.542 158.197 552.179 158.6 551.72L159.16 552.36C158.686 552.901 158.097 553.329 157.436 553.613C156.775 553.897 156.059 554.029 155.34 554C154.653 554.034 153.967 553.924 153.325 553.679C152.683 553.433 152.099 553.057 151.61 552.573C151.121 552.09 150.737 551.51 150.484 550.871C150.231 550.232 150.114 549.547 150.14 548.86C150.097 548.2 150.191 547.537 150.414 546.914C150.638 546.292 150.987 545.721 151.439 545.238C151.892 544.756 152.439 544.371 153.046 544.108C153.653 543.845 154.308 543.709 154.97 543.709C155.632 543.709 156.286 543.845 156.894 544.108C157.501 544.371 158.048 544.756 158.5 545.238C158.953 545.721 159.302 546.292 159.526 546.914C159.749 547.537 159.842 548.2 159.8 548.86C159.8 548.86 159.78 549.02 159.78 549.12ZM151.1 548.36H158.86C158.86 547.331 158.451 546.344 157.723 545.616C156.996 544.889 156.009 544.48 154.98 544.48C153.951 544.48 152.964 544.889 152.236 545.616C151.509 546.344 151.1 547.331 151.1 548.36Z" fill="white"/>
<path d="M161.32 552.72L161.76 551.94C162.807 552.734 164.086 553.163 165.4 553.16C167.54 553.16 168.4 552.42 168.4 551.26C168.4 548.32 161.68 550.5 161.68 546.52C161.68 545 162.96 543.76 165.52 543.76C166.751 543.737 167.962 544.078 169 544.74L168.54 545.52C167.647 544.904 166.585 544.582 165.5 544.6C163.5 544.6 162.66 545.42 162.66 546.5C162.66 549.54 169.36 547.4 169.36 551.26C169.36 552.9 167.94 554.02 165.36 554.02C163.904 554.065 162.477 553.606 161.32 552.72Z" fill="white"/>
<path d="M180.62 549.12H171.92C171.919 549.67 172.031 550.214 172.249 550.718C172.467 551.223 172.787 551.677 173.189 552.052C173.59 552.428 174.065 552.716 174.583 552.9C175.101 553.084 175.652 553.158 176.2 553.12C176.81 553.141 177.417 553.027 177.977 552.785C178.538 552.542 179.037 552.179 179.44 551.72L180 552.36C179.524 552.899 178.935 553.325 178.274 553.609C177.614 553.893 176.898 554.026 176.18 554C175.492 554.034 174.805 553.924 174.162 553.679C173.519 553.433 172.934 553.057 172.443 552.574C171.953 552.091 171.568 551.512 171.312 550.873C171.057 550.233 170.937 549.548 170.96 548.86C170.922 548.2 171.019 547.538 171.247 546.917C171.474 546.296 171.826 545.728 172.281 545.248C172.737 544.768 173.286 544.387 173.895 544.127C174.503 543.868 175.158 543.736 175.82 543.74C176.477 543.733 177.129 543.862 177.734 544.118C178.339 544.375 178.885 544.753 179.337 545.23C179.789 545.706 180.138 546.271 180.363 546.889C180.587 547.507 180.681 548.164 180.64 548.82C180.64 548.82 180.62 549.02 180.62 549.12ZM171.94 548.36H179.68C179.61 547.382 179.171 546.466 178.453 545.798C177.735 545.13 176.791 544.758 175.81 544.758C174.829 544.758 173.885 545.13 173.167 545.798C172.449 546.466 172.01 547.382 171.94 548.36Z" fill="white"/>
<path d="M188.66 553.3C188.099 553.768 187.391 554.023 186.66 554.02C186.289 554.058 185.914 554.013 185.563 553.887C185.212 553.762 184.894 553.559 184.631 553.294C184.368 553.03 184.168 552.71 184.045 552.358C183.922 552.006 183.879 551.631 183.92 551.26V544.66H182.06V543.82H183.92V541.62H184.88V543.82H188.1V544.66H184.88V551.18C184.88 552.48 185.52 553.18 186.76 553.18C187.338 553.197 187.902 552.997 188.34 552.62L188.66 553.3Z" fill="white"/>
<path d="M206.98 544.96C206.98 547.8 204.98 549.5 201.52 549.5H197.68V553.94H196.68V540.32H201.56C204.92 540.32 206.98 542.08 206.98 544.96ZM205.98 544.96C205.98 542.6 204.42 541.26 201.52 541.26H197.68V548.62H201.56C204.42 548.62 205.98 547.28 205.98 544.96Z" fill="white"/>
<path d="M217.22 547.52V553.94H216.28V552.14C215.909 552.762 215.372 553.267 214.728 553.599C214.085 553.932 213.362 554.077 212.64 554.02C210.38 554.02 209 552.86 209 551.14C209 549.42 209.96 548.3 212.78 548.3H216.24V547.5C216.284 547.1 216.235 546.694 216.099 546.316C215.962 545.937 215.74 545.595 215.451 545.315C215.161 545.035 214.811 544.825 214.428 544.701C214.045 544.577 213.639 544.543 213.24 544.6C211.956 544.585 210.711 545.04 209.74 545.88L209.26 545.18C210.387 544.255 211.802 543.753 213.26 543.76C213.781 543.677 214.315 543.715 214.819 543.872C215.323 544.029 215.785 544.299 216.168 544.663C216.551 545.026 216.845 545.473 217.027 545.968C217.21 546.464 217.276 546.995 217.22 547.52ZM216.24 550.96V549.06H212.8C210.7 549.06 209.96 549.94 209.96 551.06C209.96 552.18 210.98 553.18 212.78 553.18C213.519 553.232 214.255 553.043 214.878 552.643C215.502 552.243 215.979 551.653 216.24 550.96Z" fill="white"/>
<path d="M219.68 552.72L220.12 551.94C221.162 552.744 222.444 553.174 223.76 553.16C225.9 553.16 226.74 552.42 226.74 551.26C226.74 548.32 220.04 550.5 220.04 546.52C220.04 545 221.32 543.76 223.88 543.76C225.105 543.734 226.31 544.075 227.34 544.74L226.9 545.52C226.006 544.906 224.944 544.585 223.86 544.6C221.86 544.6 221 545.42 221 546.5C221 549.54 227.72 547.4 227.72 551.26C227.72 552.9 226.3 554.02 223.72 554.02C222.263 554.069 220.835 553.609 219.68 552.72Z" fill="white"/>
<path d="M228.98 552.72L229.42 551.94C230.467 552.734 231.746 553.163 233.06 553.16C235.2 553.16 236.06 552.42 236.06 551.26C236.06 548.32 229.34 550.5 229.34 546.52C229.34 545 230.62 543.76 233.18 543.76C234.411 543.737 235.622 544.078 236.66 544.74L236.2 545.52C235.307 544.904 234.244 544.582 233.16 544.6C231.16 544.6 230.32 545.42 230.32 546.5C230.32 549.54 237.02 547.4 237.02 551.26C237.02 552.9 235.6 554.02 233.02 554.02C231.564 554.065 230.137 553.606 228.98 552.72Z" fill="white"/>
<path d="M254 543.82L250.16 553.94H249.24L245.84 545.16L242.4 553.94H241.52L237.68 543.82H238.6L241.98 552.86L245.44 543.82H246.26L249.7 552.84L253.1 543.82H254Z" fill="white"/>
<path d="M254.86 548.88C254.876 547.882 255.186 546.911 255.753 546.089C256.319 545.267 257.116 544.631 258.043 544.261C258.97 543.891 259.986 543.803 260.963 544.009C261.939 544.214 262.833 544.705 263.532 545.417C264.231 546.13 264.704 547.033 264.89 548.014C265.077 548.995 264.969 550.009 264.581 550.928C264.193 551.848 263.541 552.632 262.708 553.182C261.875 553.732 260.898 554.024 259.9 554.02C259.224 554.04 258.551 553.92 257.924 553.668C257.297 553.415 256.729 553.035 256.255 552.553C255.782 552.07 255.414 551.494 255.173 550.862C254.933 550.23 254.827 549.555 254.86 548.88ZM263.98 548.88C263.929 548.102 263.652 547.356 263.183 546.733C262.714 546.11 262.073 545.638 261.339 545.375C260.605 545.111 259.81 545.068 259.052 545.251C258.294 545.433 257.606 545.833 257.072 546.402C256.539 546.97 256.183 547.682 256.048 548.45C255.914 549.218 256.007 550.009 256.316 550.725C256.625 551.441 257.136 552.051 257.787 552.48C258.438 552.909 259.2 553.138 259.98 553.14C260.528 553.141 261.07 553.03 261.573 552.813C262.076 552.595 262.529 552.277 262.904 551.878C263.28 551.478 263.568 551.006 263.753 550.491C263.938 549.975 264.016 549.427 263.98 548.88Z" fill="white"/>
<path d="M272.76 543.76V544.7H272.52C270.28 544.7 268.94 546.2 268.94 548.7V553.96H267.98V543.84H268.9V546.06C269.22 545.32 269.766 544.699 270.458 544.286C271.151 543.873 271.957 543.689 272.76 543.76Z" fill="white"/>
<path d="M284.32 539.56V553.94H283.38V551.56C282.994 552.32 282.4 552.955 281.667 553.39C280.934 553.826 280.092 554.044 279.24 554.02C277.935 553.939 276.71 553.363 275.814 552.409C274.919 551.456 274.42 550.198 274.42 548.89C274.42 547.582 274.919 546.324 275.814 545.371C276.71 544.418 277.935 543.842 279.24 543.76C280.084 543.738 280.918 543.953 281.646 544.381C282.374 544.809 282.968 545.432 283.36 546.18V539.56H284.32ZM283.36 548.88C283.309 548.102 283.032 547.356 282.563 546.733C282.094 546.11 281.453 545.638 280.719 545.375C279.985 545.112 279.19 545.069 278.432 545.251C277.674 545.434 276.986 545.834 276.452 546.402C275.919 546.97 275.563 547.682 275.428 548.45C275.294 549.218 275.387 550.009 275.696 550.725C276.005 551.441 276.516 552.051 277.167 552.48C277.818 552.909 278.58 553.138 279.36 553.14C279.908 553.141 280.45 553.03 280.953 552.813C281.456 552.596 281.909 552.278 282.284 551.878C282.659 551.479 282.948 551.007 283.133 550.491C283.318 549.975 283.396 549.427 283.36 548.88Z" fill="white"/>
<path d="M414.1 0.560059H1.19995V627.34H414.1V0.560059Z" fill="white"/>
<path d="M413.38 32.48H0.360107V302.22H413.38V32.48Z" fill="#F5F5F5"/>
<path d="M370.9 391.78C370.9 392.08 300.14 392.3 212.9 392.3C125.66 392.3 54.8999 392.08 54.8999 391.78C54.8999 391.48 125.64 391.26 212.9 391.26C300.16 391.26 370.9 391.5 370.9 391.78Z" fill="black"/>
<path d="M303.44 408.68C303.44 408.96 262.9 409.2 212.88 409.2C162.86 409.2 122.3 408.96 122.3 408.68C122.3 408.4 162.86 408.16 212.88 408.16C262.9 408.16 303.44 408.32 303.44 408.68Z" fill="black"/>
<path d="M150.96 167.66L151.64 166.18L152.52 167.54C153.239 168.626 154.251 169.486 155.44 170.02L156.94 170.68L155.58 171.58C154.484 172.293 153.616 173.307 153.08 174.5L152.42 175.98L151.52 174.62C150.804 173.53 149.791 172.669 148.6 172.14L147.12 171.48L148.48 170.58C149.575 169.871 150.438 168.856 150.96 167.66Z" fill="#116A81"/>
<path d="M106.34 156.54L106.72 155.68L107.24 156.46C107.652 157.097 108.243 157.598 108.94 157.9L109.8 158.3L109 158.82C108.371 159.233 107.872 159.815 107.56 160.5L107.18 161.38L106.66 160.58C106.248 159.942 105.656 159.441 104.96 159.14L104.1 158.74L104.88 158.24C105.514 157.818 106.019 157.23 106.34 156.54Z" fill="#116A81"/>
<path d="M246.88 232.6L247.26 231.74L247.78 232.54C248.208 233.163 248.795 233.66 249.48 233.98L250.34 234.36L249.56 234.88C248.922 235.292 248.421 235.884 248.12 236.58L247.72 237.44L247.2 236.66C246.789 236.024 246.207 235.518 245.52 235.2L244.64 234.82L245.44 234.3C246.077 233.888 246.578 233.297 246.88 232.6Z" fill="#116A81"/>
<path d="M315.68 193.6L316.34 192.12L317.24 193.48C317.955 194.57 318.969 195.431 320.16 195.96L321.64 196.62L320.28 197.52C319.189 198.234 318.328 199.248 317.8 200.44L317.12 201.92L316.24 200.56C315.515 199.479 314.505 198.62 313.32 198.08L311.82 197.42L313.18 196.52C314.276 195.807 315.144 194.793 315.68 193.6Z" fill="#116A81"/>
<path d="M306.74 138.96L307.86 136.46L309.36 138.76C310.565 140.589 312.264 142.038 314.26 142.94L316.76 144.04L314.46 145.54C312.634 146.757 311.186 148.462 310.28 150.46L309.16 152.96L307.66 150.66C306.455 148.831 304.756 147.382 302.76 146.48L300.26 145.36L302.56 143.86C304.389 142.655 305.838 140.956 306.74 138.96Z" fill="#116A81"/>
<path d="M137.1 122.12L138.22 119.62L139.72 121.9C140.919 123.734 142.62 125.185 144.62 126.08L147.12 127.2L144.84 128.7C143.001 129.893 141.548 131.596 140.66 133.6L139.54 136.1L138.04 133.82C136.838 131.981 135.129 130.529 133.12 129.64L130.64 128.52L132.92 127.02C134.754 125.821 136.205 124.12 137.1 122.12Z" fill="#116A81"/>
<path d="M413.36 32.48C413.36 32.76 320.9 33 206.86 33C92.8201 33 0.360107 32.76 0.360107 32.48C0.360107 32.2 92.8001 31.96 206.86 31.96C320.92 31.96 413.36 32.2 413.36 32.48Z" fill="#263238"/>
<path d="M23.6801 16.08C23.6761 17.072 23.3784 18.0406 22.8244 18.8635C22.2704 19.6864 21.485 20.3267 20.5674 20.7036C19.6497 21.0805 18.641 21.1771 17.6685 20.9811C16.6961 20.7852 15.8035 20.3055 15.1034 19.6027C14.4033 18.8998 13.9272 18.0053 13.7351 17.0321C13.5431 16.0588 13.6436 15.0505 14.0242 14.1344C14.4047 13.2183 15.0481 12.4354 15.8732 11.8847C16.6983 11.334 17.6681 11.04 18.6601 11.04C19.321 11.04 19.9754 11.1705 20.5858 11.4241C21.1962 11.6776 21.7505 12.0492 22.2169 12.5174C22.6833 12.9857 23.0526 13.5415 23.3037 14.1528C23.5548 14.7642 23.6827 15.4191 23.6801 16.08Z" fill="#263238"/>
<path d="M38.1999 16.08C38.1959 17.072 37.8982 18.0406 37.3442 18.8635C36.7901 19.6864 36.0048 20.3267 35.0871 20.7036C34.1695 21.0805 33.1608 21.1771 32.1883 20.9811C31.2159 20.7852 30.3233 20.3055 29.6232 19.6027C28.9231 18.8998 28.447 18.0053 28.2549 17.0321C28.0628 16.0588 28.1634 15.0505 28.5439 14.1344C28.9245 13.2183 29.5679 12.4354 30.393 11.8847C31.2181 11.334 32.1879 11.04 33.1799 11.04C33.8408 11.04 34.4952 11.1705 35.1056 11.4241C35.7159 11.6776 36.2702 12.0492 36.7366 12.5174C37.203 12.9857 37.5724 13.5415 37.8235 14.1528C38.0746 14.7642 38.2025 15.4191 38.1999 16.08Z" fill="#263238"/>
<path d="M52.6401 16.0799C52.6361 17.0745 52.3367 18.0454 51.78 18.8695C51.2233 19.6937 50.4343 20.3339 49.5132 20.7089C48.5921 21.084 47.5803 21.177 46.6063 20.9761C45.6322 20.7752 44.7397 20.2896 44.0421 19.5807C43.3445 18.8719 42.8732 17.9718 42.688 16.9946C42.5027 16.0175 42.6119 15.0073 43.0016 14.0923C43.3914 13.1773 44.0441 12.3987 44.877 11.8553C45.71 11.3118 46.6856 11.028 47.6801 11.0399C49.0045 11.0557 50.269 11.5943 51.1981 12.5384C52.1271 13.4824 52.6455 14.7554 52.6401 16.0799Z" fill="#263238"/>
<path d="M414.1 627.32C414.1 623.04 413.9 369.44 413.62 0.559998L414.1 1.04H0.519989L1.03998 0.519997C1.03998 237.04 1.03998 455.1 0.919983 627.28L0.519989 626.88L414.14 627.28L0.519989 627.7H0.100006V627.28C0.100006 455.1 0.1 237.04 0 0.519997V0H0.559998H414.14H414.62V0.480003C414.3 369.44 414.1 623.06 414.1 627.32Z" fill="#263238"/>
<path d="M27.8123 361.352H20.3723V359.84H20.3963C20.6363 359.84 20.8523 359.816 21.0443 359.768C21.2363 359.736 21.3883 359.664 21.5003 359.552C21.6123 359.456 21.6683 359.312 21.6683 359.12V346.136C21.6683 345.96 21.6283 345.832 21.5483 345.752C21.4683 345.656 21.3483 345.576 21.1883 345.512C21.0283 345.448 20.8203 345.384 20.5643 345.32L20.3723 345.272V343.712H25.7483V346.952L26.0363 347V359.624C26.0363 359.672 26.1163 359.712 26.2763 359.744C26.4523 359.776 26.6523 359.8 26.8763 359.816C27.1163 359.832 27.3323 359.84 27.5243 359.84H27.8123V361.352ZM29.5643 356.24C28.9563 356.24 28.4123 356.168 27.9323 356.024C27.4523 355.896 27.0123 355.688 26.6123 355.4C26.2123 355.096 25.8443 354.72 25.5083 354.272L25.5323 351.296C25.7723 351.856 26.0203 352.344 26.2763 352.76C26.5483 353.176 26.8523 353.496 27.1883 353.72C27.5403 353.944 27.9403 354.056 28.3883 354.056C28.7883 354.056 29.1323 353.96 29.4203 353.768C29.7243 353.56 29.9723 353.264 30.1643 352.88C30.3563 352.496 30.5003 352.04 30.5963 351.512C30.6923 350.984 30.7403 350.392 30.7403 349.736C30.7403 349.08 30.6923 348.504 30.5963 348.008C30.5003 347.496 30.3643 347.064 30.1883 346.712C30.0123 346.36 29.7803 346.096 29.4923 345.92C29.2203 345.744 28.9003 345.656 28.5323 345.656C28.1003 345.656 27.7083 345.784 27.3563 346.04C27.0043 346.28 26.6763 346.632 26.3723 347.096C26.0843 347.544 25.8043 348.088 25.5323 348.728L25.5083 346.208C25.8923 345.584 26.2843 345.072 26.6843 344.672C27.0843 344.272 27.5323 343.976 28.0283 343.784C28.5243 343.576 29.1003 343.472 29.7563 343.472C30.8603 343.472 31.8203 343.736 32.6363 344.264C33.4683 344.776 34.1083 345.504 34.5563 346.448C35.0043 347.376 35.2283 348.472 35.2283 349.736C35.2283 351 34.9883 352.128 34.5083 353.12C34.0443 354.096 33.3803 354.864 32.5163 355.424C31.6683 355.968 30.6843 356.24 29.5643 356.24ZM42.2322 338.36V353.768C42.2322 354.056 42.3522 354.248 42.5922 354.344C42.8322 354.44 43.1282 354.488 43.4802 354.488H43.5282V356H36.5442V354.488H36.5682C36.9522 354.488 37.2562 354.44 37.4802 354.344C37.7202 354.248 37.8402 354.056 37.8402 353.768V340.76C37.8402 340.6 37.8002 340.472 37.7202 340.376C37.6562 340.28 37.5442 340.2 37.3842 340.136C37.2242 340.072 37.0082 340.016 36.7362 339.968L36.5442 339.92V338.36H42.2322ZM49.0272 349.904C49.0272 350.608 49.0912 351.232 49.2192 351.776C49.3632 352.32 49.5632 352.784 49.8192 353.168C50.0752 353.536 50.4112 353.816 50.8272 354.008C51.2432 354.184 51.7232 354.272 52.2672 354.272C52.8432 354.272 53.3312 354.168 53.7312 353.96C54.1472 353.736 54.4992 353.456 54.7872 353.12C55.0912 352.768 55.3392 352.416 55.5312 352.064L57.0912 353.144C56.7712 353.736 56.3632 354.272 55.8672 354.752C55.3712 355.216 54.7712 355.584 54.0672 355.856C53.3792 356.112 52.5552 356.24 51.5952 356.24C50.2032 356.24 48.9792 355.984 47.9232 355.472C46.8832 354.96 46.0752 354.232 45.4992 353.288C44.9232 352.328 44.6352 351.192 44.6352 349.88C44.6352 348.6 44.9152 347.48 45.4752 346.52C46.0512 345.56 46.8272 344.816 47.8032 344.288C48.7952 343.744 49.9152 343.472 51.1632 343.472C52.1712 343.472 53.0512 343.624 53.8032 343.928C54.5712 344.216 55.2112 344.656 55.7232 345.248C56.2512 345.84 56.6432 346.584 56.8992 347.48C57.1712 348.36 57.3072 349.392 57.3072 350.576H48.5472V348.848H53.7552L53.2272 349.568C53.2112 348.752 53.1632 348.08 53.0832 347.552C53.0032 347.008 52.8832 346.576 52.7232 346.256C52.5632 345.936 52.3632 345.712 52.1232 345.584C51.8832 345.44 51.5952 345.368 51.2592 345.368C50.9232 345.368 50.6192 345.456 50.3472 345.632C50.0912 345.808 49.8592 346.08 49.6512 346.448C49.4592 346.816 49.3072 347.288 49.1952 347.864C49.0832 348.424 49.0272 349.104 49.0272 349.904ZM66.6199 348.608V350.072C66.0919 350.136 65.6119 350.232 65.1799 350.36C64.7479 350.472 64.3719 350.608 64.0519 350.768C63.7319 350.928 63.4679 351.112 63.2599 351.32C63.0679 351.512 62.9239 351.736 62.8279 351.992C62.7319 352.248 62.6839 352.52 62.6839 352.808C62.6839 353.16 62.7399 353.456 62.8519 353.696C62.9639 353.92 63.1319 354.096 63.3559 354.224C63.5799 354.352 63.8439 354.416 64.1479 354.416C64.5319 354.416 64.8679 354.312 65.1559 354.104C65.4599 353.896 65.7319 353.608 65.9719 353.24C66.2119 352.872 66.4199 352.432 66.5959 351.92L66.6199 353.672C66.3959 354.216 66.0919 354.68 65.7079 355.064C65.3399 355.448 64.8999 355.744 64.3879 355.952C63.8759 356.144 63.2839 356.24 62.6119 356.24C61.7799 356.24 61.0599 356.12 60.4519 355.88C59.8599 355.624 59.3959 355.256 59.0599 354.776C58.7399 354.28 58.5799 353.68 58.5799 352.976C58.5799 352.304 58.7479 351.728 59.0839 351.248C59.4359 350.768 59.9479 350.36 60.6199 350.024C61.3079 349.688 62.1479 349.408 63.1399 349.184C64.1479 348.944 65.3079 348.752 66.6199 348.608ZM66.3799 356V353.624L66.0919 353.648V347.168C66.0919 346.72 66.0279 346.36 65.8999 346.088C65.7719 345.816 65.5799 345.624 65.3239 345.512C65.0679 345.384 64.7399 345.32 64.3399 345.32C63.7799 345.32 63.3079 345.448 62.9239 345.704C62.5559 345.944 62.2679 346.248 62.0599 346.616C61.9159 346.456 61.8359 346.304 61.8199 346.16C61.8039 346.016 61.8279 345.88 61.8919 345.752C61.9719 345.608 62.0919 345.488 62.2519 345.392C62.4119 345.28 62.6039 345.208 62.8279 345.176V347.696H59.4199V345.08C59.6599 344.904 60.0119 344.688 60.4759 344.432C60.9559 344.176 61.5559 343.952 62.2759 343.76C62.9959 343.568 63.8439 343.472 64.8199 343.472C65.6199 343.472 66.3559 343.552 67.0279 343.712C67.7159 343.872 68.3079 344.128 68.8039 344.48C69.2999 344.816 69.6839 345.256 69.9559 345.8C70.2279 346.328 70.3639 346.968 70.3639 347.72V353.696C70.3639 353.856 70.4119 353.984 70.5079 354.08C70.6039 354.176 70.7399 354.248 70.9159 354.296C71.0919 354.344 71.2999 354.384 71.5399 354.416L71.6599 354.44V356H66.3799ZM80.0528 353.024C80.0528 352.752 79.9728 352.536 79.8128 352.376C79.6688 352.2 79.4608 352.056 79.1888 351.944C78.9328 351.816 78.6368 351.712 78.3008 351.632C77.9648 351.536 77.6048 351.432 77.2208 351.32C76.7408 351.192 76.2528 351.048 75.7568 350.888C75.2608 350.712 74.8048 350.488 74.3888 350.216C73.9728 349.928 73.6368 349.56 73.3808 349.112C73.1408 348.648 73.0208 348.064 73.0208 347.36C73.0208 346.512 73.2448 345.792 73.6928 345.2C74.1568 344.608 74.7888 344.168 75.5888 343.88C76.4048 343.576 77.3568 343.424 78.4448 343.424C79.3408 343.424 80.1088 343.496 80.7488 343.64C81.3888 343.768 81.9088 343.92 82.3088 344.096C82.7088 344.272 82.9888 344.424 83.1488 344.552V347.048H80.1488V344.96C80.3888 344.944 80.5728 344.976 80.7008 345.056C80.8288 345.12 80.9088 345.216 80.9408 345.344C80.9728 345.456 80.9648 345.576 80.9168 345.704C80.8848 345.832 80.8368 345.96 80.7728 346.088C80.5968 345.896 80.3968 345.736 80.1728 345.608C79.9488 345.464 79.6928 345.36 79.4048 345.296C79.1328 345.232 78.8208 345.2 78.4688 345.2C77.8768 345.2 77.4288 345.312 77.1248 345.536C76.8208 345.76 76.6688 346.064 76.6688 346.448C76.6688 346.72 76.7488 346.944 76.9088 347.12C77.0688 347.296 77.2848 347.448 77.5568 347.576C77.8448 347.704 78.1648 347.816 78.5168 347.912C78.8848 348.008 79.2688 348.104 79.6688 348.2C80.1648 348.344 80.6608 348.504 81.1568 348.68C81.6688 348.84 82.1328 349.064 82.5488 349.352C82.9808 349.64 83.3248 350.008 83.5808 350.456C83.8368 350.888 83.9648 351.424 83.9648 352.064C83.9648 352.96 83.7328 353.72 83.2688 354.344C82.8208 354.952 82.1488 355.424 81.2528 355.76C80.3728 356.08 79.2848 356.24 77.9888 356.24C77.1248 356.24 76.3408 356.168 75.6368 356.024C74.9488 355.896 74.3488 355.736 73.8368 355.544C73.3408 355.336 72.9488 355.144 72.6608 354.968V352.232H75.7328V355.016C75.4448 354.872 75.2208 354.72 75.0608 354.56C74.9008 354.384 74.7968 354.216 74.7488 354.056C74.7168 353.88 74.7248 353.736 74.7728 353.624C74.8368 353.496 74.9408 353.424 75.0848 353.408C75.3088 353.648 75.5648 353.848 75.8528 354.008C76.1568 354.168 76.4848 354.28 76.8368 354.344C77.1888 354.408 77.5808 354.44 78.0128 354.44C78.4448 354.44 78.8048 354.392 79.0928 354.296C79.3968 354.2 79.6288 354.048 79.7888 353.84C79.9648 353.616 80.0528 353.344 80.0528 353.024ZM89.6209 349.904C89.6209 350.608 89.6849 351.232 89.8129 351.776C89.9569 352.32 90.1569 352.784 90.4129 353.168C90.6689 353.536 91.0049 353.816 91.4209 354.008C91.8369 354.184 92.3169 354.272 92.8609 354.272C93.4369 354.272 93.9249 354.168 94.3249 353.96C94.7409 353.736 95.0929 353.456 95.3809 353.12C95.6849 352.768 95.9329 352.416 96.1249 352.064L97.6849 353.144C97.3649 353.736 96.9569 354.272 96.4609 354.752C95.9649 355.216 95.3649 355.584 94.6609 355.856C93.9729 356.112 93.1489 356.24 92.1889 356.24C90.7969 356.24 89.5729 355.984 88.5169 355.472C87.4769 354.96 86.6689 354.232 86.0929 353.288C85.5169 352.328 85.2289 351.192 85.2289 349.88C85.2289 348.6 85.5089 347.48 86.0689 346.52C86.6449 345.56 87.4209 344.816 88.3969 344.288C89.3889 343.744 90.5089 343.472 91.7569 343.472C92.7649 343.472 93.6449 343.624 94.3969 343.928C95.1649 344.216 95.8049 344.656 96.3169 345.248C96.8449 345.84 97.2369 346.584 97.4929 347.48C97.7649 348.36 97.9009 349.392 97.9009 350.576H89.1409V348.848H94.3489L93.8209 349.568C93.8049 348.752 93.7569 348.08 93.6769 347.552C93.5969 347.008 93.4769 346.576 93.3169 346.256C93.1569 345.936 92.9569 345.712 92.7169 345.584C92.4769 345.44 92.1889 345.368 91.8529 345.368C91.5169 345.368 91.2129 345.456 90.9409 345.632C90.6849 345.808 90.4529 346.08 90.2449 346.448C90.0529 346.816 89.9009 347.288 89.7889 347.864C89.6769 348.424 89.6209 349.104 89.6209 349.904ZM109.754 349.904C109.754 350.608 109.818 351.232 109.946 351.776C110.09 352.32 110.29 352.784 110.546 353.168C110.802 353.536 111.138 353.816 111.554 354.008C111.97 354.184 112.45 354.272 112.994 354.272C113.57 354.272 114.058 354.168 114.458 353.96C114.874 353.736 115.226 353.456 115.514 353.12C115.818 352.768 116.066 352.416 116.258 352.064L117.818 353.144C117.498 353.736 117.09 354.272 116.594 354.752C116.098 355.216 115.498 355.584 114.794 355.856C114.106 356.112 113.282 356.24 112.322 356.24C110.93 356.24 109.706 355.984 108.65 355.472C107.61 354.96 106.802 354.232 106.226 353.288C105.65 352.328 105.362 351.192 105.362 349.88C105.362 348.6 105.642 347.48 106.202 346.52C106.778 345.56 107.554 344.816 108.53 344.288C109.522 343.744 110.642 343.472 111.89 343.472C112.898 343.472 113.778 343.624 114.53 343.928C115.298 344.216 115.938 344.656 116.45 345.248C116.978 345.84 117.37 346.584 117.626 347.48C117.898 348.36 118.034 349.392 118.034 350.576H109.274V348.848H114.482L113.954 349.568C113.938 348.752 113.89 348.08 113.81 347.552C113.73 347.008 113.61 346.576 113.45 346.256C113.29 345.936 113.09 345.712 112.85 345.584C112.61 345.44 112.322 345.368 111.986 345.368C111.65 345.368 111.346 345.456 111.074 345.632C110.818 345.808 110.586 346.08 110.378 346.448C110.186 346.816 110.034 347.288 109.922 347.864C109.81 348.424 109.754 349.104 109.754 349.904ZM119.28 356V354.488H119.304C119.544 354.488 119.76 354.472 119.952 354.44C120.144 354.392 120.296 354.32 120.408 354.224C120.52 354.112 120.576 353.96 120.576 353.768V346.136C120.576 345.96 120.536 345.832 120.456 345.752C120.376 345.656 120.256 345.576 120.096 345.512C119.936 345.448 119.728 345.384 119.472 345.32L119.28 345.272V343.712H124.656V346.376H124.944V354.296C124.944 354.344 125 354.384 125.112 354.416C125.24 354.448 125.384 354.472 125.544 354.488C125.72 354.488 125.88 354.488 126.024 354.488H126.096V356H119.28ZM134.376 356H127.56V354.488H127.584C127.728 354.488 127.888 354.488 128.064 354.488C128.24 354.472 128.392 354.448 128.52 354.416C128.648 354.368 128.712 354.328 128.712 354.296V347.6C128.712 347.2 128.664 346.872 128.568 346.616C128.488 346.36 128.352 346.168 128.16 346.04C127.968 345.912 127.712 345.848 127.392 345.848C127.008 345.848 126.64 345.96 126.288 346.184C125.952 346.392 125.632 346.712 125.328 347.144C125.024 347.56 124.728 348.088 124.44 348.728V346.448C124.744 345.824 125.112 345.296 125.544 344.864C125.992 344.416 126.504 344.072 127.08 343.832C127.672 343.592 128.32 343.472 129.024 343.472C129.84 343.472 130.552 343.632 131.16 343.952C131.768 344.256 132.24 344.712 132.576 345.32C132.912 345.928 133.08 346.696 133.08 347.624V353.768C133.08 353.96 133.136 354.112 133.248 354.224C133.36 354.32 133.504 354.392 133.68 354.44C133.872 354.472 134.088 354.488 134.328 354.488H134.376V356ZM134.853 345.464V343.832H134.925C135.277 343.832 135.581 343.808 135.837 343.76C136.093 343.696 136.293 343.592 136.437 343.448C136.581 343.304 136.653 343.088 136.653 342.8L139.197 343.712H143.997V345.464H134.853ZM140.877 351.728C140.877 352.352 140.941 352.848 141.069 353.216C141.213 353.568 141.413 353.824 141.669 353.984C141.925 354.128 142.245 354.2 142.629 354.2C142.933 354.2 143.221 354.168 143.493 354.104C143.765 354.04 143.973 353.984 144.117 353.936V355.808C143.989 355.872 143.797 355.936 143.541 356C143.285 356.064 142.981 356.12 142.629 356.168C142.293 356.216 141.917 356.24 141.501 356.24C140.557 356.24 139.701 356.104 138.933 355.832C138.181 355.56 137.589 355.104 137.157 354.464C136.725 353.808 136.509 352.928 136.509 351.824V344.168L136.653 344L136.677 340.376H140.877V351.728ZM149.387 349.904C149.387 350.608 149.451 351.232 149.579 351.776C149.723 352.32 149.923 352.784 150.179 353.168C150.435 353.536 150.771 353.816 151.187 354.008C151.603 354.184 152.083 354.272 152.627 354.272C153.203 354.272 153.691 354.168 154.091 353.96C154.507 353.736 154.859 353.456 155.147 353.12C155.451 352.768 155.699 352.416 155.891 352.064L157.451 353.144C157.131 353.736 156.723 354.272 156.227 354.752C155.731 355.216 155.131 355.584 154.427 355.856C153.739 356.112 152.915 356.24 151.955 356.24C150.563 356.24 149.339 355.984 148.283 355.472C147.243 354.96 146.435 354.232 145.859 353.288C145.283 352.328 144.995 351.192 144.995 349.88C144.995 348.6 145.275 347.48 145.835 346.52C146.411 345.56 147.187 344.816 148.163 344.288C149.155 343.744 150.275 343.472 151.523 343.472C152.531 343.472 153.411 343.624 154.163 343.928C154.931 344.216 155.571 344.656 156.083 345.248C156.611 345.84 157.003 346.584 157.259 347.48C157.531 348.36 157.667 349.392 157.667 350.576H148.907V348.848H154.115L153.587 349.568C153.571 348.752 153.523 348.08 153.443 347.552C153.363 347.008 153.243 346.576 153.083 346.256C152.923 345.936 152.723 345.712 152.483 345.584C152.243 345.44 151.955 345.368 151.619 345.368C151.283 345.368 150.979 345.456 150.707 345.632C150.451 345.808 150.219 346.08 150.011 346.448C149.819 346.816 149.667 347.288 149.555 347.864C149.443 348.424 149.387 349.104 149.387 349.904ZM168.681 343.664V347.408C168.569 347.36 168.433 347.328 168.273 347.312C168.113 347.28 167.945 347.256 167.769 347.24C167.609 347.224 167.441 347.216 167.265 347.216C166.897 347.216 166.553 347.256 166.233 347.336C165.913 347.4 165.617 347.512 165.345 347.672C165.089 347.816 164.857 348.016 164.648 348.272C164.441 348.528 164.249 348.84 164.073 349.208V347.792C164.297 346.96 164.561 346.232 164.865 345.608C165.169 344.968 165.553 344.472 166.017 344.12C166.481 343.752 167.073 343.568 167.793 343.568C167.985 343.568 168.161 343.576 168.321 343.592C168.481 343.608 168.601 343.632 168.681 343.664ZM158.913 356V354.488H158.937C159.305 354.488 159.609 354.44 159.849 354.344C160.089 354.248 160.209 354.056 160.209 353.768V346.136C160.209 345.96 160.169 345.832 160.089 345.752C160.009 345.656 159.889 345.576 159.729 345.512C159.569 345.448 159.361 345.384 159.104 345.32L158.913 345.272V343.712H164.289V347.6L164.577 347.312V354.056C164.577 354.184 164.665 354.28 164.841 354.344C165.033 354.408 165.249 354.448 165.489 354.464C165.729 354.48 165.945 354.488 166.137 354.488H166.329V356H158.913ZM184.209 353.312L182.961 355.664L181.809 357.296L176.817 346.064C176.721 345.84 176.617 345.672 176.505 345.56C176.393 345.432 176.257 345.344 176.097 345.296C175.937 345.248 175.729 345.224 175.473 345.224H175.449V343.712H182.625V345.224H182.601C182.345 345.224 182.097 345.232 181.857 345.248C181.617 345.264 181.417 345.288 181.257 345.32C181.113 345.336 181.041 345.376 181.041 345.44L184.209 353.312ZM184.113 355.568C183.649 356.624 183.185 357.536 182.721 358.304C182.257 359.088 181.793 359.72 181.329 360.2C180.881 360.68 180.401 361.032 179.889 361.256C179.377 361.496 178.825 361.616 178.233 361.616C177.769 361.616 177.369 361.56 177.033 361.448C176.713 361.336 176.465 361.216 176.289 361.088V357.92C176.353 357.936 176.497 357.992 176.721 358.088C176.961 358.184 177.249 358.28 177.585 358.376C177.921 358.472 178.281 358.52 178.665 358.52C179.033 358.52 179.369 358.472 179.673 358.376C179.993 358.296 180.297 358.136 180.585 357.896C180.873 357.672 181.153 357.36 181.425 356.96C181.697 356.56 181.953 356.056 182.193 355.448L182.721 354.272L186.393 345.752C186.393 345.64 186.321 345.552 186.177 345.488C186.049 345.408 185.873 345.344 185.649 345.296C185.425 345.248 185.185 345.224 184.929 345.224H184.857V343.712H189.585V345.224H189.561C189.369 345.224 189.185 345.256 189.009 345.32C188.849 345.384 188.697 345.496 188.553 345.656C188.409 345.816 188.281 346.032 188.169 346.304L184.113 355.568ZM203.916 349.856C203.916 351.104 203.628 352.216 203.052 353.192C202.492 354.152 201.684 354.904 200.628 355.448C199.588 355.976 198.356 356.24 196.932 356.24C195.524 356.24 194.292 355.976 193.236 355.448C192.18 354.904 191.364 354.152 190.788 353.192C190.228 352.216 189.948 351.104 189.948 349.856C189.948 348.912 190.108 348.048 190.428 347.264C190.764 346.48 191.236 345.808 191.844 345.248C192.468 344.688 193.204 344.256 194.052 343.952C194.916 343.632 195.876 343.472 196.932 343.472C198.004 343.472 198.964 343.624 199.812 343.928C200.676 344.232 201.412 344.672 202.02 345.248C202.644 345.808 203.116 346.48 203.436 347.264C203.756 348.048 203.916 348.912 203.916 349.856ZM194.46 349.856C194.46 350.832 194.556 351.664 194.748 352.352C194.94 353.024 195.22 353.536 195.588 353.888C195.956 354.24 196.404 354.416 196.932 354.416C197.476 354.416 197.924 354.24 198.276 353.888C198.644 353.536 198.924 353.024 199.116 352.352C199.324 351.664 199.428 350.832 199.428 349.856C199.428 348.864 199.324 348.04 199.116 347.384C198.924 346.712 198.644 346.208 198.276 345.872C197.924 345.536 197.476 345.368 196.932 345.368C196.404 345.368 195.956 345.536 195.588 345.872C195.22 346.208 194.94 346.712 194.748 347.384C194.556 348.04 194.46 348.864 194.46 349.856ZM210.743 343.712V352.064C210.743 352.464 210.783 352.8 210.863 353.072C210.959 353.344 211.103 353.544 211.295 353.672C211.487 353.8 211.743 353.864 212.063 353.864C212.431 353.864 212.775 353.768 213.095 353.576C213.415 353.368 213.727 353.056 214.031 352.64C214.335 352.224 214.631 351.68 214.919 351.008L214.943 353.336C214.607 353.976 214.215 354.512 213.767 354.944C213.319 355.376 212.815 355.704 212.255 355.928C211.695 356.136 211.079 356.24 210.407 356.24C209.607 356.24 208.903 356.088 208.295 355.784C207.687 355.464 207.215 355 206.879 354.392C206.543 353.768 206.375 353 206.375 352.088V346.136C206.375 345.88 206.287 345.704 206.111 345.608C205.935 345.496 205.655 345.4 205.271 345.32L205.055 345.272V343.712H210.743ZM218.807 343.712V353.696C218.807 353.856 218.847 353.984 218.927 354.08C219.023 354.176 219.159 354.248 219.335 354.296C219.511 354.344 219.727 354.384 219.983 354.416L220.103 354.44V356H214.703V353.24L214.415 353.336V346.136C214.415 345.88 214.295 345.704 214.055 345.608C213.815 345.496 213.503 345.408 213.119 345.344L212.759 345.272V343.712H218.807ZM230.837 343.664V347.408C230.725 347.36 230.589 347.328 230.429 347.312C230.269 347.28 230.101 347.256 229.925 347.24C229.765 347.224 229.597 347.216 229.421 347.216C229.053 347.216 228.709 347.256 228.389 347.336C228.069 347.4 227.773 347.512 227.501 347.672C227.245 347.816 227.013 348.016 226.805 348.272C226.597 348.528 226.405 348.84 226.229 349.208V347.792C226.453 346.96 226.717 346.232 227.021 345.608C227.325 344.968 227.709 344.472 228.173 344.12C228.637 343.752 229.229 343.568 229.949 343.568C230.141 343.568 230.317 343.576 230.477 343.592C230.637 343.608 230.757 343.632 230.837 343.664ZM221.069 356V354.488H221.093C221.461 354.488 221.765 354.44 222.005 354.344C222.245 354.248 222.365 354.056 222.365 353.768V346.136C222.365 345.96 222.325 345.832 222.245 345.752C222.165 345.656 222.045 345.576 221.885 345.512C221.725 345.448 221.517 345.384 221.261 345.32L221.069 345.272V343.712H226.445V347.6L226.733 347.312V354.056C226.733 354.184 226.821 354.28 226.997 354.344C227.189 354.408 227.405 354.448 227.645 354.464C227.885 354.48 228.101 354.488 228.293 354.488H228.485V356H221.069ZM242.598 349.904C242.598 350.608 242.662 351.232 242.79 351.776C242.934 352.32 243.134 352.784 243.39 353.168C243.646 353.536 243.982 353.816 244.398 354.008C244.814 354.184 245.294 354.272 245.838 354.272C246.414 354.272 246.902 354.168 247.302 353.96C247.718 353.736 248.07 353.456 248.358 353.12C248.662 352.768 248.91 352.416 249.102 352.064L250.661 353.144C250.342 353.736 249.934 354.272 249.438 354.752C248.942 355.216 248.342 355.584 247.638 355.856C246.95 356.112 246.126 356.24 245.166 356.24C243.774 356.24 242.55 355.984 241.494 355.472C240.454 354.96 239.646 354.232 239.07 353.288C238.494 352.328 238.206 351.192 238.206 349.88C238.206 348.6 238.486 347.48 239.046 346.52C239.622 345.56 240.398 344.816 241.374 344.288C242.366 343.744 243.486 343.472 244.734 343.472C245.742 343.472 246.622 343.624 247.374 343.928C248.142 344.216 248.782 344.656 249.294 345.248C249.822 345.84 250.214 346.584 250.47 347.48C250.742 348.36 250.878 349.392 250.878 350.576H242.118V348.848H247.326L246.798 349.568C246.782 348.752 246.734 348.08 246.654 347.552C246.574 347.008 246.454 346.576 246.294 346.256C246.134 345.936 245.934 345.712 245.694 345.584C245.454 345.44 245.166 345.368 244.83 345.368C244.494 345.368 244.19 345.456 243.918 345.632C243.662 345.808 243.43 346.08 243.222 346.448C243.03 346.816 242.878 347.288 242.766 347.864C242.654 348.424 242.598 349.104 242.598 349.904ZM252.123 356V354.488H252.147C252.515 354.488 252.819 354.44 253.059 354.344C253.299 354.248 253.419 354.056 253.419 353.768V346.136C253.419 345.96 253.379 345.832 253.299 345.752C253.219 345.656 253.099 345.576 252.939 345.512C252.779 345.448 252.571 345.384 252.315 345.32L252.123 345.272V343.712H257.499V346.472L257.787 346.376V354.296C257.787 354.344 257.835 354.384 257.931 354.416C258.043 354.448 258.171 354.472 258.315 354.488C258.459 354.488 258.587 354.488 258.699 354.488H258.771V356H252.123ZM266.355 356H259.995V354.488H260.043C260.171 354.488 260.307 354.488 260.451 354.488C260.611 354.472 260.739 354.448 260.835 354.416C260.947 354.384 261.003 354.344 261.003 354.296V347.624C261.003 347.224 260.963 346.896 260.883 346.64C260.819 346.368 260.707 346.168 260.547 346.04C260.403 345.912 260.187 345.848 259.899 345.848C259.595 345.848 259.299 345.944 259.011 346.136C258.723 346.312 258.435 346.6 258.147 347C257.875 347.4 257.587 347.944 257.283 348.632V346.376C257.603 345.752 257.971 345.224 258.387 344.792C258.819 344.36 259.299 344.032 259.827 343.808C260.355 343.584 260.939 343.472 261.579 343.472C262.347 343.472 263.011 343.632 263.571 343.952C264.147 344.256 264.587 344.712 264.891 345.32C265.211 345.928 265.371 346.696 265.371 347.624V354.272C265.371 354.32 265.427 354.368 265.539 354.416C265.651 354.448 265.779 354.472 265.923 354.488C266.067 354.488 266.203 354.488 266.331 354.488H266.355V356ZM274.275 356H267.603V354.488H267.651C267.779 354.488 267.915 354.488 268.059 354.488C268.203 354.472 268.323 354.448 268.419 354.416C268.515 354.384 268.563 354.344 268.563 354.296V347.624C268.563 347.224 268.531 346.896 268.467 346.64C268.403 346.368 268.291 346.168 268.131 346.04C267.987 345.912 267.771 345.848 267.483 345.848C267.163 345.848 266.859 345.952 266.571 346.16C266.283 346.352 265.995 346.648 265.707 347.048C265.435 347.432 265.155 347.936 264.867 348.56V346.376C265.203 345.752 265.579 345.224 265.995 344.792C266.427 344.36 266.899 344.032 267.411 343.808C267.939 343.584 268.523 343.472 269.163 343.472C269.915 343.472 270.579 343.632 271.155 343.952C271.731 344.256 272.171 344.712 272.475 345.32C272.795 345.928 272.955 346.696 272.955 347.624V353.768C272.955 354.056 273.075 354.248 273.315 354.344C273.555 354.44 273.851 354.488 274.203 354.488H274.275V356ZM283.44 348.608V350.072C282.912 350.136 282.432 350.232 282 350.36C281.568 350.472 281.192 350.608 280.872 350.768C280.552 350.928 280.288 351.112 280.08 351.32C279.888 351.512 279.744 351.736 279.648 351.992C279.552 352.248 279.504 352.52 279.504 352.808C279.504 353.16 279.56 353.456 279.672 353.696C279.784 353.92 279.952 354.096 280.176 354.224C280.4 354.352 280.664 354.416 280.968 354.416C281.352 354.416 281.688 354.312 281.976 354.104C282.28 353.896 282.552 353.608 282.792 353.24C283.032 352.872 283.24 352.432 283.416 351.92L283.44 353.672C283.216 354.216 282.912 354.68 282.528 355.064C282.16 355.448 281.72 355.744 281.208 355.952C280.696 356.144 280.104 356.24 279.432 356.24C278.6 356.24 277.88 356.12 277.272 355.88C276.68 355.624 276.216 355.256 275.88 354.776C275.56 354.28 275.4 353.68 275.4 352.976C275.4 352.304 275.568 351.728 275.904 351.248C276.256 350.768 276.768 350.36 277.44 350.024C278.128 349.688 278.968 349.408 279.96 349.184C280.968 348.944 282.128 348.752 283.44 348.608ZM283.2 356V353.624L282.912 353.648V347.168C282.912 346.72 282.848 346.36 282.72 346.088C282.592 345.816 282.4 345.624 282.144 345.512C281.888 345.384 281.56 345.32 281.16 345.32C280.6 345.32 280.128 345.448 279.744 345.704C279.376 345.944 279.088 346.248 278.88 346.616C278.736 346.456 278.656 346.304 278.64 346.16C278.624 346.016 278.648 345.88 278.712 345.752C278.792 345.608 278.912 345.488 279.072 345.392C279.232 345.28 279.424 345.208 279.648 345.176V347.696H276.24V345.08C276.48 344.904 276.832 344.688 277.296 344.432C277.776 344.176 278.376 343.952 279.096 343.76C279.816 343.568 280.664 343.472 281.64 343.472C282.44 343.472 283.176 343.552 283.848 343.712C284.536 343.872 285.128 344.128 285.624 344.48C286.12 344.816 286.504 345.256 286.776 345.8C287.048 346.328 287.184 346.968 287.184 347.72V353.696C287.184 353.856 287.232 353.984 287.328 354.08C287.424 354.176 287.56 354.248 287.736 354.296C287.912 354.344 288.12 354.384 288.36 354.416L288.48 354.44V356H283.2ZM292.774 342.032C292.038 342.032 291.454 341.864 291.022 341.528C290.606 341.176 290.398 340.688 290.398 340.064C290.398 339.44 290.606 338.96 291.022 338.624C291.454 338.272 292.038 338.096 292.774 338.096C293.494 338.096 294.062 338.272 294.478 338.624C294.91 338.96 295.126 339.44 295.126 340.064C295.126 340.688 294.91 341.176 294.478 341.528C294.062 341.864 293.494 342.032 292.774 342.032ZM295.03 343.712V353.768C295.03 354.056 295.15 354.248 295.39 354.344C295.63 354.44 295.934 354.488 296.302 354.488H296.326V356H289.342V354.488H289.366C289.734 354.488 290.038 354.44 290.278 354.344C290.518 354.248 290.638 354.056 290.638 353.768V346.136C290.638 345.88 290.55 345.704 290.374 345.608C290.214 345.512 289.934 345.416 289.534 345.32L289.342 345.272V343.712H295.03ZM302.951 338.36V353.768C302.951 354.056 303.071 354.248 303.311 354.344C303.551 354.44 303.847 354.488 304.199 354.488H304.247V356H297.263V354.488H297.287C297.671 354.488 297.975 354.44 298.199 354.344C298.439 354.248 298.559 354.056 298.559 353.768V340.76C298.559 340.6 298.519 340.472 298.439 340.376C298.375 340.28 298.263 340.2 298.103 340.136C297.943 340.072 297.727 340.016 297.455 339.968L297.263 339.92V338.36H302.951ZM319.417 348.608V350.072C318.889 350.136 318.409 350.232 317.977 350.36C317.545 350.472 317.169 350.608 316.849 350.768C316.529 350.928 316.265 351.112 316.057 351.32C315.865 351.512 315.721 351.736 315.625 351.992C315.529 352.248 315.481 352.52 315.481 352.808C315.481 353.16 315.537 353.456 315.649 353.696C315.761 353.92 315.929 354.096 316.153 354.224C316.377 354.352 316.641 354.416 316.945 354.416C317.329 354.416 317.665 354.312 317.953 354.104C318.257 353.896 318.529 353.608 318.769 353.24C319.009 352.872 319.217 352.432 319.393 351.92L319.417 353.672C319.193 354.216 318.889 354.68 318.505 355.064C318.137 355.448 317.697 355.744 317.185 355.952C316.673 356.144 316.081 356.24 315.409 356.24C314.577 356.24 313.857 356.12 313.249 355.88C312.657 355.624 312.193 355.256 311.857 354.776C311.537 354.28 311.377 353.68 311.377 352.976C311.377 352.304 311.545 351.728 311.881 351.248C312.233 350.768 312.745 350.36 313.417 350.024C314.105 349.688 314.945 349.408 315.937 349.184C316.945 348.944 318.105 348.752 319.417 348.608ZM319.177 356V353.624L318.889 353.648V347.168C318.889 346.72 318.825 346.36 318.697 346.088C318.569 345.816 318.377 345.624 318.121 345.512C317.865 345.384 317.537 345.32 317.137 345.32C316.577 345.32 316.105 345.448 315.721 345.704C315.353 345.944 315.065 346.248 314.857 346.616C314.713 346.456 314.633 346.304 314.617 346.16C314.601 346.016 314.625 345.88 314.689 345.752C314.769 345.608 314.889 345.488 315.049 345.392C315.209 345.28 315.401 345.208 315.625 345.176V347.696H312.217V345.08C312.457 344.904 312.809 344.688 313.273 344.432C313.753 344.176 314.353 343.952 315.073 343.76C315.793 343.568 316.641 343.472 317.617 343.472C318.417 343.472 319.153 343.552 319.825 343.712C320.513 343.872 321.105 344.128 321.601 344.48C322.097 344.816 322.481 345.256 322.753 345.8C323.025 346.328 323.161 346.968 323.161 347.72V353.696C323.161 353.856 323.209 353.984 323.305 354.08C323.401 354.176 323.537 354.248 323.713 354.296C323.889 354.344 324.097 354.384 324.337 354.416L324.457 354.44V356H319.177ZM338.977 353.696C338.977 353.952 339.081 354.128 339.289 354.224C339.497 354.304 339.785 354.368 340.153 354.416L340.273 354.44V356H334.873V353.168L334.585 353.36V340.76C334.585 340.6 334.537 340.472 334.441 340.376C334.361 340.28 334.233 340.2 334.057 340.136C333.881 340.072 333.665 340.016 333.409 339.968L333.193 339.92V338.36H338.977V353.696ZM331.081 343.472C331.801 343.472 332.425 343.584 332.953 343.808C333.497 344.016 333.977 344.344 334.393 344.792C334.809 345.24 335.177 345.8 335.497 346.472L335.473 348.944C335.121 348.192 334.785 347.576 334.465 347.096C334.145 346.616 333.809 346.256 333.457 346.016C333.105 345.776 332.705 345.656 332.257 345.656C331.857 345.656 331.505 345.76 331.201 345.968C330.913 346.16 330.673 346.448 330.481 346.832C330.289 347.2 330.145 347.656 330.049 348.2C329.953 348.728 329.905 349.328 329.905 350C329.905 350.64 329.945 351.216 330.025 351.728C330.121 352.224 330.257 352.648 330.433 353C330.625 353.352 330.857 353.616 331.129 353.792C331.417 353.968 331.745 354.056 332.113 354.056C332.561 354.056 332.953 353.928 333.289 353.672C333.641 353.416 333.985 353.016 334.321 352.472C334.673 351.928 335.049 351.24 335.449 350.408L335.473 352.856C335.089 353.608 334.681 354.232 334.249 354.728C333.833 355.224 333.353 355.6 332.809 355.856C332.281 356.112 331.641 356.24 330.889 356.24C329.785 356.24 328.817 355.984 327.985 355.472C327.169 354.944 326.529 354.216 326.065 353.288C325.617 352.344 325.393 351.248 325.393 350C325.393 348.72 325.633 347.592 326.113 346.616C326.593 345.624 327.257 344.856 328.105 344.312C328.969 343.752 329.961 343.472 331.081 343.472ZM351.001 343.664V347.408C350.889 347.36 350.753 347.328 350.593 347.312C350.433 347.28 350.265 347.256 350.089 347.24C349.929 347.224 349.761 347.216 349.585 347.216C349.217 347.216 348.873 347.256 348.553 347.336C348.233 347.4 347.937 347.512 347.665 347.672C347.409 347.816 347.177 348.016 346.969 348.272C346.761 348.528 346.569 348.84 346.393 349.208V347.792C346.617 346.96 346.881 346.232 347.185 345.608C347.489 344.968 347.873 344.472 348.337 344.12C348.801 343.752 349.393 343.568 350.113 343.568C350.305 343.568 350.481 343.576 350.641 343.592C350.801 343.608 350.921 343.632 351.001 343.664ZM341.233 356V354.488H341.257C341.625 354.488 341.929 354.44 342.169 354.344C342.409 354.248 342.529 354.056 342.529 353.768V346.136C342.529 345.96 342.489 345.832 342.409 345.752C342.329 345.656 342.209 345.576 342.049 345.512C341.889 345.448 341.681 345.384 341.425 345.32L341.233 345.272V343.712H346.609V347.6L346.897 347.312V354.056C346.897 354.184 346.985 354.28 347.161 354.344C347.353 354.408 347.569 354.448 347.809 354.464C348.049 354.48 348.265 354.488 348.457 354.488H348.649V356H341.233ZM356.551 349.904C356.551 350.608 356.615 351.232 356.743 351.776C356.887 352.32 357.087 352.784 357.343 353.168C357.599 353.536 357.935 353.816 358.351 354.008C358.767 354.184 359.247 354.272 359.791 354.272C360.367 354.272 360.855 354.168 361.255 353.96C361.671 353.736 362.023 353.456 362.311 353.12C362.615 352.768 362.863 352.416 363.055 352.064L364.615 353.144C364.295 353.736 363.887 354.272 363.391 354.752C362.895 355.216 362.295 355.584 361.591 355.856C360.903 356.112 360.079 356.24 359.119 356.24C357.727 356.24 356.503 355.984 355.447 355.472C354.407 354.96 353.599 354.232 353.023 353.288C352.447 352.328 352.159 351.192 352.159 349.88C352.159 348.6 352.439 347.48 352.999 346.52C353.575 345.56 354.351 344.816 355.327 344.288C356.319 343.744 357.439 343.472 358.687 343.472C359.695 343.472 360.575 343.624 361.327 343.928C362.095 344.216 362.735 344.656 363.247 345.248C363.775 345.84 364.167 346.584 364.423 347.48C364.695 348.36 364.831 349.392 364.831 350.576H356.071V348.848H361.279L360.751 349.568C360.735 348.752 360.687 348.08 360.607 347.552C360.527 347.008 360.407 346.576 360.247 346.256C360.087 345.936 359.887 345.712 359.647 345.584C359.407 345.44 359.119 345.368 358.783 345.368C358.447 345.368 358.143 345.456 357.871 345.632C357.615 345.808 357.383 346.08 357.175 346.448C356.983 346.816 356.831 347.288 356.719 347.864C356.607 348.424 356.551 349.104 356.551 349.904ZM373.397 353.024C373.397 352.752 373.317 352.536 373.157 352.376C373.013 352.2 372.805 352.056 372.533 351.944C372.277 351.816 371.981 351.712 371.645 351.632C371.309 351.536 370.949 351.432 370.565 351.32C370.085 351.192 369.597 351.048 369.101 350.888C368.605 350.712 368.149 350.488 367.733 350.216C367.317 349.928 366.981 349.56 366.725 349.112C366.485 348.648 366.365 348.064 366.365 347.36C366.365 346.512 366.589 345.792 367.037 345.2C367.501 344.608 368.133 344.168 368.933 343.88C369.749 343.576 370.701 343.424 371.789 343.424C372.685 343.424 373.453 343.496 374.093 343.64C374.733 343.768 375.253 343.92 375.653 344.096C376.053 344.272 376.333 344.424 376.493 344.552V347.048H373.493V344.96C373.733 344.944 373.917 344.976 374.045 345.056C374.173 345.12 374.253 345.216 374.285 345.344C374.317 345.456 374.309 345.576 374.261 345.704C374.229 345.832 374.181 345.96 374.117 346.088C373.941 345.896 373.741 345.736 373.517 345.608C373.293 345.464 373.037 345.36 372.749 345.296C372.477 345.232 372.165 345.2 371.813 345.2C371.221 345.2 370.773 345.312 370.469 345.536C370.165 345.76 370.013 346.064 370.013 346.448C370.013 346.72 370.093 346.944 370.253 347.12C370.413 347.296 370.629 347.448 370.901 347.576C371.189 347.704 371.509 347.816 371.861 347.912C372.229 348.008 372.613 348.104 373.013 348.2C373.509 348.344 374.005 348.504 374.501 348.68C375.013 348.84 375.477 349.064 375.893 349.352C376.325 349.64 376.669 350.008 376.925 350.456C377.181 350.888 377.309 351.424 377.309 352.064C377.309 352.96 377.077 353.72 376.613 354.344C376.165 354.952 375.493 355.424 374.597 355.76C373.717 356.08 372.629 356.24 371.333 356.24C370.469 356.24 369.685 356.168 368.981 356.024C368.293 355.896 367.693 355.736 367.181 355.544C366.685 355.336 366.293 355.144 366.005 354.968V352.232H369.077V355.016C368.789 354.872 368.565 354.72 368.405 354.56C368.245 354.384 368.141 354.216 368.093 354.056C368.061 353.88 368.069 353.736 368.117 353.624C368.181 353.496 368.285 353.424 368.429 353.408C368.653 353.648 368.909 353.848 369.197 354.008C369.501 354.168 369.829 354.28 370.181 354.344C370.533 354.408 370.925 354.44 371.357 354.44C371.789 354.44 372.149 354.392 372.437 354.296C372.741 354.2 372.973 354.048 373.133 353.84C373.309 353.616 373.397 353.344 373.397 353.024ZM385.725 353.024C385.725 352.752 385.645 352.536 385.485 352.376C385.341 352.2 385.133 352.056 384.861 351.944C384.605 351.816 384.309 351.712 383.973 351.632C383.637 351.536 383.277 351.432 382.893 351.32C382.413 351.192 381.925 351.048 381.429 350.888C380.933 350.712 380.477 350.488 380.061 350.216C379.645 349.928 379.309 349.56 379.053 349.112C378.813 348.648 378.693 348.064 378.693 347.36C378.693 346.512 378.917 345.792 379.365 345.2C379.829 344.608 380.461 344.168 381.261 343.88C382.077 343.576 383.029 343.424 384.117 343.424C385.013 343.424 385.781 343.496 386.421 343.64C387.061 343.768 387.581 343.92 387.981 344.096C388.381 344.272 388.661 344.424 388.821 344.552V347.048H385.821V344.96C386.061 344.944 386.245 344.976 386.373 345.056C386.501 345.12 386.581 345.216 386.613 345.344C386.645 345.456 386.637 345.576 386.589 345.704C386.557 345.832 386.509 345.96 386.445 346.088C386.269 345.896 386.069 345.736 385.845 345.608C385.621 345.464 385.365 345.36 385.077 345.296C384.805 345.232 384.493 345.2 384.141 345.2C383.549 345.2 383.101 345.312 382.797 345.536C382.493 345.76 382.341 346.064 382.341 346.448C382.341 346.72 382.421 346.944 382.581 347.12C382.741 347.296 382.957 347.448 383.229 347.576C383.517 347.704 383.837 347.816 384.189 347.912C384.557 348.008 384.941 348.104 385.341 348.2C385.837 348.344 386.333 348.504 386.829 348.68C387.341 348.84 387.805 349.064 388.221 349.352C388.653 349.64 388.997 350.008 389.253 350.456C389.509 350.888 389.637 351.424 389.637 352.064C389.637 352.96 389.405 353.72 388.941 354.344C388.493 354.952 387.821 355.424 386.925 355.76C386.045 356.08 384.957 356.24 383.661 356.24C382.797 356.24 382.013 356.168 381.309 356.024C380.621 355.896 380.021 355.736 379.509 355.544C379.013 355.336 378.621 355.144 378.333 354.968V352.232H381.405V355.016C381.117 354.872 380.893 354.72 380.733 354.56C380.573 354.384 380.469 354.216 380.421 354.056C380.389 353.88 380.397 353.736 380.445 353.624C380.509 353.496 380.613 353.424 380.757 353.408C380.981 353.648 381.237 353.848 381.525 354.008C381.829 354.168 382.157 354.28 382.509 354.344C382.861 354.408 383.253 354.44 383.685 354.44C384.117 354.44 384.477 354.392 384.765 354.296C385.069 354.2 385.301 354.048 385.461 353.84C385.637 353.616 385.725 353.344 385.725 353.024Z" fill="#393939"/>
<path d="M264.898 181.914C293.972 181.914 317.541 158.428 317.541 129.457C317.541 100.486 293.972 77 264.898 77C235.825 77 212.256 100.486 212.256 129.457C212.256 158.428 235.825 181.914 264.898 181.914Z" fill="#0082AE"/>
<path d="M124.966 240.959C144.829 240.959 160.932 224.913 160.932 205.119C160.932 185.326 144.829 169.28 124.966 169.28C105.102 169.28 89 185.326 89 205.119C89 224.913 105.102 240.959 124.966 240.959Z" fill="#EBEBEB"/>
<path d="M232.795 119.676V157.259H222.117V119.676C222.117 105.368 211.211 93.7307 197.806 93.7307C184.401 93.7307 173.496 105.368 173.496 119.676V157.259H162.817V119.676C162.817 99.1869 178.517 82.5239 197.806 82.5239C217.095 82.5239 232.795 99.1869 232.795 119.676Z" fill="#C7C7C7"/>
<path d="M162.817 129.457L173.496 129.887V157.304H162.817V129.457Z" fill="#A6A6A6"/>
<path d="M232.795 132.309V157.304H222.116V131.856L232.795 132.309Z" fill="#A6A6A6"/>
<path d="M246.472 135.886H149.14V223.865H246.472V135.886Z" fill="#0082AE"/>
<path opacity="0.1" d="M246.472 135.886H197.806V223.865H246.472V135.886Z" fill="black"/>
<path d="M201.918 183.091L206.008 202.357H188.695L192.785 183.091C191.181 182.105 189.944 180.625 189.261 178.876C188.578 177.126 188.487 175.202 189.001 173.396C189.515 171.589 190.606 170 192.109 168.868C193.612 167.736 195.445 167.123 197.329 167.123C199.213 167.123 201.046 167.736 202.549 168.868C204.052 170 205.143 171.589 205.657 173.396C206.171 175.202 206.079 177.126 205.397 178.876C204.714 180.625 203.477 182.105 201.873 183.091H201.918Z" fill="#263238"/>
</svg>
