<svg width="203" height="277" viewBox="0 0 203 277" fill="none" xmlns="http://www.w3.org/2000/svg">
<path d="M98.9318 51.0607C100.593 62.506 99.9983 74.1642 97.1824 85.383C95.8633 90.5799 94.0998 95.6547 91.9113 100.552C89.1622 106.846 86.2995 112.958 87.0038 119.841C87.6627 120.271 85.3907 120.203 85.2998 119.547C66.8739 109.087 43.2451 107.163 29.0678 90.1147C22.6796 81.7843 18.6402 71.9048 17.367 61.4977C15.6176 50.3136 15.0949 37.9521 18.0258 26.9491C20.4569 17.7119 25.9324 8.65596 34.8159 4.12796C43.6995 -0.400041 55.7638 -0.173655 65.3062 2.76955C85.7769 9.08611 96.0236 31.296 98.9318 51.0607Z" fill="#0082AE"/>
<path d="M108.383 186.969C105.884 178.622 103.347 170.283 100.772 161.951C95.7283 145.628 90.48 129.373 84.641 113.298C81.1572 103.684 77.4842 94.1522 73.6218 84.7038C74.075 78.7525 74.8333 72.8282 75.8938 66.954C77.4387 59.8451 79.6653 52.9625 81.7556 46.012C81.8919 45.5819 81.1875 45.3555 81.0058 45.763C76.8707 55.3624 71.4634 67.6332 71.3498 78.9985C66.8058 68.3124 61.974 57.7848 56.8544 47.4157C56.2194 38.6453 56.4477 29.8341 57.536 21.108C57.535 21.0347 57.5085 20.964 57.4611 20.908C57.4136 20.852 57.3482 20.814 57.2759 20.8007C57.2035 20.7874 57.1288 20.7994 57.0644 20.8348C57 20.8702 56.9499 20.9268 56.9226 20.9949C55.3486 28.6245 54.738 36.4203 55.105 44.2008C51.1517 36.4127 46.9636 28.7226 42.5408 21.1307C42.1318 20.4515 41.2003 21.1307 41.5411 21.8325C48.4707 35.1222 54.8778 48.6835 60.9213 62.426C52.4373 55.0933 42.6292 49.4382 32.0214 45.763C31.567 45.5819 31.2262 46.2611 31.6806 46.4422C43.2576 51.3949 53.847 58.381 62.9434 67.0672C67.2602 77.1194 71.3876 87.2621 75.3258 97.4954C63.784 86.1754 48.0618 78.8174 32.7485 74.8554C32.2259 74.7195 32.0896 75.5119 32.5894 75.6478C50.2656 80.9455 63.9658 90.9298 77.416 102.816C78.961 106.959 80.5059 111.102 81.96 115.245C87.64 130.972 93.0549 146.82 98.2048 162.789C100.689 170.336 103.127 177.973 105.521 185.701C108.088 193.942 110.065 202.636 113.473 210.605C113.791 211.352 115.154 211.193 114.972 210.265C113.178 202.392 110.979 194.617 108.383 186.969Z" fill="#263238"/>
<path d="M77.8249 34.9862C74.5597 39.9985 72.3063 45.5968 71.1907 51.4682C71.1907 51.6266 71.3951 51.7172 71.4633 51.4682C73.5145 45.9354 75.9124 40.5364 78.6428 35.3032C78.9382 34.8504 78.143 34.5108 77.8249 34.9862Z" fill="#263238"/>
<path d="M44.949 73.248C39.8259 70.4172 34.2291 68.5377 28.4316 67.7012C28.2725 67.7012 28.1817 67.905 28.4316 67.9729C31.0898 69.0596 33.8843 69.8294 36.5653 70.8708C39.2463 71.9123 41.9045 73.1348 44.6309 74.1083C44.7351 74.1171 44.8392 74.0916 44.9274 74.0357C45.0155 73.9798 45.0829 73.8966 45.119 73.7989C45.1551 73.7012 45.158 73.5944 45.1273 73.4949C45.0966 73.3953 45.034 73.3086 44.949 73.248Z" fill="#263238"/>
<path d="M35.7021 27.2435C34.0408 25.9804 32.2602 24.881 30.3856 23.9607C30.3235 23.9385 30.2557 23.9376 30.1931 23.9582C30.1304 23.9788 30.0765 24.0197 30.0399 24.0744C30.0033 24.1291 29.9861 24.1945 29.9911 24.26C29.9961 24.3256 30.0231 24.3876 30.0676 24.4362C31.7073 25.7216 33.4645 26.851 35.3159 27.8095C35.6567 28.0133 36.0429 27.4473 35.7021 27.2435Z" fill="#263238"/>
<path d="M161.048 113.434C147.78 117.351 134.443 120.973 121.175 124.867C120.016 125.207 97.5913 82.372 105.702 60.298C109.562 50.3005 115.614 41.2884 123.417 33.9205C131.219 26.5526 140.576 21.0149 150.801 17.7122C160.276 14.4973 171.908 11.8031 181.928 13.9992C190.834 15.9689 197.105 23.2137 200.104 31.5679C204.034 42.8879 202.717 56.4719 200.581 67.9956C198.879 78.8634 194.378 89.1057 187.517 97.7219C180.383 106.008 171.386 110.378 161.048 113.434Z" fill="#0082AE"/>
<path d="M180.224 72.7044C171.833 76.7969 163.126 80.2113 154.187 82.915C148.234 84.5152 142.428 86.6131 136.829 89.1863C142.441 76.7343 148.575 64.554 155.119 52.4643C163.684 49.9965 172.704 46.1477 179.156 40.1028C179.194 40.0716 179.224 40.0334 179.247 39.9903C179.269 39.9472 179.283 39.9002 179.287 39.8518C179.291 39.8035 179.286 39.7547 179.271 39.7085C179.257 39.6622 179.233 39.6193 179.202 39.5821C179.17 39.5449 179.132 39.5142 179.089 39.4919C179.046 39.4695 178.998 39.4558 178.95 39.4516C178.901 39.4474 178.852 39.4528 178.806 39.4674C178.76 39.482 178.716 39.5056 178.679 39.5368C171.613 44.5176 163.798 47.5061 155.959 50.8568C157.731 47.5967 159.503 44.3591 161.321 41.1216C161.821 40.216 160.594 39.333 159.981 40.1933C153.005 50.2889 146.706 60.8319 141.123 71.7535C139.691 62.1869 139.235 52.5005 139.76 42.8423C139.76 42.5932 139.419 42.5706 139.374 42.8423C137.726 53.3529 137.833 64.0626 139.692 74.5383C135.148 83.798 130.808 93.2842 126.991 102.884C125.492 97.1103 123.515 91.4277 122.197 85.6092C120.191 77.2843 119.547 68.6914 120.289 60.1618C120.289 59.9128 119.948 59.8902 119.903 60.1618C117.623 75.9892 119.623 92.136 125.696 106.936C123.424 112.709 121.357 118.505 119.425 124.324C109.419 153.969 103.488 184.829 101.795 216.061C101.795 216.211 101.854 216.355 101.961 216.461C102.068 216.567 102.212 216.627 102.363 216.627C102.513 216.627 102.658 216.567 102.764 216.461C102.871 216.355 102.931 216.211 102.931 216.061C106.407 185.282 113.03 154.938 122.697 125.501C126.537 113.977 130.967 102.861 135.829 91.7899C143.668 89.5259 151.483 86.3563 159.185 83.7074C166.887 81.3943 174.155 77.8379 180.701 73.1798C180.764 73.1168 180.8 73.0313 180.8 72.9421C180.8 72.8529 180.764 72.7675 180.701 72.7044C180.638 72.6414 180.552 72.606 180.463 72.606C180.373 72.606 180.287 72.6414 180.224 72.7044Z" fill="#263238"/>
<path d="M192.652 60.2753C184.541 63.1506 176.748 67.1806 168.751 70.1012C168.364 70.237 168.591 70.8256 168.955 70.7577C177.543 68.9918 186.04 66.3429 192.97 60.7282C193.22 60.5244 192.947 60.1621 192.652 60.2753Z" fill="#263238"/>
<path d="M126.377 42.8197C126.491 42.3896 125.855 42.1405 125.719 42.5933C123.447 50.0419 121.97 57.9659 124.128 65.573C124.128 65.8673 124.696 65.8899 124.696 65.573C125.082 57.8527 124.651 50.3815 126.377 42.8197Z" fill="#263238"/>
<path d="M159.912 25.6131C157.328 29.3185 156.087 33.7896 156.391 38.2915C156.391 38.5632 156.868 38.7217 156.936 38.4047C157.936 34.1258 159.594 30.2543 160.912 26.1112C160.949 25.9839 160.941 25.8477 160.887 25.7263C160.834 25.6048 160.74 25.5057 160.621 25.4464C160.502 25.3872 160.366 25.3714 160.236 25.4019C160.107 25.4323 159.992 25.507 159.912 25.6131Z" fill="#263238"/>
<path d="M3.21244 132.316C7.09756 144.632 16.3446 161.635 30.9763 161.748C40.4732 161.748 50.0157 160.706 59.5353 160.571C69.7139 160.412 79.9833 160.435 90.0937 161.046C90.9343 161.046 88.8668 130.64 64.3974 115.766C57.5814 111.6 49.1523 110.287 41.3593 108.612C32.4315 106.503 23.2677 105.551 14.0953 105.782C8.46078 106.008 3.78043 107.185 1.78107 112.936C-0.218294 118.687 1.32668 126.384 3.21244 132.316Z" fill="#0082AE"/>
<path d="M13.732 116.92C19.6846 118.437 25.6827 120.203 31.658 122.082C30.0998 120.398 28.4542 118.796 26.7278 117.283C24.1605 115.177 21.3432 113.479 18.594 111.6C18.3668 111.464 18.5941 111.011 18.7986 111.124C24.5897 113.521 29.5886 117.49 33.2257 122.58C40.6779 124.957 48.0392 127.606 55.1278 130.504C60.0305 132.51 64.7317 134.974 69.1688 137.862C67.7406 134.788 66.0373 131.848 64.0795 129.078C60.8306 124.867 56.4456 122.535 52.1969 119.569C52.1251 119.511 52.0766 119.429 52.0601 119.339C52.0435 119.248 52.0601 119.155 52.1068 119.075C52.1535 118.996 52.2273 118.936 52.3147 118.906C52.4021 118.876 52.4974 118.878 52.5832 118.913C57.0289 120.839 61.0224 123.668 64.3085 127.219C67.5947 130.771 70.1013 134.966 71.668 139.538C76.7607 143.185 81.4182 147.401 85.5499 152.103C101.749 170.441 114.518 194.847 114.563 219.729C114.563 220.317 113.609 220.498 113.496 219.864C109.326 195.467 98.6543 172.635 82.5963 153.756C81.4376 152.397 80.3243 151.129 79.0293 149.884C74.5932 149.28 70.1241 148.947 65.6472 148.888C60.4443 148.888 55.2642 149.658 50.084 150.065C41.5413 150.767 32.0897 150.858 24.3649 146.579C24.0241 146.398 24.3649 145.809 24.6376 145.945C41.8366 152.171 59.8536 144.269 77.0754 147.982C69.7197 140.991 61.1005 135.452 51.6744 131.659L50.084 131.025C39.0648 132.338 27.364 135.213 16.6856 131.636C16.6527 131.627 16.622 131.612 16.5951 131.591C16.5683 131.571 16.5457 131.545 16.5289 131.515C16.512 131.486 16.501 131.453 16.4968 131.42C16.4925 131.386 16.4949 131.352 16.5038 131.319C16.5128 131.287 16.5281 131.256 16.5489 131.229C16.5697 131.202 16.5957 131.18 16.6252 131.163C16.6548 131.146 16.6873 131.135 16.7211 131.131C16.7548 131.127 16.7891 131.129 16.8219 131.138C27.2049 133.719 37.1563 130.459 47.403 129.938C36.2475 125.614 24.8648 122.173 13.6866 117.871C12.7323 117.509 12.7096 116.649 13.732 116.92Z" fill="#263238"/>
<path d="M8.86974 127.742C14.1986 128.433 19.5605 128.841 24.9328 128.965C25.0464 128.965 25.0918 129.146 24.9328 129.169C19.5316 130.169 13.9656 129.819 8.73343 128.15C8.48351 128.082 8.61982 127.697 8.86974 127.742Z" fill="#263238"/>
<path d="M45.131 117.192C48.1016 118.518 50.7983 120.384 53.083 122.694C53.3556 122.943 53.0829 123.441 52.674 123.214C51.3335 122.241 49.9476 121.313 48.539 120.43C47.2103 119.681 45.9211 118.865 44.6766 117.985C44.605 117.911 44.5594 117.815 44.5466 117.713C44.5339 117.611 44.5546 117.508 44.6058 117.419C44.657 117.33 44.7358 117.259 44.8305 117.218C44.9252 117.177 45.0307 117.168 45.131 117.192Z" fill="#263238"/>
<path d="M131.58 156.812C131.399 157.197 131.989 157.582 132.217 157.151C132.261 157.217 132.318 157.272 132.384 157.315C132.451 157.358 132.525 157.387 132.603 157.401C142.453 159.743 152.438 161.482 162.502 162.608C170.591 163.332 179.929 163.762 187.017 159.099C196.628 152.737 202.921 135.779 197.741 125.003C191.607 112.211 173.09 119.162 163.797 123.712C149.513 130.664 138.117 142.373 131.58 156.812Z" fill="#0082AE"/>
<path d="M124.401 162.721C129.793 157.504 135.787 152.944 142.259 149.137C146.933 141.782 153.13 135.507 160.435 130.731C160.798 130.482 161.094 131.048 160.776 131.297C154.987 135.915 149.851 141.292 145.508 147.281C152.715 143.357 160.203 139.967 167.91 137.138C170.667 132.051 174.851 127.873 179.951 125.116C179.951 125.116 180.179 125.116 180.088 125.275C175.876 128.444 172.201 132.266 169.205 136.595C173.749 134.919 178.293 133.335 182.951 131.818C183.359 131.682 183.518 132.316 183.132 132.452C174.953 135.644 166.592 138.995 158.481 142.866C168.37 144.439 178.446 144.439 188.335 142.866C188.608 142.866 188.721 143.206 188.335 143.273C178.02 146.316 167.066 146.48 156.663 143.749C151.499 146.25 146.485 149.047 141.645 152.126C145.717 151.794 149.816 152.131 153.778 153.122C160.772 154.744 167.931 155.549 175.112 155.522C175.385 155.522 175.453 155.975 175.112 156.02C162.73 158.125 151.029 152.533 138.76 153.982C134.205 157.073 129.933 160.558 125.991 164.397C118.336 172.013 112.036 180.87 107.361 190.591C102.181 201.073 99.3863 212.167 95.2058 222.989C95.1787 223.088 95.1132 223.172 95.0237 223.223C94.9342 223.274 94.8281 223.288 94.7287 223.261C94.6293 223.234 94.5447 223.168 94.4936 223.079C94.4425 222.99 94.429 222.884 94.4561 222.785C98.1367 201.458 108.792 177.935 124.401 162.721Z" fill="#263238"/>
<path d="M161.73 133.448C162.558 131.997 163.635 130.702 164.911 129.622C165.944 128.49 167.185 127.568 168.568 126.905C168.682 126.905 168.75 126.905 168.682 127.109C167.66 128.241 166.251 129.101 165.16 130.188C164.07 131.274 163.138 132.587 162.025 133.674C161.995 133.713 161.951 133.739 161.902 133.745C161.853 133.751 161.803 133.738 161.764 133.708C161.725 133.678 161.699 133.634 161.693 133.585C161.686 133.536 161.7 133.487 161.73 133.448Z" fill="#263238"/>
<path d="M182.155 140.081C183.996 139.628 185.927 139.651 187.79 139.266C189.644 138.826 191.472 138.282 193.265 137.636C193.317 137.623 193.372 137.629 193.42 137.652C193.468 137.676 193.506 137.715 193.528 137.764C193.55 137.813 193.553 137.867 193.538 137.918C193.524 137.97 193.491 138.014 193.447 138.044C190.05 140.131 186.058 141.046 182.087 140.647C181.86 140.602 181.883 140.149 182.155 140.081Z" fill="#263238"/>
<path d="M73.3945 196.5L75.0076 214.884L80.5286 276.963H129.331L136.215 214.884L138.237 196.5H73.3945Z" fill="#455A64"/>
<path d="M73.3945 196.5L75.0076 214.884H136.215L138.237 196.5H73.3945Z" fill="#263238"/>
<path d="M68.578 206.394H143.1V191.474H68.578V206.394Z" fill="#455A64"/>
</svg>
