<svg width="155" height="130" viewBox="0 0 155 130" fill="none" xmlns="http://www.w3.org/2000/svg">
<path d="M152.384 72.6245C153.258 79.7206 152.243 86.9209 149.441 93.5026C146.64 100.084 142.15 105.816 136.422 110.121C130.695 114.427 123.931 117.156 116.811 118.033C109.691 118.91 102.464 117.906 95.8564 115.12C92.6429 119.287 88.5093 122.66 83.7763 124.977C79.0432 127.295 73.838 128.495 68.5643 128.484C63.2907 128.473 58.0905 127.251 53.3671 124.914C48.6438 122.577 44.5243 119.187 41.3284 115.007C39.8456 115.459 38.3247 115.778 36.7844 115.957C31.4355 116.623 26.0078 115.728 21.1595 113.38C16.3112 111.032 12.2506 107.333 9.4702 102.732C6.6898 98.13 5.30906 92.8233 5.49541 87.4551C5.68176 82.0869 7.42719 76.8879 10.52 72.4886C4.41406 64.8521 1.26256 55.2848 1.63912 45.528C2.01568 35.7711 5.89527 26.4732 12.5718 19.3266C19.2483 12.1799 28.278 7.65956 38.0174 6.58815C47.7568 5.51674 57.5586 7.96552 65.6388 13.4888C69.4266 8.77192 74.4004 5.1387 80.0544 2.95857C85.7083 0.778444 91.8408 0.129191 97.8283 1.07682C103.816 2.02445 109.445 4.53515 114.143 8.35365C118.84 12.1722 122.44 17.1623 124.574 22.8165C126.005 22.3331 127.482 21.9992 128.982 21.8203C133.535 21.2625 138.15 22.1081 142.207 24.2434C146.263 26.3786 149.565 29.7009 151.669 33.763C153.773 37.8251 154.577 42.4321 153.974 46.9636C153.37 51.495 151.388 55.7335 148.294 59.1084C150.454 63.3351 151.839 67.9124 152.384 72.6245Z" fill="white"/>
<path d="M152.384 72.6247C153.231 79.7182 152.221 86.9094 149.453 93.4988C148.043 96.7784 146.235 99.8731 144.068 102.713C141.856 105.506 139.299 108.009 136.457 110.162C130.718 114.504 123.939 117.275 116.793 118.2C109.647 119.126 102.382 118.173 95.72 115.437H96.1062C92.8561 119.691 88.6668 123.141 83.8629 125.522C79.0589 127.902 73.7694 129.148 68.4044 129.164C63.0393 129.179 57.7427 127.963 52.9252 125.61C48.1076 123.257 43.8985 119.83 40.624 115.595L41.4419 115.867C38.6144 116.718 35.6706 117.123 32.7174 117.067C29.7567 117.063 26.8169 116.573 24.0157 115.618C18.3473 113.727 13.4089 110.127 9.88383 105.317C8.16979 102.897 6.81533 100.244 5.86238 97.4381C4.94922 94.62 4.45923 91.6827 4.40831 88.7217C4.35267 82.741 6.17154 76.8922 9.61121 71.9908V73.1681C3.40819 65.3363 0.226683 55.549 0.643503 45.5806C1.06032 35.6121 5.04787 26.1224 11.8832 18.8321C18.7351 11.5775 27.9427 6.97382 37.8749 5.83671C47.7846 4.77813 57.747 7.2921 65.9568 12.923L64.9571 13.0815C68.8492 8.30035 73.9467 4.63605 79.7275 2.46394C85.5083 0.291835 91.7646 -0.31001 97.8557 0.720066C103.897 1.72103 109.565 4.2935 114.289 8.17744C119.012 12.0614 122.623 17.1191 124.756 22.8393L124.461 22.7035C129.226 21.1662 134.367 21.2298 139.092 22.8846C142.605 24.1258 145.754 26.2146 148.258 28.9644C150.763 31.7143 152.545 35.0395 153.445 38.6431C154.345 42.2466 154.335 46.0162 153.417 49.6151C152.498 53.214 150.699 56.5301 148.18 59.2671C150.363 63.4372 151.786 67.9597 152.384 72.6247ZM152.384 72.6247C151.823 67.8855 150.415 63.2848 148.226 59.0407C150.71 56.3142 152.477 53.016 153.367 49.4418C154.258 45.8675 154.244 42.129 153.327 38.5613C152.411 34.9936 150.62 31.7083 148.116 28.9999C145.612 26.2916 142.472 24.2448 138.979 23.0431C134.326 21.4475 129.272 21.4475 124.62 23.0431H124.393V22.8167C122.225 17.2435 118.62 12.339 113.941 8.59879C109.29 4.8398 103.711 2.39269 97.7875 1.51246C91.9013 0.606552 85.8792 1.27591 80.338 3.45197C74.7968 5.62803 69.9356 9.2326 66.2522 13.8965L65.8432 14.4399L65.2525 14.0324C57.3125 8.76449 47.7512 6.48234 38.2778 7.5939C28.8044 8.70547 20.0366 13.1383 13.5418 20.0999C7.11968 27.0741 3.38397 36.0894 2.99718 45.5468C2.61039 55.0043 5.59751 64.2926 11.4288 71.7644L11.9059 72.3756L11.4515 73.0322C8.23841 77.5582 6.53002 82.9741 6.5667 88.518C6.58659 91.2766 7.02318 94.0166 7.86176 96.6457C8.73094 99.2646 9.97851 101.743 11.5651 104.004C14.8376 108.509 19.4107 111.913 24.6745 113.762C27.3024 114.692 30.0652 115.189 32.8538 115.233C35.6399 115.336 38.4246 114.992 41.1011 114.214L41.6009 114.056L41.9418 114.486C45.059 118.592 49.0665 121.943 53.6653 124.289C60.6765 127.82 68.702 128.812 76.3663 127.093C84.0306 125.375 90.8566 121.054 95.6745 114.871L95.8336 114.667H96.0608C102.611 117.49 109.797 118.528 116.882 117.677C123.968 116.826 130.699 114.115 136.389 109.822C139.231 107.687 141.796 105.208 144.023 102.442C146.189 99.6542 148.005 96.6129 149.43 93.3856C152.193 86.8343 153.21 79.683 152.384 72.6247Z" fill="#263238"/>
<path d="M99.4462 71.5152L98.1512 77.6959C98.0541 78.3217 97.8264 78.9201 97.4828 79.4527C97.1392 79.9853 96.6873 80.4402 96.1563 80.788C95.6253 81.1357 95.0271 81.3686 94.4001 81.4717C93.7732 81.5747 93.1316 81.5457 92.5166 81.3863C91.9014 81.2596 91.3173 81.0131 90.7979 80.661C90.2784 80.3088 89.8339 79.8579 89.4898 79.3341C89.1457 78.8103 88.9088 78.224 88.7927 77.6087C88.6766 76.9935 88.6836 76.3614 88.8133 75.7489L90.8808 65.8552C90.8808 65.8552 90.8808 65.8552 91.0171 65.6967C91.1534 65.5382 91.0171 65.6967 91.0171 65.4703C91.3103 64.2539 92.0603 63.1958 93.1126 62.5136C94.1649 61.8313 95.4396 61.5769 96.6744 61.8026C99.5125 62.4031 102.474 61.8555 104.907 60.2803C107.34 58.7051 109.045 56.2313 109.648 53.4032C110.25 50.5751 109.701 47.6243 108.12 45.1999C106.539 42.7755 104.056 41.0762 101.218 40.4758C99.3621 40.0925 97.4374 40.2002 95.6358 40.788C93.8341 41.3759 92.2183 42.4234 90.9489 43.8265C90.5415 44.3331 90.0348 44.7516 89.4596 45.0566C88.8844 45.3615 88.2529 45.5464 87.6036 45.6C86.9543 45.6535 86.3009 45.5747 85.6832 45.3682C85.0655 45.1617 84.4966 44.8319 84.0111 44.399C83.5256 43.966 83.1338 43.439 82.8595 42.8501C82.5853 42.2612 82.4343 41.6228 82.416 40.9739C82.3976 40.3249 82.5122 39.679 82.7527 39.0757C82.9932 38.4723 83.3546 37.9242 83.8149 37.4647C86.074 34.9502 88.9246 33.0343 92.1106 31.8891C95.2965 30.7439 98.718 30.4052 102.068 30.9034C105.418 31.4017 108.591 32.7212 111.302 34.7436C114.014 36.766 116.179 39.4279 117.602 42.4901C119.026 45.5524 119.664 48.9191 119.46 52.2879C119.255 55.6566 118.214 58.922 116.429 61.7906C114.645 64.6593 112.174 67.0414 109.237 68.7229C106.301 70.4045 102.991 71.3328 99.6053 71.4246L99.4462 71.5152ZM95.1067 92.344L94.7432 94.0646C94.6276 94.6836 94.3874 95.2728 94.0372 95.7968C93.687 96.3208 93.2339 96.7687 92.7053 97.1135C92.1767 97.4583 91.5835 97.6929 90.9614 97.8032C90.3394 97.9134 89.7014 97.897 89.0859 97.755C87.8493 97.4883 86.7676 96.7475 86.0747 95.6927C85.3817 94.6378 85.1331 93.3536 85.3825 92.1176L85.7461 90.397C86.029 89.1761 86.7777 88.1128 87.8337 87.4324C88.8897 86.7521 90.1699 86.508 91.4034 86.7519C92.6364 87.0082 93.7177 87.7399 94.4115 88.7875C95.1053 89.8351 95.3552 91.1135 95.1067 92.344Z" fill="#0082AE"/>
<path d="M49.803 58.95L49.1441 52.7919C49.0309 52.1658 49.0513 51.5229 49.2041 50.9051C49.3569 50.2874 49.6386 49.7086 50.0309 49.2066C50.4232 48.7047 50.9172 48.2907 51.4808 47.9917C52.0444 47.6927 52.665 47.5155 53.3019 47.4715C54.5572 47.3242 55.8201 47.6769 56.8158 48.4528C57.8115 49.2287 58.4593 50.3651 58.6184 51.6146L59.868 61.6442C59.868 61.6442 59.868 61.6441 59.868 61.8479C59.868 62.0517 59.868 61.8479 59.9816 62.029C60.1058 63.2755 59.7429 64.5218 58.9685 65.5085C58.1941 66.4952 57.0678 67.1465 55.8238 67.3268C54.3581 67.4499 52.9323 67.8667 51.6321 68.552C50.3318 69.2374 49.1838 70.1773 48.2568 71.3153C47.3298 72.4534 46.6429 73.7662 46.2373 75.1752C45.8316 76.5841 45.7156 78.0602 45.8962 79.5149C46.0768 80.9696 46.5502 82.373 47.2881 83.641C48.026 84.909 49.0132 86.0155 50.1905 86.8942C51.3679 87.7729 52.7111 88.4058 54.1398 88.7548C55.5684 89.1038 57.0531 89.1618 58.5048 88.9254C60.3853 88.7084 62.1747 87.9992 63.6911 86.8698C65.2075 85.7405 66.3969 84.2313 67.1384 82.4956C67.3838 81.9084 67.7439 81.3758 68.1978 80.9285C68.6516 80.4812 69.1902 80.1283 69.7821 79.8903C70.374 79.6523 71.0075 79.5338 71.6458 79.5419C72.284 79.5499 72.9143 79.6844 73.5 79.9373C74.074 80.1856 74.593 80.5446 75.0273 80.9935C75.4616 81.4425 75.8026 81.9725 76.0306 82.5532C76.2586 83.1339 76.3692 83.7538 76.356 84.3772C76.3428 85.0006 76.2061 85.6153 75.9537 86.1859C74.6115 89.2737 72.5226 91.9823 69.8738 94.0695C67.2249 96.1568 64.0985 97.5578 60.7738 98.1475C57.4491 98.7372 54.0296 98.4973 50.8206 97.449C47.6117 96.4007 44.7132 94.5768 42.3841 92.1402C40.055 89.7036 38.3678 86.73 37.4731 83.4852C36.5785 80.2404 36.5042 76.8252 37.2569 73.5448C38.0097 70.2644 39.5661 67.2209 41.787 64.686C44.008 62.1511 46.8244 60.2037 49.9848 59.0179L49.803 58.95ZM47.1902 37.8495L46.963 36.1062C46.8533 35.4817 46.8764 34.8413 47.0309 34.2262C47.1853 33.6112 47.4676 33.0353 47.8596 32.5359C48.2515 32.0365 48.7443 31.6247 49.3061 31.3271C49.8679 31.0296 50.4861 30.8529 51.1208 30.8085C51.7434 30.7294 52.3755 30.7741 52.9806 30.94C53.5858 31.1059 54.1519 31.3897 54.6463 31.775C55.1407 32.1602 55.5535 32.6394 55.8609 33.1846C56.1683 33.7299 56.3642 34.3304 56.4373 34.9516L56.6645 36.6722C56.8007 37.9235 56.4429 39.1785 55.6669 40.1715C54.8909 41.1645 53.7575 41.8177 52.5067 41.9926C51.8836 42.0748 51.2504 42.0323 50.644 41.8677C50.0376 41.703 49.4703 41.4195 48.9752 41.0337C48.4802 40.6479 48.0673 40.1675 47.7608 39.6208C47.4543 39.074 47.2603 38.4719 47.1902 37.8495Z" fill="#0082AE"/>
</svg>
