<svg width="92" height="124" viewBox="0 0 92 124" fill="none" xmlns="http://www.w3.org/2000/svg">
<g clip-path="url(#clip0_1222_21)">
<path d="M40.8912 121.667C40.2244 121.666 39.5629 121.562 38.9362 121.357C37.7272 120.959 36.7018 120.209 36.0241 119.225C35.3465 118.241 35.0558 117.082 35.1987 115.932L39.6262 79.3005H5.75867C4.71407 79.3019 3.68878 79.0476 2.7929 78.5649C1.89703 78.0822 1.16443 77.3893 0.673771 76.5607C0.183115 75.732 -0.0470512 74.7989 0.00798863 73.8616C0.0630284 72.9243 0.401196 72.0182 0.986173 71.2405L46.3537 10.2738C47.0712 9.31975 48.1229 8.60838 49.3417 8.25268C50.5605 7.89698 51.8767 7.91733 53.0812 8.3105C54.2391 8.69678 55.2278 9.40782 55.901 10.3384C56.5741 11.2689 56.8959 12.3695 56.8187 13.4772L52.3912 50.3672H86.2587C87.3033 50.3658 88.3286 50.6201 89.2244 51.1028C90.1203 51.5855 90.8529 52.2784 91.3436 53.107C91.8342 53.9357 92.0644 54.8687 92.0093 55.8061C91.9543 56.7434 91.6161 57.6495 91.0312 58.4272L45.6637 119.394C45.1362 120.095 44.4252 120.669 43.593 121.065C42.7608 121.462 41.833 121.668 40.8912 121.667Z" fill="url(#paint0_linear_1222_21)"/>
<path d="M40.8912 121.667C40.2244 121.666 39.5629 121.562 38.9362 121.357C37.7272 120.959 36.7018 120.209 36.0241 119.225C35.3465 118.241 35.0558 117.082 35.1987 115.932L39.6262 79.3005H5.75867C4.71407 79.3019 3.68878 79.0476 2.7929 78.5649C1.89703 78.0822 1.16443 77.3893 0.673771 76.5607C0.183115 75.732 -0.0470512 74.7989 0.00798863 73.8616C0.0630284 72.9243 0.401196 72.0182 0.986173 71.2405L46.3537 10.2738C47.0712 9.31975 48.1229 8.60838 49.3417 8.25268C50.5605 7.89698 51.8767 7.91733 53.0812 8.3105C54.2391 8.69678 55.2278 9.40782 55.901 10.3384C56.5741 11.2689 56.8959 12.3695 56.8187 13.4772L52.3912 50.3672H86.2587C87.3033 50.3658 88.3286 50.6201 89.2244 51.1028C90.1203 51.5855 90.8529 52.2784 91.3436 53.107C91.8342 53.9357 92.0644 54.8687 92.0093 55.8061C91.9543 56.7434 91.6161 57.6495 91.0312 58.4272L45.6637 119.394C45.1362 120.095 44.4252 120.669 43.593 121.065C42.7608 121.462 41.833 121.668 40.8912 121.667Z" fill="url(#paint1_linear_1222_21)"/>
</g>
<defs>
<linearGradient id="paint0_linear_1222_21" x1="46.0087" y1="8" x2="46.0087" y2="121.667" gradientUnits="userSpaceOnUse">
<stop offset="0.135" stop-color="#25AFFF"/>
<stop offset="0.325" stop-color="#3488FF"/>
<stop offset="0.967917" stop-color="#4658FF"/>
</linearGradient>
<linearGradient id="paint1_linear_1222_21" x1="46.0087" y1="8" x2="46.0087" y2="121.667" gradientUnits="userSpaceOnUse">
<stop offset="0.135" stop-color="#25AFFF"/>
<stop offset="0.325" stop-color="#3488FF"/>
<stop offset="0.967917" stop-color="#4658FF"/>
</linearGradient>
<clipPath id="clip0_1222_21">
<rect width="92" height="124" fill="white"/>
</clipPath>
</defs>
</svg>
