<svg width="66" height="74" viewBox="0 0 66 74" fill="none" xmlns="http://www.w3.org/2000/svg">
<path d="M54.9549 0H10.991C8.07598 0 5.28039 0.963943 3.21918 2.67977C1.15797 4.3956 0 6.72276 0 9.14931V64.0452C0 66.4717 1.15797 68.7989 3.21918 70.5147C5.28039 72.2306 8.07598 73.1945 10.991 73.1945H54.9549C57.8698 73.1945 60.6654 72.2306 62.7267 70.5147C64.7879 68.7989 65.9458 66.4717 65.9458 64.0452V9.14931C65.9458 6.72276 64.7879 4.3956 62.7267 2.67977C60.6654 0.963943 57.8698 0 54.9549 0ZM16.4865 18.2986H49.4594C50.1881 18.2986 50.887 18.5396 51.4023 18.9686C51.9176 19.3975 52.2071 19.9793 52.2071 20.586C52.2071 21.1926 51.9176 21.7744 51.4023 22.2033C50.887 22.6323 50.1881 22.8733 49.4594 22.8733H16.4865C15.7577 22.8733 15.0588 22.6323 14.5435 22.2033C14.0282 21.7744 13.7387 21.1926 13.7387 20.586C13.7387 19.9793 14.0282 19.3975 14.5435 18.9686C15.0588 18.5396 15.7577 18.2986 16.4865 18.2986ZM13.7387 29.7353C13.7387 29.1286 14.0282 28.5468 14.5435 28.1179C15.0588 27.6889 15.7577 27.4479 16.4865 27.4479H49.4594C50.1881 27.4479 50.887 27.6889 51.4023 28.1179C51.9176 28.5468 52.2071 29.1286 52.2071 29.7353C52.2071 30.3419 51.9176 30.9237 51.4023 31.3526C50.887 31.7816 50.1881 32.0226 49.4594 32.0226H16.4865C15.7577 32.0226 15.0588 31.7816 14.5435 31.3526C14.0282 30.9237 13.7387 30.3419 13.7387 29.7353ZM16.4865 36.5972H49.4594C50.1881 36.5972 50.887 36.8382 51.4023 37.2672C51.9176 37.6961 52.2071 38.2779 52.2071 38.8846C52.2071 39.4912 51.9176 40.073 51.4023 40.502C50.887 40.9309 50.1881 41.1719 49.4594 41.1719H16.4865C15.7577 41.1719 15.0588 40.9309 14.5435 40.502C14.0282 40.073 13.7387 39.4912 13.7387 38.8846C13.7387 38.2779 14.0282 37.6961 14.5435 37.2672C15.0588 36.8382 15.7577 36.5972 16.4865 36.5972ZM16.4865 45.7466H32.9729C33.7017 45.7466 34.4006 45.9875 34.9159 46.4165C35.4312 46.8455 35.7207 47.4273 35.7207 48.0339C35.7207 48.6405 35.4312 49.2223 34.9159 49.6513C34.4006 50.0802 33.7017 50.3212 32.9729 50.3212H16.4865C15.7577 50.3212 15.0588 50.0802 14.5435 49.6513C14.0282 49.2223 13.7387 48.6405 13.7387 48.0339C13.7387 47.4273 14.0282 46.8455 14.5435 46.4165C15.0588 45.9875 15.7577 45.7466 16.4865 45.7466Z" fill="#E3F1F6"/>
</svg>
