<svg width="59" height="57" viewBox="0 0 59 57" fill="none" xmlns="http://www.w3.org/2000/svg">
<path d="M58.8125 56.0625H54.625V46.2188C54.6217 43.609 53.5177 41.107 51.5551 39.2616C49.5926 37.4162 46.9317 36.3781 44.1562 36.375V32.4375C48.042 32.4417 51.7673 33.895 54.5149 36.4785C57.2625 39.0621 58.8081 42.565 58.8125 46.2188V56.0625ZM42.0625 56.0625H37.875V46.2188C37.8717 43.609 36.7677 41.107 34.8051 39.2616C32.8426 37.4162 30.1817 36.3781 27.4062 36.375H14.8438C12.0683 36.3781 9.40745 37.4162 7.4449 39.2616C5.48235 41.107 4.37832 43.609 4.375 46.2188V56.0625H0.1875V46.2188C0.191933 42.565 1.73749 39.0621 4.48511 36.4785C7.23273 33.895 10.958 32.4417 14.8438 32.4375H27.4062C31.292 32.4417 35.0173 33.895 37.7649 36.4785C40.5125 39.0621 42.0581 42.565 42.0625 46.2188V56.0625ZM37.875 0.9375V4.875C40.6515 4.875 43.3143 5.91211 45.2775 7.75817C47.2408 9.60423 48.3438 12.108 48.3438 14.7188C48.3438 17.3295 47.2408 19.8333 45.2775 21.6793C43.3143 23.5254 40.6515 24.5625 37.875 24.5625V28.5C41.7621 28.5 45.49 27.048 48.2385 24.4636C50.9871 21.8791 52.5312 18.3738 52.5312 14.7188C52.5312 11.0637 50.9871 7.55842 48.2385 4.97393C45.49 2.38945 41.7621 0.9375 37.875 0.9375ZM21.125 4.875C23.1955 4.875 25.2195 5.45233 26.9411 6.53397C28.6627 7.61562 30.0045 9.153 30.7969 10.9517C31.5892 12.7504 31.7965 14.7297 31.3926 16.6392C30.9887 18.5487 29.9916 20.3027 28.5275 21.6793C27.0634 23.056 25.1981 23.9935 23.1674 24.3734C21.1366 24.7532 19.0317 24.5582 17.1188 23.8132C15.2059 23.0681 13.5709 21.8064 12.4206 20.1876C11.2702 18.5688 10.6562 16.6657 10.6562 14.7188C10.6562 12.108 11.7592 9.60423 13.7225 7.75817C15.6857 5.91211 18.3485 4.875 21.125 4.875ZM21.125 0.9375C18.2263 0.9375 15.3926 1.74576 12.9824 3.26006C10.5722 4.77436 8.69369 6.9267 7.58439 9.44489C6.47509 11.9631 6.18485 14.734 6.75037 17.4073C7.31588 20.0806 8.71175 22.5362 10.7615 24.4636C12.8112 26.3909 15.4227 27.7034 18.2657 28.2352C21.1087 28.7669 24.0556 28.494 26.7337 27.451C29.4118 26.4079 31.7008 24.6415 33.3112 22.3752C34.9217 20.1089 35.7812 17.4444 35.7812 14.7188C35.7812 11.0637 34.2371 7.55842 31.4885 4.97393C28.74 2.38945 25.0121 0.9375 21.125 0.9375Z" fill="#0082AE"/>
</svg>
