<svg width="21" height="20" viewBox="0 0 21 20" fill="none" xmlns="http://www.w3.org/2000/svg">
<path d="M20.4609 6.375C20.4609 6.0124 20.3169 5.66465 20.0605 5.40825C19.8041 5.15185 19.4564 5.00781 19.0938 5.00781H15.7734V1.6875C15.7734 1.3249 15.6294 0.97715 15.373 0.720753C15.1166 0.464355 14.7689 0.320312 14.4062 0.320312H1.90625C1.54365 0.320312 1.1959 0.464355 0.939503 0.720753C0.683105 0.97715 0.539063 1.3249 0.539062 1.6875V14.1875C0.539199 14.2977 0.570427 14.4057 0.62916 14.499C0.687893 14.5923 0.771749 14.6671 0.871094 14.7148C0.950025 14.7538 1.03696 14.7739 1.125 14.7734C1.25877 14.7701 1.38829 14.7258 1.49609 14.6465L5.19727 11.6484H5.22656V14.9688C5.22656 15.3314 5.3706 15.6791 5.627 15.9355C5.8834 16.1919 6.23115 16.3359 6.59375 16.3359H15.8027L19.5039 19.334C19.6117 19.4133 19.7412 19.4576 19.875 19.4609C19.963 19.4614 20.05 19.4413 20.1289 19.4023C20.2283 19.3546 20.3121 19.2798 20.3708 19.1865C20.4296 19.0932 20.4608 18.9852 20.4609 18.875V6.375ZM4.99219 10.4766C4.85819 10.4786 4.72829 10.5231 4.62109 10.6035L1.71094 12.957V1.6875C1.71094 1.6357 1.73151 1.58602 1.76814 1.54939C1.80477 1.51276 1.85445 1.49219 1.90625 1.49219H14.4062C14.458 1.49219 14.5077 1.51276 14.5444 1.54939C14.581 1.58602 14.6016 1.6357 14.6016 1.6875V10.2812C14.6016 10.333 14.581 10.3827 14.5444 10.4194C14.5077 10.456 14.458 10.4766 14.4062 10.4766H4.99219ZM16.3789 15.291C16.2717 15.2106 16.1418 15.1661 16.0078 15.1641H6.59375C6.54195 15.1641 6.49227 15.1435 6.45564 15.1069C6.41901 15.0702 6.39844 15.0205 6.39844 14.9688V11.6484H14.4062C14.7689 11.6484 15.1166 11.5044 15.373 11.248C15.6294 10.9916 15.7734 10.6439 15.7734 10.2812V6.17969H19.0938C19.1455 6.17969 19.1952 6.20026 19.2319 6.23689C19.2685 6.27352 19.2891 6.3232 19.2891 6.375V17.6445L16.3789 15.291Z" fill="#0082AE"/>
</svg>
