<svg width="11" height="19" viewBox="0 0 11 19" fill="none" xmlns="http://www.w3.org/2000/svg">
<path d="M5.50001 0.0859375C4.13298 0.088192 2.8224 0.848352 1.85577 2.19967C0.889132 3.55098 0.345368 5.38312 0.343755 7.29416C0.342118 8.85588 0.707028 10.3752 1.38251 11.6191C1.38251 11.6191 1.52313 11.8779 1.5461 11.9153L5.50001 18.4342L9.45579 11.912C9.47641 11.8773 9.61751 11.6191 9.61751 11.6191L9.61798 11.6171C10.2931 10.3738 10.6579 8.85516 10.6563 7.29416C10.6546 5.38312 10.1109 3.55098 9.14424 2.19967C8.17761 0.848352 6.86703 0.088192 5.50001 0.0859375V0.0859375ZM5.50001 9.91534C5.12917 9.91534 4.76665 9.76161 4.45831 9.47359C4.14997 9.18557 3.90965 8.7762 3.76773 8.29724C3.62582 7.81829 3.58869 7.29126 3.66103 6.7828C3.73338 6.27434 3.91196 5.80729 4.17418 5.44071C4.4364 5.07414 4.7705 4.82449 5.13421 4.72336C5.49793 4.62222 5.87493 4.67413 6.21754 4.87252C6.56015 5.07091 6.85298 5.40687 7.05901 5.83792C7.26504 6.26897 7.37501 6.77575 7.37501 7.29416C7.37439 7.98908 7.17664 8.65528 6.82515 9.14666C6.47365 9.63803 5.9971 9.91447 5.50001 9.91534V9.91534Z" fill="#0082AE"/>
</svg>
