<svg width="17" height="11" viewBox="0 0 17 11" fill="none" xmlns="http://www.w3.org/2000/svg">
<path d="M7.80009 10.1616C7.87808 10.2545 7.98243 10.3305 8.10415 10.383C8.22588 10.4355 8.36133 10.4629 8.49885 10.4629C8.63636 10.4629 8.77182 10.4355 8.89354 10.383C9.01527 10.3305 9.11962 10.2545 9.1976 10.1616L16.8482 1.09434C16.9368 0.989761 16.9887 0.867266 16.9984 0.740168C17.008 0.613069 16.975 0.486228 16.903 0.373425C16.831 0.260623 16.7227 0.166173 16.5898 0.100338C16.457 0.0345029 16.3047 -0.000199719 16.1494 8.64631e-07H0.848249C0.693404 0.000525653 0.541662 0.0356745 0.409343 0.101667C0.277024 0.16766 0.169133 0.262 0.0972733 0.374542C0.0254138 0.487083 -0.00769579 0.613569 0.0015053 0.740395C0.0107064 0.867222 0.06187 0.989591 0.149494 1.09434L7.80009 10.1616Z" fill="#0082AE"/>
</svg>
