<svg width="54" height="54" viewBox="0 0 54 54" fill="none" xmlns="http://www.w3.org/2000/svg">
<path d="M51.03 22.3011H49.7624L50.6763 25.2746C51.3155 27.3552 51.8393 30.8837 51.8393 33.1138V49.2695C51.8393 51.8713 50.1383 54 48.0593 54C45.9803 54 44.2793 51.8713 44.2793 49.2695V46.6896C38.8327 47.5884 33.0278 48.0758 26.9993 48.0758C20.9709 48.0758 15.1666 47.5876 9.71933 46.6896V49.2695C9.71933 51.8713 8.01832 54 5.93932 54C3.86032 54 2.15933 51.8713 2.15933 49.2695V33.1138C2.15933 30.8837 2.68245 27.3552 3.32235 25.2746L4.2363 22.3011H2.97C1.3365 22.3011 0 20.6285 0 18.5843C0 16.54 1.3365 14.8674 2.97 14.8674H6.52185L9.09697 6.48845C9.73687 4.40616 11.662 2.20224 13.3751 1.5898C13.3751 1.5898 17.82 0 27 0C36.18 0 40.6242 1.58896 40.6242 1.58896C42.338 2.20224 44.2631 4.40616 44.903 6.4876L47.4781 14.8674H51.03C52.6635 14.8674 54 16.54 54 18.5843C54 20.6285 52.6635 22.3011 51.03 22.3011ZM30.3831 10.9326C30.3831 13.2709 28.8684 15.1665 27 15.1665C25.1316 15.1665 23.6169 13.2709 23.6169 10.9326C23.6169 8.59438 25.1316 6.69879 27 6.69879C28.8684 6.69879 30.3831 8.59438 30.3831 10.9326ZM16.5652 7.64152C14.6968 7.64152 13.1821 9.53712 13.1821 11.8754C13.1821 14.2136 14.6968 16.1092 16.5652 16.1092C18.4336 16.1092 19.9483 14.2136 19.9483 11.8754C19.9483 9.53712 18.4336 7.64152 16.5652 7.64152ZM12.42 31.4243C12.42 29.3733 11.0903 27.7075 9.45 27.7075C7.80975 27.7075 6.48 29.3733 6.48 31.4243C6.48 33.4754 7.80975 35.1412 9.45 35.1412C11.0903 35.1412 12.42 33.4754 12.42 31.4243ZM37.0393 33.3807C37.0393 33.3807 31.9916 36.2208 27 36.2208C22.0084 36.2208 16.9607 33.3807 16.9607 33.3807C15.2023 32.3916 14.8527 33.0099 16.1838 34.7551C16.1838 34.7551 21.2841 41.4421 27 41.4421C32.7159 41.4421 37.8162 34.7551 37.8162 34.7551C39.1473 33.0099 38.7977 32.3916 37.0393 33.3807ZM41.9884 20.7772C42.5756 20.648 43.1622 20.5145 43.7474 20.3701C44.336 20.218 44.6499 19.5726 44.4467 18.9213C43.4464 15.6851 42.4426 12.0173 41.4376 8.02419C41.2344 7.2183 40.583 6.43861 39.9911 6.32203C31.3801 4.68155 22.6206 4.68155 14.0096 6.32203C13.4176 6.43861 12.767 7.2183 12.5624 8.02503C11.5567 12.0181 10.5536 15.6868 9.55328 18.9222C9.3501 19.5726 9.66465 20.218 10.2533 20.3701C10.8385 20.5145 11.425 20.648 12.0123 20.7772C12.2729 19.1274 13.4291 17.3383 14.6178 17.1085C15.9125 16.8585 17.2193 16.8585 18.5139 17.1085C19.7127 17.34 20.8798 19.1579 21.1268 20.8186C21.1882 21.2756 21.2504 21.7276 21.3118 22.1803C21.5804 22.2023 21.8491 22.2226 22.1177 22.242C22.225 21.4581 22.3324 20.6699 22.4397 19.875C22.6868 18.2143 23.8538 16.3964 25.0526 16.1649C26.3473 15.9149 27.6541 15.9149 28.9487 16.1649C30.1475 16.3964 31.3146 18.2143 31.5616 19.875C31.669 20.6699 31.7763 21.4572 31.8836 22.242C32.1523 22.2226 32.4209 22.2023 32.6896 22.1803C32.751 21.7267 32.8131 21.2756 32.8745 20.8186C33.1216 19.1579 34.2887 17.34 35.4874 17.1085C36.7821 16.8585 38.0889 16.8585 39.3836 17.1085C40.5722 17.3383 41.7285 19.1274 41.9884 20.7772ZM47.52 31.4243C47.52 29.3716 46.1903 27.7075 44.55 27.7075C42.9098 27.7075 41.58 29.3716 41.58 31.4243C41.58 33.477 42.9098 35.1412 44.55 35.1412C46.1903 35.1412 47.52 33.477 47.52 31.4243ZM37.4348 7.64152C35.5664 7.64152 34.0517 9.53712 34.0517 11.8754C34.0517 14.2136 35.5664 16.1092 37.4348 16.1092C39.3032 16.1092 40.8179 14.2136 40.8179 11.8754C40.8186 9.53712 39.3039 7.64152 37.4348 7.64152Z" fill="#E3F1F6"/>
</svg>
