<svg width="34" height="32" viewBox="0 0 34 32" fill="none" xmlns="http://www.w3.org/2000/svg">
<path d="M32.1111 0H1.88889C1.38792 0 0.907478 0.187301 0.553243 0.520699C0.199007 0.854097 0 1.30628 0 1.77778V30.2222C0 30.6937 0.199007 31.1459 0.553243 31.4793C0.907478 31.8127 1.38792 32 1.88889 32H18.1617V19.6267H13.7454V14.7822H18.1617V11.2267C18.1617 7.09333 20.8439 4.84089 24.7728 4.84089C26.0931 4.83733 27.4153 4.90133 28.73 5.03111V9.33333H26.0194C23.8888 9.33333 23.4732 10.2898 23.4732 11.6889V14.7733H28.5676L27.9064 19.6178H23.4713V32H32.1111C32.6121 32 33.0925 31.8127 33.4468 31.4793C33.801 31.1459 34 30.6937 34 30.2222V1.77778C34 1.30628 33.801 0.854097 33.4468 0.520699C33.0925 0.187301 32.6121 0 32.1111 0Z" fill="#E3F1F6"/>
</svg>
