<svg width="34" height="32" viewBox="0 0 34 32" fill="none" xmlns="http://www.w3.org/2000/svg">
<path d="M17 0C12.3786 0 11.8027 0.0210026 9.99406 0.0930116C8.17802 0.177022 6.94962 0.442055 5.86573 0.838105C4.73133 1.24118 3.70398 1.87225 2.85529 2.68734C1.98685 3.48423 1.31596 4.45169 0.890486 5.52069C0.469684 6.54082 0.188086 7.69696 0.0988249 9.40618C0.0170021 11.1094 0 11.6505 0 16C0 20.3495 0.0223153 20.8916 0.0988249 22.5938C0.188086 24.298 0.469684 25.4592 0.890486 26.4793C1.31875 27.547 1.98927 28.5139 2.85529 29.3127C3.702 30.13 4.72992 30.7615 5.86573 31.1619C6.94962 31.5529 8.18334 31.823 9.99406 31.907C11.8037 31.984 12.3786 32 17 32C21.6214 32 22.1973 31.979 24.0059 31.907C25.8167 31.823 27.0504 31.5519 28.1343 31.1619C29.2687 30.7588 30.296 30.1278 31.1447 29.3127C32.0143 28.5166 32.6853 27.5489 33.1095 26.4793C33.525 25.4592 33.8119 24.298 33.9012 22.5938C33.983 20.8906 34 20.3495 34 16C34 11.6505 33.9777 11.1084 33.9012 9.40618C33.8119 7.70196 33.5239 6.53482 33.1095 5.52069C32.6813 4.45302 32.0107 3.4861 31.1447 2.68734C30.2989 1.86892 29.2707 1.23733 28.1343 0.838105C27.0504 0.442055 25.8167 0.177022 24.0059 0.0930116C22.1963 0.016002 21.6214 0 17 0ZM17 2.88036C21.5385 2.88036 22.0804 2.90136 23.8742 2.97337C25.5287 3.04638 26.4298 3.30641 27.0281 3.52644C27.7677 3.7834 28.4371 4.19237 28.9876 4.72359C29.551 5.23948 29.9839 5.86808 30.2542 6.56282C30.488 7.12589 30.7643 7.974 30.8419 9.53119C30.9184 11.2194 30.9407 11.7305 30.9407 16.001C30.9407 20.2715 30.9184 20.7826 30.8355 22.4708C30.7462 24.028 30.4699 24.8761 30.2372 25.4392C29.9152 26.1903 29.5561 26.7153 28.9631 27.2834C28.4108 27.8113 27.7418 28.2183 27.0036 28.4756C26.4128 28.6956 25.4989 28.9556 23.838 29.0286C22.0348 29.1006 21.5034 29.1216 16.9532 29.1216C12.4031 29.1216 11.8728 29.1006 10.0674 29.0226C8.41286 28.9386 7.50006 28.6786 6.9018 28.4596C6.0942 28.1565 5.54057 27.8185 4.94762 27.2604C4.34936 26.6973 3.96893 26.1613 3.67565 25.4162C3.43762 24.8601 3.16558 24 3.07738 22.4368C3.01681 20.7596 2.98812 20.2395 2.98812 15.977C2.98812 11.7165 3.01681 11.1954 3.07738 9.49719C3.16558 7.93399 3.43762 7.07588 3.67565 6.51782C3.96893 5.75672 4.35042 5.23665 4.94762 4.67358C5.53951 4.11651 6.0942 3.75647 6.9018 3.47443C7.50006 3.25541 8.39055 2.99537 10.0514 2.91736C11.8547 2.85636 12.386 2.83435 16.9299 2.83435L17 2.88036ZM17 7.78797C15.8538 7.78758 14.7187 7.99977 13.6597 8.41243C12.6006 8.82508 11.6384 9.43011 10.8279 10.1929C10.0174 10.9557 9.37452 11.8614 8.93608 12.8582C8.49763 13.8549 8.27218 14.9232 8.2726 16.002C8.27218 17.0808 8.49763 18.1491 8.93608 19.1458C9.37452 20.1426 10.0174 21.0483 10.8279 21.8111C11.6384 22.5739 12.6006 23.1789 13.6597 23.5916C14.7187 24.0042 15.8538 24.2164 17 24.216C18.1462 24.2164 19.2813 24.0042 20.3403 23.5916C21.3994 23.1789 22.3616 22.5739 23.1721 21.8111C23.9826 21.0483 24.6255 20.1426 25.0639 19.1458C25.5024 18.1491 25.7278 17.0808 25.7274 16.002C25.7278 14.9232 25.5024 13.8549 25.0639 12.8582C24.6255 11.8614 23.9826 10.9557 23.1721 10.1929C22.3616 9.43011 21.3994 8.82508 20.3403 8.41243C19.2813 7.99977 18.1462 7.78758 17 7.78797V7.78797ZM17 21.3357C13.8674 21.3357 11.333 18.9504 11.333 16.002C11.333 13.0536 13.8674 10.6683 17 10.6683C20.1326 10.6683 22.667 13.0536 22.667 16.002C22.667 18.9504 20.1326 21.3357 17 21.3357ZM28.1194 7.45993C28.1188 7.96966 27.9033 8.45833 27.5201 8.81858C27.137 9.17882 26.6175 9.38117 26.0759 9.38117C25.8082 9.38117 25.543 9.33153 25.2956 9.23508C25.0482 9.13863 24.8234 8.99726 24.634 8.81904C24.4447 8.64082 24.2945 8.42925 24.192 8.19639C24.0895 7.96354 24.0368 7.71397 24.0368 7.46193C24.0368 7.20989 24.0895 6.96032 24.192 6.72747C24.2945 6.49462 24.4447 6.28304 24.634 6.10483C24.8234 5.92661 25.0482 5.78524 25.2956 5.68879C25.543 5.59234 25.8082 5.54269 26.0759 5.54269C27.1992 5.54269 28.1194 6.4028 28.1194 7.45993V7.45993Z" fill="black"/>
</svg>
