<svg width="750" height="750" viewBox="0 0 750 750" fill="none" xmlns="http://www.w3.org/2000/svg">
<g clip-path="url(#clip0_1465_9)">
<path d="M612.165 216.24L627.96 226.035L630.96 221.205C631.394 220.511 632.012 219.951 632.746 219.588C633.48 219.225 634.3 219.074 635.115 219.15C636.045 219.225 636.96 219.255 637.89 219.24C638.707 219.211 639.517 219.41 640.227 219.816C640.937 220.221 641.52 220.817 641.91 221.535L644.595 226.56L660.975 217.77L658.29 212.76C657.917 212.035 657.748 211.223 657.8 210.409C657.853 209.595 658.126 208.811 658.59 208.14C659.115 207.375 659.61 206.64 660.09 205.77C660.474 205.047 661.052 204.446 661.76 204.035C662.468 203.624 663.277 203.42 664.095 203.445L669.78 203.625L670.365 185.04L664.65 184.875C663.832 184.844 663.039 184.584 662.36 184.125C661.682 183.667 661.145 183.028 660.81 182.28C660.615 181.875 660.405 181.47 660.195 181.065C659.985 180.66 659.745 180.255 659.505 179.865C659.09 179.169 658.872 178.373 658.872 177.563C658.872 176.752 659.09 175.957 659.505 175.26L662.505 170.385L646.71 160.59L643.71 165.435C643.274 166.13 642.652 166.688 641.915 167.049C641.179 167.409 640.356 167.557 639.54 167.475C638.625 167.4 637.71 167.37 636.78 167.385C635.966 167.399 635.164 167.191 634.458 166.784C633.753 166.377 633.171 165.787 632.775 165.075L630.075 160.065L613.695 168.855L616.38 173.865C616.756 174.589 616.927 175.401 616.877 176.215C616.827 177.029 616.557 177.813 616.095 178.485C615.547 179.239 615.046 180.025 614.595 180.84C614.208 181.564 613.626 182.164 612.916 182.575C612.206 182.986 611.395 183.19 610.575 183.165L604.875 183L604.305 201.57L610.005 201.75C610.819 201.793 611.606 202.055 612.282 202.509C612.958 202.964 613.499 203.593 613.845 204.33C614.04 204.75 614.235 205.155 614.46 205.575C614.685 205.995 614.895 206.37 615.135 206.76C615.565 207.457 615.793 208.259 615.793 209.078C615.793 209.897 615.565 210.699 615.135 211.395L612.165 216.24ZM623.895 200.505C622.475 197.85 621.873 194.834 622.167 191.837C622.461 188.841 623.637 185.998 625.546 183.67C627.455 181.341 630.012 179.631 632.893 178.756C635.774 177.88 638.849 177.879 641.731 178.751C644.613 179.624 647.172 181.331 649.083 183.658C650.995 185.984 652.173 188.825 652.47 191.822C652.767 194.818 652.169 197.835 650.751 200.492C649.333 203.148 647.16 205.324 644.505 206.745C642.742 207.689 640.811 208.276 638.821 208.474C636.831 208.671 634.822 208.474 632.908 207.895C630.994 207.315 629.213 206.364 627.666 205.097C626.12 203.829 624.839 202.269 623.895 200.505Z" fill="#EBEBEB"/>
<path d="M596.715 290.475L603.225 301.755L606.675 299.76C607.17 299.462 607.741 299.314 608.318 299.332C608.895 299.351 609.455 299.536 609.93 299.865C610.471 300.222 611.032 300.548 611.61 300.84C612.128 301.086 612.564 301.476 612.867 301.962C613.17 302.449 613.327 303.012 613.32 303.585V307.575H626.355V303.585C626.348 303.012 626.505 302.449 626.809 301.962C627.112 301.476 627.548 301.086 628.065 300.84C628.643 300.548 629.204 300.222 629.745 299.865C630.22 299.536 630.78 299.351 631.357 299.332C631.934 299.314 632.505 299.462 633 299.76L636.45 301.755L642.96 290.475L639.495 288.465C639.004 288.174 638.603 287.752 638.338 287.246C638.073 286.74 637.954 286.17 637.995 285.6C637.995 285.285 637.995 284.955 637.995 284.64C637.995 284.325 637.995 283.995 637.995 283.68C637.956 283.111 638.076 282.541 638.34 282.036C638.605 281.53 639.005 281.107 639.495 280.815L642.975 278.82L636.465 267.54L633 269.535C632.502 269.819 631.935 269.958 631.363 269.937C630.791 269.916 630.235 269.735 629.76 269.415C629.22 269.07 628.65 268.74 628.08 268.44C627.563 268.194 627.127 267.804 626.824 267.318C626.52 266.831 626.363 266.268 626.37 265.695V261.705H613.335V265.695C613.342 266.268 613.185 266.831 612.882 267.318C612.579 267.804 612.143 268.194 611.625 268.44C611.055 268.74 610.5 269.07 609.96 269.415C609.482 269.735 608.924 269.915 608.35 269.936C607.775 269.957 607.206 269.818 606.705 269.535L603.24 267.54L596.73 278.82L600.195 280.815C600.687 281.106 601.087 281.528 601.352 282.034C601.617 282.54 601.736 283.11 601.695 283.68C601.695 283.995 601.695 284.31 601.695 284.64C601.695 284.97 601.695 285.285 601.695 285.6C601.734 286.172 601.614 286.743 601.349 287.251C601.085 287.759 600.685 288.184 600.195 288.48L596.715 290.475ZM609.165 284.64C609.165 282.527 609.792 280.462 610.966 278.705C612.14 276.948 613.809 275.58 615.761 274.772C617.714 273.964 619.862 273.753 621.934 274.166C624.006 274.58 625.909 275.598 627.402 277.093C628.895 278.589 629.911 280.493 630.322 282.566C630.732 284.638 630.518 286.786 629.708 288.738C628.897 290.689 627.526 292.356 625.768 293.527C624.009 294.699 621.943 295.323 619.83 295.32C618.428 295.32 617.04 295.044 615.745 294.507C614.45 293.97 613.274 293.183 612.283 292.191C611.293 291.199 610.508 290.022 609.973 288.726C609.438 287.43 609.163 286.042 609.165 284.64Z" fill="#EBEBEB"/>
<path d="M76.905 419.43L83.415 430.71L86.865 428.715C87.3627 428.431 87.9297 428.292 88.5021 428.313C89.0746 428.334 89.6298 428.515 90.105 428.835C90.66 429.18 91.215 429.51 91.8 429.81C92.3108 430.065 92.741 430.456 93.0428 430.941C93.3447 431.425 93.5064 431.984 93.51 432.555V436.5H106.5V432.51C106.494 431.935 106.654 431.371 106.96 430.884C107.266 430.398 107.705 430.009 108.225 429.765C108.795 429.465 109.365 429.135 109.905 428.79C110.38 428.47 110.935 428.289 111.508 428.268C112.08 428.247 112.647 428.386 113.145 428.67L116.61 430.665L123.105 419.385L119.64 417.39C119.149 417.099 118.748 416.676 118.483 416.17C118.218 415.664 118.099 415.095 118.14 414.525C118.14 414.21 118.14 413.88 118.14 413.565C118.14 413.25 118.14 412.92 118.14 412.605C118.099 412.035 118.218 411.465 118.483 410.959C118.748 410.453 119.149 410.031 119.64 409.74L123.105 407.73L116.61 396.45L113.145 398.445C112.65 398.743 112.079 398.891 111.502 398.872C110.925 398.854 110.365 398.669 109.89 398.34C109.349 397.983 108.788 397.657 108.21 397.365C107.706 397.113 107.28 396.729 106.979 396.253C106.677 395.777 106.512 395.228 106.5 394.665V390.675H93.51V394.665C93.5064 395.236 93.3447 395.794 93.0428 396.279C92.741 396.763 92.3108 397.155 91.8 397.41C91.2218 397.702 90.6609 398.028 90.12 398.385C89.6468 398.711 89.0898 398.894 88.5154 398.913C87.9411 398.931 87.3734 398.784 86.88 398.49L83.415 396.495L76.905 407.775L80.37 409.785C80.8556 410.079 81.2519 410.499 81.5162 411.001C81.7805 411.503 81.9028 412.068 81.87 412.635C81.87 412.965 81.87 413.28 81.87 413.61C81.87 413.94 81.87 414.255 81.87 414.57C81.909 415.139 81.7895 415.708 81.5248 416.214C81.26 416.72 80.8603 417.142 80.37 417.435L76.905 419.43ZM89.355 413.61C89.355 411.5 89.9805 409.438 91.1524 407.685C92.3243 405.931 93.9899 404.564 95.9387 403.757C97.8875 402.949 100.032 402.738 102.101 403.15C104.169 403.561 106.07 404.577 107.561 406.068C109.053 407.56 110.069 409.46 110.48 411.529C110.892 413.598 110.68 415.742 109.873 417.691C109.066 419.64 107.699 421.306 105.945 422.477C104.191 423.649 102.129 424.275 100.02 424.275C98.6195 424.275 97.2326 423.999 95.9387 423.463C94.6448 422.927 93.4691 422.141 92.4787 421.151C91.4884 420.161 90.7028 418.985 90.1669 417.691C89.6309 416.397 89.355 415.01 89.355 413.61Z" fill="#EBEBEB"/>
<path d="M268.935 67.9502H71.3101V370.98H268.935V67.9502Z" fill="#EBEBEB"/>
<path d="M165.54 80.085H82.0801V214.875H165.54V80.085Z" fill="white"/>
<path d="M258.18 80.085H174.735V214.875H258.18V80.085Z" fill="white"/>
<path d="M165.54 224.056H82.0801V358.846H165.54V224.056Z" fill="white"/>
<path d="M258.18 224.056H174.735V358.846H258.18V224.056Z" fill="white"/>
<path d="M132.615 80.085L82.0801 130.62V100.8L102.81 80.085H132.615Z" fill="#EBEBEB"/>
<path d="M82.0801 353.865L165.54 270.405V300.195L106.905 358.845H82.0801V353.865Z" fill="#EBEBEB"/>
<path d="M241.695 224.056L174.72 291.031V261.226L211.89 224.056H241.695Z" fill="#EBEBEB"/>
<path d="M258.18 177.78V207.57L250.875 214.875H221.07L258.18 177.78Z" fill="#EBEBEB"/>
<path d="M258.18 327.615V357.42L256.755 358.845H226.965L258.18 327.615Z" fill="#EBEBEB"/>
<path d="M86.8651 224.056H101.76L82.0801 243.736V228.826L86.8651 224.056Z" fill="#EBEBEB"/>
<path d="M96.0452 214.875L165.54 145.365V160.26L110.94 214.875H96.0452Z" fill="#EBEBEB"/>
<path d="M245.73 80.085L174.72 151.08V136.185L230.835 80.085H245.73Z" fill="#EBEBEB"/>
<path d="M157.11 80.085L82.0801 155.115V151.38L153.375 80.085H157.11Z" fill="#EBEBEB"/>
<path d="M128.73 358.846L165.54 322.021V325.756L132.465 358.846H128.73Z" fill="#EBEBEB"/>
<path d="M258.18 229.41V233.115L174.72 316.575V312.84L258.18 229.41Z" fill="#EBEBEB"/>
<path d="M510.96 67.9502H313.335V370.98H510.96V67.9502Z" fill="#EBEBEB"/>
<path d="M407.565 80.085H324.105V214.875H407.565V80.085Z" fill="white"/>
<path d="M500.19 80.085H416.745V214.875H500.19V80.085Z" fill="white"/>
<path d="M407.565 224.056H324.105V358.846H407.565V224.056Z" fill="white"/>
<path d="M500.19 224.056H416.745V358.846H500.19V224.056Z" fill="white"/>
<path d="M324.105 224.056H331.965L324.105 231.916V224.056Z" fill="#EBEBEB"/>
<path d="M324.105 202.11L407.565 118.635V148.455L341.145 214.875H324.105V202.11Z" fill="#EBEBEB"/>
<path d="M475.935 80.085L416.745 139.275V109.455L446.115 80.085H475.935Z" fill="#EBEBEB"/>
<path d="M500.19 267.825V297.63L438.99 358.845H416.745V351.27L500.19 267.825Z" fill="#EBEBEB"/>
<path d="M407.565 80.085V82.845L324.105 166.305V151.395L395.4 80.085H407.565Z" fill="#EBEBEB"/>
<path d="M374.445 358.846L407.565 325.726V340.621L389.34 358.846H374.445Z" fill="#EBEBEB"/>
<path d="M500.19 233.085V247.995L416.745 331.44V316.545L500.19 233.085Z" fill="#EBEBEB"/>
<path d="M342.105 224.056H345.84L324.105 245.791V242.071L342.105 224.056Z" fill="#EBEBEB"/>
<path d="M351.285 214.875L407.565 158.595V162.33L355.02 214.875H351.285Z" fill="#EBEBEB"/>
<path d="M489.81 80.085L416.745 153.15V149.415L486.075 80.085H489.81Z" fill="#EBEBEB"/>
<path d="M324.105 356.04L407.565 272.58V276.3L325.02 358.845H324.105V356.04Z" fill="#EBEBEB"/>
<path d="M459.81 224.056L416.745 267.121V263.401L456.075 224.056H459.81Z" fill="#EBEBEB"/>
<path d="M500.19 179.94V183.675L468.99 214.875H465.255L500.19 179.94Z" fill="#EBEBEB"/>
<path d="M375 671.265C496.746 671.265 595.44 657.961 595.44 641.55C595.44 625.139 496.746 611.835 375 611.835C253.254 611.835 154.56 625.139 154.56 641.55C154.56 657.961 253.254 671.265 375 671.265Z" fill="#EBEBEB"/>
<path d="M637.32 654.195C671.501 654.195 699.21 648.708 699.21 641.94C699.21 635.171 671.501 629.685 637.32 629.685C603.139 629.685 575.43 635.171 575.43 641.94C575.43 648.708 603.139 654.195 637.32 654.195Z" fill="#EBEBEB"/>
<path d="M252.72 699.795C380.314 699.795 483.75 687.68 483.75 672.735C483.75 657.79 380.314 645.675 252.72 645.675C125.126 645.675 21.6899 657.79 21.6899 672.735C21.6899 687.68 125.126 699.795 252.72 699.795Z" fill="#EBEBEB"/>
<path d="M50.1001 605.235L131.325 604.875L212.55 604.74L375 604.485L537.45 604.74L618.675 604.875L699.9 605.235L618.675 605.61L537.45 605.73L375 605.985L212.55 605.73L131.325 605.61L50.1001 605.235Z" fill="#263238"/>
<path d="M214.005 583.845L192.615 641.55H217.725L264.225 609.87L214.005 583.845Z" fill="#0082AE"/>
<path opacity="0.1" d="M214.005 583.845L192.615 641.55H217.725L264.225 609.87L214.005 583.845Z" fill="black"/>
<path d="M535.995 583.845L557.385 641.55H532.275L485.775 609.87L535.995 583.845Z" fill="#0082AE"/>
<path opacity="0.1" d="M535.995 583.845L557.385 641.55H532.275L485.775 609.87L535.995 583.845Z" fill="black"/>
<path d="M556.433 571.427C656.631 471.228 656.631 308.774 556.433 208.575C456.234 108.376 293.779 108.376 193.581 208.575C93.3819 308.774 93.3819 471.228 193.581 571.427C293.779 671.626 456.234 671.626 556.433 571.427Z" fill="#0082AE"/>
<path opacity="0.1" d="M371.88 630.615C507.096 630.615 616.71 521.001 616.71 385.785C616.71 250.569 507.096 140.955 371.88 140.955C236.664 140.955 127.05 250.569 127.05 385.785C127.05 521.001 236.664 630.615 371.88 630.615Z" fill="black"/>
<path d="M537.183 551.098C626.755 461.525 626.755 316.299 537.183 226.727C447.61 137.154 302.384 137.154 212.812 226.727C123.239 316.299 123.239 461.525 212.812 551.098C302.384 640.67 447.61 640.67 537.183 551.098Z" fill="white"/>
<path d="M599.13 340.184C494.685 403.469 323.025 507.284 227.13 564.194C200 541.323 178.543 512.473 164.445 479.909L481.74 185.819C511.384 201.426 537.254 223.332 557.533 249.999C577.813 276.666 592.01 307.448 599.13 340.184Z" fill="#EBEBEB"/>
<path d="M604.17 396.869C603.336 422.389 598.21 447.587 589.005 471.404L303 606.689C290.529 602.569 278.438 597.375 266.865 591.164C353.22 541.229 511.14 450.374 604.17 396.869Z" fill="#EBEBEB"/>
<path d="M377.205 176.189H372.78V210.959H377.205V176.189Z" fill="#C7C7C7"/>
<path d="M270.572 203.552L266.727 205.772L284.112 235.884L287.957 233.664L270.572 203.552Z" fill="#C7C7C7"/>
<path d="M191.88 280.6L189.668 284.433L219.78 301.818L221.992 297.985L191.88 280.6Z" fill="#C7C7C7"/>
<path d="M197.055 386.685H162.285V391.11H197.055V386.685Z" fill="#C7C7C7"/>
<path d="M219.755 475.971L189.643 493.356L191.856 497.189L221.967 479.804L219.755 475.971Z" fill="#C7C7C7"/>
<path d="M284.101 541.933L266.732 572.054L270.578 574.272L287.947 544.151L284.101 541.933Z" fill="#C7C7C7"/>
<path d="M377.205 566.85H372.78V601.62H377.205V566.85Z" fill="#C7C7C7"/>
<path d="M465.907 541.893L462.062 544.113L479.447 574.225L483.292 572.005L465.907 541.893Z" fill="#C7C7C7"/>
<path d="M530.204 475.928L527.991 479.76L558.103 497.145L560.315 493.313L530.204 475.928Z" fill="#C7C7C7"/>
<path d="M587.715 386.685H552.945V391.11H587.715V386.685Z" fill="#C7C7C7"/>
<path d="M558.111 280.666L527.999 298.051L530.212 301.883L560.323 284.498L558.111 280.666Z" fill="#C7C7C7"/>
<path d="M479.448 203.6L462.079 233.721L465.925 235.939L483.294 205.818L479.448 203.6Z" fill="#C7C7C7"/>
<path d="M585.99 391.859L363.525 398.069L363.795 376.319L586.05 385.949L585.99 391.859Z" fill="#0082AE"/>
<path d="M376.53 232.47L386.16 401.76L364.395 401.475L370.635 232.395L376.53 232.47Z" fill="#263238"/>
<path d="M375 396.329C379.101 396.329 382.425 393.005 382.425 388.904C382.425 384.804 379.101 381.479 375 381.479C370.899 381.479 367.575 384.804 367.575 388.904C367.575 393.005 370.899 396.329 375 396.329Z" fill="#0082AE"/>
<path d="M579.795 388.769C578.97 386.279 534.795 327.944 531.795 326.834C531.45 326.684 511.725 340.724 511.725 340.724C510.9 341.804 473.4 333.884 473.4 333.884L473.025 379.124L541.35 377.624C541.35 377.624 550.575 383.054 559.02 387.479C562.607 389.498 566.314 391.297 570.12 392.864C573.585 393.794 580.635 391.244 579.795 388.769Z" fill="#DD6A57"/>
<path d="M570.165 392.909C566.355 391.352 562.647 389.553 559.065 387.524C550.62 383.024 541.395 377.669 541.395 377.669L526.185 377.999L502.35 339.584C507.585 340.514 511.47 341.084 511.74 340.724C511.74 340.724 531.465 326.669 531.81 326.834C534.81 327.944 578.97 386.264 579.81 388.769C580.65 391.274 573.585 393.794 570.165 392.909Z" fill="white"/>
<path d="M580.2 388.845C579.33 386.295 534.99 328.005 531.885 326.85C530.715 326.4 521.07 332.37 511.74 340.725L540.36 378.225C540.36 378.225 566.775 392.22 570.36 393.12C573.945 394.02 581.07 391.395 580.2 388.845Z" fill="#A6A6A6"/>
<path d="M577.23 389.774C569.55 380.189 539.505 340.799 532.65 330.734C532.65 330.614 532.65 330.644 532.65 330.734C540.45 340.064 570.15 379.709 577.32 389.699C577.5 389.864 577.395 389.999 577.23 389.774Z" fill="#263238"/>
<path d="M565.365 391.004C564.51 389.942 563.885 388.713 563.531 387.396C563.177 386.079 563.102 384.702 563.31 383.354C563.651 380.916 564.926 378.706 566.865 377.189C566.865 377.189 567 377.189 566.955 377.309C565.264 379.108 564.203 381.407 563.932 383.861C563.662 386.315 564.196 388.791 565.455 390.914C565.468 390.917 565.48 390.924 565.49 390.933C565.5 390.942 565.507 390.954 565.51 390.967C565.514 390.98 565.514 390.993 565.511 391.006C565.507 391.019 565.501 391.031 565.491 391.041C565.482 391.05 565.47 391.057 565.457 391.06C565.444 391.063 565.43 391.063 565.418 391.06C565.405 391.056 565.393 391.049 565.384 391.039C565.375 391.029 565.368 391.017 565.365 391.004Z" fill="#263238"/>
<path d="M543.675 380.594C540.675 376.724 538.575 371.129 539.925 366.269C539.925 366.074 540.255 366.164 540.27 366.269C541.08 371.057 542.403 375.744 544.215 380.249C544.261 380.321 544.276 380.408 544.258 380.491C544.24 380.574 544.189 380.646 544.118 380.692C544.046 380.737 543.959 380.753 543.876 380.735C543.793 380.716 543.721 380.666 543.675 380.594Z" fill="#263238"/>
<path d="M547.155 382.71C544.155 378.84 542.055 373.26 543.405 368.4C543.405 368.205 543.72 368.28 543.75 368.4C544.563 373.181 545.88 377.862 547.68 382.365C547.726 382.435 547.742 382.52 547.725 382.601C547.708 382.683 547.66 382.754 547.59 382.8C547.52 382.846 547.436 382.862 547.354 382.845C547.272 382.828 547.201 382.78 547.155 382.71Z" fill="#263238"/>
<path d="M550.62 384.84C547.62 380.97 545.52 375.375 546.87 370.515C546.87 370.335 547.2 370.41 547.23 370.515C548.028 375.299 549.346 379.982 551.16 384.48C551.208 384.552 551.225 384.639 551.208 384.724C551.191 384.808 551.142 384.882 551.07 384.93C550.999 384.978 550.911 384.995 550.826 384.978C550.742 384.961 550.668 384.912 550.62 384.84Z" fill="#263238"/>
<path d="M554.1 387C551.1 383.13 549 377.55 550.35 372.69C550.35 372.495 550.665 372.57 550.695 372.69C551.508 377.471 552.825 382.152 554.625 386.655C554.671 386.725 554.687 386.81 554.67 386.891C554.653 386.973 554.605 387.044 554.535 387.09C554.465 387.136 554.381 387.152 554.299 387.135C554.217 387.118 554.146 387.07 554.1 387Z" fill="#263238"/>
<path d="M525.27 340.289C521.94 335.879 528.765 330.704 532.11 335.114C535.455 339.524 528.6 344.684 525.27 340.289Z" fill="#263238"/>
<path d="M541.95 388.08C543.075 383.895 542.34 379.38 542.145 375.135C542.133 375.04 542.099 374.95 542.045 374.872C541.991 374.793 541.92 374.729 541.836 374.683C541.753 374.638 541.66 374.613 541.565 374.611C541.47 374.608 541.376 374.628 541.29 374.67C541.279 374.654 541.264 374.641 541.247 374.633C541.23 374.624 541.212 374.619 541.192 374.619C541.173 374.619 541.155 374.624 541.138 374.633C541.121 374.641 541.106 374.654 541.095 374.67C537.727 377.688 535.208 381.535 533.79 385.83C533.01 388.35 533.31 392.07 536.46 392.805C539.61 393.54 541.305 390.525 541.95 388.08ZM538.845 390.72C534.345 393.57 534.645 387.255 535.29 385.41C535.716 384.234 536.217 383.086 536.79 381.975C538.048 379.707 539.42 377.504 540.9 375.375C540.9 377.46 541.02 379.545 541.065 381.63C541.17 384.12 541.365 389.16 538.845 390.72Z" fill="#263238"/>
<path d="M528 362.64C525.675 364.89 527.34 368.22 529.305 369.975C532.727 372.928 536.865 374.93 541.305 375.78C541.324 375.782 541.343 375.78 541.361 375.774C541.38 375.769 541.396 375.759 541.41 375.746C541.425 375.733 541.436 375.718 541.444 375.7C541.451 375.683 541.455 375.664 541.455 375.645C541.549 375.633 541.638 375.601 541.717 375.549C541.796 375.497 541.862 375.428 541.909 375.347C541.957 375.266 541.986 375.175 541.993 375.081C542 374.987 541.985 374.892 541.95 374.805C539.925 371.07 538.215 366.81 535.11 363.81C533.325 362.055 530.22 360.51 528 362.64ZM537.735 369.765C538.77 371.58 539.715 373.44 540.825 375.21C538.452 374.147 536.134 372.966 533.88 371.67C532.805 371.022 531.773 370.306 530.79 369.525C529.29 368.295 525.735 363.045 531.09 363.135C534.09 363.195 536.52 367.605 537.765 369.765H537.735Z" fill="#263238"/>
<path d="M471.345 320.009H440.685C440.685 320.009 408.6 304.589 382.77 310.799C353.145 317.924 349.35 355.124 371.49 368.279C399.555 384.944 524.385 381.779 524.385 381.779L497.4 335.999C497.4 335.999 455.88 327.269 418.23 328.499L471.345 335.744V320.009Z" fill="#455A64"/>
<path d="M499.185 339C499.178 338.92 499.178 338.839 499.185 338.76V338.565C499.185 338.43 499.11 338.28 499.08 338.13C499.05 337.98 498.87 337.53 498.765 337.23C498.66 336.93 498.51 336.645 498.375 336.36C498.234 336.076 498.068 335.805 497.88 335.55C497.88 335.55 497.88 335.55 497.805 335.55C493.23 334.695 462.21 330.255 457.605 329.73C453 329.205 448.29 328.77 443.625 328.38C434.318 327.572 424.976 327.237 415.635 327.375H413.01C412.83 327.375 412.62 327.285 412.44 327.24L411.09 326.925C410.25 326.775 409.395 326.64 408.555 326.52C406.785 326.25 405.015 326.055 403.245 325.725C403.14 325.725 403.11 325.875 403.245 325.89C405.015 326.295 406.74 326.805 408.51 327.18L410.01 327.51C406.59 327.69 403.17 327.96 399.75 328.26C399.645 328.26 399.645 328.44 399.75 328.44C404.4 328.155 409.095 328.125 413.745 328.2C418.395 328.275 422.985 328.38 427.605 328.65C436.95 329.19 446.28 330.015 455.58 330.99C460.8 331.545 492.435 336.15 497.67 336.375H497.745C497.784 336.497 497.829 336.617 497.88 336.735L498.33 337.59C498.48 337.86 498.63 338.115 498.795 338.37L499.05 338.76L499.185 338.94C499.185 338.94 499.305 339.075 499.32 339.135C499.335 339.195 499.26 339 499.185 339Z" fill="#263238"/>
<path d="M514.65 378.944C513 376.274 511.5 373.499 510 370.664C508.5 367.829 507 365.129 505.395 362.369C502.32 356.864 491.31 338.369 490.215 337.034C490.215 336.959 490.005 337.034 490.035 337.139C490.56 338.639 497.445 350.849 499.035 353.639C502.2 359.114 505.53 364.469 508.815 369.884C509.745 371.384 510.72 372.884 511.665 374.474C512.61 376.064 513.63 377.474 514.5 379.094C514.5 379.124 514.71 379.034 514.65 378.944Z" fill="#263238"/>
<path d="M489.915 341.655C487.17 340.98 484.35 340.56 481.56 340.035L473.19 338.46C467.61 337.46 462.02 336.46 456.42 335.46C445.245 333.57 434.025 332.01 422.745 330.96C416.385 330.36 410.01 329.955 403.62 329.46C403.485 329.46 403.5 329.655 403.62 329.67C414.975 330.18 426.315 331.71 437.565 333.33C448.815 334.95 459.81 336.69 470.91 338.565L480.3 340.17C483.48 340.725 486.66 341.4 489.855 341.805C489.99 341.85 490.05 341.67 489.915 341.655Z" fill="#263238"/>
<path d="M521.64 537.599C518.955 537.329 452.085 507.269 450.255 504.509C449.565 503.474 453.375 493.484 458.31 481.529C459.39 478.949 460.5 476.294 461.655 473.609C469.155 456.119 477.42 437.729 477.42 437.729L522.21 457.71L505.215 493.034L501.495 500.789C501.495 500.789 521.94 523.739 523.62 526.979C525.3 530.219 524.34 537.869 521.64 537.599Z" fill="#DD6A57"/>
<path d="M521.64 537.599C518.955 537.329 452.085 507.269 450.255 504.509C449.415 503.249 455.205 488.759 461.655 473.609L505.155 493.034L501.435 500.789C501.435 500.789 521.88 523.739 523.56 526.979C525.24 530.219 524.34 537.869 521.64 537.599Z" fill="white"/>
<path d="M521.64 537.599C518.955 537.329 452.085 507.269 450.255 504.509C449.565 503.474 453.375 493.484 458.31 481.529L501.495 500.789C501.495 500.789 521.94 523.739 523.62 526.979C525.3 530.219 524.34 537.869 521.64 537.599Z" fill="#A6A6A6"/>
<path d="M521.895 534.495C510.81 529.185 465.585 508.8 454.23 504.39C454.11 504.39 454.125 504.39 454.23 504.39C465.105 509.895 510.495 529.89 521.85 534.615C522 534.78 522.12 534.6 521.895 534.495Z" fill="#263238"/>
<path d="M520.395 522.645C519.163 522.053 517.822 521.723 516.456 521.677C515.09 521.63 513.729 521.868 512.46 522.375C510.165 523.26 508.304 525.003 507.27 527.235C507.27 527.235 507.36 527.355 507.405 527.235C508.781 525.184 510.786 523.636 513.118 522.824C515.45 522.012 517.983 521.981 520.335 522.735C520.345 522.733 520.354 522.729 520.363 522.724C520.371 522.718 520.379 522.711 520.384 522.702C520.39 522.694 520.394 522.685 520.396 522.675C520.397 522.665 520.397 522.655 520.395 522.645Z" fill="#263238"/>
<path d="M505.335 503.849C500.835 501.779 494.955 501.029 490.53 503.444C490.35 503.534 490.53 503.774 490.65 503.759C495.501 503.472 500.368 503.703 505.17 504.449C505.245 504.458 505.32 504.439 505.382 504.397C505.444 504.355 505.489 504.292 505.509 504.22C505.529 504.147 505.522 504.07 505.49 504.002C505.458 503.935 505.403 503.88 505.335 503.849Z" fill="#263238"/>
<path d="M508.185 506.76C503.685 504.69 497.82 503.925 493.38 506.34C493.215 506.445 493.38 506.685 493.515 506.67C498.36 506.377 503.223 506.603 508.02 507.345C508.059 507.355 508.099 507.359 508.138 507.354C508.178 507.349 508.216 507.337 508.251 507.317C508.286 507.298 508.317 507.272 508.341 507.24C508.366 507.209 508.384 507.173 508.395 507.135C508.406 507.096 508.409 507.056 508.404 507.016C508.4 506.977 508.387 506.938 508.368 506.904C508.348 506.869 508.322 506.838 508.291 506.813C508.259 506.789 508.224 506.77 508.185 506.76Z" fill="#263238"/>
<path d="M511.05 509.67C506.55 507.585 500.67 506.835 496.245 509.25C496.065 509.34 496.245 509.595 496.365 509.58C501.21 509.287 506.073 509.513 510.87 510.255C510.941 510.259 511.01 510.239 511.068 510.199C511.126 510.159 511.169 510.1 511.19 510.033C511.211 509.965 511.208 509.893 511.183 509.827C511.157 509.761 511.111 509.706 511.05 509.67Z" fill="#263238"/>
<path d="M513.9 512.58C509.4 510.495 503.535 509.745 499.095 512.16C498.93 512.25 499.095 512.49 499.23 512.49C504.075 512.197 508.938 512.423 513.735 513.165C513.813 513.187 513.896 513.177 513.966 513.137C514.036 513.098 514.088 513.032 514.11 512.955C514.132 512.877 514.122 512.794 514.083 512.724C514.043 512.654 513.978 512.602 513.9 512.58Z" fill="#263238"/>
<path d="M461.865 495C456.825 492.75 453.315 500.58 458.37 502.845C463.425 505.11 466.92 497.265 461.865 495Z" fill="#263238"/>
<path d="M515.565 494.07C514.14 491.16 510.45 491.715 508.17 493.035C504.301 495.383 501.119 498.71 498.945 502.68C498.932 502.696 498.923 502.716 498.919 502.737C498.916 502.758 498.918 502.779 498.926 502.799C498.933 502.819 498.946 502.837 498.963 502.85C498.979 502.863 498.999 502.872 499.02 502.875C499.001 502.967 499.004 503.062 499.028 503.153C499.052 503.244 499.098 503.328 499.16 503.398C499.223 503.468 499.302 503.522 499.389 503.557C499.477 503.591 499.571 503.604 499.665 503.595C503.85 502.83 508.425 502.515 512.25 500.475C514.5 499.29 516.915 496.815 515.565 494.07ZM505.77 501.12C503.73 501.555 501.66 501.885 499.635 502.395C501.435 500.52 503.16 498.57 505.14 496.875C506.09 496.046 507.092 495.28 508.14 494.58C509.79 493.545 515.88 491.775 514.14 496.86C513.165 499.65 508.215 500.61 505.77 501.12Z" fill="#263238"/>
<path d="M487.05 499.335C490.68 501.69 495.21 502.335 499.32 503.52C499.74 503.64 500.04 503.22 500.025 502.845C500.045 502.843 500.064 502.835 500.08 502.824C500.097 502.813 500.11 502.797 500.119 502.779C500.128 502.761 500.132 502.742 500.132 502.722C500.131 502.702 500.125 502.682 500.115 502.665C498.289 498.524 495.401 494.938 491.745 492.27C489.585 490.77 485.955 489.885 484.245 492.66C482.535 495.435 484.92 498 487.05 499.335ZM485.475 495.555C484.17 490.35 490.095 492.63 491.64 493.815C492.623 494.6 493.555 495.447 494.43 496.35C496.207 498.262 497.884 500.265 499.455 502.35C497.475 501.675 495.45 501.165 493.455 500.565C491.055 499.815 486.195 498.435 485.475 495.555Z" fill="#263238"/>
<path d="M462.675 469.499L513 492.269C513 492.269 573 377.189 574.5 341.954C575.835 311.954 555 300.404 487.5 319.799L471 320.009V331.409C478.245 332.369 497.61 335.414 497.61 335.414C511.695 340.724 516.225 342.914 516 343.379C480.93 414.299 462.675 469.499 462.675 469.499Z" fill="#455A64"/>
<path d="M524.295 330.72C522.27 333.435 520.38 336.255 518.58 339.135C507.645 334.463 496.08 331.43 484.26 330.135C480.95 329.725 477.62 329.43 474.27 329.25C474.135 329.25 474.135 329.445 474.27 329.46C486.132 330.253 497.859 332.448 509.205 336C512.34 336.96 515.415 338.085 518.505 339.195C516.345 342.66 514.305 346.2 512.355 349.77C508.698 356.461 505.409 363.346 502.5 370.395C500.88 374.28 499.305 378.195 497.91 382.17C497.91 382.29 498.06 382.365 498.105 382.245C504.275 368.525 510.995 355.095 518.265 341.955C520.32 338.25 522.465 334.59 524.475 330.855C524.535 330.75 524.37 330.63 524.295 330.72Z" fill="#263238"/>
<path d="M514.155 480.105C511.155 478.95 508.365 477.525 505.485 476.235L496.83 472.35C491.085 469.77 471.165 461.52 469.515 461.13C469.41 461.13 469.35 461.265 469.44 461.325C470.715 462.15 483.57 467.865 486.465 469.11C492.285 471.6 498.15 473.91 504.015 476.28C505.695 476.955 507.375 477.585 509.055 478.26C510.735 478.935 512.445 479.52 514.08 480.255C514.185 480.3 514.245 480.135 514.155 480.105Z" fill="#263238"/>
<path d="M524.055 335.999C520.08 343.499 516.69 351.464 513.24 359.264C509.79 367.064 506.46 374.849 503.205 382.694C496.735 398.334 490.735 414.154 485.205 430.154C482.04 439.154 479.085 448.304 476.205 457.439C476.205 457.559 476.37 457.619 476.415 457.439C481.755 441.284 487.53 425.279 493.575 409.439C499.62 393.599 505.995 377.849 512.76 362.294C514.66 357.934 516.59 353.579 518.55 349.229C520.515 344.879 522.555 340.559 524.4 336.164C524.4 335.894 524.145 335.744 524.055 335.999Z" fill="#263238"/>
<path d="M441 323.669C442.14 324.794 512.175 324.119 512.52 323.669C513.435 322.439 502.95 278.309 495.075 261.569C484.995 240.119 479.67 238.334 476.475 237.134C472.198 235.926 467.676 235.889 463.38 237.029C461.4 237.914 453.03 247.949 450.675 255.914C445.95 271.904 439.995 322.679 441 323.669Z" fill="#0082AE"/>
<path d="M488.25 242.655C519.165 264.345 546.3 294.975 544.11 305.025C541.8 315.645 521.325 328.125 502.98 331.125C499.23 331.74 486.645 304.455 490.47 303.045C493.47 301.965 506.97 297.63 508.59 295.695C509.685 294.345 487.47 265.155 480.09 249.765C472.275 233.67 480 236.85 488.25 242.655Z" fill="#DD6A57"/>
<path d="M498.225 301.965C498.225 301.965 486.75 303.465 479.28 304.845C475.125 305.61 468.105 307.53 465.3 309.495C461.115 312.42 445.44 327.315 448.98 331.2C452.175 334.71 456.63 328.845 456.63 328.845C456.63 328.845 451.155 334.845 455.4 337.29C459.645 339.735 464.745 331.62 464.745 331.62C464.745 331.62 458.49 337.53 463.245 339.78C467.385 341.73 474.255 332.91 474.255 332.91C474.255 332.91 467.01 338.4 471.06 340.815C475.56 343.485 487.56 331.56 487.56 331.56C495.24 332.436 503.018 331.664 510.375 329.295C511.605 328.89 498.225 301.965 498.225 301.965Z" fill="#DD6A57"/>
<path d="M463.065 333.6L464.37 331.74C465.181 330.505 466.062 329.318 467.01 328.185C467.955 327.105 468.945 326.07 470.01 325.05C471.075 324.03 472.29 323.025 473.34 321.93C473.346 321.917 473.355 321.906 473.367 321.897C473.378 321.888 473.392 321.883 473.406 321.88C473.42 321.878 473.435 321.879 473.449 321.883C473.462 321.888 473.475 321.895 473.485 321.905C473.495 321.915 473.503 321.928 473.507 321.942C473.511 321.955 473.512 321.97 473.51 321.984C473.508 321.998 473.502 322.012 473.493 322.023C473.484 322.035 473.473 322.044 473.46 322.05C472.401 323.121 471.399 324.247 470.46 325.425L467.655 328.83C466.74 329.955 465.765 330.99 464.82 332.085C464.355 332.625 463.905 333.195 463.47 333.75C463.076 334.308 462.64 334.835 462.165 335.325L462.06 335.25C462.343 334.67 462.68 334.118 463.065 333.6Z" fill="#263238"/>
<path d="M455.52 330.105C456.944 327.764 458.533 325.529 460.275 323.415C462.043 321.307 464.017 319.383 466.17 317.67C466.187 317.662 466.206 317.659 466.224 317.662C466.242 317.666 466.259 317.674 466.273 317.687C466.286 317.701 466.294 317.718 466.298 317.736C466.301 317.754 466.298 317.773 466.29 317.79C464.52 319.905 462.72 321.99 460.935 324.06C460.05 325.08 456.21 329.835 455.745 330.285C455.625 330.39 455.46 330.225 455.52 330.105Z" fill="#263238"/>
<path d="M470.085 337.08C471.477 334.911 473.01 332.836 474.675 330.87C476.542 329.018 478.547 327.313 480.675 325.77C480.692 325.762 480.711 325.759 480.729 325.762C480.747 325.765 480.764 325.774 480.777 325.787C480.791 325.8 480.799 325.817 480.802 325.836C480.806 325.854 480.803 325.873 480.795 325.89C478.92 327.735 477.015 329.535 475.245 331.485C474.375 332.43 471.135 336.39 470.22 337.215C470.175 337.29 470.04 337.185 470.085 337.08Z" fill="#263238"/>
<path d="M522.72 269.52L500.22 285.165C500.22 285.165 482.31 259.32 477.48 246.96C472.65 234.6 477.81 234.405 490.17 243.075C502.53 251.745 522.72 269.52 522.72 269.52Z" fill="#0082AE"/>
<path d="M517.395 266.399C511.437 271.278 505.185 275.786 498.675 279.899C498.6 279.899 498.51 279.824 498.6 279.764C500.31 278.654 509.46 271.454 517.305 266.264C517.395 266.189 517.5 266.324 517.395 266.399Z" fill="#263238"/>
<path d="M450.42 243C426.33 256.5 403.92 272.76 399.87 283.65C397.38 290.505 401.13 302.655 404.1 309.945C405.6 313.485 438.975 298.41 436.065 295.53C428.865 288.39 427.65 285.465 428.355 283.95C428.79 282.99 454.845 258.84 462.015 248.115C472.02 233.16 460.95 237.105 450.42 243Z" fill="#DD6A57"/>
<path d="M450 328.349C446.85 330.254 442.83 322.109 442.83 322.109C442.761 323.691 442.14 325.198 441.075 326.369C439.11 328.334 435.15 326.114 435.15 326.114C434.733 327.739 433.84 329.202 432.585 330.314C430.5 332.009 426.195 330.314 426.195 330.314C424.983 331.591 423.356 332.395 421.605 332.579C416.91 332.879 412.725 327.044 410.025 323.354C407.325 319.664 403.125 306.704 402.075 304.304L425.565 286.784C425.565 286.784 442.365 299.849 444.915 304.634C447 308.699 454.74 325.499 450 328.349Z" fill="#DD6A57"/>
<path d="M442.815 321.99C441.384 317.197 439.369 312.597 436.815 308.295C436.815 308.205 436.62 308.295 436.665 308.385C439.08 312.675 440.415 317.7 442.665 322.08C442.681 322.085 442.697 322.086 442.714 322.084C442.73 322.081 442.745 322.076 442.759 322.068C442.773 322.059 442.786 322.048 442.795 322.035C442.805 322.021 442.811 322.006 442.815 321.99Z" fill="#263238"/>
<path d="M435.33 325.814C434.943 324.748 434.413 323.739 433.755 322.814C433.125 321.779 432.465 320.774 431.805 319.814C430.475 317.814 429.09 315.814 427.65 313.814C427.65 313.724 427.44 313.814 427.5 313.814C428.835 315.824 430.125 317.849 431.37 319.919C431.985 320.954 432.6 321.989 433.2 323.024C433.714 324.046 434.332 325.011 435.045 325.904C435.066 325.927 435.094 325.944 435.124 325.952C435.154 325.96 435.186 325.959 435.216 325.95C435.246 325.941 435.273 325.923 435.293 325.899C435.313 325.875 435.326 325.846 435.33 325.814Z" fill="#263238"/>
<path d="M426.075 330.254C425.705 329.29 425.172 328.397 424.5 327.614L422.64 324.884C421.41 323.069 420.18 321.239 419.01 319.379C419.01 319.274 418.8 319.379 418.86 319.454C420.03 321.359 421.185 323.279 422.385 325.169C422.97 326.099 423.555 327.029 424.155 327.944C424.621 328.835 425.241 329.638 425.985 330.314L426.075 330.254Z" fill="#263238"/>
<path d="M415.65 263.25L434.16 280.245C434.16 280.245 457.065 258.6 463.5 246.99C469.935 235.38 464.865 234.51 451.5 241.425C438.135 248.34 415.65 263.25 415.65 263.25Z" fill="#0082AE"/>
<path d="M415.65 263.25L434.16 280.245C434.16 280.245 457.065 258.6 463.5 246.99C469.935 235.38 464.865 234.51 451.5 241.425C438.135 248.34 415.65 263.25 415.65 263.25Z" fill="#0082AE"/>
<path d="M437.745 275.534C431.982 270.801 426.526 265.706 421.41 260.279C421.335 260.279 421.41 260.114 421.515 260.189C422.895 261.599 431.445 268.949 437.865 275.414C438 275.489 437.82 275.594 437.745 275.534Z" fill="#263238"/>
<path d="M452.835 251.625C451.995 253.575 451.155 255.525 450.465 257.535C450.472 257.4 450.472 257.265 450.465 257.13C450.528 255.911 450.674 254.699 450.9 253.5C450.9 253.365 450.72 253.32 450.705 253.5C450.465 254.7 450.255 255.915 450.105 257.145C450.03 257.73 450 258.315 449.97 258.9C449.97 258.9 449.97 259.035 449.97 259.11C449.19 261.78 448.725 264.495 448.065 267.18C448.065 267.315 448.245 267.36 448.275 267.18C448.92 264.54 449.895 261.975 450.735 259.395C451.575 256.815 452.235 254.19 453.03 251.61C453 251.595 452.88 251.535 452.835 251.625Z" fill="#263238"/>
<path d="M465.39 249.119C469.365 250.079 476.22 244.019 478.89 239.114C479.07 238.769 478.575 235.214 478.17 230.849C477.93 228.209 477.735 225.254 477.735 222.554C477.735 221.999 460.755 226.604 460.755 226.604C461.705 229.992 462.239 233.483 462.345 236.999C462.345 237.372 462.304 237.745 462.225 238.109C462.23 238.169 462.23 238.229 462.225 238.289C461.895 240.404 461.55 248.189 465.39 249.119Z" fill="#DD6A57"/>
<path d="M476.745 222.614C475.935 227.189 473.04 238.229 463.98 238.394C463.403 238.415 462.825 238.38 462.255 238.289C462.255 238.214 462.255 238.169 462.255 238.109C462.331 237.744 462.377 237.372 462.39 236.999C462.282 233.482 461.743 229.991 460.785 226.604C460.785 226.604 473.055 223.274 476.745 222.614Z" fill="#263238"/>
<path d="M476.88 200.129C479.88 205.664 480.165 223.334 476.73 227.969C471.75 234.704 461.895 237.224 455.73 230.849C449.565 224.474 449.73 201.644 453.78 197.249C459.69 190.769 472.5 191.999 476.88 200.129Z" fill="#DD6A57"/>
<path d="M463.5 215.909C463.5 215.909 463.59 215.909 463.59 216.014C463.59 217.214 463.77 218.579 464.85 219.014C463.5 218.864 463.275 217.049 463.5 215.909Z" fill="#263238"/>
<path d="M464.505 214.65C466.41 214.47 466.65 218.295 464.88 218.475C463.11 218.655 462.9 214.815 464.505 214.65Z" fill="#263238"/>
<path d="M456.825 216.359C456.825 216.359 456.735 216.359 456.735 216.464C456.855 217.649 456.735 219.029 455.73 219.464C457.035 219.284 457.11 217.499 456.825 216.359Z" fill="#263238"/>
<path d="M455.685 215.175C453.765 215.175 453.855 219 455.685 219.015C457.515 219.03 457.29 215.205 455.685 215.175Z" fill="#263238"/>
<path d="M466.095 211.499C465.555 211.499 465.045 211.394 464.52 211.334C463.958 211.358 463.404 211.195 462.945 210.869C462.824 210.737 462.749 210.57 462.73 210.392C462.711 210.213 462.75 210.034 462.84 209.879C463.073 209.605 463.376 209.398 463.716 209.279C464.056 209.16 464.422 209.135 464.775 209.204C465.506 209.237 466.199 209.536 466.725 210.044C466.838 210.168 466.912 210.322 466.939 210.487C466.967 210.652 466.946 210.822 466.88 210.975C466.813 211.129 466.704 211.26 466.564 211.353C466.425 211.446 466.262 211.497 466.095 211.499Z" fill="#263238"/>
<path d="M453.75 212.489C454.26 212.356 454.761 212.191 455.25 211.994C455.826 211.917 456.356 211.641 456.75 211.214C456.845 211.061 456.887 210.881 456.868 210.701C456.849 210.522 456.77 210.354 456.645 210.224C456.347 209.985 455.986 209.837 455.606 209.797C455.225 209.757 454.842 209.827 454.5 209.999C453.787 210.186 453.167 210.63 452.76 211.244C452.682 211.394 452.649 211.562 452.665 211.73C452.681 211.898 452.745 212.057 452.85 212.189C452.955 212.321 453.096 212.419 453.256 212.473C453.415 212.526 453.587 212.532 453.75 212.489Z" fill="#263238"/>
<path d="M466.125 226.829C465.855 227.129 465.6 227.534 465.165 227.594C464.724 227.609 464.285 227.532 463.875 227.369C464.054 227.586 464.287 227.752 464.55 227.849C464.814 227.947 465.098 227.973 465.375 227.924C465.614 227.847 465.825 227.7 465.98 227.503C466.135 227.305 466.227 227.065 466.245 226.814C466.245 226.814 466.17 226.784 466.125 226.829Z" fill="#263238"/>
<path d="M464.655 223.35C464.384 223.838 464.015 224.265 463.571 224.603C463.127 224.941 462.618 225.184 462.075 225.315C461.584 225.434 461.08 225.49 460.575 225.48H460.29H460.035C459.971 225.471 459.911 225.441 459.865 225.395C459.819 225.349 459.789 225.289 459.78 225.225V225C459.69 224.085 459.705 222.69 459.705 222.69C459.375 222.87 457.725 223.74 457.71 223.26C457.573 219.133 457.85 215.002 458.535 210.93C458.544 210.907 458.559 210.887 458.579 210.873C458.599 210.859 458.623 210.852 458.648 210.852C458.672 210.852 458.696 210.859 458.716 210.873C458.736 210.887 458.751 210.907 458.76 210.93C458.91 214.755 458.4 218.565 458.49 222.405C459.081 222.088 459.712 221.851 460.365 221.7C460.5 221.7 460.365 224.4 460.365 224.805C461.115 224.839 461.865 224.725 462.571 224.467C463.276 224.21 463.923 223.815 464.475 223.305C464.625 223.185 464.73 223.26 464.655 223.35Z" fill="#263238"/>
<path d="M461.13 225C461.672 225.622 462.364 226.097 463.14 226.38C463.57 226.514 464.03 226.514 464.46 226.38C465.39 226.065 465.36 225.195 465.15 224.46C465.029 224.072 464.862 223.699 464.655 223.35C463.687 224.263 462.452 224.842 461.13 225Z" fill="#263238"/>
<path d="M463.14 226.35C463.57 226.484 464.03 226.484 464.46 226.35C465.39 226.035 465.36 225.165 465.15 224.43C464.648 224.478 464.178 224.694 463.813 225.042C463.449 225.39 463.212 225.851 463.14 226.35Z" fill="#FF98B9"/>
<path d="M452.535 205.155C458.79 208.425 466.035 201.495 466.035 201.495C466.677 202.7 467.691 203.665 468.927 204.246C470.162 204.827 471.552 204.993 472.89 204.72C472.89 204.72 475.185 214.38 477.75 214.05C481.68 213.555 481.32 200.07 479.775 197.55C479.182 196.773 478.434 196.127 477.58 195.652C476.726 195.177 475.783 194.884 474.81 194.79C474.249 193.249 473.131 191.975 471.675 191.22C468.675 189.48 459.81 193.35 459.81 193.35C459.142 192.144 458.195 191.116 457.05 190.35C456.776 190.164 456.468 190.036 456.143 189.973C455.819 189.91 455.485 189.912 455.161 189.981C454.838 190.049 454.532 190.183 454.261 190.372C453.99 190.562 453.76 190.804 453.585 191.085C454.172 191.746 454.594 192.538 454.815 193.395C455.625 196.2 453.315 196.47 453 193.875C452.85 192.904 453.058 191.913 453.585 191.085C452.235 189.585 450.285 189.195 449.25 190.245C447.315 192.255 447.345 202.5 452.535 205.155Z" fill="#263238"/>
<path d="M454.815 221.624C453.03 221.744 451.425 219.659 451.245 216.974C451.065 214.289 452.34 211.979 454.125 211.859C455.91 211.739 457.5 213.824 457.695 216.509C457.89 219.194 456.6 221.489 454.815 221.624ZM454.17 212.519C452.745 212.609 451.725 214.589 451.89 216.929C452.055 219.269 453.39 221.069 454.77 220.964C456.15 220.859 457.215 218.894 457.035 216.554C456.855 214.214 455.58 212.414 454.17 212.519Z" fill="#0082AE"/>
<path d="M465.75 220.845C464.775 220.981 463.782 220.821 462.9 220.385C462.017 219.949 461.286 219.257 460.802 218.4C460.318 217.543 460.103 216.56 460.184 215.58C460.266 214.599 460.641 213.665 461.261 212.9C461.88 212.135 462.715 211.574 463.658 211.29C464.6 211.007 465.606 211.013 466.545 211.308C467.484 211.604 468.312 212.175 468.922 212.948C469.532 213.72 469.896 214.658 469.965 215.64C470.091 216.888 469.719 218.136 468.93 219.111C468.14 220.085 466.997 220.709 465.75 220.845ZM465.105 211.725C464.248 211.718 463.41 211.97 462.698 212.447C461.986 212.924 461.435 213.605 461.116 214.4C460.798 215.195 460.726 216.068 460.911 216.905C461.096 217.742 461.529 218.503 462.154 219.09C462.778 219.676 463.565 220.061 464.412 220.194C465.258 220.326 466.125 220.2 466.899 219.833C467.673 219.465 468.318 218.873 468.75 218.133C469.182 217.393 469.381 216.54 469.32 215.685C469.281 214.603 468.816 213.58 468.027 212.838C467.238 212.097 466.188 211.697 465.105 211.725Z" fill="#0082AE"/>
<path d="M461.04 215.835C458.535 215.145 457.485 216.03 457.485 216.03L457.035 215.55C457.035 215.55 458.325 214.41 461.205 215.205L461.04 215.835Z" fill="#0082AE"/>
<path d="M469.605 215.235L469.44 214.59C469.86 214.485 479.685 211.935 480.765 211.8C482.24 211.965 483.67 212.407 484.98 213.105L484.71 213.69C483.515 213.074 482.228 212.654 480.9 212.445C480 212.55 473.13 214.32 469.605 215.235Z" fill="#0082AE"/>
<path d="M476.025 214.739C476.025 214.739 478.89 208.514 481.65 209.444C484.41 210.374 482.94 218.909 480.15 220.544C479.813 220.783 479.431 220.95 479.027 221.034C478.622 221.118 478.205 221.118 477.801 221.033C477.397 220.949 477.015 220.782 476.678 220.543C476.342 220.304 476.058 219.998 475.845 219.644L476.025 214.739Z" fill="#DD6A57"/>
<path d="M481.02 240.299C479.247 242.658 477.344 244.917 475.32 247.064C473.455 249.165 470.961 250.606 468.21 251.174C465.54 251.534 462.84 251.174 461.715 247.844C460.89 245.052 460.7 242.11 461.16 239.234C461.16 239.084 460.965 239.054 460.95 239.234C460.515 243.569 460.155 250.244 464.13 251.564C468.63 253.064 472.755 250.619 475.695 247.469C477.752 245.313 479.568 242.939 481.11 240.389C481.11 240.389 481.065 240.254 481.02 240.299Z" fill="#263238"/>
<path d="M507.81 338.159H427.335V341.774H507.81V338.159Z" fill="#263238"/>
<path d="M487.155 341.759H408.72L402.195 288.494H480.615L487.155 341.759Z" fill="#263238"/>
<path d="M449.445 315.135C449.459 315.759 449.348 316.379 449.118 316.959C448.888 317.539 448.544 318.067 448.106 318.512C447.668 318.957 447.146 319.309 446.569 319.549C445.993 319.788 445.374 319.909 444.75 319.905C443.479 319.897 442.261 319.395 441.353 318.505C440.446 317.614 439.921 316.405 439.89 315.135C439.876 314.51 439.987 313.889 440.217 313.308C440.447 312.727 440.791 312.198 441.228 311.752C441.666 311.306 442.188 310.952 442.765 310.711C443.341 310.47 443.96 310.347 444.585 310.35C445.859 310.357 447.079 310.861 447.987 311.755C448.895 312.649 449.418 313.861 449.445 315.135Z" fill="white"/>
<path d="M435.345 675.285H146.01L95.4451 465.33H384.78L435.345 675.285Z" fill="#A6A6A6"/>
<path d="M44.04 675.285H333.375L383.94 465.33H94.605L44.04 675.285Z" fill="#DBDBDB"/>
<path d="M341.985 504.78L335.535 531.6L335.145 533.25L328.47 561.105L328.08 562.755L321.405 590.58L321 592.23L314.31 620.07L313.92 621.735L307.38 649.005H94.9651L101.505 621.735L101.895 620.07L108.585 592.23L108.99 590.58L115.665 562.755L116.07 561.105L122.745 533.25L123.135 531.6L129.585 504.78H341.985Z" fill="white"/>
<path d="M160.695 504.78L154.245 531.6L153.855 533.25L147.18 561.105L146.79 562.755L140.115 590.58L139.71 592.23L133.035 620.07L132.63 621.735L126.09 649.005H124.395L130.95 621.735L131.34 620.07L138.015 592.23L138.42 590.58L145.08 562.755L145.485 561.105L152.175 533.25L152.565 531.6L158.985 504.78H160.695Z" fill="#EBEBEB"/>
<path d="M190.95 504.78L184.5 531.6L184.11 533.25L177.435 561.105L177.045 562.755L170.37 590.58L169.965 592.23L163.29 620.07L162.885 621.735L156.345 649.005H154.65L161.205 621.735L161.595 620.07L168.27 592.23L168.675 590.58L175.335 562.755L175.74 561.105L182.43 533.25L182.82 531.6L189.24 504.78H190.95Z" fill="#EBEBEB"/>
<path d="M221.22 504.78L214.785 531.6L214.38 533.25L207.705 561.105L207.315 562.755L200.64 590.58L200.25 592.23L193.56 620.07L193.155 621.735L186.615 649.005H184.92L191.475 621.735L191.88 620.07L198.54 592.23L198.945 590.58L205.62 562.755L206.01 561.105L212.7 533.25L213.09 531.6L219.525 504.78H221.22Z" fill="#EBEBEB"/>
<path d="M251.475 504.78L245.04 531.6L244.635 533.25L237.96 561.105L237.57 562.755L230.895 590.58L230.505 592.23L223.815 620.07L223.41 621.735L216.87 649.005H215.175L221.73 621.735L222.135 620.07L228.795 592.23L229.2 590.58L235.875 562.755L236.265 561.105L242.955 533.25L243.345 531.6L249.78 504.78H251.475Z" fill="#EBEBEB"/>
<path d="M281.745 504.78L275.31 531.6L274.905 533.25L268.245 561.105L267.84 562.755L261.165 590.58L260.775 592.23L254.085 620.07L253.695 621.735L247.155 649.005H245.445L252 621.735L252.405 620.07L259.08 592.23L259.47 590.58L266.145 562.755L266.535 561.105L273.225 533.25L273.615 531.6L280.05 504.78H281.745Z" fill="#EBEBEB"/>
<path d="M312 504.78L305.565 531.6L305.16 533.25L298.5 561.105L298.095 562.755L291.42 590.58L291.03 592.23L284.34 620.07L283.95 621.735L277.41 649.005H275.7L282.255 621.735L282.66 620.07L289.335 592.23L289.725 590.58L296.4 562.755L296.79 561.105L303.48 533.25L303.885 531.6L310.305 504.78H312Z" fill="#EBEBEB"/>
<path d="M335.535 531.6L335.145 533.25H122.745L123.135 531.6H335.535Z" fill="#EBEBEB"/>
<path d="M328.47 561.105L328.08 562.755H115.665L116.07 561.105H328.47Z" fill="#EBEBEB"/>
<path d="M321.405 590.58L321 592.23H108.585L108.99 590.58H321.405Z" fill="#EBEBEB"/>
<path d="M314.31 620.07L313.92 621.735H101.505L101.895 620.07H314.31Z" fill="#EBEBEB"/>
<path d="M149.714 563.665L146.528 566.237L165.017 589.135L168.203 586.562L149.714 563.665Z" fill="#C7C7C7"/>
<path d="M168.538 563.441L142.952 586.763L145.711 589.789L171.296 566.467L168.538 563.441Z" fill="#C7C7C7"/>
<path d="M216.86 534.97L213.674 537.543L232.163 560.44L235.349 557.868L216.86 534.97Z" fill="#C7C7C7"/>
<path d="M235.692 534.755L210.106 558.077L212.865 561.104L238.45 537.781L235.692 534.755Z" fill="#C7C7C7"/>
<path d="M132.15 560.595L124.335 546.93L127.89 544.89L132.78 553.44L150.6 531.945L153.75 534.555L132.15 560.595Z" fill="#0082AE"/>
<path d="M169.965 647.445L162.15 633.78L165.705 631.74L170.58 640.29L188.4 618.795L191.55 621.405L169.965 647.445Z" fill="#0082AE"/>
<path d="M277.5 564C273.711 566.083 270.22 568.666 267.12 571.68C264.12 574.68 261.495 578.325 261.12 582.42C260.965 583.374 261.008 584.349 261.246 585.286C261.483 586.222 261.91 587.1 262.5 587.865C263.883 589.301 265.665 590.288 267.615 590.7C271.723 591.562 275.976 591.454 280.035 590.385C284.142 589.512 287.996 587.711 291.3 585.12C292.903 583.836 294.234 582.245 295.215 580.44C296.19 578.708 296.614 576.719 296.43 574.74C296.26 573.769 295.894 572.843 295.355 572.018C294.816 571.193 294.115 570.486 293.295 569.94C291.572 568.746 289.63 567.905 287.58 567.465C283.377 566.475 278.996 566.521 274.815 567.6C278.968 566.08 283.444 565.667 287.805 566.4C290.044 566.764 292.186 567.575 294.105 568.785C295.116 569.415 295.992 570.239 296.682 571.21C297.372 572.18 297.862 573.278 298.125 574.44C298.48 576.803 298.048 579.217 296.895 581.31C295.829 583.358 294.366 585.174 292.59 586.65C289.051 589.48 284.927 591.487 280.516 592.525C276.106 593.562 271.519 593.605 267.09 592.65C264.78 592.108 262.688 590.879 261.09 589.125C260.318 588.165 259.802 587.024 259.59 585.81C259.41 584.642 259.41 583.453 259.59 582.285C260.28 577.62 263.265 573.885 266.505 570.99C269.804 568.129 273.509 565.773 277.5 564Z" fill="#0082AE"/>
<path d="M154.05 512.25H131.49L132.12 509.49H154.68L154.05 512.25Z" fill="#C7C7C7"/>
<path d="M143.67 516.96H130.41L131.04 514.215H144.3L143.67 516.96Z" fill="#C7C7C7"/>
<path d="M245.745 598.92H232.02L232.65 596.175H246.375L245.745 598.92Z" fill="#C7C7C7"/>
<path d="M243.57 608.535H229.845L230.475 605.79H244.215L243.57 608.535Z" fill="#C7C7C7"/>
<path d="M252.45 603.645H230.925L231.57 600.885H253.08L252.45 603.645Z" fill="#C7C7C7"/>
<path d="M281.295 577.725H267.57L268.2 574.965H281.94L281.295 577.725Z" fill="#C7C7C7"/>
<path d="M288 582.435H266.475L267.12 579.69H288.63L288 582.435Z" fill="#C7C7C7"/>
<path d="M96.96 526.815L110.205 516.915C111.694 515.806 112.754 514.216 113.205 512.415C113.383 511.737 113.418 511.03 113.307 510.337C113.195 509.645 112.941 508.984 112.56 508.395C112.11 507.758 111.509 507.242 110.809 506.897C110.11 506.551 109.335 506.385 108.555 506.415C106.932 506.415 105.353 506.942 104.055 507.915L102.675 508.95C102.603 509.031 102.515 509.095 102.417 509.139C102.319 509.183 102.213 509.205 102.105 509.205C101.997 509.205 101.891 509.183 101.793 509.139C101.695 509.095 101.607 509.031 101.535 508.95C101.479 508.856 101.442 508.752 101.426 508.643C101.411 508.534 101.418 508.424 101.445 508.317C101.473 508.211 101.522 508.112 101.589 508.025C101.656 507.938 101.74 507.865 101.835 507.81L103.215 506.73C104.846 505.495 106.824 504.803 108.87 504.75C109.872 504.697 110.872 504.904 111.771 505.351C112.669 505.797 113.437 506.469 114 507.3C114.494 508.048 114.822 508.892 114.965 509.777C115.107 510.661 115.059 511.566 114.825 512.43C114.243 514.714 112.893 516.727 111 518.13L99.66 526.605H110.745C110.846 526.605 110.946 526.629 111.037 526.675C111.127 526.721 111.206 526.788 111.266 526.869C111.326 526.951 111.365 527.046 111.382 527.146C111.398 527.246 111.391 527.349 111.36 527.445C111.301 527.667 111.173 527.865 110.996 528.01C110.818 528.155 110.599 528.241 110.37 528.255H97.185C97.082 528.265 96.9781 528.249 96.8834 528.207C96.7888 528.164 96.7067 528.099 96.645 528.015C96.5407 527.812 96.5151 527.577 96.5732 527.355C96.6313 527.134 96.7691 526.942 96.96 526.815Z" fill="#A6A6A6"/>
<path d="M90.4049 556.77C91.0763 553.741 92.4826 550.923 94.4999 548.565C95.3183 547.555 96.3333 546.722 97.4833 546.116C98.6332 545.51 99.8943 545.144 101.19 545.04C102.286 545.055 103.353 545.399 104.252 546.028C105.15 546.656 105.839 547.54 106.23 548.565C107.209 551.193 107.345 554.061 106.62 556.77C105.926 559.797 104.493 562.606 102.45 564.945C101.642 565.958 100.636 566.795 99.4934 567.407C98.3509 568.018 97.0959 568.39 95.8049 568.5C94.7044 568.485 93.6343 568.137 92.7349 567.502C91.8355 566.868 91.1488 565.977 90.7649 564.945C89.7891 562.326 89.6632 559.465 90.4049 556.77ZM92.0549 556.77C91.3943 559.166 91.4938 561.708 92.3399 564.045C92.6254 564.848 93.1457 565.546 93.8332 566.049C94.5207 566.552 95.3436 566.836 96.1949 566.865C97.1988 566.757 98.1707 566.448 99.0522 565.956C99.9337 565.464 100.707 564.798 101.325 564C103.122 561.926 104.383 559.444 105 556.77C105.641 554.368 105.521 551.826 104.655 549.495C104.383 548.687 103.869 547.982 103.181 547.477C102.494 546.973 101.668 546.692 100.815 546.675C99.8083 546.761 98.8308 547.057 97.9449 547.542C97.059 548.028 96.2841 548.693 95.6699 549.495C93.8859 551.586 92.6443 554.085 92.0549 556.77Z" fill="#A6A6A6"/>
<path d="M78.375 607.32L91.62 597.42C93.1088 596.311 94.1685 594.721 94.62 592.92C94.798 592.242 94.8326 591.535 94.7215 590.842C94.6105 590.15 94.3562 589.489 93.975 588.9C93.5256 588.271 92.9276 587.762 92.2341 587.419C91.5407 587.076 90.7732 586.91 90 586.935C88.3773 586.935 86.7983 587.462 85.5 588.435L84.12 589.47C84.0483 589.551 83.9604 589.615 83.8622 589.659C83.764 589.702 83.6576 589.725 83.55 589.725C83.4425 589.725 83.3361 589.702 83.2379 589.659C83.1396 589.615 83.0518 589.551 82.98 589.47C82.9237 589.376 82.8868 589.272 82.8714 589.163C82.856 589.054 82.8625 588.943 82.8905 588.837C82.9184 588.731 82.9672 588.632 83.0341 588.545C83.101 588.457 83.1846 588.385 83.28 588.33L84.66 587.25C86.2915 586.015 88.2693 585.322 90.315 585.27C91.3023 585.227 92.2843 585.435 93.1687 585.876C94.0531 586.317 94.8107 586.976 95.37 587.79C95.8636 588.538 96.1924 589.382 96.3346 590.267C96.4768 591.151 96.4293 592.056 96.195 592.92C95.6134 595.204 94.2626 597.217 92.37 598.62L81.015 607.095H92.115C92.2165 607.095 92.3165 607.119 92.4069 607.165C92.4974 607.211 92.5757 607.277 92.6356 607.359C92.6956 607.441 92.7353 607.536 92.7517 607.636C92.7681 607.736 92.7607 607.839 92.73 607.935C92.6707 608.157 92.5433 608.355 92.3656 608.5C92.188 608.645 91.9691 608.731 91.74 608.745H78.6C78.497 608.755 78.3931 608.738 78.2984 608.696C78.2038 608.654 78.1217 608.589 78.06 608.505C77.9599 608.303 77.9366 608.072 77.9946 607.854C78.0525 607.636 78.1878 607.446 78.375 607.32Z" fill="#A6A6A6"/>
<path d="M71.82 637.275C72.5044 634.241 73.9264 631.423 75.96 629.07C76.7742 628.052 77.7874 627.21 78.9375 626.596C80.0877 625.983 81.3509 625.61 82.65 625.5C83.7465 625.515 84.8131 625.859 85.7117 626.488C86.6103 627.116 87.2995 628 87.69 629.025C88.6613 631.655 88.7975 634.52 88.08 637.23C87.3792 640.255 85.9474 643.062 83.91 645.405C83.0967 646.423 82.0836 647.264 80.933 647.875C79.7824 648.486 78.5187 648.856 77.22 648.96C76.1189 648.947 75.0479 648.6 74.1481 647.965C73.2483 647.33 72.5621 646.438 72.18 645.405C71.2138 642.799 71.0879 639.956 71.82 637.275ZM73.47 637.275C72.8093 639.671 72.9089 642.213 73.755 644.55C74.0439 645.35 74.5651 646.046 75.2519 646.549C75.9387 647.051 76.7597 647.337 77.61 647.37C78.6104 647.268 79.5802 646.966 80.4615 646.481C81.3428 645.997 82.1176 645.34 82.74 644.55C84.5547 642.469 85.8228 639.969 86.43 637.275C87.0884 634.876 86.9729 632.33 86.1 630C85.8283 629.192 85.3136 628.487 84.6263 627.982C83.9389 627.478 83.1125 627.197 82.26 627.18C81.2534 627.266 80.2758 627.562 79.3899 628.047C78.504 628.533 77.7291 629.198 77.115 630C75.3309 632.091 74.0894 634.59 73.5 637.275H73.47Z" fill="#A6A6A6"/>
<path d="M345.69 499.095C345.69 499.095 339.27 526.92 336.555 538.71C333.84 550.5 322.65 558 322.65 558H261.375C261.375 558 272.28 545.025 274.5 535.395L282.885 499.095H345.69Z" fill="#0082AE"/>
<path d="M291.675 519.39L288.465 522.765C288.403 522.835 288.317 522.878 288.225 522.885C288.184 522.888 288.143 522.878 288.108 522.857C288.073 522.835 288.046 522.803 288.03 522.765L286.38 519.405L284.88 525.63C284.861 525.701 284.82 525.763 284.764 525.809C284.707 525.855 284.638 525.881 284.565 525.885C284.532 525.89 284.499 525.885 284.468 525.873C284.438 525.861 284.41 525.841 284.389 525.816C284.368 525.79 284.354 525.76 284.348 525.728C284.342 525.695 284.345 525.662 284.355 525.63L285.975 518.61C285.984 518.567 286.002 518.525 286.027 518.489C286.053 518.453 286.087 518.423 286.125 518.4C286.147 518.377 286.174 518.359 286.204 518.346C286.233 518.334 286.265 518.327 286.297 518.327C286.33 518.327 286.362 518.334 286.391 518.346C286.421 518.359 286.448 518.377 286.47 518.4L288.315 522.135L291.855 518.4C291.909 518.354 291.978 518.328 292.05 518.328C292.121 518.328 292.191 518.354 292.245 518.4C292.252 518.43 292.252 518.461 292.245 518.49C292.253 518.535 292.253 518.581 292.245 518.625L290.625 525.645C290.606 525.716 290.565 525.778 290.509 525.824C290.452 525.87 290.383 525.896 290.31 525.9C290.278 525.902 290.247 525.896 290.218 525.882C290.19 525.869 290.165 525.849 290.146 525.824C290.126 525.799 290.114 525.77 290.108 525.738C290.103 525.707 290.105 525.675 290.115 525.645L291.675 519.39Z" fill="black"/>
<path d="M294.615 518.565C294.637 518.493 294.68 518.43 294.739 518.385C294.798 518.339 294.87 518.313 294.945 518.31H298.845C298.876 518.308 298.908 518.314 298.937 518.328C298.965 518.341 298.99 518.361 299.009 518.386C299.029 518.411 299.041 518.441 299.047 518.472C299.052 518.503 299.05 518.535 299.04 518.565C299.023 518.64 298.981 518.708 298.922 518.757C298.862 518.806 298.787 518.833 298.71 518.835H295.08L294.39 521.835H297.57C297.602 521.836 297.634 521.844 297.662 521.859C297.691 521.874 297.715 521.896 297.734 521.922C297.753 521.948 297.765 521.978 297.771 522.01C297.776 522.041 297.774 522.074 297.765 522.105C297.749 522.178 297.709 522.244 297.653 522.292C297.596 522.341 297.525 522.37 297.45 522.375H294.27L293.58 525.375H297.21C297.243 525.372 297.277 525.378 297.307 525.392C297.337 525.406 297.364 525.428 297.383 525.455C297.403 525.482 297.415 525.514 297.419 525.547C297.423 525.58 297.418 525.614 297.405 525.645C297.388 525.716 297.348 525.78 297.291 525.826C297.234 525.873 297.163 525.898 297.09 525.9H293.16C293.13 525.899 293.1 525.891 293.073 525.877C293.047 525.862 293.024 525.842 293.006 525.817C292.989 525.793 292.977 525.764 292.973 525.734C292.968 525.704 292.971 525.674 292.98 525.645L294.615 518.565Z" fill="black"/>
<path d="M301.05 518.565C301.069 518.494 301.11 518.432 301.166 518.386C301.223 518.34 301.292 518.313 301.365 518.31H305.265C305.297 518.309 305.328 518.315 305.357 518.329C305.386 518.342 305.412 518.362 305.432 518.386C305.452 518.411 305.467 518.439 305.474 518.47C305.482 518.501 305.482 518.534 305.475 518.565C305.456 518.639 305.414 518.705 305.354 518.754C305.295 518.802 305.222 518.831 305.145 518.835H301.5L300.81 521.835H303.99C304.022 521.836 304.054 521.844 304.082 521.859C304.111 521.874 304.135 521.895 304.154 521.922C304.173 521.948 304.186 521.978 304.191 522.01C304.196 522.041 304.194 522.074 304.185 522.105C304.168 522.18 304.127 522.248 304.067 522.297C304.007 522.346 303.932 522.373 303.855 522.375H300.69L300 525.375H303.63C303.78 525.375 303.855 525.495 303.825 525.645C303.805 525.717 303.763 525.782 303.703 525.828C303.643 525.874 303.57 525.899 303.495 525.9H299.58C299.55 525.899 299.52 525.891 299.493 525.877C299.467 525.862 299.444 525.842 299.426 525.817C299.409 525.792 299.397 525.764 299.393 525.734C299.388 525.704 299.391 525.673 299.4 525.645L301.05 518.565Z" fill="black"/>
<path d="M309.375 518.835H307.095C307.062 518.836 307.028 518.829 306.998 518.815C306.968 518.801 306.941 518.78 306.92 518.754C306.9 518.727 306.886 518.696 306.88 518.663C306.874 518.631 306.875 518.597 306.885 518.565C306.909 518.494 306.953 518.432 307.011 518.387C307.07 518.342 307.141 518.315 307.215 518.31H312.3C312.332 518.309 312.363 518.315 312.392 518.329C312.421 518.342 312.447 518.362 312.467 518.386C312.487 518.411 312.502 518.439 312.509 518.47C312.517 518.501 312.517 518.534 312.51 518.565C312.491 518.639 312.449 518.705 312.389 518.754C312.33 518.802 312.257 518.831 312.18 518.835H309.9L308.4 525.63C308.381 525.7 308.341 525.762 308.284 525.808C308.227 525.854 308.158 525.881 308.085 525.885C308.053 525.885 308.022 525.879 307.993 525.866C307.964 525.852 307.938 525.833 307.918 525.808C307.898 525.784 307.883 525.755 307.876 525.724C307.869 525.693 307.868 525.661 307.875 525.63L309.375 518.835Z" fill="black"/>
<path d="M314.58 518.565C314.599 518.494 314.64 518.432 314.696 518.386C314.753 518.34 314.822 518.313 314.895 518.31C314.927 518.309 314.958 518.315 314.987 518.329C315.016 518.342 315.042 518.362 315.062 518.386C315.082 518.411 315.097 518.439 315.104 518.47C315.111 518.501 315.112 518.534 315.105 518.565L313.5 525.63C313.475 525.702 313.429 525.766 313.368 525.811C313.306 525.857 313.232 525.882 313.155 525.885C313.123 525.886 313.092 525.88 313.063 525.867C313.035 525.853 313.01 525.833 312.991 525.808C312.971 525.783 312.959 525.754 312.953 525.723C312.948 525.692 312.95 525.66 312.96 525.63L314.58 518.565Z" fill="black"/>
<path d="M318.165 519.42L316.665 525.63C316.646 525.701 316.606 525.763 316.549 525.809C316.492 525.855 316.423 525.881 316.35 525.885C316.318 525.887 316.287 525.881 316.258 525.867C316.23 525.854 316.205 525.834 316.186 525.809C316.166 525.784 316.154 525.755 316.148 525.723C316.143 525.692 316.145 525.66 316.155 525.63L317.76 518.67C317.757 518.612 317.771 518.554 317.8 518.503C317.829 518.452 317.873 518.412 317.925 518.385C318.06 518.385 318.225 518.385 318.27 518.385L321.405 524.76L322.83 518.58C322.849 518.51 322.89 518.447 322.946 518.402C323.003 518.356 323.072 518.329 323.145 518.325C323.177 518.325 323.208 518.331 323.237 518.344C323.266 518.357 323.292 518.377 323.312 518.402C323.332 518.426 323.347 518.455 323.354 518.486C323.362 518.517 323.362 518.549 323.355 518.58L321.735 525.57C321.713 525.642 321.67 525.705 321.611 525.75C321.552 525.796 321.48 525.822 321.405 525.825C321.37 525.827 321.335 525.819 321.304 525.803C321.272 525.788 321.245 525.764 321.225 525.735L318.165 519.42Z" fill="black"/>
<path d="M328.26 522.48C328.227 522.484 328.194 522.48 328.163 522.468C328.133 522.455 328.105 522.436 328.084 522.41C328.063 522.385 328.049 522.354 328.043 522.322C328.037 522.289 328.04 522.256 328.05 522.225C328.067 522.147 328.111 522.077 328.174 522.028C328.237 521.979 328.315 521.953 328.395 521.955H330.765C330.796 521.957 330.826 521.967 330.852 521.983C330.878 521.999 330.9 522.021 330.917 522.047C330.933 522.074 330.942 522.104 330.945 522.134C330.947 522.165 330.942 522.196 330.93 522.225L330.33 524.82C330.302 524.899 330.25 524.968 330.18 525.015C329.4 525.542 328.482 525.829 327.54 525.84C327.063 525.86 326.587 525.765 326.154 525.564C325.72 525.363 325.341 525.062 325.047 524.685C324.754 524.308 324.555 523.866 324.466 523.396C324.378 522.927 324.403 522.443 324.54 521.985C324.827 520.912 325.451 519.961 326.321 519.272C327.192 518.583 328.261 518.193 329.37 518.16C329.783 518.147 330.194 518.216 330.58 518.363C330.966 518.509 331.32 518.731 331.62 519.015C331.668 519.063 331.694 519.127 331.694 519.195C331.694 519.262 331.668 519.327 331.62 519.375C331.566 519.421 331.496 519.447 331.425 519.447C331.353 519.447 331.284 519.421 331.23 519.375C330.969 519.13 330.663 518.939 330.328 518.813C329.994 518.687 329.637 518.628 329.28 518.64C328.324 518.675 327.405 519.014 326.655 519.608C325.906 520.201 325.364 521.018 325.11 521.94C324.991 522.339 324.97 522.762 325.049 523.171C325.128 523.58 325.305 523.965 325.564 524.291C325.823 524.618 326.157 524.877 326.537 525.048C326.918 525.218 327.334 525.294 327.75 525.27C328.515 525.255 329.262 525.032 329.91 524.625L330.42 522.39L328.26 522.48Z" fill="black"/>
<path d="M281.52 532.08L280.305 532.71C280.256 532.723 280.204 532.723 280.155 532.71C280.114 532.713 280.073 532.703 280.038 532.681C280.003 532.66 279.976 532.628 279.96 532.59C279.936 532.518 279.942 532.44 279.976 532.373C280.009 532.305 280.069 532.254 280.14 532.23L281.805 531.33C281.835 531.314 281.867 531.304 281.9 531.301C281.934 531.298 281.967 531.301 281.999 531.311C282.031 531.321 282.061 531.337 282.087 531.358C282.113 531.379 282.134 531.405 282.15 531.435C282.172 531.498 282.172 531.567 282.15 531.63L280.5 538.635C280.481 538.709 280.439 538.775 280.379 538.824C280.32 538.872 280.247 538.901 280.17 538.905C280.138 538.904 280.106 538.896 280.078 538.88C280.049 538.865 280.025 538.844 280.006 538.818C279.987 538.792 279.975 538.762 279.969 538.73C279.964 538.698 279.966 538.666 279.975 538.635L281.52 532.08Z" fill="black"/>
<path d="M288.57 531.795L286.14 533.805C286.591 533.898 286.995 534.148 287.28 534.51C287.465 534.77 287.59 535.067 287.647 535.381C287.704 535.694 287.691 536.017 287.61 536.325C287.419 537.035 287.008 537.666 286.438 538.13C285.867 538.593 285.164 538.864 284.43 538.905C284.117 538.914 283.806 538.849 283.522 538.716C283.238 538.584 282.989 538.386 282.795 538.14C282.705 538.05 282.795 537.87 282.885 537.765C282.909 537.739 282.938 537.718 282.97 537.704C283.003 537.69 283.037 537.683 283.073 537.683C283.108 537.683 283.143 537.69 283.175 537.704C283.207 537.718 283.236 537.739 283.26 537.765C283.418 537.956 283.618 538.108 283.845 538.209C284.071 538.311 284.317 538.359 284.565 538.35C285.114 538.319 285.64 538.114 286.065 537.765C286.538 537.387 286.866 536.857 286.995 536.265C287.063 536.023 287.074 535.768 287.027 535.521C286.98 535.274 286.877 535.041 286.725 534.84C286.577 534.641 286.381 534.482 286.156 534.377C285.931 534.273 285.683 534.225 285.435 534.24C285.397 534.239 285.359 534.23 285.325 534.211C285.291 534.193 285.262 534.167 285.24 534.135C285.204 534.07 285.194 533.995 285.211 533.923C285.227 533.851 285.27 533.788 285.33 533.745L287.67 531.795H284.76C284.727 531.796 284.693 531.79 284.663 531.776C284.633 531.762 284.606 531.741 284.586 531.714C284.565 531.688 284.551 531.657 284.545 531.624C284.539 531.591 284.54 531.557 284.55 531.525C284.572 531.45 284.617 531.383 284.679 531.334C284.741 531.286 284.817 531.258 284.895 531.255H288.435C288.469 531.254 288.502 531.26 288.532 531.274C288.563 531.288 288.589 531.31 288.61 531.336C288.63 531.362 288.644 531.393 288.65 531.426C288.656 531.459 288.655 531.493 288.645 531.525C288.653 531.565 288.653 531.605 288.645 531.645L288.57 531.795Z" fill="black"/>
<path d="M292.38 533.85C292.36 533.921 292.319 533.985 292.263 534.033C292.207 534.081 292.138 534.111 292.065 534.12H291.375L290.49 537.975C290.479 538.021 290.478 538.069 290.488 538.115C290.498 538.162 290.518 538.205 290.546 538.242C290.575 538.28 290.612 538.31 290.654 538.332C290.696 538.353 290.743 538.364 290.79 538.365C290.823 538.367 290.854 538.375 290.883 538.39C290.912 538.405 290.937 538.426 290.957 538.452C290.977 538.478 290.991 538.507 290.999 538.539C291.006 538.571 291.007 538.604 291 538.635C290.976 538.707 290.932 538.77 290.874 538.817C290.815 538.865 290.745 538.895 290.67 538.905C290.554 538.914 290.437 538.894 290.331 538.846C290.225 538.799 290.131 538.726 290.06 538.634C289.989 538.542 289.941 538.433 289.922 538.319C289.903 538.204 289.913 538.086 289.95 537.975L290.835 534.12H290.175C289.92 534.12 289.95 533.985 289.98 533.85C289.982 533.812 289.991 533.775 290.009 533.74C290.026 533.706 290.05 533.676 290.08 533.652C290.11 533.628 290.144 533.61 290.182 533.6C290.219 533.591 290.257 533.589 290.295 533.595H291L291.465 531.615C291.488 531.547 291.529 531.487 291.585 531.442C291.641 531.396 291.709 531.368 291.78 531.36C291.812 531.36 291.844 531.367 291.874 531.38C291.903 531.393 291.93 531.412 291.951 531.436C291.972 531.461 291.988 531.489 291.997 531.52C292.007 531.551 292.009 531.583 292.005 531.615L291.54 533.595H292.23C292.284 533.61 292.33 533.644 292.358 533.692C292.386 533.74 292.394 533.797 292.38 533.85Z" fill="black"/>
<path d="M298.125 535.68C298.172 535.489 298.173 535.29 298.126 535.099C298.08 534.908 297.988 534.731 297.858 534.584C297.728 534.436 297.565 534.323 297.381 534.252C297.198 534.182 297 534.157 296.805 534.18C296.347 534.171 295.9 534.314 295.531 534.585C295.162 534.856 294.893 535.241 294.765 535.68L294.075 538.68C294.055 538.716 294.027 538.746 293.993 538.77C293.959 538.793 293.921 538.809 293.88 538.815C293.845 538.818 293.809 538.811 293.777 538.795C293.746 538.779 293.719 538.755 293.7 538.725C293.693 538.695 293.693 538.664 293.7 538.635C293.694 538.605 293.694 538.574 293.7 538.545L294.375 535.545V535.455L295.29 531.435C295.314 531.364 295.357 531.303 295.416 531.257C295.475 531.212 295.546 531.185 295.62 531.18C295.652 531.179 295.683 531.185 295.712 531.199C295.741 531.212 295.767 531.232 295.787 531.256C295.807 531.281 295.822 531.31 295.829 531.341C295.836 531.371 295.837 531.404 295.83 531.435L295.185 534.24C295.685 533.756 296.349 533.477 297.045 533.46C297.312 533.432 297.582 533.47 297.83 533.571C298.079 533.672 298.299 533.832 298.471 534.038C298.643 534.244 298.762 534.489 298.816 534.752C298.871 535.015 298.86 535.287 298.785 535.545L298.095 538.545C298.078 538.62 298.036 538.688 297.977 538.737C297.917 538.786 297.842 538.813 297.765 538.815C297.733 538.814 297.701 538.805 297.673 538.79C297.644 538.775 297.62 538.754 297.601 538.728C297.582 538.702 297.569 538.672 297.564 538.64C297.559 538.608 297.561 538.576 297.57 538.545L298.125 535.68Z" fill="black"/>
<path d="M300.705 535.125C300.719 535.068 300.752 535.018 300.798 534.982C300.844 534.947 300.902 534.928 300.96 534.93H303.27C303.294 534.929 303.319 534.934 303.341 534.945C303.363 534.955 303.383 534.97 303.399 534.988C303.415 535.007 303.426 535.029 303.432 535.052C303.439 535.076 303.44 535.101 303.435 535.125C303.422 535.185 303.391 535.239 303.345 535.28C303.299 535.32 303.241 535.345 303.18 535.35H300.87C300.842 535.352 300.814 535.347 300.789 535.335C300.764 535.323 300.742 535.305 300.726 535.283C300.709 535.26 300.699 535.234 300.695 535.206C300.691 535.179 300.695 535.151 300.705 535.125Z" fill="black"/>
<path d="M306.63 532.08L305.415 532.71C305.366 532.723 305.314 532.723 305.265 532.71C305.224 532.713 305.183 532.703 305.148 532.681C305.113 532.66 305.086 532.628 305.07 532.59C305.046 532.518 305.052 532.44 305.086 532.373C305.119 532.305 305.179 532.254 305.25 532.23L306.915 531.33C306.945 531.314 306.977 531.304 307.01 531.301C307.044 531.298 307.077 531.301 307.109 531.311C307.141 531.321 307.171 531.337 307.197 531.358C307.223 531.379 307.244 531.405 307.26 531.435C307.275 531.499 307.275 531.566 307.26 531.63L305.655 538.59C305.636 538.664 305.594 538.73 305.534 538.779C305.475 538.827 305.402 538.856 305.325 538.86C305.293 538.859 305.261 538.851 305.233 538.835C305.205 538.82 305.18 538.799 305.161 538.773C305.142 538.747 305.13 538.717 305.124 538.685C305.119 538.653 305.121 538.621 305.13 538.59L306.63 532.08Z" fill="black"/>
<path d="M308.43 535.11C308.655 534.131 309.113 533.22 309.765 532.455C310.03 532.13 310.358 531.861 310.729 531.665C311.1 531.469 311.507 531.35 311.925 531.315C312.276 531.333 312.614 531.455 312.895 531.666C313.175 531.877 313.386 532.168 313.5 532.5C313.811 533.352 313.858 534.277 313.635 535.155C313.408 536.133 312.944 537.039 312.285 537.795C312.023 538.125 311.696 538.397 311.324 538.596C310.953 538.795 310.545 538.915 310.125 538.95C309.767 538.95 309.417 538.838 309.125 538.632C308.832 538.425 308.61 538.133 308.49 537.795C308.189 536.929 308.168 535.99 308.43 535.11ZM308.97 535.11C308.75 535.885 308.782 536.71 309.06 537.465C309.153 537.723 309.322 537.947 309.544 538.107C309.766 538.268 310.031 538.358 310.305 538.365C310.628 538.334 310.942 538.238 311.228 538.083C311.514 537.929 311.766 537.719 311.97 537.465C312.554 536.791 312.961 535.981 313.155 535.11C313.371 534.334 313.334 533.509 313.05 532.755C312.96 532.495 312.793 532.27 312.57 532.108C312.347 531.947 312.08 531.859 311.805 531.855C311.48 531.881 311.164 531.975 310.877 532.13C310.591 532.285 310.34 532.498 310.14 532.755C309.571 533.434 309.179 534.243 309 535.11H308.97Z" fill="black"/>
<path d="M320.28 537H316.83L315.735 538.785C315.706 538.836 315.665 538.879 315.615 538.91C315.565 538.942 315.509 538.96 315.45 538.965H315.36C315.33 538.95 315.303 538.928 315.282 538.902C315.261 538.875 315.246 538.844 315.239 538.811C315.232 538.777 315.232 538.743 315.24 538.71C315.248 538.677 315.263 538.646 315.285 538.62L319.545 531.585C319.579 531.536 319.624 531.496 319.676 531.468C319.728 531.439 319.786 531.423 319.845 531.42C319.95 531.42 320.055 531.42 320.055 531.585L321.075 538.62C321.075 538.693 321.054 538.765 321.014 538.826C320.974 538.887 320.917 538.936 320.85 538.965H320.745C320.696 538.96 320.649 538.94 320.612 538.908C320.574 538.876 320.547 538.833 320.535 538.785L320.28 537ZM317.145 536.475H320.145L319.56 532.395L317.145 536.475Z" fill="black"/>
<path d="M330 532.395L326.805 535.77C326.774 535.807 326.735 535.837 326.691 535.858C326.647 535.879 326.599 535.89 326.55 535.89C326.445 535.89 326.385 535.89 326.355 535.77L324.69 532.41L323.265 538.635C323.246 538.709 323.204 538.775 323.144 538.824C323.085 538.872 323.012 538.901 322.935 538.905C322.902 538.906 322.868 538.899 322.838 538.885C322.808 538.871 322.781 538.85 322.761 538.824C322.74 538.797 322.726 538.766 322.72 538.733C322.714 538.701 322.716 538.667 322.725 538.635L324.345 531.615C324.379 531.534 324.436 531.466 324.51 531.42C324.538 531.4 324.57 531.387 324.604 531.38C324.638 531.373 324.672 531.373 324.706 531.38C324.74 531.387 324.772 531.401 324.8 531.421C324.828 531.44 324.852 531.465 324.87 531.495L326.7 535.23L330.255 531.495C330.297 531.438 330.359 531.399 330.428 531.385C330.497 531.371 330.569 531.383 330.63 531.42C330.634 531.449 330.634 531.48 330.63 531.51C330.645 531.553 330.645 531.601 330.63 531.645L329.01 538.665C328.994 538.738 328.955 538.804 328.898 538.852C328.841 538.901 328.77 538.93 328.695 538.935C328.662 538.936 328.628 538.929 328.598 538.915C328.568 538.901 328.541 538.88 328.521 538.854C328.5 538.827 328.486 538.796 328.48 538.763C328.474 538.731 328.476 538.697 328.485 538.665L330 532.395Z" fill="black"/>
<path d="M103.65 479.67C102.585 479.64 101.538 479.387 100.577 478.927C99.6157 478.467 98.7617 477.811 98.07 477C96.57 475.275 94.455 471.315 96.57 464.13C98.565 457.545 103.35 454.83 107.07 455.535C109.92 456.075 113.07 458.97 112.515 465.345C112.5 465.583 112.437 465.816 112.33 466.029C112.223 466.242 112.074 466.432 111.892 466.586C111.71 466.74 111.498 466.856 111.27 466.926C111.042 466.996 110.802 467.02 110.565 466.995C110.087 466.95 109.647 466.718 109.338 466.35C109.029 465.983 108.877 465.509 108.915 465.03C109.2 461.715 108.225 459.435 106.395 459.03C104.325 458.64 101.385 460.635 100.035 465.12C98.805 469.215 99.06 472.62 100.77 474.585C101.128 475.059 101.594 475.442 102.128 475.703C102.662 475.964 103.251 476.095 103.845 476.085C104.089 476.032 104.342 476.03 104.588 476.079C104.833 476.128 105.066 476.227 105.271 476.37C105.476 476.513 105.65 476.697 105.78 476.911C105.911 477.124 105.996 477.362 106.03 477.61C106.064 477.858 106.047 478.11 105.979 478.351C105.911 478.592 105.794 478.816 105.635 479.01C105.477 479.203 105.28 479.362 105.057 479.475C104.834 479.589 104.59 479.655 104.34 479.67C104.11 479.683 103.88 479.683 103.65 479.67Z" fill="#A6A6A6"/>
<path d="M126 479.67C124.924 479.65 123.865 479.402 122.893 478.942C121.921 478.481 121.057 477.82 120.36 477C118.86 475.275 116.745 471.315 118.86 464.13C120.84 457.545 125.64 454.83 129.36 455.535C132.21 456.075 135.36 458.97 134.805 465.345C134.788 465.583 134.724 465.814 134.616 466.027C134.508 466.239 134.359 466.427 134.178 466.581C133.996 466.735 133.785 466.851 133.558 466.922C133.331 466.993 133.092 467.018 132.855 466.995C132.38 466.939 131.946 466.698 131.646 466.325C131.346 465.952 131.204 465.477 131.25 465C131.535 461.685 130.56 459.405 128.73 459C126.645 458.61 123.72 460.605 122.37 465.09C121.125 469.185 121.395 472.59 123.105 474.555C123.464 475.029 123.929 475.412 124.463 475.673C124.997 475.934 125.586 476.065 126.18 476.055C126.425 476.002 126.677 476 126.923 476.049C127.168 476.098 127.401 476.197 127.606 476.34C127.811 476.483 127.985 476.667 128.115 476.881C128.246 477.094 128.331 477.332 128.365 477.58C128.399 477.828 128.382 478.08 128.314 478.321C128.246 478.562 128.129 478.786 127.97 478.98C127.812 479.173 127.615 479.332 127.392 479.445C127.169 479.559 126.925 479.625 126.675 479.64C126.451 479.663 126.225 479.673 126 479.67Z" fill="#A6A6A6"/>
<path d="M148.215 479.67C147.152 479.64 146.108 479.386 145.149 478.926C144.19 478.467 143.339 477.81 142.65 477C141.15 475.275 139.035 471.315 141.15 464.13C143.13 457.545 147.93 454.83 151.65 455.535C154.5 456.075 157.65 458.97 157.095 465.345C157.078 465.583 157.014 465.814 156.906 466.027C156.798 466.239 156.649 466.427 156.468 466.581C156.286 466.735 156.075 466.851 155.848 466.922C155.621 466.993 155.382 467.018 155.145 466.995C154.666 466.953 154.223 466.723 153.913 466.354C153.604 465.986 153.453 465.51 153.495 465.03C153.78 461.715 152.805 459.435 150.96 459.03C149.115 458.625 145.965 460.635 144.615 465.12C143.37 469.215 143.64 472.62 145.35 474.585C145.701 475.049 146.154 475.426 146.675 475.686C147.195 475.946 147.768 476.083 148.35 476.085C148.595 476.032 148.847 476.03 149.093 476.079C149.338 476.128 149.571 476.227 149.776 476.37C149.981 476.513 150.155 476.697 150.285 476.911C150.416 477.124 150.501 477.362 150.535 477.61C150.57 477.858 150.552 478.11 150.484 478.351C150.416 478.592 150.299 478.816 150.141 479.01C149.982 479.203 149.785 479.362 149.562 479.475C149.339 479.589 149.095 479.655 148.845 479.67C148.635 479.681 148.425 479.681 148.215 479.67Z" fill="#A6A6A6"/>
<path d="M170.505 479.67C169.451 479.637 168.416 479.382 167.468 478.922C166.519 478.462 165.678 477.807 165 477C163.5 475.275 161.37 471.315 163.5 464.13C165.48 457.545 170.28 454.83 174 455.535C176.85 456.075 180 458.97 179.46 465.345C179.439 465.582 179.372 465.812 179.263 466.022C179.153 466.233 179.003 466.419 178.821 466.572C178.64 466.724 178.43 466.84 178.203 466.911C177.977 466.982 177.739 467.008 177.502 466.988C177.266 466.967 177.036 466.9 176.826 466.79C176.615 466.681 176.428 466.531 176.276 466.349C176.123 466.167 176.008 465.957 175.937 465.731C175.865 465.505 175.839 465.267 175.86 465.03C176.13 461.715 175.17 459.435 173.325 459.03C171.48 458.625 168.33 460.635 166.98 465.12C165.735 469.215 166.005 472.62 167.715 474.585C168.065 475.05 168.518 475.428 169.039 475.688C169.559 475.948 170.133 476.084 170.715 476.085C170.959 476.032 171.212 476.03 171.458 476.079C171.703 476.128 171.936 476.227 172.141 476.37C172.346 476.513 172.52 476.697 172.65 476.911C172.781 477.124 172.866 477.362 172.9 477.61C172.934 477.858 172.917 478.11 172.849 478.351C172.781 478.592 172.664 478.816 172.505 479.01C172.347 479.203 172.15 479.362 171.927 479.475C171.704 479.589 171.46 479.655 171.21 479.67C170.975 479.683 170.74 479.683 170.505 479.67Z" fill="#A6A6A6"/>
<path d="M192.795 479.67C191.724 479.631 190.674 479.366 189.712 478.893C188.751 478.42 187.9 477.749 187.215 476.925C185.715 475.2 183.6 471.24 185.715 464.055C187.695 457.47 192.495 454.755 196.215 455.46C199.065 456 202.215 458.895 201.675 465.27C201.654 465.506 201.587 465.736 201.478 465.947C201.368 466.157 201.218 466.344 201.036 466.497C200.855 466.649 200.645 466.764 200.418 466.836C200.192 466.907 199.954 466.933 199.718 466.913C199.481 466.892 199.251 466.825 199.041 466.715C198.83 466.606 198.643 466.456 198.491 466.274C198.338 466.092 198.223 465.882 198.152 465.656C198.08 465.43 198.054 465.191 198.075 464.955C198.345 461.64 197.385 459.36 195.54 458.955C193.695 458.55 190.545 460.56 189.195 465.045C187.95 469.14 188.205 472.545 189.93 474.51C190.279 474.976 190.732 475.354 191.253 475.614C191.774 475.875 192.348 476.01 192.93 476.01C193.174 475.957 193.427 475.954 193.673 476.003C193.918 476.052 194.151 476.152 194.356 476.295C194.561 476.438 194.735 476.622 194.865 476.836C194.996 477.049 195.081 477.287 195.115 477.535C195.149 477.783 195.132 478.035 195.064 478.276C194.996 478.517 194.879 478.741 194.72 478.935C194.562 479.128 194.365 479.287 194.142 479.4C193.919 479.514 193.675 479.58 193.425 479.595C193.216 479.631 193.006 479.656 192.795 479.67Z" fill="#A6A6A6"/>
<path d="M215.085 479.67C214.014 479.631 212.964 479.366 212.002 478.893C211.041 478.42 210.19 477.749 209.505 476.925C208.005 475.2 205.89 471.24 208.005 464.055C209.985 457.47 214.785 454.755 218.505 455.46C221.355 456 224.505 458.895 223.965 465.27C223.946 465.508 223.88 465.74 223.771 465.952C223.662 466.165 223.511 466.353 223.328 466.507C223.145 466.66 222.934 466.776 222.706 466.847C222.478 466.918 222.238 466.943 222 466.92C221.522 466.874 221.082 466.643 220.773 466.275C220.464 465.908 220.312 465.434 220.35 464.955C220.635 461.64 219.675 459.36 217.83 458.955C215.76 458.565 212.82 460.56 211.47 465.045C210.24 469.14 210.495 472.545 212.205 474.51C212.564 474.983 213.03 475.366 213.564 475.626C214.098 475.887 214.686 476.018 215.28 476.01C215.736 475.983 216.186 476.129 216.539 476.419C216.892 476.709 217.123 477.121 217.186 477.574C217.248 478.026 217.138 478.486 216.876 478.861C216.615 479.235 216.221 479.498 215.775 479.595C215.547 479.634 215.316 479.659 215.085 479.67Z" fill="#A6A6A6"/>
<path d="M237.375 479.67C236.304 479.631 235.254 479.366 234.292 478.893C233.331 478.42 232.48 477.749 231.795 476.925C230.295 475.2 228.18 471.24 230.295 464.055C232.29 457.47 237.09 454.755 240.795 455.46C243.645 456 246.795 458.895 246.255 465.27C246.236 465.508 246.17 465.74 246.061 465.952C245.952 466.165 245.801 466.353 245.618 466.507C245.435 466.66 245.224 466.776 244.996 466.847C244.768 466.918 244.528 466.943 244.29 466.92C243.812 466.874 243.372 466.643 243.063 466.275C242.754 465.908 242.602 465.434 242.64 464.955C242.925 461.64 241.95 459.36 240.12 458.955C238.05 458.565 235.11 460.56 233.76 465.045C232.53 469.14 232.785 472.545 234.495 474.51C234.846 474.974 235.299 475.351 235.82 475.611C236.34 475.871 236.913 476.008 237.495 476.01C237.74 475.957 237.992 475.954 238.238 476.003C238.483 476.052 238.716 476.152 238.921 476.295C239.126 476.438 239.3 476.622 239.43 476.836C239.561 477.049 239.646 477.287 239.68 477.535C239.715 477.783 239.697 478.035 239.629 478.276C239.561 478.517 239.444 478.741 239.286 478.935C239.127 479.128 238.93 479.287 238.707 479.4C238.484 479.514 238.24 479.58 237.99 479.595C237.787 479.631 237.581 479.656 237.375 479.67Z" fill="#A6A6A6"/>
<path d="M259.665 479.67C258.594 479.631 257.544 479.366 256.582 478.893C255.621 478.42 254.77 477.749 254.085 476.925C252.585 475.2 250.47 471.24 252.585 464.055C254.58 457.47 259.365 454.755 263.085 455.46C265.935 456 269.085 458.895 268.53 465.27C268.515 465.508 268.452 465.741 268.345 465.954C268.238 466.167 268.089 466.357 267.907 466.511C267.725 466.665 267.513 466.781 267.285 466.851C267.057 466.921 266.817 466.945 266.58 466.92C266.102 466.874 265.662 466.643 265.353 466.275C265.044 465.908 264.893 465.434 264.93 464.955C265.215 461.64 264.24 459.36 262.41 458.955C260.34 458.565 257.4 460.56 256.05 465.045C254.82 469.14 255.075 472.545 256.785 474.51C257.144 474.984 257.609 475.367 258.143 475.628C258.678 475.888 259.266 476.019 259.86 476.01C260.316 475.983 260.766 476.129 261.119 476.419C261.472 476.709 261.703 477.121 261.766 477.574C261.828 478.026 261.718 478.486 261.456 478.861C261.195 479.235 260.802 479.498 260.355 479.595C260.127 479.633 259.896 479.658 259.665 479.67Z" fill="#A6A6A6"/>
<path d="M282 479.67C280.931 479.63 279.883 479.365 278.924 478.892C277.965 478.419 277.117 477.749 276.435 476.925C274.935 475.2 272.82 471.24 274.935 464.055C276.915 457.47 281.715 454.755 285.435 455.46C288.285 456 291.435 458.895 290.88 465.27C290.863 465.507 290.799 465.739 290.691 465.951C290.583 466.163 290.434 466.352 290.253 466.506C290.071 466.66 289.86 466.775 289.633 466.846C289.406 466.918 289.167 466.943 288.93 466.92C288.451 466.878 288.008 466.648 287.698 466.279C287.389 465.911 287.238 465.434 287.28 464.955C287.565 461.64 286.59 459.36 284.745 458.955C282.9 458.55 279.75 460.56 278.4 465.045C277.155 469.14 277.425 472.545 279.135 474.51C279.486 474.974 279.939 475.351 280.46 475.611C280.98 475.871 281.553 476.008 282.135 476.01C282.379 475.957 282.632 475.954 282.878 476.003C283.123 476.052 283.356 476.152 283.561 476.295C283.766 476.438 283.94 476.622 284.07 476.836C284.201 477.049 284.286 477.287 284.32 477.535C284.354 477.783 284.337 478.035 284.269 478.276C284.201 478.517 284.084 478.741 283.925 478.935C283.767 479.128 283.57 479.287 283.347 479.4C283.124 479.514 282.88 479.58 282.63 479.595C282.421 479.631 282.211 479.656 282 479.67Z" fill="#A6A6A6"/>
<path d="M304.23 479.67C303.16 479.636 302.11 479.374 301.15 478.9C300.19 478.427 299.343 477.753 298.665 476.925C297.165 475.2 295.035 471.24 297.165 464.055C299.145 457.47 303.945 454.755 307.665 455.46C310.53 456 313.665 458.895 313.125 465.27C313.108 465.507 313.044 465.739 312.936 465.951C312.828 466.163 312.679 466.352 312.498 466.506C312.316 466.66 312.105 466.775 311.878 466.846C311.651 466.918 311.412 466.943 311.175 466.92C310.696 466.878 310.253 466.648 309.943 466.279C309.634 465.911 309.483 465.434 309.525 464.955C309.795 461.64 308.835 459.36 306.99 458.955C304.92 458.565 301.995 460.56 300.645 465.045C299.4 469.14 299.67 472.545 301.38 474.51C301.738 474.984 302.204 475.367 302.738 475.628C303.272 475.888 303.861 476.019 304.455 476.01C304.911 475.983 305.361 476.129 305.714 476.419C306.067 476.709 306.298 477.121 306.361 477.574C306.423 478.026 306.313 478.486 306.051 478.861C305.79 479.235 305.396 479.498 304.95 479.595C304.712 479.634 304.471 479.659 304.23 479.67Z" fill="#A6A6A6"/>
<path d="M326.52 479.67C325.465 479.632 324.43 479.375 323.48 478.915C322.53 478.455 321.685 477.803 321 477C319.5 475.275 317.385 471.315 319.5 464.13C321.48 457.545 326.28 454.83 330 455.535C332.85 456.075 336 458.97 335.46 465.345C335.443 465.583 335.379 465.814 335.271 466.027C335.163 466.239 335.014 466.427 334.833 466.581C334.651 466.735 334.44 466.851 334.213 466.922C333.986 466.993 333.747 467.018 333.51 466.995C333.272 466.976 333.04 466.91 332.828 466.801C332.616 466.692 332.427 466.541 332.274 466.358C332.12 466.175 332.004 465.964 331.933 465.736C331.862 465.508 331.838 465.268 331.86 465.03C332.13 461.715 331.17 459.435 329.325 459.03C327.48 458.625 324.33 460.635 322.98 465.12C321.735 469.215 322.005 472.62 323.715 474.585C324.065 475.05 324.518 475.428 325.039 475.688C325.559 475.948 326.133 476.084 326.715 476.085C326.96 476.032 327.213 476.03 327.458 476.079C327.703 476.128 327.936 476.227 328.141 476.37C328.346 476.513 328.52 476.697 328.65 476.911C328.781 477.124 328.866 477.362 328.9 477.61C328.935 477.858 328.917 478.11 328.849 478.351C328.781 478.592 328.664 478.816 328.506 479.01C328.347 479.203 328.15 479.362 327.927 479.475C327.704 479.589 327.46 479.655 327.21 479.67C326.98 479.683 326.75 479.683 326.52 479.67Z" fill="#A6A6A6"/>
<path d="M348.81 479.67C347.739 479.631 346.689 479.366 345.727 478.893C344.766 478.42 343.915 477.749 343.23 476.925C341.73 475.2 339.615 471.24 341.73 464.055C343.71 457.47 348.51 454.755 352.23 455.46C355.08 456 358.23 458.895 357.69 465.27C357.669 465.506 357.602 465.736 357.493 465.947C357.383 466.157 357.233 466.344 357.052 466.497C356.87 466.649 356.66 466.764 356.433 466.836C356.207 466.907 355.969 466.933 355.733 466.913C355.496 466.892 355.266 466.825 355.056 466.715C354.845 466.606 354.658 466.456 354.506 466.274C354.353 466.092 354.238 465.882 354.167 465.656C354.096 465.43 354.069 465.191 354.09 464.955C354.36 461.64 353.4 459.36 351.555 458.955C349.485 458.565 346.56 460.56 345.195 465.045C343.965 469.14 344.22 472.545 345.93 474.51C346.281 474.974 346.734 475.351 347.255 475.611C347.775 475.871 348.348 476.008 348.93 476.01C349.388 475.977 349.842 476.12 350.199 476.408C350.557 476.697 350.792 477.11 350.856 477.565C350.921 478.02 350.811 478.482 350.548 478.859C350.285 479.236 349.889 479.499 349.44 479.595C349.232 479.631 349.021 479.656 348.81 479.67Z" fill="#A6A6A6"/>
<path d="M371.1 479.67C370.029 479.631 368.979 479.366 368.017 478.893C367.056 478.42 366.205 477.749 365.52 476.925C364.02 475.2 361.905 471.24 364.02 464.055C366 457.47 370.8 454.755 374.52 455.46C377.37 456 380.52 458.895 379.98 465.27C379.961 465.508 379.895 465.74 379.786 465.952C379.676 466.165 379.526 466.353 379.343 466.507C379.16 466.66 378.949 466.776 378.721 466.847C378.493 466.918 378.253 466.943 378.015 466.92C377.537 466.874 377.097 466.643 376.788 466.275C376.479 465.908 376.327 465.434 376.365 464.955C376.65 461.64 375.675 459.36 373.845 458.955C371.775 458.565 368.85 460.56 367.485 465.045C366.255 469.14 366.51 472.545 368.22 474.51C368.578 474.984 369.044 475.367 369.578 475.628C370.112 475.888 370.701 476.019 371.295 476.01C371.751 475.983 372.201 476.129 372.554 476.419C372.907 476.709 373.138 477.121 373.201 477.574C373.263 478.026 373.153 478.486 372.891 478.861C372.63 479.235 372.236 479.498 371.79 479.595C371.562 479.634 371.331 479.659 371.1 479.67Z" fill="#A6A6A6"/>
<path d="M578.88 175.755C578.171 182.609 575.57 189.132 571.367 194.593C567.163 200.054 561.524 204.239 555.079 206.68C548.635 209.12 541.638 209.72 534.872 208.412C528.106 207.104 521.836 203.941 516.765 199.275L498.165 202.005L507.465 185.925C505.139 180.265 504.263 174.114 504.915 168.03C505.384 163.142 506.815 158.396 509.128 154.065C511.44 149.734 514.587 145.903 518.388 142.795C522.188 139.686 526.566 137.361 531.27 135.953C535.974 134.546 540.91 134.084 545.793 134.594C550.676 135.104 555.41 136.576 559.722 138.925C564.033 141.274 567.836 144.454 570.913 148.28C573.989 152.107 576.276 156.505 577.644 161.221C579.011 165.936 579.432 170.876 578.88 175.755Z" fill="white"/>
<path d="M578.88 175.755C578.16 182.61 575.565 189.133 571.38 194.61C570.332 195.965 569.205 197.257 568.005 198.48C566.765 199.67 565.453 200.782 564.075 201.81C561.326 203.892 558.296 205.573 555.075 206.805C550.284 208.697 545.145 209.545 540 209.295C538.274 209.25 536.553 209.069 534.855 208.755C527.994 207.495 521.62 204.348 516.45 199.665L516.9 199.8L498.315 202.665L496.965 202.86L497.655 201.675L506.895 185.565V186.195C504.188 179.541 503.441 172.251 504.743 165.187C506.046 158.122 509.343 151.578 514.245 146.327C519.148 141.076 525.45 137.338 532.409 135.554C539.367 133.77 546.691 134.015 553.515 136.26C558.889 138.087 563.788 141.09 567.855 145.05C571.887 149.007 574.973 153.824 576.882 159.14C578.791 164.457 579.474 170.137 578.88 175.755ZM578.88 175.755C579.471 170.156 578.769 164.497 576.828 159.213C574.888 153.928 571.761 149.16 567.688 145.274C563.615 141.388 558.705 138.488 553.335 136.798C547.965 135.108 542.28 134.672 536.715 135.525C531.204 136.327 525.95 138.379 521.355 141.525C516.816 144.719 513.024 148.859 510.24 153.66C507.495 158.476 505.88 163.854 505.516 169.386C505.152 174.918 506.05 180.46 508.14 185.595L508.26 185.925L508.095 186.225L498.735 202.275L498.06 201.3L516.675 198.69H516.945L517.125 198.87C522.09 203.524 528.257 206.698 534.93 208.035C536.59 208.382 538.276 208.588 539.97 208.65C541.663 208.77 543.362 208.77 545.055 208.65C548.451 208.389 551.794 207.652 554.985 206.46C558.204 205.295 561.235 203.668 563.985 201.63C565.359 200.614 566.672 199.517 567.915 198.345C569.123 197.14 570.25 195.857 571.29 194.505C575.5 189.074 578.127 182.585 578.88 175.755Z" fill="#263238"/>
<path d="M537.54 193.095L521.67 177.03L526.995 171.75L536.28 181.14L555.555 150.93L561.87 154.965L537.54 193.095Z" fill="#0082AE"/>
</g>
<defs>
<clipPath id="clip0_1465_9">
<rect width="750" height="750" fill="white"/>
</clipPath>
</defs>
</svg>
