<svg width="634" height="642" viewBox="0 0 634 642" fill="none" xmlns="http://www.w3.org/2000/svg">
<path d="M425.807 97.9689C380.159 90.8427 333.053 98.6109 297.853 127.501C263.617 155.608 248.084 202.653 212.377 228.783C157.232 269.216 78.9076 255.785 46.9159 328.37C35.5039 354.281 32.5622 383.235 32.9679 411.599C33.4371 447.127 39.1558 483.079 54.3084 515.115C69.461 547.151 94.6942 575.103 126.977 588.996C174.629 609.54 229.85 597.252 277.679 577.209C297.409 568.953 317.215 559.233 338.543 558.129C365.4 556.704 390.823 568.966 416.335 577.581C446.945 587.943 480.851 593.156 511.245 582.14C535.033 573.524 554.585 555.664 570.27 535.608C598.294 499.628 615.525 456.256 619.912 410.649C632.073 281.427 566.225 119.861 425.807 97.9689Z" fill="#0082AE"/>
<path opacity="0.7" d="M425.807 97.9689C380.159 90.8427 333.053 98.6109 297.853 127.501C263.617 155.608 248.084 202.653 212.377 228.783C157.232 269.216 78.9076 255.785 46.9159 328.37C35.5039 354.281 32.5622 383.235 32.9679 411.599C33.4371 447.127 39.1558 483.079 54.3084 515.115C69.461 547.151 94.6942 575.103 126.977 588.996C174.629 609.54 229.85 597.252 277.679 577.209C297.409 568.953 317.215 559.233 338.543 558.129C365.399 556.704 390.823 568.966 416.335 577.581C446.945 587.943 480.851 593.156 511.245 582.14C535.033 573.524 554.585 555.664 570.27 535.608C598.294 499.628 615.525 456.256 619.912 410.649C632.073 281.427 566.225 119.861 425.807 97.9689Z" fill="white"/>
<path d="M360.175 300.892C352.998 303.563 335.918 302.176 335.906 302.176C335.893 302.176 340.255 291.057 340.623 290.389C344.845 282.685 357.5 270.269 367.073 272.182C373.984 273.556 377.433 280.849 375.467 287.385C373.502 293.92 366.287 298.62 360.175 300.892Z" fill="#0082AE"/>
<path d="M139.619 228.257C149.37 227.794 160.085 241.944 163.153 250.2C163.407 250.919 166.285 262.578 166.108 262.565H165.892C167.604 264.787 169.417 267.188 171.332 269.858C174.844 274.802 178.763 280.426 182.617 286.833C186.857 293.689 190.693 300.794 194.105 308.109C197.973 316.275 201.114 324.774 203.489 333.506L203.565 333.827C203.679 330.938 204.287 322.862 204.402 322.271C206.05 313.604 214.241 297.875 223.929 296.591C230.915 295.718 236.431 301.547 236.609 308.378C236.786 315.209 231.372 322.002 226.262 326.098C220.505 330.707 205.036 334.559 203.806 334.867C206.008 343.813 207.618 352.899 208.624 362.062C209.245 367.404 209.702 372.797 210.082 378.215C210.272 375.647 210.45 373.477 210.513 373.169C212.149 364.502 220.353 348.773 230.04 347.489C237.027 346.616 242.543 352.458 242.72 359.289C242.898 366.12 237.484 372.899 232.386 376.995C227.289 381.091 214.089 384.699 210.602 385.598C210.729 387.678 210.881 389.745 210.995 391.825C211.578 401.802 212.111 411.766 212.935 421.512C213.227 424.94 213.633 428.317 214.026 431.694C214.19 429.472 214.355 427.611 214.406 427.328C216.042 418.661 224.246 402.932 233.933 401.648C240.907 400.775 246.436 406.604 246.613 413.435C246.791 420.266 241.376 427.058 236.266 431.154C231.156 435.25 219.25 438.512 215.116 439.59C215.623 443.031 216.131 446.485 216.777 449.798C217.259 452.058 217.589 454.254 218.197 456.501C218.806 458.748 219.326 460.93 219.884 463.113C221.152 467.273 222.344 471.575 223.624 475.606C224.512 478.418 225.4 481.076 226.287 483.76C225.958 480.344 225.463 473.642 225.476 473.077C226.049 465.335 228.568 457.869 232.792 451.39C232.822 450.526 232.928 449.667 233.109 448.822C234.58 442.145 241.123 437.523 247.805 439.77C257.074 442.89 262.045 459.993 261.969 468.814C261.969 469.341 261.284 474.977 260.802 478.534C261.411 476.492 261.956 474.502 262.603 472.396C263.871 468.236 265.139 464.127 266.635 459.698L268.981 453.278C269.716 451.121 270.756 448.951 271.656 446.755C273.825 441.709 276.259 436.701 278.833 431.719C275.232 430.615 262.539 426.493 257.594 422.154C252.649 417.814 247.602 410.944 248.059 403.985C248.515 397.026 254.297 391.594 261.233 392.788C270.857 394.445 278.339 410.585 279.581 419.316C279.657 419.868 279.848 426.237 279.898 429.742C281.458 426.75 283.005 423.771 284.691 420.754C289.548 412.177 294.721 403.664 299.907 395.138C301.48 392.57 303.014 389.912 304.561 387.306C303.293 386.921 288.077 382.362 282.548 377.496C277.629 373.169 272.544 366.287 273.013 359.327C273.482 352.368 279.239 346.937 286.175 348.131C295.799 349.787 303.28 365.927 304.523 374.658C304.624 375.326 304.891 384.494 304.84 386.818C308.251 381.066 311.586 375.262 314.654 369.458C318.837 361.611 322.509 353.496 325.648 345.165C325.052 344.985 309.164 340.299 303.496 335.317C298.576 331.002 293.504 324.107 293.96 317.148C294.417 310.189 300.199 304.757 307.135 305.952C316.759 307.608 324.228 323.748 325.483 332.492C325.572 333.172 325.863 343.033 325.787 344.831C325.965 344.343 326.206 343.868 326.383 343.38C329.301 334.937 331.473 326.249 332.875 317.418C333.712 312.551 334.232 307.852 334.65 303.294C331.607 302.729 317.71 299.981 312.118 296.065C306.754 292.315 300.96 286.037 300.706 279.065C300.453 272.092 305.563 266.058 312.575 266.469C322.326 267.046 331.506 282.262 333.687 290.865C333.814 291.327 334.498 296.18 334.955 299.737C335.107 297.657 335.31 295.525 335.424 293.535C335.855 286.075 335.792 279.219 335.69 273.133C335.601 269.679 335.462 266.558 335.297 263.644C332.596 261.499 321.806 252.755 318.674 246.798C315.542 240.84 313.348 232.674 316.252 226.356C319.156 220.039 326.485 217.086 332.52 220.72C340.914 225.856 342.144 243.575 340.192 252.178C340.014 252.922 336.071 264.234 335.919 264.132L335.754 264.003C335.969 266.802 336.172 269.82 336.324 273.12C336.552 279.206 336.768 286.075 336.489 293.574C336.284 301.661 335.615 309.73 334.486 317.739C333.257 326.715 331.241 335.562 328.463 344.176C328.432 344.278 328.394 344.376 328.349 344.472C330.022 342.135 334.942 335.728 335.373 335.278C341.46 328.974 356.929 320.384 365.628 324.788C371.968 327.972 373.363 335.92 369.749 341.698C366.135 347.476 357.969 350.134 351.477 350.686C344.16 351.315 329.16 345.897 327.968 345.46C324.876 354.164 321.212 362.649 317 370.858C314.616 375.647 312.055 380.398 309.392 385.136C310.901 383.158 312.283 381.399 312.499 381.168C318.585 374.851 334.055 366.274 342.753 370.678C349.093 373.849 350.475 381.797 346.887 387.588C343.298 393.379 335.094 396.024 328.602 396.576C322.11 397.128 309.138 392.788 305.778 391.581C304.751 393.392 303.749 395.202 302.71 397.013C297.764 405.654 292.781 414.257 288.153 422.847C286.53 425.864 285.034 428.907 283.512 431.95C284.869 430.191 286.048 428.728 286.213 428.509C292.299 422.205 307.769 413.615 316.48 418.019C322.82 421.203 324.202 429.151 320.601 434.929C317 440.707 308.809 443.365 302.329 443.917C295.989 444.457 284.121 440.54 280.076 439.141C278.63 442.3 277.172 445.458 275.904 448.578C275.08 450.735 274.142 452.751 273.444 454.998C272.747 457.245 271.973 459.325 271.25 461.418C269.982 465.578 268.714 469.854 267.561 473.937C266.762 476.775 266.052 479.497 265.329 482.232C266.914 479.189 270.16 473.321 270.477 472.872C275.549 465.694 289.497 454.896 298.829 457.849C305.525 460.032 308.124 467.659 305.423 473.924C302.722 480.19 295.038 484.081 288.711 485.622C281.737 487.317 266.698 484.466 264.822 484.094C263.643 488.626 262.539 493.082 261.563 497.216C261.347 498.115 261.17 498.924 260.967 499.784H254.868C255.198 498.5 255.527 497.139 255.882 495.778C257.062 491.169 258.418 486.277 259.851 481.269C255.405 479.132 251.082 476.74 246.905 474.104C241.592 479.24 228.43 484.89 226.731 485.66C228.215 490.09 229.698 494.391 231.156 498.423L231.676 499.836H225.577C224.106 495.483 222.635 490.848 221.164 486.058C219.301 486.328 204.123 488.498 197.225 486.482C190.973 484.646 183.505 480.537 181.045 474.014C178.585 467.492 181.59 460.121 188.374 458.272C197.795 455.704 211.261 467.171 216.016 474.579C216.295 475.016 218.806 480.1 220.34 483.336C219.719 481.295 219.072 479.317 218.489 477.211C217.221 473.051 216.156 468.865 214.951 464.371C214.431 462.176 213.924 459.955 213.404 457.72C212.884 455.486 212.529 453.111 212.073 450.774C211.135 445.355 210.45 439.821 209.867 434.236C206.278 435.315 193.383 438.974 186.954 438.088C180.525 437.202 172.511 434.326 169.1 428.253C165.689 422.179 167.553 414.437 173.982 411.561C182.858 407.567 197.947 416.851 203.742 423.45C204.11 423.861 207.736 429.061 209.676 431.963C209.359 428.599 209.03 425.235 208.814 421.82C208.193 411.971 207.876 401.969 207.546 391.992C207.445 388.936 207.293 385.893 207.166 382.85C205.898 383.248 190.682 387.986 183.454 386.972C177 386.125 169.012 383.21 165.601 377.137C162.19 371.063 164.054 363.321 170.483 360.445C179.422 356.451 194.448 365.735 200.242 372.334C200.686 372.835 205.898 380.321 207.14 382.298C206.836 375.583 206.481 368.906 205.872 362.332C205.088 353.452 203.728 344.633 201.802 335.933C201.219 336.126 185.407 341.069 177.964 340.093C171.51 339.233 163.521 336.331 160.123 330.258C156.725 324.184 158.563 316.442 165.005 313.566C173.881 309.572 188.957 318.856 194.765 325.456C195.209 325.969 200.826 334.033 201.739 335.573C201.625 335.073 201.561 334.533 201.434 334.033C199.278 325.358 196.358 316.897 192.711 308.751C190.758 304.231 188.64 300.007 186.485 295.911C183.632 297.195 170.546 302.626 163.762 302.485C157.245 302.344 148.99 300.34 144.945 294.691C140.9 289.041 141.914 281.132 147.988 277.562C156.433 272.593 172.385 280.13 178.864 286.062C179.206 286.383 182.44 290.056 184.748 292.752C183.746 290.942 182.744 289.054 181.755 287.334C178.052 280.914 174.261 275.174 170.876 270.166C168.923 267.329 167.072 264.812 165.36 262.462C161.949 262.193 148.191 260.922 142.32 257.699C136.449 254.476 130.198 248.903 129.171 242.008C128.144 235.113 132.595 228.552 139.619 228.257Z" fill="#0082AE"/>
<path d="M186.941 294.138C186.789 294.228 184.519 282.441 184.405 281.684C183.72 272.875 187.524 255.464 196.553 251.715C203.057 249.006 209.905 253.153 211.769 259.702C213.633 266.25 210.272 274.249 206.418 279.552C201.98 285.792 186.954 294.126 186.941 294.138Z" fill="#0082AE"/>
<path d="M181.539 478.316C181.539 478.316 143.094 477.828 134.104 463.268H33.678C33.678 463.268 41.8439 478.188 54.5239 478.316H181.539Z" fill="white" stroke="#263238" stroke-miterlimit="10"/>
<path d="M131.187 468.069H49.3757C49.3757 468.069 50.8973 471.433 46.7256 473.282C49.3554 475.743 52.656 477.345 56.1975 477.879H160.351C160.351 477.879 147.088 476.595 139.898 472.358C139.898 472.358 131.567 473.591 131.187 468.069Z" fill="white" stroke="#263238" stroke-miterlimit="10"/>
<path d="M166.374 594.711H397.176V565.795H166.374V594.711Z" fill="#263238" stroke="#263238" stroke-miterlimit="10"/>
<path d="M39.3586 594.711H270.16V565.795H39.3586V594.711Z" fill="white" stroke="#263238" stroke-miterlimit="10"/>
<path d="M268.562 573.512H212.2" stroke="#263238" stroke-miterlimit="10"/>
<path d="M257.442 579.944H175.681" stroke="#263238" stroke-miterlimit="10"/>
<path d="M224.892 585.723H239.183" stroke="#263238" stroke-miterlimit="10"/>
<path d="M244.749 585.723H267.763" stroke="#263238" stroke-miterlimit="10"/>
<path d="M40.7153 584.438H112.953" stroke="#263238" stroke-miterlimit="10"/>
<path d="M47.0681 580.587H56.5908" stroke="#263238" stroke-miterlimit="10"/>
<path d="M101.047 579.944H69.2961" stroke="#263238" stroke-miterlimit="10"/>
<path d="M40.7153 572.228H68.4972" stroke="#263238" stroke-miterlimit="10"/>
<path d="M393.993 578.006H379.703" stroke="#8A8A8A" stroke-miterlimit="10"/>
<path d="M397.176 584.438H352.719" stroke="#8A8A8A" stroke-miterlimit="10"/>
<path d="M272.531 588.291H293.973" stroke="#8A8A8A" stroke-miterlimit="10"/>
<path d="M270.147 578.006H328.108" stroke="#8A8A8A" stroke-miterlimit="10"/>
<path d="M378.117 569.66H344.782" stroke="#8A8A8A" stroke-miterlimit="10"/>
<path d="M144.704 594.068H171.7V565.795H144.704V594.068Z" fill="white" stroke="#263238" stroke-miterlimit="10"/>
<path d="M163.407 565.563H394.208V536.648H163.407V565.563Z" fill="#263238" stroke="#263238" stroke-miterlimit="10"/>
<path d="M36.3915 565.563H267.193V536.648H36.3915V565.563Z" fill="white" stroke="#263238" stroke-miterlimit="10"/>
<path d="M265.595 544.353H209.233" stroke="#263238" stroke-miterlimit="10"/>
<path d="M254.487 550.772H172.714" stroke="#263238" stroke-miterlimit="10"/>
<path d="M221.938 556.563H236.228" stroke="#263238" stroke-miterlimit="10"/>
<path d="M241.782 556.563H264.809" stroke="#263238" stroke-miterlimit="10"/>
<path d="M37.7483 555.279H109.999" stroke="#263238" stroke-miterlimit="10"/>
<path d="M44.1008 551.414H53.6235" stroke="#263238" stroke-miterlimit="10"/>
<path d="M98.0925 550.772H66.3291" stroke="#263238" stroke-miterlimit="10"/>
<path d="M37.7483 543.068H65.5428" stroke="#263238" stroke-miterlimit="10"/>
<path d="M391.038 548.847H376.748" stroke="#8A8A8A" stroke-miterlimit="10"/>
<path d="M394.209 555.279H349.752" stroke="#8A8A8A" stroke-miterlimit="10"/>
<path d="M269.577 559.131H291.006" stroke="#8A8A8A" stroke-miterlimit="10"/>
<path d="M267.193 548.847H325.14" stroke="#8A8A8A" stroke-miterlimit="10"/>
<path d="M375.163 540.5H341.815" stroke="#8A8A8A" stroke-miterlimit="10"/>
<path d="M141.75 564.922H168.745V536.648H141.75V564.922Z" fill="white" stroke="#263238" stroke-miterlimit="10"/>
<path d="M172.79 536.404H403.592V507.489H172.79V536.404Z" fill="#263238" stroke="#263238" stroke-miterlimit="10"/>
<path d="M45.7748 536.404H276.576V507.489H45.7748V536.404Z" fill="white" stroke="#263238" stroke-miterlimit="10"/>
<path d="M274.978 515.192H218.616" stroke="#263238" stroke-miterlimit="10"/>
<path d="M263.858 521.612H182.097" stroke="#263238" stroke-miterlimit="10"/>
<path d="M231.308 527.403H245.599" stroke="#263238" stroke-miterlimit="10"/>
<path d="M251.165 527.403H274.179" stroke="#263238" stroke-miterlimit="10"/>
<path d="M47.1313 526.119H119.369" stroke="#263238" stroke-miterlimit="10"/>
<path d="M53.4841 522.255H63.0068" stroke="#263238" stroke-miterlimit="10"/>
<path d="M107.463 521.612H75.7122" stroke="#263238" stroke-miterlimit="10"/>
<path d="M47.1313 513.908H74.9132" stroke="#263238" stroke-miterlimit="10"/>
<path d="M400.409 519.687H386.119" stroke="#8A8A8A" stroke-miterlimit="10"/>
<path d="M403.592 526.119H359.135" stroke="#8A8A8A" stroke-miterlimit="10"/>
<path d="M278.947 529.972H300.389" stroke="#8A8A8A" stroke-miterlimit="10"/>
<path d="M276.563 519.687H334.524" stroke="#8A8A8A" stroke-miterlimit="10"/>
<path d="M384.533 511.341H351.198" stroke="#8A8A8A" stroke-miterlimit="10"/>
<path d="M151.12 535.762H178.116V507.488H151.12V535.762Z" fill="white" stroke="#263238" stroke-miterlimit="10"/>
<path d="M165.626 507.231L396.427 507.231V478.316H165.626V507.231Z" fill="#263238" stroke="#263238" stroke-miterlimit="10"/>
<path d="M38.6105 507.231L269.412 507.231V478.316H38.6105V507.231Z" fill="white" stroke="#263238" stroke-miterlimit="10"/>
<path d="M267.827 486.033H211.452" stroke="#263238" stroke-miterlimit="10"/>
<path d="M256.706 492.453H174.933" stroke="#263238" stroke-miterlimit="10"/>
<path d="M224.157 498.23H238.447" stroke="#263238" stroke-miterlimit="10"/>
<path d="M244.001 498.23H267.028" stroke="#263238" stroke-miterlimit="10"/>
<path d="M39.9673 496.947H112.218" stroke="#263238" stroke-miterlimit="10"/>
<path d="M46.3198 493.095H55.8552" stroke="#263238" stroke-miterlimit="10"/>
<path d="M100.311 492.453H68.5481" stroke="#263238" stroke-miterlimit="10"/>
<path d="M39.9673 484.749H67.7618" stroke="#263238" stroke-miterlimit="10"/>
<path d="M393.257 490.527H378.967" stroke="#8A8A8A" stroke-miterlimit="10"/>
<path d="M396.428 496.947H351.971" stroke="#8A8A8A" stroke-miterlimit="10"/>
<path d="M271.796 500.812H293.225" stroke="#8A8A8A" stroke-miterlimit="10"/>
<path d="M269.412 490.527H327.359" stroke="#8A8A8A" stroke-miterlimit="10"/>
<path d="M377.382 482.168H344.034" stroke="#8A8A8A" stroke-miterlimit="10"/>
<path d="M143.969 506.59H170.964V478.316H143.969V506.59Z" fill="white" stroke="#263238" stroke-miterlimit="10"/>
<path d="M580.135 152.308H359.199V594.723H580.135V152.308Z" fill="#263238" stroke="#263238" stroke-miterlimit="10"/>
<path d="M556.246 154.323V230.914" stroke="#8A8A8A" stroke-miterlimit="10"/>
<path d="M570.182 173.468V205.722" stroke="#8A8A8A" stroke-miterlimit="10"/>
<path d="M563.22 166.419V281.298" stroke="#8A8A8A" stroke-miterlimit="10"/>
<path d="M575.165 152.308V302.471" stroke="#8A8A8A" stroke-miterlimit="10"/>
<path d="M558.237 593.708V515.102" stroke="#8A8A8A" stroke-miterlimit="10"/>
<path d="M566.2 594.722V577.581" stroke="#8A8A8A" stroke-miterlimit="10"/>
<path d="M568.191 571.533V502.005" stroke="#8A8A8A" stroke-miterlimit="10"/>
<path d="M559.239 505.022V391.145" stroke="#8A8A8A" stroke-miterlimit="10"/>
<path d="M549.285 152.308H328.349V594.723H549.285V152.308Z" fill="#0082AE" stroke="#263238" stroke-miterlimit="10"/>
<path d="M530.379 183.611C526.061 183.601 521.91 181.918 518.779 178.907C515.648 175.896 513.773 171.786 513.54 167.42H364.119C363.891 171.793 362.015 175.91 358.877 178.923C355.739 181.936 351.579 183.614 347.254 183.611C346.255 183.609 345.257 183.514 344.275 183.329V554.687C345.258 554.508 346.255 554.414 347.254 554.405C350.176 554.405 353.047 555.171 355.59 556.628C358.132 558.086 360.258 560.185 361.761 562.722C363.263 565.259 364.092 568.146 364.165 571.103C364.238 574.061 363.554 576.987 362.179 579.597H515.455C514.076 576.987 513.388 574.06 513.46 571.102C513.531 568.143 514.359 565.254 515.863 562.716C517.366 560.178 519.494 558.078 522.038 556.621C524.582 555.165 527.456 554.401 530.379 554.405C531.378 554.414 532.375 554.508 533.359 554.687V183.264C532.378 183.471 531.381 183.588 530.379 183.611ZM434.341 440.527C399.433 440.527 371.144 409.403 371.144 370.998C371.144 332.594 399.433 301.457 434.341 301.457C469.249 301.457 497.538 332.594 497.538 370.998C497.538 409.403 469.236 440.527 434.341 440.527Z" fill="white" stroke="#263238" stroke-miterlimit="10"/>
<path d="M579.73 346.808H329.338V392.159H579.73V346.808Z" fill="white" stroke="#263238" stroke-miterlimit="10"/>
<path d="M579.73 346.808H549.767V392.159H579.73V346.808Z" fill="#3D3D3D" stroke="#8A8A8A" stroke-miterlimit="10"/>
<path d="M87.0862 567.207L79.7065 578.416L65.2893 589.972V594.736H114.602L112.915 578.044V570.571C112.915 570.571 92.7922 561.763 87.0862 567.207Z" fill="#263238" stroke="#263238" stroke-miterlimit="10"/>
<path d="M114.158 590.306H65.2893V594.723H114.602L114.158 590.306Z" fill="white" stroke="#263238" stroke-miterlimit="10"/>
<path d="M168.517 567.207L176.379 578.416L191.76 589.972V594.736H139.201L140.989 578.044V570.571C140.989 570.571 162.444 561.763 168.517 567.207Z" fill="#263238" stroke="#263238" stroke-miterlimit="10"/>
<path d="M139.67 590.306H191.76V594.723H139.201L139.67 590.306Z" fill="white" stroke="#263238" stroke-miterlimit="10"/>
<path d="M65.0864 334.713C65.0864 334.713 76.5999 466.298 77.4241 491.284C78.2483 516.271 86.0591 550.002 86.0591 550.002L82.42 555.831L86.1225 568.735C86.1225 568.735 94.7576 566.655 99.2844 568.324C103.811 569.993 111.964 572.074 111.964 572.074C111.964 572.074 116.085 560.826 116.491 555.831C116.897 550.836 111.584 538.754 111.584 538.754L110.76 388.436H118.165L137.058 547.498L136.234 557.076L139.936 572.074C139.936 572.074 161.733 567.49 163.369 567.066C164.619 566.875 165.896 567.021 167.072 567.49C167.072 567.49 169.608 562.071 169.608 560.402C169.608 558.733 166.311 549.167 166.311 549.167L165.487 474.631V333.468L65.1498 331.388L65.0864 334.713Z" fill="#0082AE" stroke="#263238" stroke-miterlimit="10"/>
<path d="M161.949 392.826L164.194 442.607L154.62 443.48V449.656L161.581 450.093" stroke="#263238" stroke-linecap="round" stroke-linejoin="round"/>
<path d="M160.275 355.796L161.734 387.947" stroke="#263238" stroke-linecap="round" stroke-linejoin="round"/>
<path d="M156.091 479.201C156.408 488.099 157.105 495.816 158.538 496.355C162.025 497.639 162.887 499 162.887 499" stroke="#263238" stroke-linecap="round" stroke-linejoin="round"/>
<path d="M155.964 451.416C155.964 451.416 155.736 462.664 155.964 473.912" stroke="#263238" stroke-linecap="round" stroke-linejoin="round"/>
<path d="M100.667 383.993L118.063 385.316" stroke="#263238" stroke-linecap="round" stroke-linejoin="round"/>
<path d="M106.322 341.698L106.753 366.364L114.589 372.103" stroke="#263238" stroke-linecap="round" stroke-linejoin="round"/>
<path d="M114.589 350.506L115.895 380.911" stroke="#263238" stroke-linecap="round" stroke-linejoin="round"/>
<path d="M109.213 491.527L109.796 521.92" stroke="#263238" stroke-linecap="round" stroke-linejoin="round"/>
<path d="M107.184 385.752L109.073 484.016" stroke="#263238" stroke-linecap="round" stroke-linejoin="round"/>
<path d="M142.435 354.474C142.435 354.474 148.534 367.249 159.844 363.282" stroke="#263238" stroke-linecap="round" stroke-linejoin="round"/>
<path d="M81.5198 354.474C81.5198 354.474 77.1579 364.168 70.1965 365.49" stroke="#263238" stroke-linecap="round" stroke-linejoin="round"/>
<path d="M107.362 187.888L94.2885 191.894L83.333 334.161L141.116 335.098L144.159 188.812L107.362 187.888Z" fill="white" stroke="#263238" stroke-miterlimit="10"/>
<path d="M102.708 182.327H99.6395L98.0925 186.385L98.7138 220.732L117.835 208.251L136.64 226.356L139.112 185.447C139.112 185.447 140.038 183.573 137.261 182.327C134.484 181.082 133.558 180.761 133.558 180.761L102.708 182.327Z" fill="white" stroke="#263238" stroke-miterlimit="10"/>
<path d="M100.869 172.313L101.795 186.437C101.795 186.437 110.671 206.107 116.593 208.919C122.514 211.731 136.031 185.499 136.031 185.499L135.105 169.886H100.552L100.869 172.313Z" fill="white" stroke="#263238" stroke-miterlimit="10"/>
<path d="M100.87 172.312C100.87 172.312 111.965 196.708 118.444 197.62C124.924 198.532 135.41 175.124 135.41 172.942C135.41 170.759 100.87 172.312 100.87 172.312Z" fill="#263238" stroke="#263238" stroke-miterlimit="10"/>
<path d="M95.0113 151.409C95.0113 151.409 89.6603 146.967 88.9249 153.13C88.1895 159.293 95.9877 164.968 95.9877 164.968L95.0113 151.409Z" fill="white" stroke="#263238" stroke-miterlimit="10"/>
<path d="M138.504 151.409C138.504 151.409 143.867 146.967 144.603 153.13C145.338 159.293 137.54 164.968 137.54 164.968L138.504 151.409Z" fill="white" stroke="#263238" stroke-miterlimit="10"/>
<path d="M94.035 152.141C94.035 152.141 96.964 169.411 99.3986 172.608C101.833 175.805 109.378 186.912 116.441 188.889C123.503 190.867 134.471 177.051 136.652 172.364C138.833 167.678 139.582 146.967 139.582 146.967L139.341 135.873C139.341 135.873 138.605 127.732 135.435 123.29C132.265 118.847 118.634 115.894 109.631 119.412C100.629 122.93 93.0713 138.826 93.0713 142.036C93.0713 145.246 94.035 152.141 94.035 152.141Z" fill="white" stroke="#263238" stroke-miterlimit="10"/>
<path d="M110.113 132.907C110.113 132.907 102.505 141.792 99.1576 143.512C97.6365 144.222 96.17 145.046 94.7703 145.978L95.2522 156.34L91.3594 142.216C91.3594 142.216 86.4903 127.231 87.492 120.58C88.4937 113.929 110.62 107.509 118.419 105.044C126.217 102.578 129.133 107.509 134.243 111.464C139.353 115.418 144.717 118.372 143.994 125.036C143.364 129.671 142.22 134.219 140.583 138.595C140.583 138.595 139.315 157.084 139.315 157.855C139.315 158.625 137.122 139.609 137.122 139.609C135.878 139.278 134.756 138.588 133.892 137.624C133.027 136.66 132.458 135.463 132.252 134.178C131.605 130.924 131.181 127.629 130.984 124.317C130.984 124.317 127.814 130.981 124.644 134.178C121.474 137.375 113.689 140.341 112.472 140.097C111.254 139.853 113.74 133.934 113.74 133.934L109.352 138.132L110.113 132.907Z" fill="#263238" stroke="#263238" stroke-miterlimit="10"/>
<path d="M112.066 167.433C113.272 168.52 114.676 169.357 116.2 169.898C118.152 170.386 121.563 167.433 122.54 166.688" stroke="#263238" stroke-miterlimit="10"/>
<path d="M111.331 174.341C111.331 174.341 116.935 178.771 124.48 173.597L111.331 174.341Z" fill="white"/>
<path d="M111.331 174.341C111.331 174.341 116.935 178.771 124.48 173.597" stroke="#263238" stroke-miterlimit="10"/>
<path d="M107.552 158.548C108.427 158.548 109.137 157.335 109.137 155.839C109.137 154.343 108.427 153.13 107.552 153.13C106.676 153.13 105.967 154.343 105.967 155.839C105.967 157.335 106.676 158.548 107.552 158.548Z" fill="#263238"/>
<path d="M126.065 158.548C126.94 158.548 127.65 157.335 127.65 155.839C127.65 154.343 126.94 153.13 126.065 153.13C125.189 153.13 124.48 154.343 124.48 155.839C124.48 157.335 125.189 158.548 126.065 158.548Z" fill="#263238"/>
<path d="M122.286 147.21C123.856 146.378 125.647 146.072 127.4 146.337C129.152 146.603 130.776 147.426 132.037 148.687" stroke="#263238" stroke-miterlimit="10"/>
<path d="M109.378 146.966C108.137 146.222 106.678 145.943 105.255 146.178C103.832 146.412 102.536 147.146 101.592 148.25" stroke="#263238" stroke-miterlimit="10"/>
<path d="M126.673 160.526L132.037 159.293" stroke="#263238" stroke-miterlimit="10"/>
<path d="M102.074 159.049L106.461 160.525" stroke="#263238" stroke-miterlimit="10"/>
<path d="M98.3969 218.28L95.62 353.1L63.92 351.546L62.0053 347.836C62.0053 347.836 57.6941 347.836 57.0728 344.394C56.4514 340.953 61.384 265.39 61.384 265.39L34.2361 262.886L52.4319 226.934C52.4319 226.934 57.9857 201.948 59.2157 200.073C60.4456 198.198 99.0055 184.768 99.0055 184.768L98.3969 218.28Z" fill="#263238" stroke="#263238" stroke-miterlimit="10"/>
<path d="M137.882 183.972L133.356 353.46L174.059 353.036L175.707 346.796L179.815 343.881V330.553C179.815 323.889 172.004 275.585 172.004 275.585C172.004 275.585 192.571 272.67 192.977 268.51C193.383 264.35 184.342 201.473 179.409 196.889C174.477 192.305 137.882 183.972 137.882 183.972Z" fill="#263238" stroke="#263238" stroke-miterlimit="10"/>
<path d="M148.09 280.618L153.504 296.411C153.504 296.411 156.636 288.784 156.167 283.982C155.698 279.18 155.685 277.729 154.265 277.485C152.845 277.241 148.356 276.291 148.09 280.618Z" fill="white" stroke="#263238" stroke-miterlimit="10"/>
<path d="M93.9844 239.582L111.318 274.455L129.602 265.313L114.171 228.526L93.9844 239.582Z" fill="#0082AE" stroke="#263238" stroke-miterlimit="10"/>
<path d="M124.049 263.913C123.841 263.358 123.858 262.742 124.095 262.199C124.332 261.656 124.771 261.229 125.317 261.011C125.418 260.999 125.52 260.999 125.621 261.011L114.209 233.932C114.105 234.185 113.946 234.411 113.744 234.593C113.542 234.775 113.302 234.909 113.042 234.985C112.652 235.076 112.244 235.047 111.871 234.901C111.498 234.754 111.177 234.497 110.95 234.163L98.9041 240.724C99.0595 240.96 99.1751 241.22 99.2465 241.494C99.4146 241.986 99.4188 242.519 99.2584 243.014C99.0981 243.508 98.7821 243.935 98.3589 244.229L110.392 268.356C110.607 268.114 110.884 267.936 111.191 267.842C111.702 267.744 112.23 267.834 112.681 268.095C113.132 268.356 113.476 268.772 113.651 269.267L124.087 264.054L124.049 263.913ZM113.752 257.673C111.533 258.302 109.137 256.646 108.389 253.962C107.641 251.278 108.82 248.582 111.026 247.953C113.233 247.324 115.642 248.98 116.39 251.664C117.138 254.347 115.959 257.031 113.752 257.673Z" fill="white" stroke="#263238" stroke-miterlimit="10"/>
<path d="M101.402 235.293L110.658 273.184L130.49 268.382L123.503 229.053L101.402 235.293Z" fill="#0082AE" stroke="#263238" stroke-miterlimit="10"/>
<path d="M125.38 265.788C125.337 265.493 125.352 265.193 125.423 264.905C125.495 264.616 125.622 264.345 125.798 264.106C125.974 263.868 126.194 263.667 126.446 263.514C126.699 263.362 126.979 263.262 127.269 263.22C127.37 263.207 127.473 263.207 127.574 263.22L122.502 234.266C122.343 234.488 122.138 234.672 121.901 234.805C121.665 234.938 121.402 235.017 121.132 235.036C120.729 235.033 120.336 234.91 120.002 234.682C119.668 234.453 119.408 234.13 119.256 233.752L105.992 237.54C106.097 237.806 106.157 238.088 106.17 238.374C106.225 238.892 106.111 239.413 105.845 239.858C105.58 240.304 105.177 240.649 104.699 240.84L111.102 267.072C111.364 266.887 111.671 266.78 111.99 266.764C112.508 266.776 113.004 266.978 113.386 267.332C113.769 267.686 114.011 268.168 114.069 268.69L125.393 265.955L125.38 265.788ZM116.656 257.365C114.361 257.493 112.383 255.336 112.244 252.55C112.104 249.763 113.841 247.414 116.136 247.285C118.431 247.157 120.397 249.327 120.549 252.113C120.701 254.899 119.002 257.249 116.656 257.365Z" fill="white" stroke="#263238" stroke-miterlimit="10"/>
<path d="M112.37 232.365L110.24 271.335L130.591 272.644L135.308 232.956L112.37 232.365Z" fill="#0082AE" stroke="#263238" stroke-miterlimit="10"/>
<path d="M126.458 268.625C126.551 268.037 126.87 267.511 127.345 267.16C127.82 266.809 128.412 266.662 128.994 266.75C129.1 266.776 129.202 266.814 129.298 266.866L132.772 237.642C132.558 237.811 132.308 237.928 132.043 237.986C131.777 238.044 131.502 238.04 131.238 237.976C130.853 237.859 130.512 237.627 130.259 237.311C130.005 236.995 129.852 236.61 129.818 236.204L116.111 235.857C116.135 236.138 116.11 236.421 116.035 236.692C115.939 237.204 115.68 237.669 115.297 238.017C114.915 238.365 114.43 238.576 113.917 238.618L112.446 265.582C112.757 265.492 113.087 265.492 113.397 265.582C113.889 265.752 114.304 266.097 114.565 266.552C114.826 267.008 114.916 267.543 114.817 268.06L126.445 268.805C126.434 268.745 126.438 268.683 126.458 268.625ZM120.6 258.006C118.381 257.441 117.113 254.796 117.785 252.087C118.457 249.378 120.802 247.645 123.034 248.235C125.266 248.826 126.508 251.458 125.849 254.167C125.19 256.876 122.831 258.571 120.6 258.006Z" fill="white" stroke="#263238" stroke-miterlimit="10"/>
<path d="M154.265 270.513C152.023 270.172 149.804 269.692 147.621 269.075C146.67 268.6 139.784 266.186 134.319 263.31C128.854 260.434 124.353 263.31 116.567 264.748C108.782 266.186 106.588 266.674 106.588 268.6C106.588 270.526 110.633 271.001 110.633 271.001C110.633 271.001 106.829 271.476 108.731 274.121C109.851 275.693 111.43 276.869 113.245 277.485C114.297 279.25 115.664 280.8 117.277 282.056C119.649 283.738 121.31 285.189 121.31 285.189C122.796 287.064 124.774 288.479 127.016 289.272C130.338 290.235 149.091 284.457 149.091 284.457C149.091 284.457 154.785 286.139 156.218 283.019C157.65 279.899 154.265 270.513 154.265 270.513Z" fill="white" stroke="#263238" stroke-linecap="round" stroke-linejoin="round"/>
<path d="M110.582 271.001C110.582 271.001 124.822 270.513 129.336 269.075" stroke="#263238" stroke-linecap="round" stroke-linejoin="round"/>
<path d="M113.194 277.485C117.119 278.122 121.088 278.444 125.063 278.448C127.403 278.401 129.692 277.742 131.707 276.535" stroke="#263238" stroke-linecap="round" stroke-linejoin="round"/>
<path d="M119.192 283.507C119.192 283.507 127.498 286.075 133.14 284.226" stroke="#263238" stroke-linecap="round" stroke-linejoin="round"/>
<path d="M161.315 229.36L165.842 265.171L153.086 268.92C153.086 268.92 155.153 279.745 154.354 284.752C153.818 288.615 153.542 292.51 153.529 296.411C153.529 296.411 167.477 291.827 176.556 290.992C185.635 290.158 193.421 285.998 195.881 279.334C198.341 272.67 190.542 249.802 190.542 249.802" fill="#263238"/>
<path d="M161.315 229.36L165.842 265.171L153.086 268.92C153.086 268.92 155.153 279.745 154.354 284.752C153.818 288.615 153.542 292.51 153.529 296.411C153.529 296.411 167.477 291.827 176.556 290.992C185.635 290.158 193.421 285.998 195.881 279.334C198.341 272.67 190.542 249.802 190.542 249.802" stroke="#263238" stroke-miterlimit="10"/>
<path d="M159.629 267.868L165.842 265.171L181.565 260.896" stroke="#6B6B6B" stroke-miterlimit="10"/>
<path d="M165.842 265.171L160.96 222.876" stroke="#6B6B6B" stroke-miterlimit="10"/>
<path d="M85.4379 264.35C85.4379 264.35 82.5976 251.612 81.4056 249.199C80.2137 246.785 73.7976 253.538 73.3285 255.696C72.8593 257.853 83.5359 264.594 85.4379 264.35Z" fill="white" stroke="#263238" stroke-miterlimit="10"/>
<path d="M79.2375 237.54L73.1003 244.833C73.1003 244.833 74.8121 255.516 76.1816 255.94C77.551 256.363 87.34 248.724 87.34 248.724L79.2375 237.54Z" fill="white" stroke="#263238" stroke-miterlimit="10"/>
<path d="M90.6368 222.915C90.6368 222.915 79.9476 233.495 79.2248 237.578C78.5021 241.661 86.1101 249.365 87.0611 250.084C88.0121 250.803 94.8973 245.269 95.1256 244.306C95.3538 243.343 90.6242 235.896 90.6242 235.896C92.8029 236.977 94.9196 238.181 96.9642 239.504C97.6742 240.223 102.188 246.72 103.849 246.232C105.51 245.744 104.8 242.624 103.849 239.748C102.898 236.872 92.691 227.242 92.691 227.242L99.5762 228.924C99.5762 228.924 107.653 236.859 109.555 236.859C111.457 236.859 110.506 234.933 109.314 233.251C108.123 231.569 102.429 224.841 101.009 223.159C99.5889 221.477 94.1238 220.514 93.4011 220.514C92.6783 220.514 90.6368 222.915 90.6368 222.915Z" fill="white" stroke="#263238" stroke-linecap="round" stroke-linejoin="round"/>
<path d="M90.6369 235.896L87.3147 232.532" stroke="#263238" stroke-linecap="round" stroke-linejoin="round"/>
<path d="M83.0415 236.615L91.5878 247.195" stroke="#263238" stroke-linecap="round" stroke-linejoin="round"/>
<path d="M72.8594 243.677C72.8594 243.677 74.5205 249.442 75.4715 253.05C76.4225 256.658 85.4379 264.349 85.4379 264.349C85.4379 264.349 72.6185 278.049 61.2191 284.059C49.8198 290.068 36.4297 287.05 32.3975 282.248C28.3653 277.446 30.0263 263.502 33.3485 260.613C36.6707 257.724 55.995 254.013 60.75 251.368C65.505 248.723 72.8594 243.677 72.8594 243.677Z" fill="#263238" stroke="#263238" stroke-miterlimit="10"/>
<path d="M72.8595 243.677L41.616 259.136" stroke="#6B6B6B" stroke-miterlimit="10"/>
<path d="M68.8018 245.705V230.939" stroke="#6B6B6B" stroke-miterlimit="10"/>
<path d="M276.728 570.481C276.728 570.481 272.924 571.572 262.78 563.958C252.636 556.344 240.768 545.468 240.768 545.468C240.768 545.468 252.484 543.876 257.898 540.987C263.858 537.79 270.832 530.24 270.832 530.24C270.832 530.24 294.455 562.867 323.999 560.697C323.487 563.478 322.288 566.083 320.514 568.27C318.741 570.456 316.45 572.153 313.855 573.203C304.65 577.004 276.728 570.481 276.728 570.481Z" fill="#0082AE" stroke="#263238" stroke-linejoin="round"/>
<path d="M315.06 564.434C315.06 564.434 289.979 557.77 276.424 543.196C275.771 543.377 275.086 543.408 274.42 543.287C273.753 543.167 273.122 542.898 272.571 542.499C272.02 542.101 271.563 541.584 271.234 540.985C270.904 540.386 270.711 539.72 270.667 539.036C265.928 543.542 259.853 546.336 253.384 546.984C253.384 546.984 253.79 549.899 252.56 550.733C252.56 550.733 271.884 567.811 282.992 569.891C290.702 571.452 298.593 571.885 306.425 571.175C309.807 570.813 312.983 569.354 315.478 567.015C315.478 567.015 311.357 566.103 315.06 564.434ZM291.374 563.496C290.473 565.743 285.997 566.064 281.369 564.113C276.741 562.161 273.761 558.861 274.598 556.627C275.435 554.393 279.974 554.059 284.602 556.011C289.231 557.962 292.261 561.262 291.374 563.496Z" fill="white" stroke="#263238" stroke-miterlimit="10"/>
<path d="M272.924 569.8C272.924 569.8 285.858 575.193 296.065 575.193C302.039 575.227 307.996 574.559 313.817 573.203C313.817 573.203 310.33 575.129 304.662 571.444C301.429 569.338 299.349 564.651 299.349 564.651C290.819 567.599 281.926 569.332 272.924 569.8Z" fill="#0082AE" stroke="#263238" stroke-linejoin="round"/>
<path d="M418.212 514.961C418.212 514.961 441.758 507.116 455.529 497.807L470.174 522.203C470.174 522.203 435.152 549.821 425.959 542.554L418.212 514.961Z" fill="#0082AE" stroke="#263238" stroke-linejoin="round"/>
<path d="M460.132 520.778C460.161 520.074 460.416 519.399 460.858 518.855C461.299 518.311 461.903 517.926 462.579 517.76L456.074 506.833C455.531 507.021 454.961 507.116 454.388 507.116C453.691 507.154 452.995 507.019 452.361 506.724C451.727 506.429 451.174 505.981 450.748 505.421C438.588 514.037 419.936 518.453 419.936 518.453L423.664 533.284C423.664 533.284 423.093 541.424 433.136 539.383C440.921 537.803 455.567 527.827 461.793 523.474C461.304 523.215 460.892 522.829 460.599 522.355C460.307 521.881 460.146 521.336 460.132 520.778ZM435.038 531.692C430.638 532.706 426.542 531.191 425.883 528.302C425.224 525.413 428.267 522.228 432.667 521.201C437.067 520.174 441.175 521.702 441.834 524.591C442.494 527.48 439.451 530.664 435.038 531.692Z" fill="white" stroke="#263238" stroke-miterlimit="10"/>
<path d="M414.763 503.918L430.841 536.185C430.841 536.185 425.389 539.087 425.959 542.605L410.464 511.789C410.464 511.789 408.448 506.82 414.763 503.918Z" fill="#0082AE" stroke="#263238" stroke-linejoin="round"/>
<path d="M411.834 514.498L423.778 538.227C424.287 537.086 425.188 536.173 426.314 535.659L413.038 512.059L411.834 514.498Z" fill="white" stroke="#263238" stroke-miterlimit="10"/>
<path d="M240.273 334.855L240.527 396.705L272.404 396.564L272.506 333.455L240.273 334.855Z" fill="#0082AE" stroke="#263238" stroke-miterlimit="10"/>
<path d="M265.418 390.632C265.445 390.17 265.563 389.718 265.764 389.303C265.966 388.888 266.248 388.517 266.593 388.214C266.937 387.91 267.338 387.679 267.772 387.534C268.206 387.389 268.665 387.334 269.12 387.37C269.28 387.404 269.437 387.451 269.589 387.511L269.526 340.427C269.244 340.685 268.908 340.875 268.544 340.984C268.18 341.093 267.796 341.118 267.421 341.056C266.862 340.917 266.356 340.616 265.964 340.189C265.572 339.763 265.312 339.23 265.215 338.655L245.992 339.49C246.054 339.89 246.054 340.297 245.992 340.697C245.928 341.428 245.625 342.116 245.131 342.653C244.637 343.191 243.981 343.546 243.266 343.663V387.319C243.732 387.129 244.24 387.071 244.736 387.152C245.527 387.384 246.212 387.888 246.675 388.577C247.138 389.266 247.349 390.097 247.272 390.927L265.481 390.85C265.418 390.747 265.405 390.683 265.418 390.632ZM254.868 374.376C251.33 373.721 248.997 369.651 249.656 365.273C250.316 360.894 253.752 357.877 257.264 358.544C260.777 359.212 263.148 363.27 262.476 367.648C261.804 372.026 258.367 375.044 254.868 374.376Z" fill="white" stroke="#263238" stroke-miterlimit="10"/>
<path d="M538.342 73.1494L493.886 118.166L517.09 141.664L562.713 96.0046L538.342 73.1494Z" fill="#0082AE" stroke="#263238" stroke-miterlimit="10"/>
<path d="M516.304 132.252C516.658 131.931 517.072 131.687 517.521 131.531C517.97 131.376 518.445 131.314 518.918 131.349C519.391 131.384 519.853 131.515 520.275 131.734C520.697 131.953 521.072 132.255 521.376 132.624C521.472 132.769 521.553 132.924 521.617 133.086L555.536 98.8677C555.144 98.8471 554.761 98.7372 554.416 98.546C554.071 98.3548 553.774 98.0873 553.545 97.7634C553.241 97.248 553.092 96.6538 553.117 96.0539C553.142 95.4539 553.339 94.8744 553.685 94.3865L539.128 80.7119C538.879 81.0475 538.585 81.3458 538.253 81.5979C537.679 82.0821 536.96 82.3568 536.213 82.3777C535.465 82.3987 534.733 82.1647 534.132 81.7134L502.597 113.3C503.07 113.499 503.479 113.828 503.776 114.25C504.193 115.002 504.335 115.879 504.177 116.726C504.02 117.574 503.573 118.338 502.914 118.885L516.165 132.316L516.304 132.252ZM520.362 112.632C518.257 109.538 519.512 104.851 523.151 102.168C526.791 99.484 531.457 99.8435 533.549 102.938C535.641 106.032 534.386 110.732 530.747 113.403C527.108 116.073 522.416 115.675 520.362 112.568V112.632Z" fill="white" stroke="#263238" stroke-miterlimit="10"/>
<path d="M232.044 261.858L293.897 237.09L281.128 204.399L217.868 229.296L232.044 261.858Z" fill="#0082AE" stroke="#263238" stroke-miterlimit="10"/>
<path d="M277.946 213.927C275.701 214.428 273.584 213.31 273.216 211.359C273.203 211.175 273.203 210.99 273.216 210.807L226.059 229.527C226.432 229.716 226.757 229.986 227.012 230.32C227.267 230.653 227.444 231.041 227.53 231.453C227.61 232.081 227.507 232.72 227.234 233.29C226.962 233.86 226.532 234.337 225.996 234.663L234.428 254.232C234.825 254.012 235.253 253.852 235.696 253.756C236.453 253.53 237.263 253.568 237.997 253.864C238.73 254.16 239.344 254.696 239.741 255.387L283.474 238.156C283.094 237.764 282.834 237.269 282.726 236.731C282.627 235.821 282.851 234.906 283.357 234.148C283.863 233.391 284.62 232.841 285.49 232.596L278.186 213.914L277.946 213.927ZM265.874 231.248C266.622 235.1 263.465 239.17 258.811 240.236C254.158 241.302 249.796 238.952 249.048 235.1C248.3 231.248 251.457 227.19 256.111 226.112C260.764 225.033 265.126 227.345 265.874 231.248Z" fill="white" stroke="#263238" stroke-miterlimit="10"/>
<path d="M450.356 72.9441C450.356 72.9441 454.16 73.9584 459.054 85.7841C463.949 97.6097 468.64 113.069 468.64 113.069C468.64 113.069 457.761 108.37 451.649 108.049C444.903 107.702 435.102 110.617 435.102 110.617C435.102 110.617 431.298 70.3376 404.809 56.9198C406.652 54.7732 409.004 53.1367 411.644 52.1641C414.283 51.1915 417.124 50.9148 419.898 51.36C429.662 52.8751 450.356 72.9441 450.356 72.9441Z" fill="#0082AE" stroke="#263238" stroke-linejoin="round"/>
<path d="M414.37 58.2806C414.37 58.2806 432.553 77.0399 436.851 96.5438C437.502 96.7295 438.105 97.0591 438.615 97.5088C439.126 97.9585 439.531 98.5172 439.803 99.1446C440.075 99.7721 440.205 100.453 440.186 101.137C440.167 101.822 439.998 102.494 439.692 103.105C446.038 101.71 452.662 102.478 458.534 105.288C458.534 105.288 459.65 102.566 461.133 102.489C461.133 102.489 453.145 77.8102 444.649 70.2732C438.801 64.9442 432.23 60.4906 425.135 57.048C422.044 55.6172 418.582 55.23 415.257 55.9437C415.257 55.9437 418.44 58.7685 414.37 58.2806ZM434.252 71.3517C436.141 69.9008 440.135 71.9809 443.128 76.0126C446.12 80.0444 447.059 84.4871 445.157 85.9508C443.255 87.4146 439.273 85.3216 436.281 81.2899C433.288 77.2581 432.388 72.8155 434.252 71.3517Z" fill="white" stroke="#263238" stroke-miterlimit="10"/>
<path d="M453.285 75.4986C453.285 75.4986 444.89 64.1994 436.116 58.8708C431.014 55.7432 425.572 53.2227 419.898 51.3594C419.898 51.3594 423.867 51.5135 426.872 57.6125C428.584 61.1049 428.013 66.2024 428.013 66.2024C436.821 68.1036 445.326 71.2321 453.285 75.4986Z" fill="#0082AE" stroke="#263238" stroke-linejoin="round"/>
<path d="M122.222 40.5742L128.347 63.301C128.347 63.301 97.7374 86.2589 51.4934 79.8261L54.0294 55.2632C54.0294 55.2632 72.1618 58.9354 88.7092 55.4943C105.257 52.0532 122.222 40.5742 122.222 40.5742Z" fill="#0082AE" stroke="#263238" stroke-miterlimit="10"/>
<path d="M118.723 62.2992C118.787 61.7404 119.018 61.2146 119.385 60.7924C119.752 60.3702 120.238 60.0716 120.777 59.9366L117.163 49.8316C116.636 50.0103 116.084 50.1014 115.528 50.1012C114.571 50.1171 113.634 49.8249 112.852 49.2666C107.78 51.963 98.2574 56.6624 88.76 58.6526C80.1091 60.2245 71.2861 60.5874 62.5378 59.7312C62.199 60.0988 61.7821 60.3835 61.3185 60.5637C60.855 60.7439 60.357 60.8149 59.8623 60.7712L58.6577 74.5357C58.962 74.5357 59.279 74.5357 59.596 74.5357C62.132 74.5357 64.1228 75.3061 64.1228 76.2563C64.107 76.4088 64.0563 76.5554 63.9749 76.6847C63.8935 76.8139 63.7835 76.9222 63.6536 77.001C93.0332 78.1309 113.6 67.8461 119.839 64.2509C119.508 64.0447 119.232 63.7584 119.037 63.4177C118.843 63.077 118.735 62.6927 118.723 62.2992ZM89.6476 69.4768C85.1589 70.3884 81.2281 69.618 80.8604 67.7562C80.4927 65.8944 83.8275 63.6602 88.3162 62.7486C92.805 61.837 96.7358 62.6074 97.1035 64.4692C97.4712 66.331 94.1364 68.5651 89.6476 69.4768Z" fill="white" stroke="#263238" stroke-miterlimit="10"/>
<path d="M535.197 546.688L541.309 569.415C541.309 569.415 510.712 592.373 464.456 585.94L466.992 561.377C466.992 561.377 485.124 565.05 501.684 561.609C518.244 558.167 535.197 546.688 535.197 546.688Z" fill="#0082AE" stroke="#263238" stroke-miterlimit="10"/>
<path d="M531.685 568.427C531.747 567.866 531.976 567.337 532.344 566.913C532.711 566.488 533.198 566.187 533.739 566.052L530.125 555.972C529.596 556.14 529.045 556.227 528.49 556.229C527.514 556.255 526.555 555.968 525.751 555.407C520.793 558.091 511.22 562.79 501.735 564.78C493.084 566.352 484.261 566.715 475.513 565.859C475.174 566.227 474.757 566.511 474.293 566.691C473.83 566.872 473.332 566.943 472.837 566.899L471.696 580.664C472 580.664 472.317 580.664 472.647 580.664C475.183 580.664 477.161 581.421 477.161 582.371C477.145 582.524 477.095 582.67 477.013 582.8C476.932 582.929 476.822 583.037 476.692 583.116C506.072 584.259 526.638 573.974 532.89 570.366C532.544 570.172 532.252 569.892 532.041 569.553C531.831 569.214 531.708 568.827 531.685 568.427ZM502.61 575.592C498.121 576.503 494.19 575.733 493.823 573.884C493.455 572.035 496.79 569.775 501.278 568.864C505.767 567.952 509.698 568.735 510.066 570.584C510.433 572.433 507.099 574.693 502.61 575.592Z" fill="white" stroke="#263238" stroke-miterlimit="10"/>
<path d="M214.596 69.541C214.596 69.541 238.13 61.6957 251.913 52.3867L266.559 76.7827C266.559 76.7827 231.537 104.427 222.344 97.1598L214.596 69.541Z" fill="#0082AE" stroke="#263238" stroke-linejoin="round"/>
<path d="M256.504 75.3576C256.536 74.6529 256.794 73.9779 257.237 73.4339C257.681 72.8898 258.286 72.5061 258.964 72.3402L252.446 61.4134C251.908 61.602 251.342 61.6975 250.772 61.6959C250.075 61.7337 249.38 61.5992 248.746 61.3039C248.112 61.0086 247.558 60.5614 247.133 60.001C234.973 68.6166 216.321 73.0336 216.321 73.0336L220.049 87.8638C220.049 87.8638 219.478 96.0043 229.521 93.9628C237.294 92.3835 251.939 82.4068 258.177 78.054C257.686 77.7971 257.271 77.4115 256.977 76.9373C256.683 76.463 256.519 75.9175 256.504 75.3576ZM231.423 86.2716C227.023 87.286 222.914 85.7709 222.268 82.8819C221.621 79.9929 224.652 76.8085 229.052 75.7813C233.451 74.7541 237.56 76.2821 238.219 79.1839C238.879 82.0858 235.848 85.2444 231.423 86.2716Z" fill="white" stroke="#263238" stroke-miterlimit="10"/>
<path d="M211.147 58.499L227.226 90.7659C227.226 90.7659 221.773 93.6678 222.344 97.1859L206.836 66.3699C206.836 66.3699 204.833 61.4009 211.147 58.499Z" fill="#0082AE" stroke="#263238" stroke-linejoin="round"/>
<path d="M208.218 69.0792L220.15 92.8076C220.658 91.6674 221.56 90.7543 222.686 90.2396L209.423 66.6396L208.218 69.0792Z" fill="white" stroke="#263238" stroke-miterlimit="10"/>
<path d="M411.479 212.656L367.022 257.673L390.227 281.158L435.862 235.499L411.479 212.656Z" fill="#0082AE" stroke="#263238" stroke-miterlimit="10"/>
<path d="M389.453 271.694C389.807 271.374 390.221 271.129 390.67 270.974C391.119 270.819 391.594 270.757 392.067 270.792C392.541 270.827 393.002 270.957 393.424 271.176C393.847 271.395 394.221 271.698 394.525 272.067C394.617 272.213 394.693 272.367 394.754 272.529L428.711 238.349C428.319 238.332 427.937 238.224 427.594 238.032C427.25 237.84 426.956 237.571 426.733 237.245C426.427 236.73 426.276 236.137 426.298 235.537C426.321 234.937 426.516 234.357 426.859 233.868L412.303 220.219C412.057 220.553 411.762 220.848 411.428 221.092C410.856 221.58 410.137 221.858 409.389 221.882C408.641 221.905 407.908 221.672 407.307 221.22L375.772 252.794C376.245 252.999 376.653 253.332 376.951 253.757C377.368 254.509 377.51 255.386 377.352 256.233C377.194 257.081 376.747 257.845 376.089 258.392L389.276 271.81L389.453 271.694ZM393.498 252.075C391.406 248.968 392.661 244.294 396.301 241.61C399.94 238.927 404.593 239.286 406.686 242.381C408.778 245.475 407.535 250.162 403.883 252.845C400.231 255.529 395.616 255.169 393.498 252.075Z" fill="white" stroke="#263238" stroke-miterlimit="10"/>
<path d="M492.745 322.489L553.495 328.909L556.791 296.809L494.85 289.889L492.745 322.489Z" fill="#0082AE" stroke="#263238" stroke-miterlimit="10"/>
<path d="M550.21 303.191C549.761 303.113 549.331 302.946 548.946 302.699C548.56 302.451 548.228 302.129 547.967 301.75C547.706 301.371 547.522 300.944 547.426 300.492C547.33 300.041 547.324 299.574 547.408 299.12C547.463 298.961 547.53 298.806 547.611 298.658L501.367 293.638C501.591 293.95 501.743 294.31 501.811 294.69C501.879 295.07 501.862 295.461 501.76 295.833C501.568 296.372 501.227 296.842 500.777 297.189C500.327 297.535 499.788 297.742 499.224 297.785L497.956 317.263C498.357 317.249 498.759 317.293 499.148 317.392C499.86 317.537 500.504 317.919 500.978 318.477C501.451 319.036 501.726 319.738 501.76 320.473L544.58 325.237C544.441 324.751 544.441 324.234 544.58 323.747C544.885 322.968 545.451 322.322 546.179 321.923C546.907 321.524 547.751 321.397 548.562 321.565L550.439 303.229L550.21 303.191ZM533.118 312.179C532.091 315.671 527.843 317.584 523.62 316.442C519.398 315.299 516.799 311.524 517.826 308.031C518.853 304.539 523.113 302.626 527.336 303.768C531.558 304.911 534.145 308.609 533.118 312.114V312.179Z" fill="white" stroke="#263238" stroke-miterlimit="10"/>
<path d="M561.952 380.616C561.952 380.616 565.756 381.631 570.651 393.456C575.545 405.282 580.224 420.741 580.224 420.741C580.224 420.741 569.357 416.042 563.233 415.721C556.5 415.374 546.749 418.289 546.749 418.289C546.749 418.289 542.945 378.01 516.456 364.592C518.307 362.463 520.661 360.844 523.298 359.887C525.934 358.93 528.768 358.667 531.533 359.122C541.246 360.547 561.952 380.616 561.952 380.616Z" fill="#0082AE" stroke="#263238" stroke-linejoin="round"/>
<path d="M525.954 365.939C525.954 365.939 544.149 384.66 548.448 404.215C549.1 404.397 549.704 404.724 550.216 405.172C550.727 405.62 551.134 406.178 551.406 406.806C551.678 407.433 551.809 408.113 551.788 408.798C551.768 409.483 551.597 410.154 551.288 410.764C557.628 409.361 564.248 410.119 570.118 412.921C570.118 412.921 571.247 410.199 572.717 410.122C572.717 410.122 564.742 385.443 556.233 377.906C550.397 372.567 543.834 368.105 536.744 364.655C533.654 363.225 530.191 362.837 526.867 363.551C526.867 363.551 530.024 366.44 525.954 365.939ZM545.836 379.01C547.738 377.56 551.719 379.64 554.712 383.671C557.704 387.703 558.643 392.146 556.741 393.61C554.839 395.073 550.857 392.98 547.865 388.949C544.872 384.917 543.972 380.487 545.836 379.023V379.01Z" fill="white" stroke="#263238" stroke-miterlimit="10"/>
<path d="M564.869 383.171C564.869 383.171 556.474 371.833 547.713 366.543C542.604 363.431 537.158 360.928 531.482 359.083C531.482 359.083 535.464 359.237 538.456 365.336C540.181 368.829 539.597 373.926 539.597 373.926C548.403 375.809 556.908 378.92 564.869 383.171Z" fill="#0082AE" stroke="#263238" stroke-linejoin="round"/>
<path d="M532.56 232.186C532.56 232.186 512.031 246.246 501.278 259.009L480.572 239.569C480.572 239.569 506.807 203.309 517.61 207.764L532.56 232.186Z" fill="#0082AE" stroke="#263238" stroke-linejoin="round"/>
<path d="M490.716 238.195C490.876 238.879 490.812 239.598 490.533 240.242C490.254 240.886 489.775 241.421 489.169 241.764L498.375 250.483C498.847 250.155 499.37 249.908 499.922 249.751C500.581 249.521 501.286 249.457 501.975 249.564C502.664 249.672 503.317 249.947 503.878 250.367C513.261 238.721 530.011 229.31 530.011 229.31L522.403 216.072C522.403 216.072 520.755 208.085 511.638 212.823C504.588 216.495 493.176 230.093 488.37 236.064C488.914 236.172 489.42 236.427 489.833 236.803C490.245 237.178 490.551 237.659 490.716 238.195ZM511.904 220.758C515.86 218.55 520.222 218.884 521.63 221.477C523.037 224.071 520.97 227.987 517.014 230.183C513.058 232.378 508.696 232.057 507.276 229.451C505.856 226.844 507.897 222.954 511.866 220.758H511.904Z" fill="white" stroke="#263238" stroke-miterlimit="10"/>
<path d="M538.9 241.854L514.732 215.262C514.732 215.262 519.195 210.961 517.699 207.764L540.929 233.11C540.929 233.11 544.15 237.309 538.9 241.854Z" fill="#0082AE" stroke="#263238" stroke-linejoin="round"/>
<path d="M538.824 230.863L520.945 211.347C520.781 212.587 520.183 213.726 519.259 214.557L538.279 233.547L538.824 230.863Z" fill="white" stroke="#263238" stroke-miterlimit="10"/>
<path d="M12.2488 594.723H618.784" stroke="#263238" stroke-linecap="round" stroke-linejoin="round"/>
</svg>
